<?xml version="1.0" encoding="utf-8"?>
<!-- Generator: Adobe Illustrator 17.0.0, SVG Export Plug-In . SVG Version: 6.00 Build 0)  -->
<!DOCTYPE svg PUBLIC "-//W3C//DTD SVG 1.1//EN" "http://www.w3.org/Graphics/SVG/1.1/DTD/svg11.dtd">
<svg version="1.1" id="Capa_1" xmlns="http://www.w3.org/2000/svg" xmlns:xlink="http://www.w3.org/1999/xlink" x="0px" y="0px"
	 width="36px" height="36px" viewBox="0 0 36 36" enable-background="new 0 0 36 36" xml:space="preserve">
<g>
	<path fill="#FFFFFF" d="M20.254,14.277c0.184-0.186,0.182-0.486-0.004-0.671c-0.186-0.184-0.487-0.183-0.671,0.004
		c-0.338,0.342-0.995,0.943-1.315,1.099c-0.226,0.11-0.327,0.377-0.23,0.609c0.075,0.181,0.251,0.292,0.438,0.292
		c0.052,0,0.105-0.009,0.156-0.027c1.115-0.39,3.573-0.491,4.595-0.282c0.184,0.038,0.372-0.036,0.481-0.189
		c0.109-0.152,0.118-0.354,0.023-0.516c-0.292-0.497-1.824-1.856-2.595-2.143c-0.246-0.092-0.519,0.033-0.61,0.279
		c-0.092,0.245,0.033,0.519,0.279,0.61c0.287,0.107,0.823,0.509,1.286,0.908c-0.589-0.013-1.249,0.012-1.879,0.074
		C20.229,14.303,20.245,14.286,20.254,14.277z"/>
	<path fill="#FFFFFF" d="M17.669,22.103c1.319,0,2.798-0.83,2.931-2.653c0.076-1.053-0.155-1.599-0.359-2.081
		c-0.118-0.278-0.216-0.511-0.244-0.836c0.758-0.198,1.63-0.232,2.894-0.123c0.262,0.022,0.491-0.171,0.513-0.432
		c0.023-0.261-0.171-0.491-0.432-0.513c-1.589-0.137-2.633-0.06-3.604,0.266c-0.184,0.062-0.312,0.23-0.322,0.424
		c-0.04,0.732,0.152,1.184,0.321,1.584c0.178,0.42,0.346,0.818,0.286,1.642c-0.042,0.585-0.273,1.041-0.687,1.356
		c-0.348,0.265-0.821,0.417-1.298,0.417c-0.579,0-1.06-0.129-1.389-0.373c-0.334-0.248-0.527-0.626-0.575-1.124
		c-0.064-0.664-0.007-1.597,0.629-2.274c0.179-0.191,0.17-0.491-0.021-0.67c-0.191-0.179-0.491-0.17-0.67,0.021
		c-0.485,0.516-1.032,1.459-0.881,3.015C14.903,21.223,15.991,22.103,17.669,22.103z"/>
	<path fill="#FFFFFF" d="M13.746,17.03c-0.004,0-0.007,0-0.011,0c-0.454,0.01-0.756-0.245-0.95-0.803
		c-0.086-0.247-0.356-0.378-0.604-0.292c-0.247,0.086-0.378,0.356-0.292,0.604c0.188,0.541,0.673,1.44,1.816,1.44
		c0.017,0,0.034,0,0.051-0.001c0.262-0.006,0.469-0.223,0.463-0.485C14.214,17.235,14.003,17.03,13.746,17.03z"/>
	<path fill="#FFFFFF" d="M15.736,23.056c0.05-0.257-0.117-0.506-0.374-0.556c-0.257-0.05-0.506,0.117-0.556,0.374
		c-0.14,0.715-0.09,2.279,0.638,3.434c0.09,0.143,0.244,0.221,0.402,0.221c0.086,0,0.174-0.024,0.252-0.073
		c0.222-0.14,0.288-0.433,0.148-0.654C15.701,24.938,15.62,23.653,15.736,23.056z"/>
	<path fill="#FFFFFF" d="M17.403,12.714c-0.109,0.092-0.124,0.255-0.032,0.364c0.103,0.123,0.138,0.242,0.104,0.353
		c-0.042,0.137,0.035,0.281,0.171,0.323c0.025,0.008,0.051,0.011,0.076,0.011c0.111,0,0.213-0.072,0.247-0.183
		c0.05-0.163,0.091-0.489-0.202-0.837C17.675,12.637,17.512,12.623,17.403,12.714z"/>
	<path fill="#FFFFFF" d="M20.114,9.746c0.131,0.165,0.325,0.256,0.544,0.256c0.539,0,1.043-0.356,1.576-0.733
		c0.455-0.322,0.925-0.654,1.336-0.699c-0.008,0.258-0.172,1.111-1.538,3.47c-0.131,0.227-0.054,0.517,0.173,0.648
		c0.075,0.043,0.157,0.064,0.237,0.064c0.164,0,0.323-0.085,0.411-0.237c0.505-0.872,0.901-1.635,1.18-2.268
		c0.499-1.136,0.606-1.803,0.358-2.233c-0.148-0.256-0.406-0.397-0.729-0.397c-0.734,0-1.393,0.467-1.975,0.878
		c-0.269,0.19-0.564,0.399-0.797,0.499c0.028-0.26,0.121-0.657,0.183-0.924c0.199-0.858,0.356-1.536,0.032-1.944
		c-0.135-0.17-0.334-0.263-0.561-0.263c-0.701,0-1.122,0.689-1.528,1.356c-0.192,0.314-0.543,0.891-0.739,0.927
		c-0.12-0.151-0.179-0.775-0.204-1.047c-0.026-0.271-0.05-0.527-0.102-0.735c-0.14-0.561-0.483-0.645-0.675-0.645
		c-0.211,0-0.504,0.097-0.699,0.558c-0.084,0.197-0.145,0.436-0.209,0.689c-0.062,0.244-0.185,0.727-0.306,0.881
		c-0.105-0.166-0.192-0.642-0.236-0.884c-0.045-0.245-0.087-0.476-0.151-0.666c-0.171-0.503-0.493-0.578-0.669-0.578
		c-0.232,0-0.543,0.116-0.704,0.667c-0.066,0.227-0.107,0.509-0.147,0.781c-0.024,0.167-0.06,0.412-0.099,0.581
		c-0.161-0.065-0.369-0.172-0.489-0.234c-0.401-0.207-0.666-0.344-0.943-0.239c-0.138,0.052-0.248,0.161-0.302,0.298
		c-0.106,0.272-0.075,0.812-0.03,1.218c0.029,0.26,0.263,0.448,0.524,0.419c0.26-0.029,0.448-0.263,0.419-0.524
		c-0.01-0.094-0.019-0.193-0.025-0.289c0.351,0.18,0.71,0.354,1.034,0.354c0.232,0,0.543-0.116,0.704-0.667
		c0.03-0.101,0.054-0.213,0.075-0.33c0.032,0.122,0.07,0.24,0.115,0.35c0.244,0.594,0.634,0.719,0.917,0.719
		c0.642,0,0.927-0.578,1.105-1.157c0.028,0.214,0.067,0.428,0.128,0.618c0.228,0.707,0.694,0.812,0.951,0.812
		c0.723,0,1.171-0.735,1.567-1.384C19.985,7.452,20.149,7.182,20.307,7c0.007-0.008,0.013-0.015,0.02-0.022
		c-0.036,0.266-0.12,0.627-0.178,0.878C19.954,8.692,19.801,9.352,20.114,9.746z"/>
	<path fill="#FFFFFF" d="M15.823,14.314c0.543,0,0.969-0.414,0.969-0.943c0-0.271-0.18-0.54-0.481-0.718
		c-0.459-0.272-1.052-0.259-1.586,0.034c-0.23,0.126-0.313,0.414-0.187,0.644c0.062,0.112,0.162,0.19,0.276,0.225
		C14.906,14.023,15.282,14.314,15.823,14.314z"/>
	<path fill="#FFFFFF" d="M32.659-0.022H3.341C1.499-0.022,0,1.477,0,3.32v22.758v3.794c0.375-0.945,0.884-2.135,1.509-3.46
		c1.088-2.307,2.525-5.026,4.214-7.582c3.477-5.262,6.847-8.043,9.745-8.043c1.364,0,3.066,1.07,3.857,1.703
		c0.325,0.26,0.8,0.208,1.061-0.118c0.26-0.325,0.208-0.8-0.118-1.061c-0.194-0.155-0.899-0.699-1.84-1.187
		c-1.082-0.562-2.078-0.847-2.96-0.847c-1.911,0-3.916,0.904-5.959,2.686c-1.655,1.443-3.352,3.473-5.045,6.035
		c-1.097,1.66-2.09,3.387-2.955,5.033V3.32c0-1.01,0.822-1.832,1.832-1.832h29.317c1.01,0,1.832,0.822,1.832,1.832v29.317
		c0,1.01-0.822,1.832-1.832,1.832h-7.574c0.495-0.599,0.884-1.462,0.884-2.695c0-1.776-0.335-3.599-0.92-5.002
		c-0.728-1.746-1.802-2.708-3.025-2.708c-0.742,0-1.455,0.332-2.122,0.987c-0.105,0.103-0.208,0.216-0.309,0.334
		c-0.248-0.705-0.38-1.603-0.393-2.193c-0.009-0.411-0.345-0.738-0.754-0.738c-0.006,0-0.011,0-0.017,0
		c-0.417,0.009-0.747,0.354-0.738,0.771c0.001,0.025,0.061,2.246,0.931,3.612c-0.048,0.091-0.096,0.182-0.143,0.277
		c-0.738,1.489-1.234,3.344-1.234,4.616c0,1.096,0.424,2.027,1.04,2.738c0.717,0.829,1.694,1.36,2.562,1.509
		c0.166,0.029,0.328,0.043,0.484,0.043c0.161,0,0.405-0.008,0.7-0.043h10.627c1.842,0,3.341-1.499,3.341-3.341V3.32
		C36,1.477,34.501-0.022,32.659-0.022z M18.754,31.732c0-0.854,0.337-2.453,1.077-3.946c0.687-1.385,1.506-2.212,2.193-2.212
		c0.566,0,1.16,0.649,1.632,1.779c0.504,1.208,0.804,2.861,0.804,4.422c0,1.038-0.363,1.766-1.11,2.224
		c-0.465,0.285-0.987,0.414-1.402,0.471c-0.26,0.036-0.479,0.043-0.616,0.043c-0.106,0-0.223-0.015-0.346-0.043
		C20.056,34.256,18.754,33.255,18.754,31.732z"/>
</g>
</svg>
