<?xml version="1.0" encoding="utf-8"?>
<!-- Generator: Adobe Illustrator 17.0.0, SVG Export Plug-In . SVG Version: 6.00 Build 0)  -->
<!DOCTYPE svg PUBLIC "-//W3C//DTD SVG 1.1//EN" "http://www.w3.org/Graphics/SVG/1.1/DTD/svg11.dtd">
<svg version="1.1" id="Capa_1" xmlns="http://www.w3.org/2000/svg" xmlns:xlink="http://www.w3.org/1999/xlink" x="0px" y="0px"
	 width="36px" height="36px" viewBox="0 0 36 36" enable-background="new 0 0 36 36" xml:space="preserve">
<g>
	<path fill="#FFFFFF" d="M18.166,19.784c0.093,0.093,0.215,0.14,0.337,0.14c0.121,0,0.242-0.046,0.335-0.138
		c0.185-0.185,0.186-0.484,0.001-0.669c-0.031-0.033-0.141-0.174-0.221-0.278c-0.122-0.157-0.261-0.335-0.379-0.474
		c-0.17-0.199-0.47-0.222-0.669-0.052c-0.199,0.17-0.222,0.47-0.052,0.669c0.105,0.122,0.236,0.291,0.352,0.44
		C18.023,19.618,18.106,19.723,18.166,19.784z"/>
	<path fill="#FFFFFF" d="M9.883,15.201c0.055,0,0.11-0.004,0.162-0.012c0.445-0.066,0.751-0.394,0.991-0.706
		c0.054-0.07,0.071-0.161,0.045-0.246l-0.01-0.032c-0.208-0.688-0.522-1.728-1.591-1.728c-0.546,0-0.982,0.267-1.166,0.714
		c-0.196,0.477-0.05,1.039,0.381,1.466C9.04,14.997,9.483,15.201,9.883,15.201z"/>
	<path fill="#FFFFFF" d="M22.273,16.036c0.34,0,0.49-0.318,0.59-0.528c0.061-0.128,0.168-0.379,0.201-0.616
		c0.054-0.387-0.114-0.743-0.24-0.887c-0.135-0.155-0.295-0.178-0.378-0.178c-0.084,0-0.259,0-0.549,0.328
		c-0.121,0.137-0.274,0.354-0.316,0.612c-0.069,0.422,0.171,0.922,0.308,1.084C22.026,16.012,22.188,16.036,22.273,16.036z"/>
	<path fill="#FFFFFF" d="M32.659,0H3.341C1.499,0,0,1.499,0,3.341v29.317C0,34.501,1.499,36,3.341,36h1.15h1.517
		c0.045-0.427,0.099-0.939,0.156-1.509c0.355-3.535,0.859-9.317,0.55-10.969c-0.363-1.941-1.464-2.466-2.398-2.842
		c0.162-0.488,0.302-1.021,0.406-1.435c0.059-0.237,0-0.488-0.159-0.674c-0.224-0.261-0.576-0.585-0.948-0.928
		c-0.066-0.061-0.133-0.123-0.199-0.184c0.129-0.109,0.278-0.215,0.418-0.314c0.382-0.27,0.777-0.55,0.937-0.995
		c0.215-0.595-0.137-1.139-0.42-1.576c-0.026-0.039-0.056-0.087-0.087-0.136c0.299-0.085,0.69-0.176,0.966-0.24
		c0.926-0.216,1.465-0.35,1.772-0.587c0.171-0.132,0.276-0.331,0.291-0.546c0.014-0.215-0.064-0.426-0.216-0.58
		c-0.262-0.265-0.61-0.627-0.923-0.964c0.278-0.088,0.536-0.18,0.757-0.287c0.208-0.102,0.358-0.294,0.406-0.521
		c0.048-0.227-0.011-0.463-0.16-0.641C7.01,9.894,6.855,9.691,6.693,9.471c0.229-0.003,0.416-0.01,0.524-0.019
		c0.328-0.027,0.6-0.264,0.673-0.585c0.041-0.18,0.043-0.392,0.023-0.679c0.089,0.058,0.174,0.113,0.252,0.165
		c0.322,0.215,0.755,0.15,1.001-0.149c0.109-0.133,0.231-0.286,0.355-0.458c0.438,0.372,0.846,0.704,0.872,0.725
		c0.187,0.152,0.436,0.206,0.669,0.144c0.112-0.03,0.235-0.078,0.421-0.151c0.878-0.344,2.935-1.151,5.342-0.439
		c3.053,0.903,4.133,1.862,4.201,1.925c0.213,0.225,0.53,0.282,0.817,0.166c0.032-0.013,0.529-0.215,1.093-0.492
		c0.069,0.239,0.137,0.443,0.187,0.591c0.014,0.043,0.027,0.081,0.038,0.115c0.115,0.351,0.466,0.567,0.83,0.512
		c0.052-0.007,0.196-0.004,0.331,0c-0.126,0.275-0.253,0.548-0.346,0.715c-0.193,0.346-0.085,0.782,0.246,0.999
		c0.155,0.101,0.388,0.294,0.607,0.483l-1.202,0.923c-0.214,0.164-0.324,0.43-0.288,0.698c0.043,0.321,0.166,0.578,0.284,0.826
		c0.026,0.054,0.051,0.108,0.076,0.161c-0.243,0.29-0.541,0.623-0.704,0.773c-0.125,0.115-0.208,0.269-0.234,0.437
		c-0.02,0.123-0.055,0.296-0.094,0.48c-0.038,0.185-0.078,0.374-0.109,0.551c-0.367,0.234-0.723,0.464-0.728,0.467
		c-0.042,0.027-0.081,0.058-0.116,0.092c-0.41-0.382-0.832-0.977-1.218-1.727c-0.454-0.881-0.681-1.63-0.69-1.858
		c-0.008-0.178-0.115-0.338-0.278-0.411c-0.163-0.074-0.353-0.05-0.493,0.062c-0.298,0.239-0.397,0.23-1.324-0.112l-0.111-0.041
		c-0.128-0.047-0.271-0.037-0.391,0.029c-0.12,0.065-0.206,0.18-0.236,0.313c-0.166,0.743-0.209,1.144-0.23,1.848
		c-1.148-0.226-3.788-0.611-6.113,0.045c-0.252,0.071-0.399,0.333-0.328,0.585c0.071,0.252,0.333,0.399,0.585,0.328
		c2.765-0.779,6.06,0.053,6.198,0.089c0.141,0.036,0.29,0.006,0.406-0.082c0.116-0.088,0.185-0.224,0.187-0.369
		c0.014-0.805,0.026-1.196,0.113-1.706c0.459,0.158,0.831,0.244,1.207,0.148c0.14,0.459,0.373,1.025,0.653,1.569
		c0.404,0.783,1.06,1.829,1.893,2.363c1.017,0.652,2.38,1.622,2.48,2.526c0.041,0.374-0.138,0.756-0.547,1.168
		c-0.624,0.629-2.116,0.102-3.205-0.283c-0.33-0.117-0.642-0.227-0.906-0.297c-1.917-0.51-4.435-0.506-5.94-0.504
		c-0.324,0.001-0.605,0.001-0.809-0.004c-0.059-0.001-0.107-0.005-0.145-0.01c0.062-0.096,0.167-0.222,0.298-0.334
		c0.124-0.106,0.193-0.257,0.194-0.425c0.002-0.24-0.111-0.519-0.681-1.169c-0.209-0.238-0.471-0.517-0.785-0.833
		c1.122,0.573,2.289,1.155,3.604,1.683c1.671,0.671,4.719,1.595,5.558,1.805c0.254,0.063,0.512-0.091,0.575-0.345
		c0.064-0.254-0.091-0.512-0.345-0.575c-0.821-0.206-3.801-1.109-5.435-1.765c-1.427-0.573-2.691-1.22-3.913-1.846
		c-0.852-0.436-1.656-0.848-2.479-1.217c-0.214-0.096-0.465-0.021-0.592,0.175c-0.127,0.197-0.092,0.457,0.083,0.612
		c0.008,0.007,0.837,0.744,1.686,1.565c1.122,1.084,1.541,1.598,1.696,1.823c-0.263,0.28-0.594,0.752-0.427,1.221
		c0.133,0.373,0.497,0.569,1.084,0.584c0.217,0.005,0.503,0.005,0.834,0.004c1.458-0.002,3.898-0.007,5.695,0.472
		c0.228,0.061,0.522,0.165,0.834,0.275c0.8,0.283,1.777,0.628,2.657,0.628c0.581,0,1.12-0.151,1.537-0.57
		c0.615-0.619,0.89-1.272,0.817-1.94c-0.107-0.977-0.948-1.826-1.942-2.56c0.192-0.123,0.427-0.274,0.634-0.405
		c0.199-0.126,0.328-0.339,0.348-0.574c0.015-0.175,0.079-0.484,0.136-0.757c0.021-0.103,0.042-0.204,0.061-0.299
		c0.326-0.336,0.745-0.832,0.955-1.108c0.148-0.195,0.192-0.449,0.119-0.682c-0.093-0.297-0.205-0.532-0.296-0.72
		c-0.001-0.003-0.003-0.006-0.004-0.009l1.504-1.155c0.188-0.145,0.297-0.369,0.294-0.607c-0.002-0.237-0.117-0.46-0.308-0.6
		c-0.047-0.034-0.207-0.175-0.335-0.288c-0.17-0.149-0.361-0.317-0.549-0.473c0.047-0.101,0.095-0.207,0.145-0.314
		c0.16-0.348,0.34-0.743,0.46-0.938c0.154-0.252,0.147-0.571-0.019-0.816c-0.166-0.245-0.459-0.37-0.75-0.321
		c-0.277,0.047-0.634,0.035-0.95,0.025c-0.016-0.001-0.032-0.001-0.049-0.002c-0.085-0.279-0.173-0.614-0.219-0.953
		c-0.034-0.254-0.195-0.473-0.427-0.582c-0.232-0.109-0.503-0.093-0.72,0.043c-0.424,0.264-0.996,0.533-1.377,0.701
		c-0.608-0.442-1.936-1.228-4.429-1.965c-1.249-0.369-2.564-0.443-3.91-0.218c-1.03,0.172-1.853,0.482-2.33,0.668
		c-0.326-0.27-0.822-0.686-1.158-0.992C9.681,5.878,9.442,5.809,9.21,5.852C8.977,5.895,8.779,6.045,8.673,6.256
		C8.597,6.406,8.511,6.554,8.406,6.709C8.083,6.497,7.735,6.257,7.569,6.088C7.356,5.871,7.034,5.802,6.752,5.914
		C6.47,6.026,6.282,6.296,6.275,6.599C6.269,6.927,6.312,7.337,6.354,7.734c0.007,0.07,0.016,0.149,0.024,0.231
		C6.02,7.965,5.59,7.96,5.215,7.943c-0.295-0.013-0.57,0.146-0.705,0.408C4.374,8.613,4.405,8.93,4.587,9.162
		C4.779,9.407,4.985,9.69,5.184,9.964c0.054,0.075,0.109,0.15,0.164,0.225c-0.007,0.002-0.014,0.004-0.021,0.006
		c-0.249,0.075-0.506,0.153-0.746,0.239c-0.223,0.08-0.395,0.26-0.466,0.486c-0.071,0.226-0.031,0.472,0.107,0.664
		c0.188,0.262,0.572,0.689,0.936,1.079c-0.095,0.023-0.187,0.044-0.271,0.063c-1.257,0.293-1.873,0.453-2.154,0.888
		C2.704,13.661,2.68,13.71,2.661,13.76c-0.232,0.618,0.132,1.181,0.424,1.632c0.056,0.087,0.13,0.202,0.183,0.295
		c-0.09,0.072-0.213,0.159-0.305,0.225c-0.437,0.309-0.981,0.694-1.252,1.326c-0.121,0.283-0.059,0.612,0.159,0.83
		c0.215,0.216,0.474,0.454,0.724,0.684c0.197,0.181,0.398,0.366,0.562,0.526c-0.12,0.452-0.305,1.1-0.49,1.497
		c-0.084,0.181-0.093,0.389-0.025,0.577c0.069,0.188,0.209,0.341,0.391,0.425c0.202,0.094,0.398,0.172,0.589,0.248
		c0.862,0.344,1.383,0.552,1.611,1.773c0.241,1.293-0.154,6.427-0.583,10.692H3.341c-1.01,0-1.832-0.822-1.832-1.832V3.341
		c0-1.01,0.822-1.832,1.832-1.832h29.317c1.01,0,1.832,0.822,1.832,1.832v29.317c0,1.01-0.822,1.832-1.832,1.832H17.928
		c-0.447-2.017-0.406-3.341-0.173-4.716c0.458-2.705,1.086-3.978,1.531-4.57c0.251-0.333,0.184-0.806-0.149-1.057
		c-0.333-0.251-0.806-0.184-1.057,0.149c-0.795,1.055-1.405,2.813-1.813,5.225c-0.245,1.449-0.302,2.891,0.121,4.968
		c0.095,0.468,0.215,0.969,0.362,1.509h1.567h14.342C34.501,36,36,34.501,36,32.659V3.341C36,1.499,34.501,0,32.659,0z"/>
</g>
</svg>
