<?xml version="1.0" encoding="utf-8"?>
<!-- Generator: Adobe Illustrator 17.0.0, SVG Export Plug-In . SVG Version: 6.00 Build 0)  -->
<!DOCTYPE svg PUBLIC "-//W3C//DTD SVG 1.1//EN" "http://www.w3.org/Graphics/SVG/1.1/DTD/svg11.dtd">
<svg version="1.1" id="Capa_1" xmlns="http://www.w3.org/2000/svg" xmlns:xlink="http://www.w3.org/1999/xlink" x="0px" y="0px"
	 width="36px" height="36px" viewBox="0 0 36 36" enable-background="new 0 0 36 36" xml:space="preserve">
<g>
	<path fill="#FFFFFF" d="M32.659,0H3.341C1.499,0,0,1.499,0,3.341v8.496v1.84c0.483,0.297,1.005,0.569,1.509,0.807
		c0.842,0.398,1.637,0.703,2.126,0.88c2.267,0.818,4.523,1.307,6.035,1.307c0.865,0,2.35-0.493,4.407-1.174
		c2.574-0.854,5.779-1.916,8.395-2.154c0.311-0.028,0.692-0.032,1.095-0.037c0.698-0.007,1.489-0.016,2.244-0.151
		c0.834-0.149,0.937-0.091,1.166,0.19c0.034,0.116-0.021,0.459-0.128,0.663c-0.171,0.326-0.081,0.728,0.213,0.951
		c0.284,0.215,0.678,0.202,0.947-0.028c0.019,0.005,0.044,0.014,0.069,0.025c0.004,0.057,0.003,0.142-0.015,0.263
		c-0.036,0.234-0.115,0.479-0.179,0.676c-0.035,0.107-0.065,0.2-0.086,0.285c-0.095,0.243-0.728,0.805-1.269,1.265
		c-0.03-0.367-0.064-0.669-0.094-0.923c-0.067-0.577-0.107-0.925-0.026-1.363c0.026-0.141-0.067-0.275-0.208-0.301
		c-0.141-0.025-0.275,0.067-0.301,0.208c-0.094,0.514-0.046,0.934,0.021,1.516c0.04,0.345,0.084,0.757,0.117,1.279
		c-0.341,0.286-0.669,0.574-0.979,0.861c-0.007-0.124-0.015-0.231-0.022-0.302c-0.015-0.142-0.141-0.246-0.284-0.231
		c-0.142,0.015-0.245,0.142-0.231,0.284c0.014,0.136,0.031,0.395,0.033,0.73c-0.569,0.6-2.137,1.95-3.4,3.037
		c-1.997,1.719-2.129,1.849-2.24,2.071c-0.05,0.1-0.088,0.224-0.172,0.494c-0.259,0.833-0.947,3.047-1.998,3.996
		c-0.519,0.469-0.935,0.875-1.268,1.202c-0.074,0.073-0.151,0.148-0.226,0.22c-0.276-0.312-0.607-0.557-0.879-0.655
		c-0.382-0.138-0.664-0.022-0.798,0.059c-0.262,0.159-1.348,0.858-2.851,1.825c-1.367,0.879-3.197,2.057-4.738,3.039
		C5.006,35.115,4.143,35.66,3.59,36h2.835h26.234C34.501,36,36,34.501,36,32.659V3.341C36,1.499,34.501,0,32.659,0z M34.491,32.659
		c0,1.01-0.822,1.832-1.832,1.832H8.785c0.86-0.552,1.788-1.149,2.755-1.771c1.048-0.674,1.987-1.279,2.486-1.596
		c0.116,0.113,0.239,0.265,0.276,0.374c0.095,0.275,0.316,0.479,0.592,0.544c0.458,0.108,0.815-0.198,0.987-0.346
		c0.173-0.149,0.384-0.355,0.651-0.616c0.324-0.317,0.728-0.712,1.224-1.16c1.358-1.226,2.107-3.638,2.427-4.668
		c0.023-0.073,0.047-0.152,0.067-0.212c0.263-0.257,1.123-0.997,1.889-1.657c0.724-0.623,1.496-1.288,2.156-1.875
		c-0.066,0.297-0.142,0.601-0.243,0.921c-0.759,2.403-2.286,4.427-4.538,6.016c-0.117,0.082-0.145,0.244-0.062,0.36
		c0.05,0.071,0.13,0.11,0.212,0.11c0.052,0,0.104-0.015,0.149-0.047c2.347-1.656,3.939-3.77,4.733-6.283
		c0.187-0.591,0.305-1.144,0.385-1.652c0.303-0.279,0.56-0.525,0.736-0.711c0.115-0.122,0.249-0.251,0.391-0.382
		c-0.123,2.66-0.829,7.098-2.354,8.832c-0.094,0.107-0.084,0.271,0.023,0.365c0.049,0.043,0.11,0.064,0.171,0.064
		c0.072,0,0.143-0.03,0.194-0.088c1.842-2.095,2.439-7.327,2.497-9.645c0.178-0.152,0.359-0.306,0.54-0.458
		c1.214-1.018,1.966-1.677,2.133-2.371c0.007-0.029,0.034-0.112,0.056-0.179c0.046-0.142,0.102-0.319,0.152-0.515
		c0.913-0.059,1.512,0.46,2.313,2.088c0.045,0.091,0.137,0.145,0.232,0.145c0.038,0,0.077-0.009,0.114-0.027
		c0.128-0.063,0.181-0.218,0.118-0.346c-0.594-1.206-1.103-1.852-1.705-2.162c-0.291-0.149-0.606-0.221-0.974-0.214
		c0.023-0.198,0.027-0.403,0-0.606c0.283-0.076,0.587-0.121,0.923-0.077c0.859,0.113,1.694,0.695,2.482,1.729
		c0.051,0.067,0.128,0.102,0.206,0.102c0.055,0,0.11-0.017,0.157-0.053c0.114-0.087,0.135-0.249,0.049-0.362
		c-0.874-1.147-1.825-1.796-2.826-1.928c-0.382-0.05-0.764-0.016-1.14,0.085c-0.012-0.027-0.019-0.054-0.033-0.081
		c-0.139-0.259-0.504-0.512-0.893-0.638c0.008-0.387-0.078-0.779-0.328-1.087c-0.794-0.98-1.656-0.917-2.62-0.744
		c-0.22,0.039-0.453,0.054-0.685,0.072c0.107-0.602,0.116-1.072,0.015-1.384c-0.26-0.801-1.502-1.827-3.069-1.585
		c-0.434,0.067-0.886,0.183-1.323,0.296c-0.912,0.235-1.855,0.478-2.295,0.144c-0.114-0.086-0.276-0.064-0.362,0.05
		c-0.086,0.114-0.064,0.276,0.05,0.362c0.64,0.485,1.659,0.223,2.737-0.055c0.425-0.109,0.864-0.223,1.273-0.286
		c0.568-0.088,1.157,0.028,1.66,0.325c0.408,0.241,0.737,0.598,0.838,0.908c0.09,0.278,0.042,0.767-0.055,1.262
		c-0.259,0.009-0.52,0.016-0.778,0.018c-0.434,0.005-0.844,0.009-1.215,0.043c-2.79,0.254-6.085,1.347-8.733,2.225
		c-1.703,0.564-3.311,1.098-3.932,1.098c-1.327,0-3.443-0.466-5.523-1.217c-0.986-0.356-1.888-0.75-2.639-1.146V3.341
		c0-1.01,0.822-1.832,1.832-1.832h29.317c1.01,0,1.832,0.822,1.832,1.832V32.659z"/>
	<path fill="#FFFFFF" d="M18.654,16.971c-0.124-0.231-0.411-0.317-0.642-0.193c-0.231,0.124-0.317,0.412-0.193,0.642
		c0.506,0.942,1.704,1.831,3.268,1.831c0.238,0,0.485-0.021,0.738-0.065c2.348-0.409,3.101-1.666,3.32-2.649
		c0.057-0.256-0.104-0.509-0.36-0.566c-0.256-0.057-0.509,0.104-0.566,0.36c-0.226,1.019-1.086,1.665-2.556,1.921
		C20.607,18.435,19.235,18.054,18.654,16.971z"/>
	<path fill="#FFFFFF" d="M14.909,17.719c-0.242-0.099-0.519,0.018-0.618,0.26c-0.151,0.371-0.062,1.056,0.217,1.665
		c0.281,0.613,0.868,1.43,2.074,1.837c0.538,0.182,1.122,0.271,1.7,0.271c0.799,0,1.588-0.171,2.229-0.504
		c0.232-0.121,0.323-0.407,0.202-0.64c-0.121-0.232-0.407-0.323-0.64-0.202c-0.874,0.454-2.154,0.525-3.187,0.176
		c-0.836-0.283-1.26-0.828-1.468-1.236c-0.251-0.492-0.267-0.92-0.244-1.021C15.264,18.087,15.148,17.816,14.909,17.719z"/>
	<path fill="#FFFFFF" d="M17.285,23.988c-0.563,2.217-1.486,3.794-2.53,4.326c-0.233,0.119-0.326,0.404-0.207,0.638
		c0.084,0.164,0.25,0.259,0.423,0.259c0.072,0,0.146-0.017,0.215-0.052c1.763-0.898,2.648-3.479,3.019-4.938
		c0.065-0.254-0.089-0.512-0.343-0.576C17.608,23.58,17.35,23.734,17.285,23.988z"/>
	<path fill="#FFFFFF" d="M14.143,27.197c0.085,0.162,0.25,0.254,0.42,0.254c0.074,0,0.15-0.018,0.22-0.054
		c0.628-0.33,1.055-1.04,1.253-1.434c0.3-0.596,0.479-1.242,0.479-1.727c0-0.262-0.212-0.474-0.474-0.474
		c-0.262,0-0.474,0.212-0.474,0.474c0,0.849-0.701,2.047-1.224,2.321C14.111,26.679,14.022,26.965,14.143,27.197z"/>
	<path fill="#FFFFFF" d="M4.161,17.506c1.18,0.359,2.426,0.591,3.175,0.591c0.262,0,0.474-0.212,0.474-0.474
		s-0.212-0.474-0.474-0.474c-1.227,0-4.555-0.778-6.279-2.203c-0.202-0.167-0.501-0.139-0.668,0.063S0.25,15.51,0.452,15.677
		C1.56,16.593,3.081,17.178,4.161,17.506z"/>
	<path fill="#FFFFFF" d="M6.244,18.887c0-0.262-0.212-0.474-0.474-0.474c-2.182,0-4.085-0.872-4.617-1.27
		c-0.21-0.157-0.507-0.114-0.664,0.096c-0.157,0.21-0.114,0.507,0.096,0.664c0.755,0.564,2.83,1.459,5.185,1.459
		C6.032,19.361,6.244,19.149,6.244,18.887z"/>
	<path fill="#FFFFFF" d="M22.074,16.251C22.074,16.251,22.074,16.251,22.074,16.251c0.2,0,0.396-0.076,0.55-0.215
		c0.174-0.156,0.274-0.377,0.274-0.605c0-0.402-0.317-0.718-0.721-0.718c-0.282,0-0.575,0.162-0.728,0.403
		c-0.138,0.216-0.156,0.48-0.051,0.707C21.522,16.087,21.781,16.251,22.074,16.251z"/>
</g>
</svg>
