<?xml version="1.0" encoding="utf-8"?>
<!-- Generator: Adobe Illustrator 17.0.0, SVG Export Plug-In . SVG Version: 6.00 Build 0)  -->
<!DOCTYPE svg PUBLIC "-//W3C//DTD SVG 1.1//EN" "http://www.w3.org/Graphics/SVG/1.1/DTD/svg11.dtd">
<svg version="1.1" id="Capa_1" xmlns="http://www.w3.org/2000/svg" xmlns:xlink="http://www.w3.org/1999/xlink" x="0px" y="0px"
	 width="36px" height="36px" viewBox="0 0 36 36" enable-background="new 0 0 36 36" xml:space="preserve">
<g>
	<path fill="#FFFFFF" d="M32.659,0H3.341C1.499,0,0,1.499,0,3.341v14.17v1.316c0.144,0.08,0.314,0.115,0.489,0.086
		c0.345-0.056,0.686-0.096,1.02-0.12c1.294-0.092,2.467,0.06,3.259,0.437c0.217,0.103,0.47,0.097,0.682-0.017
		c0.212-0.114,0.356-0.322,0.389-0.56c0.014-0.1,0.026-0.191,0.037-0.276c0.018-0.133,0.037-0.277,0.055-0.387
		c0.641-0.12,1.417-0.278,2.162-0.466c-0.024,0.16-0.045,0.325-0.061,0.49c-0.102,1.029,0.001,1.765,0.313,2.248
		c0.168,0.26,0.477,0.391,0.78,0.331c0.303-0.06,0.539-0.299,0.596-0.603c0.246-1.331,1.254-3.183,1.586-3.564
		c1.239-0.497,2.498-1.084,3.829-1.704c2.266-1.057,4.597-2.143,6.967-2.839c-1.213,2.36-3.369,4.35-5.1,5.683
		c-2.575,1.983-5.237,3.294-6.621,3.673c-1.033,0.282-2.25,0.518-3.538,0.767c-1.877,0.363-3.801,0.736-5.334,1.295
		C0.946,23.506,0.436,23.736,0,24.001v1.318v7.34C0,34.501,1.499,36,3.341,36h29.317C34.501,36,36,34.501,36,32.659V3.341
		C36,1.499,34.501,0,32.659,0z M34.491,32.659c0,1.01-0.822,1.832-1.832,1.832H3.341c-1.01,0-1.832-0.822-1.832-1.832v-7.737
		c1.01-0.437,2.346-0.767,3.76-1.063c-0.026,0.412-0.084,0.832-0.156,1.079c-0.073,0.251,0.071,0.515,0.322,0.588
		c0.044,0.013,0.089,0.019,0.133,0.019c0.205,0,0.394-0.134,0.455-0.341c0.104-0.356,0.188-0.973,0.205-1.54
		c0.081-0.016,0.162-0.032,0.243-0.048c0.128,0.482,0.305,1.159,0.305,1.455c0,0.262,0.212,0.474,0.474,0.474
		c0.262,0,0.474-0.212,0.474-0.474c0-0.377-0.138-0.943-0.32-1.636c0.076-0.015,0.15-0.029,0.226-0.044
		c0.187,0.468,0.465,1.081,0.671,1.372c0.093,0.13,0.239,0.2,0.387,0.2c0.095,0,0.191-0.029,0.274-0.088
		c0.214-0.152,0.264-0.448,0.112-0.661c-0.128-0.18-0.336-0.624-0.498-1.011c0.569-0.116,1.116-0.236,1.635-0.363
		c0.521,0.625,1.215,2.066,0.503,3.302c-0.131,0.227-0.053,0.517,0.174,0.648c0.075,0.043,0.156,0.063,0.236,0.063
		c0.164,0,0.324-0.085,0.411-0.238c0.855-1.485,0.273-3.108-0.356-4.05c0.057-0.018,0.112-0.036,0.17-0.055
		c0.747,0.55,1.466,1.521,1.162,3.188c-0.047,0.258,0.124,0.505,0.381,0.552c0.029,0.005,0.057,0.008,0.086,0.008
		c0.225,0,0.424-0.16,0.466-0.389c0.275-1.507-0.119-2.804-1.096-3.746c0.503-0.219,1.02-0.474,1.541-0.754
		c0.515,0.83,0.88,2.325,0.674,3.629c-0.041,0.259,0.136,0.502,0.394,0.542c0.025,0.004,0.05,0.006,0.075,0.006
		c0.229,0,0.431-0.167,0.468-0.4c0.246-1.558-0.176-3.222-0.788-4.237c0.472-0.275,0.936-0.561,1.384-0.855
		c1.406-0.02,3.734,0.253,5.006,1.673c0.094,0.105,0.223,0.158,0.353,0.158c0.113,0,0.226-0.04,0.316-0.121
		c0.195-0.175,0.212-0.475,0.037-0.67c-1.126-1.257-2.893-1.772-4.421-1.934c0.182-0.133,0.367-0.267,0.536-0.397
		c0.166-0.128,0.321-0.254,0.478-0.381c1.201-0.197,2.883-0.158,4.134,0.644c0.079,0.051,0.168,0.075,0.256,0.075
		c0.156,0,0.309-0.077,0.4-0.218c0.141-0.221,0.077-0.514-0.143-0.655c-0.757-0.485-1.605-0.727-2.435-0.832
		c0.287-0.053,0.572-0.084,0.843-0.084c0.262,0,0.474-0.212,0.474-0.474c0-0.262-0.212-0.474-0.474-0.474
		c-0.295,0-0.599,0.033-0.901,0.083c0.376-0.383,0.715-0.758,1.023-1.124c0.253-0.034,0.518-0.057,0.799-0.065
		c1.32-0.038,2.698,0.217,3.88,0.716c1.062,0.448,1.906,1.065,2.508,1.831c0.686,0.875,1.034,1.927,1.034,3.129
		c0,1.443-0.544,2.694-1.618,3.718c-2.508,2.392-7.425,3.07-10.118,2.943c-2.478-0.117-4.146,1.054-4.215,1.104
		c-0.116,0.083-0.143,0.244-0.06,0.36c0.05,0.071,0.13,0.108,0.211,0.108c0.052,0,0.104-0.016,0.15-0.048
		c0.016-0.011,1.599-1.116,3.89-1.008c1.568,0.074,3.519-0.121,5.218-0.523c2.258-0.535,4.085-1.421,5.281-2.562
		c1.18-1.126,1.779-2.503,1.779-4.092c0-2.456-1.37-4.387-3.858-5.437c-0.884-0.373-1.813-0.585-2.707-0.686
		c0.39-0.056,0.787-0.1,1.197-0.112c2.803-0.082,4.911,1.035,6.266,3.322c0.048,0.082,0.134,0.127,0.223,0.127
		c0.045,0,0.09-0.012,0.132-0.036c0.123-0.073,0.164-0.232,0.091-0.354c-0.789-1.332-1.834-2.306-3.107-2.897
		c-1.057-0.49-2.274-0.719-3.62-0.679c-0.998,0.03-1.951,0.205-2.784,0.424c1.058-1.402,1.641-2.637,1.956-3.594
		c0.085-0.257,0.025-0.54-0.156-0.741s-0.457-0.289-0.721-0.232c-3.032,0.661-5.928,2.012-8.728,3.317
		c-1.346,0.628-2.618,1.221-3.848,1.71c-0.134,0.053-0.408,0.162-0.912,0.982C9.709,16,9.675,15.957,9.635,15.918
		c-0.202-0.202-0.501-0.273-0.772-0.182c-0.802,0.267-1.971,0.545-3.382,0.803c-0.434,0.079-0.737,0.311-0.9,0.689
		C4.541,17.321,4.51,17.42,4.485,17.53c-0.862-0.232-1.883-0.317-2.976-0.248V3.341c0-1.01,0.822-1.832,1.832-1.832h29.317
		c1.01,0,1.832,0.822,1.832,1.832V32.659z"/>
	<path fill="#FFFFFF" d="M17.645,15.407c0.071,0,0.142-0.011,0.21-0.033c0.395-0.127,0.495-0.43,0.461-0.651
		c-0.053-0.339-0.406-0.542-0.716-0.542c-0.09,0-0.175,0.016-0.254,0.048c-0.264,0.107-0.41,0.375-0.356,0.65
		C17.049,15.18,17.331,15.407,17.645,15.407z"/>
</g>
</svg>
