<?xml version="1.0" encoding="utf-8"?>
<!-- Generator: Adobe Illustrator 17.0.0, SVG Export Plug-In . SVG Version: 6.00 Build 0)  -->
<!DOCTYPE svg PUBLIC "-//W3C//DTD SVG 1.1//EN" "http://www.w3.org/Graphics/SVG/1.1/DTD/svg11.dtd">
<svg version="1.1" id="Capa_1" xmlns="http://www.w3.org/2000/svg" xmlns:xlink="http://www.w3.org/1999/xlink" x="0px" y="0px"
	 width="36px" height="36px" viewBox="0 0 36 36" enable-background="new 0 0 36 36" xml:space="preserve">
<g>
	<path fill="#FFFFFF" d="M16.278,19.091c0.208,0.114,0.472,0.17,0.807,0.17c0.088,0,0.152-0.004,0.164-0.005
		c0.262-0.019,0.496-0.173,0.617-0.407c0.121-0.234,0.111-0.514-0.026-0.738c-0.268-0.441-0.874-0.897-1.424-0.897
		c-0.207,0-0.401,0.062-0.56,0.18c-0.22,0.162-0.34,0.424-0.321,0.699C15.575,18.697,16.271,19.087,16.278,19.091z"/>
	<path fill="#FFFFFF" d="M11.629,19.854c-0.19-0.371-0.645-0.517-1.016-0.327c-0.022,0.011-1.236,0.634-2.502,1.279
		c0.273-0.289,0.547-0.548,0.783-0.742c0.322-0.265,0.368-0.74,0.103-1.062c-0.265-0.322-0.74-0.368-1.062-0.103
		c-0.6,0.493-2.391,2.229-2.742,3.68c-0.069,0.285,0.033,0.584,0.262,0.766c0.136,0.109,0.303,0.165,0.471,0.165
		c0.114,0,0.228-0.026,0.334-0.078c1.164-0.575,5.001-2.543,5.04-2.563C11.673,20.68,11.82,20.225,11.629,19.854z"/>
	<path fill="#FFFFFF" d="M24.274,24.332c0.009,0,0.018,0,0.027,0c0.262-0.004,0.471-0.22,0.466-0.482
		c-0.004-0.262-0.221-0.471-0.482-0.466c-0.378,0.008-0.991-0.264-1.262-0.663c-0.147-0.217-0.442-0.273-0.659-0.126
		c-0.217,0.147-0.273,0.442-0.126,0.659C22.717,23.958,23.637,24.332,24.274,24.332z"/>
	<path fill="#FFFFFF" d="M32.659,0H3.341C1.499,0,0,1.499,0,3.341v13.023v1.529l0.516,0.09c0.042,0.007,0.084,0.015,0.127,0.022
		c0.297,0.053,0.586,0.103,0.866,0.15c1.97,0.331,3.522,0.499,4.335,0.092c0.393-0.196,1.268-0.78,2.662-1.715
		c0.973-0.653,2.076-1.393,3.007-1.981c0.369-0.233,0.664-0.413,0.903-0.553c0.02,0.105,0.039,0.21,0.057,0.316
		c0.062,0.369,0.381,0.63,0.743,0.63c0.041,0,0.083-0.003,0.126-0.01c0.411-0.069,0.688-0.458,0.619-0.869
		c-0.126-0.753-0.299-1.471-0.506-2.146c0.552,0.944,0.983,1.816,1.224,2.362c0.168,0.382,0.613,0.555,0.994,0.387
		c0.381-0.168,0.555-0.613,0.387-0.994c-0.006-0.013-0.038-0.085-0.093-0.206c0.471,0.012,0.929,0.078,1.392,0.28
		c0.531,0.231,1.474,1.767,2.098,2.784c0.557,0.907,1.083,1.764,1.561,2.252c0.703,0.718,2.081,1.837,3.188,2.736
		c0.545,0.442,1.154,0.937,1.369,1.136c0.065,0.302,0.056,1.089-0.042,1.33c-0.091,0.13-0.194,0.281-0.303,0.441
		c-0.311,0.455-0.993,1.453-1.354,1.801c-1.51-0.407-4.933-0.964-5.99-0.737c-0.813,0.174-1.242,0.238-2.098-0.215
		c-0.269-0.142-0.534-0.258-0.79-0.371c-0.843-0.369-1.253-0.572-1.368-1.147c-0.193-0.966-0.396-1.585-0.603-1.839
		c-0.263-0.323-0.739-0.371-1.062-0.108c-0.303,0.247-0.364,0.681-0.153,1c0.026,0.054,0.16,0.353,0.338,1.242
		c0.274,1.371,1.365,1.849,2.242,2.233c0.231,0.101,0.47,0.206,0.69,0.322c1.28,0.678,2.101,0.576,3.12,0.357
		c0.352-0.075,1.507,0.031,2.718,0.212c0.108,0.421,0.064,0.608-0.248,1.938l-0.041,0.176c-0.078,0.332,0.076,0.674,0.376,0.836
		c0.113,0.061,0.236,0.091,0.359,0.091c0.202,0,0.401-0.081,0.547-0.235c0.929-0.976,1.357-1.764,1.553-2.305
		c0.084,0.023,0.164,0.046,0.237,0.068c0.095,0.029,0.187,0.043,0.277,0.043c0.547,0,1.003-0.499,1.395-0.984
		c0.376-0.465,0.779-1.054,1.102-1.528c0.112-0.165,0.219-0.32,0.307-0.446c0.222-0.316,0.338-0.841,0.344-1.561
		c0.002-0.273,0.009-1.103-0.33-1.52c-0.159-0.195-0.553-0.521-1.638-1.402c-1.077-0.875-2.418-1.963-3.06-2.62
		c-0.104-0.106-0.22-0.251-0.344-0.422c0.216-0.694,0.737-1.905,1.509-2.135c0.313-0.093,0.53-0.378,0.538-0.704
		c0.008-0.327-0.195-0.621-0.502-0.73c-0.642-0.227-1.487-0.321-2.26-0.25c-0.448,0.041-1.003,0.149-1.483,0.409
		c-0.336-0.468-0.672-0.869-1.016-1.16c-0.005-0.023-0.011-0.046-0.018-0.068c-0.058-0.18-1.452-4.416-4.6-5.845
		c-0.317-0.144-0.69-0.053-0.905,0.221c-0.215,0.273-0.215,0.658-0.001,0.932c0.993,1.267,1.198,1.528,1.57,2.886
		c-0.081-0.135-0.165-0.273-0.252-0.411c-1.446-2.313-2.88-3.774-4.264-4.342C9.734,5.97,9.351,6.087,9.152,6.386
		c-0.199,0.299-0.16,0.698,0.094,0.952c0.978,0.978,2.111,2.845,2.796,5.134c-0.821,0.452-2.129,1.299-4.377,2.807
		c-1.067,0.715-2.17,1.455-2.497,1.619c-0.032,0.016-0.353,0.154-1.653,0.02c-0.65-0.067-1.362-0.181-2.007-0.293V3.341
		c0-1.01,0.822-1.832,1.832-1.832h29.317c1.01,0,1.832,0.822,1.832,1.832v29.317c0,1.01-0.822,1.832-1.832,1.832H12.42
		c0.076-0.291,0.133-0.56,0.171-0.806c0.155,0.078,0.334,0.142,0.549,0.156c0.303,0.019,0.588-0.145,0.723-0.417
		c0.761-1.529,1.311-4.877,1.355-5.707c0.022-0.416-0.298-0.771-0.714-0.793c-0.416-0.022-0.771,0.298-0.793,0.714
		c-0.034,0.638-0.425,2.964-0.919,4.42c-0.245-0.124-0.56-0.233-0.968-0.227c-0.246,0.004-0.475,0.127-0.614,0.331
		c-0.137,0.203-0.168,0.46-0.081,0.689c0.043,0.149,0,0.715-0.277,1.64c-0.021,0.069-0.043,0.14-0.066,0.214
		c-0.172,0.538-0.352,0.983-0.496,1.295h1.638h20.731C34.501,36,36,34.501,36,32.659V3.341C36,1.499,34.501,0,32.659,0z
		 M21.173,14.989c0.007-0.001,0.015-0.001,0.023-0.002c-0.176,0.248-0.325,0.508-0.45,0.761c-0.001-0.002-0.003-0.005-0.004-0.007
		c-0.118-0.193-0.236-0.384-0.353-0.573C20.574,15.089,20.832,15.02,21.173,14.989z M16.629,12.03
		c-0.064-0.008-0.128-0.016-0.192-0.022c-0.031-0.122-0.061-0.24-0.089-0.353c-0.032-0.124-0.062-0.243-0.091-0.357
		C16.399,11.558,16.523,11.805,16.629,12.03z"/>
</g>
</svg>
