<?xml version="1.0" encoding="utf-8"?>
<!-- Generator: Adobe Illustrator 17.0.0, SVG Export Plug-In . SVG Version: 6.00 Build 0)  -->
<!DOCTYPE svg PUBLIC "-//W3C//DTD SVG 1.1//EN" "http://www.w3.org/Graphics/SVG/1.1/DTD/svg11.dtd">
<svg version="1.1" id="Capa_1" xmlns="http://www.w3.org/2000/svg" xmlns:xlink="http://www.w3.org/1999/xlink" x="0px" y="0px"
	 width="36px" height="36px" viewBox="0 0 36 36" enable-background="new 0 0 36 36" xml:space="preserve">
<g>
	<path fill="#FFFFFF" d="M22.389,17.39c-0.697-0.163-1.12-0.544-1.246-0.723c-0.151-0.214-0.447-0.265-0.661-0.114
		c-0.214,0.151-0.265,0.447-0.114,0.661c0.264,0.375,0.896,0.888,1.805,1.1c0.11,0.026,0.213,0.037,0.311,0.037
		c0.327,0,0.589-0.123,0.81-0.226c0.317-0.149,0.527-0.247,0.963-0.067c0.141,0.058,0.302,0.045,0.432-0.036
		c0.13-0.081,0.213-0.22,0.222-0.372c0.103-1.633-0.856-2.783-2.565-3.076c-0.258-0.045-0.503,0.129-0.548,0.387
		c-0.044,0.258,0.129,0.503,0.387,0.548c0.871,0.149,1.338,0.53,1.573,0.976c-0.533-0.342-1.179-0.404-1.572-0.404
		c-0.262,0-0.474,0.212-0.474,0.474s0.212,0.474,0.474,0.474c0.228,0,0.578,0.026,0.881,0.157c-0.062,0.027-0.121,0.054-0.176,0.08
		C22.659,17.374,22.54,17.425,22.389,17.39z"/>
	<path fill="#FFFFFF" d="M17.972,15.806c0.356,0.211,0.708,0.238,0.975,0.238c0.076,0,0.147-0.002,0.215-0.005
		c0.057-0.002,0.112-0.004,0.16-0.004c0.148,0,0.288-0.07,0.378-0.188c0.09-0.118,0.119-0.272,0.079-0.415
		c-0.168-0.598-0.564-1.026-1.145-1.239c-0.439-0.16-0.879-0.16-1.116-0.16c-0.16,0-0.31,0.081-0.397,0.215
		c-0.088,0.134-0.102,0.303-0.037,0.45C17.315,15.227,17.606,15.589,17.972,15.806z"/>
	<path fill="#FFFFFF" d="M9.8,19.467c0.125,0,0.247-0.05,0.335-0.139c0.088-0.088,0.139-0.21,0.139-0.335
		c0-0.125-0.05-0.247-0.139-0.335c-0.088-0.088-0.21-0.139-0.335-0.139c-0.125,0-0.247,0.051-0.335,0.139
		c-0.088,0.088-0.139,0.21-0.139,0.335c0,0.125,0.051,0.247,0.139,0.335C9.552,19.417,9.675,19.467,9.8,19.467z"/>
	<path fill="#FFFFFF" d="M8.874,17.05c-0.125,0-0.247,0.051-0.335,0.139C8.451,17.277,8.4,17.399,8.4,17.524
		c0,0.125,0.051,0.247,0.139,0.335c0.088,0.088,0.21,0.139,0.335,0.139c0.125,0,0.247-0.05,0.335-0.139
		c0.088-0.088,0.139-0.21,0.139-0.335c0-0.125-0.05-0.247-0.139-0.335C9.122,17.101,8.999,17.05,8.874,17.05z"/>
	<path fill="#FFFFFF" d="M8.558,19.111c0.088-0.088,0.139-0.21,0.139-0.335c0-0.125-0.051-0.247-0.139-0.335
		c-0.088-0.088-0.21-0.139-0.335-0.139c-0.125,0-0.247,0.05-0.335,0.139c-0.088,0.088-0.139,0.21-0.139,0.335
		c0,0.125,0.05,0.247,0.139,0.335c0.088,0.088,0.21,0.139,0.335,0.139C8.348,19.25,8.47,19.199,8.558,19.111z"/>
	<path fill="#FFFFFF" d="M7.365,19.826c0.088-0.088,0.139-0.21,0.139-0.335c0-0.125-0.05-0.247-0.139-0.335
		c-0.088-0.088-0.21-0.139-0.335-0.139s-0.247,0.051-0.335,0.139c-0.088,0.088-0.139,0.211-0.139,0.335
		c0,0.125,0.051,0.247,0.139,0.335c0.088,0.088,0.211,0.139,0.335,0.139C7.154,19.965,7.276,19.915,7.365,19.826z"/>
	<path fill="#FFFFFF" d="M8.874,20.261c0-0.125-0.05-0.247-0.139-0.335c-0.088-0.088-0.21-0.139-0.335-0.139
		c-0.125,0-0.247,0.05-0.335,0.139c-0.088,0.088-0.139,0.21-0.139,0.335c0,0.125,0.05,0.247,0.139,0.335
		c0.088,0.088,0.211,0.139,0.335,0.139c0.125,0,0.247-0.05,0.335-0.139C8.824,20.508,8.874,20.386,8.874,20.261z"/>
	<path fill="#FFFFFF" d="M7.292,20.783c-0.125,0-0.247,0.051-0.335,0.139c-0.088,0.088-0.139,0.211-0.139,0.335
		c0,0.125,0.05,0.247,0.139,0.335c0.088,0.088,0.21,0.139,0.335,0.139c0.125,0,0.247-0.05,0.335-0.139
		c0.088-0.088,0.139-0.21,0.139-0.335c0-0.125-0.051-0.247-0.139-0.335C7.539,20.833,7.416,20.783,7.292,20.783z"/>
	<path fill="#FFFFFF" d="M5.689,19.888c-0.125,0-0.247,0.051-0.335,0.139c-0.088,0.088-0.139,0.21-0.139,0.335
		c0,0.125,0.051,0.247,0.139,0.335c0.088,0.088,0.211,0.139,0.335,0.139c0.125,0,0.247-0.051,0.335-0.139
		c0.088-0.088,0.139-0.21,0.139-0.335c0-0.125-0.05-0.247-0.139-0.335C5.936,19.938,5.814,19.888,5.689,19.888z"/>
	<path fill="#FFFFFF" d="M10.203,20.035c-0.125,0-0.247,0.051-0.335,0.139c-0.088,0.088-0.139,0.21-0.139,0.335
		c0,0.125,0.05,0.247,0.139,0.335c0.088,0.088,0.21,0.139,0.335,0.139c0.125,0,0.247-0.05,0.335-0.139
		c0.088-0.088,0.139-0.21,0.139-0.335c0-0.125-0.051-0.247-0.139-0.335C10.45,20.086,10.327,20.035,10.203,20.035z"/>
	<path fill="#FFFFFF" d="M9.194,21.031c-0.125,0-0.247,0.051-0.335,0.139C8.77,21.258,8.72,21.38,8.72,21.505
		c0,0.125,0.05,0.247,0.139,0.335c0.088,0.088,0.21,0.139,0.335,0.139c0.125,0,0.247-0.05,0.335-0.139
		c0.088-0.088,0.139-0.21,0.139-0.335c0-0.125-0.051-0.247-0.139-0.335C9.441,21.082,9.319,21.031,9.194,21.031z"/>
	<path fill="#FFFFFF" d="M32.659,0H3.341C1.499,0,0,1.499,0,3.341v16.375v1.598c0.012-0.004,0.024-0.007,0.036-0.012
		c0.236-0.088,0.546-0.19,0.906-0.308c0.179-0.059,0.369-0.121,0.567-0.187c2.163-0.722,5.286-1.913,6.596-4.365
		c3.132-5.858,7.963-6.313,9.369-6.313c1.595,0,2.783,0.503,3.531,1.495c0.55,0.73,0.734,1.553,0.794,1.98
		c0.058,0.413,0.44,0.7,0.853,0.641c0.413-0.058,0.7-0.44,0.641-0.853c-0.099-0.697-0.367-1.726-1.083-2.677
		c-0.721-0.956-2.128-2.095-4.736-2.095c-2.48,0-4.782,0.825-6.843,2.451c-2.056,1.622-3.299,3.616-3.857,4.66
		c-0.957,1.791-3.372,2.823-5.265,3.482V3.341c0-1.01,0.822-1.832,1.832-1.832h29.317c1.01,0,1.832,0.822,1.832,1.832v29.317
		c0,1.01-0.822,1.832-1.832,1.832H18.66c0.49-0.857,0.808-1.699,1.013-2.418c0.604-2.121,0.51-4.047,0.219-5.141
		c-0.561-2.113-0.639-4.117-0.358-4.594c0.199-0.339,0.356-0.469,0.617-0.686c0.389-0.323,0.921-0.766,1.717-1.99
		c0.227-0.349,0.128-0.817-0.222-1.044c-0.349-0.227-0.817-0.128-1.044,0.222c-0.671,1.033-1.067,1.362-1.416,1.652
		c-0.114,0.095-0.229,0.19-0.346,0.302c-0.001,0.001-0.002,0.001-0.003,0.002c-0.564,0.558-1.534,0.845-2.36,0.698
		c-0.656-0.117-1.132-0.48-1.414-1.08c-0.478-1.017-0.551-1.964-0.218-2.815c0.32-0.818,0.982-1.4,1.461-1.595
		c0.386-0.157,0.572-0.597,0.415-0.983c-0.157-0.386-0.597-0.572-0.983-0.415c-0.736,0.299-1.78,1.119-2.298,2.443
		c-0.337,0.86-0.565,2.254,0.258,4.006c0.488,1.04,1.381,1.723,2.515,1.925c0.228,0.041,0.462,0.06,0.698,0.06
		c0.325,0,0.653-0.038,0.973-0.11c-0.026,0.367-0.022,0.786,0.012,1.262c0.069,0.959,0.264,2.099,0.537,3.127
		c0.228,0.859,0.309,2.512-0.212,4.341c-0.236,0.829-0.647,1.851-1.356,2.831c-0.381,0.527-0.849,1.042-1.422,1.509h2.154h15.061
		C34.501,36,36,34.501,36,32.659V3.341C36,1.499,34.501,0,32.659,0z"/>
</g>
</svg>
