<?xml version="1.0" encoding="utf-8"?>
<!-- Generator: Adobe Illustrator 17.0.0, SVG Export Plug-In . SVG Version: 6.00 Build 0)  -->
<!DOCTYPE svg PUBLIC "-//W3C//DTD SVG 1.1//EN" "http://www.w3.org/Graphics/SVG/1.1/DTD/svg11.dtd">
<svg version="1.1" id="Capa_1" xmlns="http://www.w3.org/2000/svg" xmlns:xlink="http://www.w3.org/1999/xlink" x="0px" y="0px"
	 width="36px" height="36px" viewBox="0 0 36 36" enable-background="new 0 0 36 36" xml:space="preserve">
<g>
	<path fill="#FFFFFF" d="M15.303,20.797c-0.09-0.407-0.492-0.664-0.899-0.574c-0.627,0.138-1.122,0.248-1.782,0.748
		c-0.428,0.325-0.841,0.78-1.216,1.249c0.15-0.847,0.44-1.776,0.976-2.43c0.445-0.543,0.998-0.807,1.693-0.807
		c0.417,0,0.754-0.338,0.754-0.754c0-0.417-0.338-0.754-0.754-0.754c-1.461,0-2.633,0.747-3.39,2.16
		c-0.658,1.229-0.848,2.69-0.903,3.452c-0.028,0.386-0.034,0.769-0.018,1.078c0.008,0.149,0.021,0.276,0.038,0.376
		c0.101,0.579,0.505,0.698,0.674,0.723c0.04,0.006,0.079,0.009,0.117,0.009c0.41,0,0.665-0.324,0.793-0.487
		c0.113-0.143,0.25-0.335,0.408-0.557c0.454-0.637,1.139-1.598,1.74-2.055c0.378-0.287,0.588-0.343,1.195-0.477
		C15.136,21.606,15.393,21.204,15.303,20.797z"/>
	<path fill="#FFFFFF" d="M20.338,22.157c0.312,0,0.548-0.051,0.574-0.057c0.195-0.044,0.341-0.205,0.366-0.403
		c0.018-0.143,0.013-0.655-0.814-1.212c-0.289-0.195-0.583-0.293-0.876-0.293c-0.492,0-0.795,0.278-0.876,0.364
		c-0.117,0.123-0.159,0.299-0.111,0.462C18.816,21.742,19.45,22.157,20.338,22.157z"/>
	<path fill="#FFFFFF" d="M26.775,25.887c0,0.262,0.212,0.474,0.474,0.474s0.474-0.212,0.474-0.474c0-0.395-0.189-0.726-0.531-0.932
		c-0.221-0.133-0.437-0.169-0.478-0.175c-0.259-0.037-0.5,0.142-0.537,0.402c-0.037,0.259,0.143,0.5,0.402,0.537
		C26.587,25.72,26.775,25.749,26.775,25.887z"/>
	<path fill="#FFFFFF" d="M32.659,0H3.341C1.499,0,0,1.499,0,3.341v13.511v1.513c0.449,0.035,0.963,0.088,1.509,0.149
		c0.285,0.032,0.579,0.065,0.877,0.1c1.922,0.221,3.909,0.449,4.982,0.303c0.85-0.115,2.078-0.735,3.867-1.952
		c1.403-0.955,2.818-2.051,3.851-2.852c0.34-0.263,0.687-0.532,0.921-0.707c0.096,0.062,0.2,0.132,0.278,0.185
		c0.476,0.321,0.763,0.515,1.106,0.515c0.334,0,0.596-0.18,0.992-0.454c0.108-0.075,0.277-0.191,0.414-0.273
		c0.128,0.146,0.287,0.36,0.378,0.483c0.329,0.443,0.567,0.763,1.015,0.763c0.256,0,0.47-0.115,0.766-0.273
		c0.007-0.004,0.014-0.007,0.021-0.011c0.846,1.288,3.022,4.575,4.396,5.924c1.674,1.644,3.181,3.315,3.442,3.744
		c0.016,0.327-0.215,1.322-0.342,1.617c-0.055,0.076-0.139,0.202-0.312,0.466c-0.204,0.31-0.698,1.059-1.069,1.562
		c-0.019,0.007-0.039,0.013-0.057,0.022c-0.11,0.056-0.466,0.05-1.108-0.326c-0.513-0.301-1.067-0.763-1.411-1.179
		c-0.167-0.202-0.466-0.23-0.668-0.063c-0.202,0.167-0.23,0.466-0.063,0.668c0.155,0.188,0.342,0.38,0.546,0.566
		c-1.392-0.306-2.21-0.442-2.61-0.437c-0.42,0.004-0.771,0.176-1.081,0.328c-0.369,0.181-0.718,0.353-1.256,0.321
		c-0.787-0.046-2.73-1.336-3.178-1.802c-0.176-0.183-0.444-1.064-0.562-1.847c-0.062-0.412-0.446-0.696-0.858-0.635
		c-0.412,0.062-0.696,0.446-0.635,0.858c0.069,0.462,0.343,2.022,0.967,2.67c0.528,0.549,2.785,2.18,4.177,2.263
		c0.935,0.055,1.556-0.25,2.01-0.473c0.165-0.081,0.353-0.173,0.43-0.174c0.305-0.003,1.375,0.165,4.75,0.978
		c0.26,0.063,0.378,0.091,0.431,0.102c0.061,0.013,0.121,0.019,0.178,0.019c0.48,0,0.835-0.439,1.332-1.127
		c0.348-0.482,0.738-1.073,0.995-1.464c0.112-0.17,0.238-0.361,0.273-0.409c0.163-0.206,0.322-0.658,0.475-1.344
		c0.257-1.152,0.127-1.518,0.078-1.656c-0.057-0.16-0.162-0.458-1.434-1.857c-0.692-0.761-1.561-1.66-2.383-2.468
		c-0.275-0.27-0.606-0.649-0.993-1.135c2.164-0.757,3.415-2.793,3.655-3.59c0.161-0.535-0.081-0.827-0.239-0.953
		c-0.331-0.265-0.72-0.175-1.097-0.089c-0.263,0.061-0.602,0.151-0.961,0.247c-0.629,0.168-1.579,0.422-1.897,0.431
		c-0.003,0-0.007,0-0.011,0c-0.31,0-1.786-0.237-2.508-0.37c-0.081-0.123-0.162-0.244-0.244-0.371
		c-0.134-0.204-0.189-0.289-0.221-0.333c-0.118-0.167-0.466-0.526-1.163-0.25c-0.123,0.049-0.252,0.113-0.374,0.177
		c-0.426-0.573-0.867-1.161-1.486-1.161c-0.465,0-0.923,0.316-1.365,0.621c-0.043,0.029-0.094,0.065-0.144,0.098
		c-0.085-0.055-0.178-0.118-0.253-0.169c-0.536-0.362-0.832-0.551-1.18-0.551c-0.285,0-0.48,0.136-0.86,0.419
		c-0.235,0.175-0.556,0.424-0.928,0.712c-1.662,1.289-5.556,4.306-6.996,4.501c-0.886,0.12-2.863-0.107-4.608-0.307
		c-0.358-0.041-0.71-0.081-1.049-0.119V3.341c0-1.01,0.822-1.832,1.832-1.832h29.317c1.01,0,1.832,0.822,1.832,1.832v29.317
		c0,1.01-0.822,1.832-1.832,1.832H16.387c0.153-0.452,0.287-0.938,0.403-1.452c0.302-1.35,0.503-3.181,0.229-4.008
		c-0.131-0.396-0.558-0.61-0.954-0.479c-0.396,0.131-0.61,0.558-0.479,0.953c0.09,0.273,0.105,1.531-0.269,3.203
		c-0.148,0.659-0.329,1.259-0.536,1.782c-0.247,0.626-0.531,1.141-0.834,1.509h1.797h16.915C34.501,36,36,34.501,36,32.659V3.341
		C36,1.499,34.501,0,32.659,0z M24.942,15.608c0.418-0.012,1.086-0.175,1.976-0.41c-0.532,0.64-1.353,1.339-2.457,1.563
		c-0.287-0.397-0.594-0.832-0.921-1.308C24.126,15.542,24.691,15.615,24.942,15.608z"/>
</g>
</svg>
