<?xml version="1.0" encoding="utf-8"?>
<!-- Generator: Adobe Illustrator 17.0.0, SVG Export Plug-In . SVG Version: 6.00 Build 0)  -->
<!DOCTYPE svg PUBLIC "-//W3C//DTD SVG 1.1//EN" "http://www.w3.org/Graphics/SVG/1.1/DTD/svg11.dtd">
<svg version="1.1" id="Capa_1" xmlns="http://www.w3.org/2000/svg" xmlns:xlink="http://www.w3.org/1999/xlink" x="0px" y="0px"
	 width="36px" height="36px" viewBox="0 0 36 36" enable-background="new 0 0 36 36" xml:space="preserve">
<g>
	<path fill="#FFFFFF" d="M10.877,10.131c0.327,0.002,0.636,0.003,0.893,0.001c0.007,0,0.014,0,0.021,0
		c0.731,0,1.061,0.357,1.409,0.734c0.04,0.043,0.078,0.084,0.115,0.124c0.287,0.302,0.765,0.314,1.067,0.027
		s0.314-0.765,0.027-1.067c-0.032-0.034-0.066-0.07-0.1-0.108c-0.422-0.457-1.125-1.219-2.517-1.219c-0.011,0-0.023,0-0.035,0
		c-0.246,0.002-0.549,0.001-0.871-0.001c-3.41-0.018-5.023,0.107-5.567,0.9c-0.201,0.292-0.24,0.654-0.107,0.993
		c0.421,1.076,1.349,2.11,2.613,2.91c1.134,0.719,2.392,1.148,3.363,1.148c1.788,0,2.383-0.456,3.151-1.208l0.05-0.049
		c0.298-0.291,0.303-0.769,0.012-1.067c-0.291-0.298-0.769-0.303-1.067-0.012l-0.051,0.05c-0.562,0.55-0.794,0.777-2.095,0.777
		c-0.677,0-1.68-0.359-2.556-0.913c-0.821-0.52-1.469-1.163-1.835-1.809c0.238-0.058,0.652-0.126,1.357-0.168
		C9.036,10.121,10.057,10.126,10.877,10.131z"/>
	<path fill="#FFFFFF" d="M17.059,17.84c0.267,0.307,0.647,0.476,1.07,0.476c0.426,0,0.769-0.11,1.017-0.327
		c0.178-0.156,0.391-0.439,0.391-0.905c0-0.919-0.768-1.901-2.925-1.901c-0.381,0-0.69,0.309-0.69,0.69
		c0,0.381,0.309,0.69,0.69,0.69c0.019,0,0.037,0,0.055,0c-0.003,0.028-0.005,0.056-0.005,0.084
		C16.663,17.257,16.879,17.632,17.059,17.84z"/>
	<path fill="#FFFFFF" d="M23.519,26.166c0.009,0.254,0.218,0.456,0.474,0.456c0.262,0,0.474-0.212,0.474-0.474
		c0-0.822-1.24-1.423-1.768-1.423c-0.262,0-0.474,0.212-0.474,0.474c0,0.262,0.212,0.474,0.474,0.474
		C22.9,25.679,23.447,25.99,23.519,26.166z"/>
	<path fill="#FFFFFF" d="M32.659,0H3.341C1.499,0,0,1.499,0,3.341V6.68v1.537c0.371-0.071,0.884-0.163,1.509-0.26
		c2.641-0.411,7.287-0.911,11.716-0.29c0.243,0.034,0.599,0.291,0.913,0.518c0.513,0.37,1.095,0.79,1.752,0.638
		c0.259-0.06,0.625-0.238,0.894-0.744c0.188-0.353,0.384-0.567,0.553-0.603c0.35-0.074,1.003,0.438,1.48,0.812
		c0.596,0.468,1.158,0.909,1.785,0.909c0.934,0,1.39-0.69,1.692-1.146c0.328-0.497,0.451-0.621,0.751-0.621
		c0.409,0,0.609,0.436,0.765,1.667c0.018,0.143,0.035,0.277,0.056,0.395c0.085,0.494,0.091,2.503,0.074,3.654
		c-0.004,0.263,0.129,0.509,0.351,0.649c0.968,0.611,0.657,2.508,0.266,3.144c-0.269,0.439-0.408,1.211,0.389,3.865
		c0.408,1.36,0.876,2.587,0.896,2.638c0.112,0.292,0.392,0.485,0.705,0.485c0.264,0,0.377,0.083,0.446,0.155
		c0.404,0.422,0.352,1.616,0.327,2.19c-0.006,0.149-0.012,0.277-0.012,0.388c0,0.536-0.966,1.09-2.582,1.09
		c-2.396,0-3.322-0.885-5.351-2.824c-1.227-1.172-2.753-2.631-5.134-4.412c-1.029-0.77-1.077-2.027-1.077-4.368
		c0-0.417-0.338-0.755-0.755-0.755c-0.417,0-0.754,0.338-0.754,0.755c0,2.317,0,4.318,1.682,5.576
		c2.308,1.727,3.798,3.151,4.995,4.295c2.115,2.022,3.392,3.242,6.394,3.242c1.116,0,2.086-0.217,2.807-0.628
		c0.828-0.472,1.284-1.172,1.284-1.971c0-0.078,0.005-0.191,0.011-0.322c0.039-0.902,0.105-2.412-0.745-3.299
		c-0.268-0.28-0.603-0.468-0.988-0.559c-0.16-0.44-0.417-1.172-0.655-1.952c-0.65-2.123-0.592-2.735-0.573-2.838
		c0.367-0.622,0.591-1.581,0.572-2.46c-0.022-1.034-0.369-1.884-0.985-2.441c0.008-0.874,0.013-2.901-0.1-3.554
		c-0.01-0.058-0.02-0.131-0.031-0.213c0.512-0.147,1.394-0.337,2.294-0.466c1.153-0.165,1.833-0.164,2.166-0.123
		c-0.068,1.127-0.463,2.076-1.086,2.581c-0.408,0.331-0.871,0.445-1.378,0.338c-0.408-0.086-0.808,0.175-0.894,0.583
		c-0.086,0.408,0.175,0.808,0.583,0.894c0.223,0.047,0.445,0.07,0.665,0.07c0.713,0,1.396-0.244,1.975-0.713
		c1.052-0.853,1.655-2.35,1.655-4.105c0-0.343-0.171-0.656-0.469-0.859c-0.211-0.144-0.772-0.526-3.311-0.177
		c-0.876,0.12-1.825,0.31-2.489,0.491c-0.038-0.113-0.079-0.226-0.128-0.335c-0.371-0.825-1.032-1.28-1.861-1.28
		c-1.151,0-1.667,0.781-2.009,1.298c-0.24,0.363-0.328,0.462-0.422,0.469c-0.168-0.039-0.603-0.381-0.865-0.587
		C18.997,6.513,18.064,5.78,17.024,6c-0.608,0.128-1.121,0.561-1.526,1.285c-0.141-0.081-0.335-0.221-0.477-0.323
		c-0.456-0.33-0.974-0.703-1.587-0.789C9.802,5.663,6.071,5.883,3.581,6.158c-0.769,0.085-1.466,0.179-2.072,0.27V3.341
		c0-1.01,0.822-1.832,1.832-1.832h29.317c1.01,0,1.832,0.822,1.832,1.832v29.317c0,1.01-0.822,1.832-1.832,1.832H3.341
		c-1.01,0-1.832-0.822-1.832-1.832V31.71c3.208-1.697,5.717-3.697,7.355-5.19c2.143-1.954,3.285-3.46,3.333-3.523
		c0.251-0.333,0.184-0.805-0.148-1.056c-0.333-0.251-0.806-0.185-1.057,0.148c-0.011,0.015-1.125,1.48-3.174,3.344
		c-1.442,1.312-3.589,3.033-6.308,4.56C1.024,30.264,0.521,30.53,0,30.787v1.672v0.2C0,34.501,1.499,36,3.341,36h29.317
		C34.501,36,36,34.501,36,32.659V3.341C36,1.499,34.501,0,32.659,0z"/>
</g>
</svg>
