<?xml version="1.0" encoding="utf-8"?>
<!-- Generator: Adobe Illustrator 17.0.0, SVG Export Plug-In . SVG Version: 6.00 Build 0)  -->
<!DOCTYPE svg PUBLIC "-//W3C//DTD SVG 1.1//EN" "http://www.w3.org/Graphics/SVG/1.1/DTD/svg11.dtd">
<svg version="1.1" id="Capa_1" xmlns="http://www.w3.org/2000/svg" xmlns:xlink="http://www.w3.org/1999/xlink" x="0px" y="0px"
	 width="36px" height="36px" viewBox="0 0 36 36" enable-background="new 0 0 36 36" xml:space="preserve">
<g>
	<path fill="#FFFFFF" d="M19.033,19.18c0.027,0,0.053-0.002,0.08-0.007c0.163-0.028,0.3-0.139,0.361-0.293
		c0.029-0.073,0.078-0.25,0.083-0.617c0.003-0.245-0.101-0.401-0.188-0.49c-0.134-0.135-0.315-0.204-0.54-0.204
		c-0.125,0-0.24,0.021-0.324,0.036c-0.018,0.003-0.034,0.007-0.048,0.008c-0.177,0.014-0.331,0.126-0.399,0.29
		c-0.069,0.167-0.039,0.358,0.08,0.494l0.538,0.619C18.766,19.121,18.897,19.18,19.033,19.18z"/>
	<path fill="#FFFFFF" d="M14.62,11.672c-0.022-0.801-0.051-1.441-0.2-1.788c-0.057-0.132-0.169-0.231-0.307-0.269
		c-0.138-0.039-0.286-0.013-0.403,0.07c-0.796,0.564-1.527,2.045-1.728,2.854c-0.063,0.254,0.092,0.511,0.346,0.575
		c0.038,0.01,0.077,0.014,0.115,0.014c0.213,0,0.406-0.144,0.46-0.36c0.105-0.421,0.404-1.086,0.75-1.614
		c0.01,0.21,0.015,0.41,0.019,0.545c0.01,0.369,0.016,0.551,0.042,0.668c0.055,0.256,0.308,0.419,0.564,0.363
		c0.254-0.055,0.416-0.304,0.365-0.558C14.632,12.107,14.626,11.866,14.62,11.672z"/>
	<path fill="#FFFFFF" d="M32.659,0H3.341C1.499,0,0,1.499,0,3.341v21.212v1.602c0.503-0.179,1.011-0.365,1.509-0.562
		c2.132-0.844,4.084-1.883,4.657-3.338c0.142-0.36,0.301-0.872,0.502-1.52c0.403-1.298,0.955-3.076,1.679-4.553
		c0.762-1.553,1.563-2.45,2.318-2.592c0.301-0.057,0.538-0.291,0.599-0.591c0.456-2.24,2.379-4.226,3.283-4.98
		c0.216,0.487,0.545,1.57,0.71,3.834c0.015,0.213,0.12,0.409,0.288,0.54c0.168,0.131,0.384,0.185,0.594,0.149
		c0.343-0.06,0.944-0.046,1.454,0.127c0.31,0.105,0.653-0.003,0.848-0.266c0.407-0.55,1.312-1.143,2.172-1.538
		c-0.093,0.229-0.181,0.46-0.26,0.682c-0.555,1.559-0.472,2.08-0.3,2.41c0.179,0.342,0.515,0.743,0.905,1.207
		c0.301,0.358,0.641,0.763,0.908,1.146c0.647,0.929,0.579,1.556,0.543,1.726l-0.002,0.008c-0.118,0.55-0.292,1.947,0.653,3.044
		c0.332,0.386,0.476,0.581,0.54,0.68l-0.475,0.111c-0.13,0.03-0.241,0.114-0.306,0.23c-0.065,0.116-0.078,0.255-0.036,0.381
		c0.02,0.059,0.1,0.265,0.316,0.438c0.044,0.035,0.11,0.065,0.169,0.096c-0.013,0.031-0.027,0.061-0.035,0.094
		c-0.054,0.174-0.421,0.921-0.94,1.61c-0.545,0.723-1.087,1.154-1.451,1.154c-0.272,0-1.273-0.097-1.926-0.229
		c-0.135-0.027-0.274-0.017-0.404,0.029c-0.518,0.185-2.251,0.944-2.778,2.934c-0.431,1.626,0.075,3.595,1.505,5.877
		c0.306,0.489,0.655,0.992,1.046,1.509h1.925h12.448C34.501,36,36,34.501,36,32.659V3.341C36,1.499,34.501,0,32.659,0z
		 M34.491,32.659c0,1.01-0.822,1.832-1.832,1.832H19.052c-1.29-1.831-2.286-3.882-1.86-5.49c0.293-1.105,1.189-1.628,1.648-1.828
		c0.724,0.128,1.657,0.217,2.002,0.217c0.897,0,1.803-0.607,2.692-1.804c0.532-0.716,0.992-1.573,1.133-2.004
		c0.111-0.232,0.481-1.051,0.481-1.627c0-0.017,0-0.034,0-0.05c0.006-0.58-0.153-0.883-0.945-1.803
		c-0.503-0.585-0.392-1.413-0.321-1.742l0.002-0.011c0.185-0.868-0.099-1.926-0.78-2.904c-0.306-0.439-0.67-0.872-0.991-1.254
		c-0.271-0.323-0.551-0.655-0.681-0.863c0.014-0.514,0.682-2.325,1.227-3.301c0.135-0.243,0.127-0.54-0.023-0.774
		c-0.15-0.234-0.416-0.367-0.693-0.346C20.739,9,18.683,9.959,17.571,11.102c-0.285-0.059-0.582-0.094-0.873-0.102
		c-0.284-2.911-0.919-4.54-1.848-4.726c-0.35-0.07-0.65,0.07-1.285,0.6c-0.441,0.368-0.922,0.841-1.355,1.332
		c-0.824,0.934-1.86,2.365-2.318,4.04c-1.073,0.409-2.026,1.486-2.901,3.272c-0.775,1.581-1.347,3.424-1.765,4.77
		c-0.184,0.594-0.344,1.107-0.465,1.414c-0.15,0.381-0.65,0.998-2.176,1.77c-0.349,0.177-0.713,0.342-1.077,0.496V3.341
		c0-1.01,0.822-1.832,1.832-1.832h29.317c1.01,0,1.832,0.822,1.832,1.832V32.659z"/>
</g>
</svg>
