<?xml version="1.0" encoding="utf-8"?>
<!-- Generator: Adobe Illustrator 17.0.0, SVG Export Plug-In . SVG Version: 6.00 Build 0)  -->
<!DOCTYPE svg PUBLIC "-//W3C//DTD SVG 1.1//EN" "http://www.w3.org/Graphics/SVG/1.1/DTD/svg11.dtd">
<svg version="1.1" id="Capa_1" xmlns="http://www.w3.org/2000/svg" xmlns:xlink="http://www.w3.org/1999/xlink" x="0px" y="0px"
	 width="36px" height="36px" viewBox="0 0 36 36" enable-background="new 0 0 36 36" xml:space="preserve">
<g>
	<path fill="#FFFFFF" d="M21.427,10.477c0.143,0,0.259-0.116,0.259-0.259c0-0.182-0.016-0.414-0.145-0.587
		c-0.085-0.115-0.247-0.139-0.362-0.054c-0.115,0.085-0.139,0.247-0.054,0.362c0.01,0.014,0.043,0.074,0.043,0.28
		C21.168,10.361,21.284,10.477,21.427,10.477z"/>
	<path fill="#FFFFFF" d="M19.994,9.806c-0.073,0-0.147,0.011-0.221,0.032c-0.426,0.122-0.576,0.467-0.535,0.754
		c0.05,0.359,0.382,0.64,0.756,0.64c0.05,0,0.1-0.005,0.149-0.015c0.357-0.071,0.589-0.393,0.553-0.764
		C20.659,10.078,20.364,9.806,19.994,9.806z"/>
	<path fill="#FFFFFF" d="M20.334,12.505c-0.048,0.141-0.412,0.816-0.487,0.92c-0.091,0.102-0.088,0.258,0.01,0.355
		c0.051,0.051,0.117,0.076,0.183,0.076c0.066,0,0.132-0.025,0.183-0.076c0.118-0.118,0.548-0.951,0.601-1.107
		c0.046-0.135-0.026-0.282-0.161-0.329C20.527,12.298,20.38,12.37,20.334,12.505z"/>
	<path fill="#FFFFFF" d="M18.889,12.291c0.063,0.425-0.158,0.672-0.213,0.712c-0.157,0.069-0.234,0.25-0.172,0.412
		c0.049,0.129,0.172,0.208,0.302,0.208c0.038,0,0.077-0.007,0.115-0.021c0.166-0.063,0.342-0.245,0.461-0.475
		c0.101-0.195,0.208-0.514,0.147-0.929c-0.06-0.41-0.431-0.609-0.758-0.784c-0.473-0.254-0.762-0.443-0.789-0.915
		c-0.047-0.842,0.961-1.239,2.057-1.541c0.172-0.048,0.273-0.226,0.225-0.398c-0.048-0.172-0.226-0.273-0.398-0.226
		c-0.848,0.234-2.613,0.722-2.531,2.201c0.048,0.868,0.698,1.217,1.128,1.448C18.649,12.08,18.876,12.202,18.889,12.291z"/>
	<path fill="#FFFFFF" d="M20.109,15.652c0.415,0.631,0.414,2.423,0.303,3.043c-0.03,0.169,0.033,0.341,0.165,0.45
		c0.086,0.071,0.193,0.108,0.302,0.108c0.058,0,0.116-0.011,0.171-0.032c0.433-0.167,0.932-0.626,1.334-1.227
		c0.536-0.801,0.895-1.841,1.039-3.007c0.194-1.574,1.29-2.172,2.35-2.75c0.451-0.246,0.877-0.478,1.206-0.778
		c0.116-0.106,0.173-0.263,0.15-0.419c-0.023-0.156-0.121-0.29-0.263-0.359c-1.299-0.628-3.331-0.023-3.658,0.234
		c-0.206,0.162-0.242,0.46-0.08,0.666c0.157,0.199,0.441,0.239,0.646,0.095c0.167-0.089,0.902-0.302,1.63-0.319
		c-0.029,0.016-0.057,0.031-0.086,0.047c-1.09,0.595-2.584,1.409-2.837,3.466c-0.173,1.401-0.639,2.302-1.059,2.835
		c0.001-0.858-0.106-1.945-0.521-2.575c-0.595-0.904-1.518-0.943-2.069-0.965c-0.08-0.003-0.155-0.006-0.215-0.012
		c-0.261-0.023-0.491,0.17-0.514,0.431c-0.023,0.261,0.17,0.491,0.431,0.514c0.082,0.007,0.168,0.011,0.258,0.014
		C19.353,15.136,19.806,15.191,20.109,15.652z"/>
	<path fill="#FFFFFF" d="M14.14,28.218c-0.214-0.151-0.51-0.099-0.661,0.115c-0.582,0.829-2.064,1.98-3.769,2.626
		c0.246-0.211,0.493-0.429,0.729-0.644c1.169-1.068,1.858-1.866,2.049-2.371c0.078-0.207,0.003-0.44-0.181-0.563
		c-0.184-0.122-0.429-0.101-0.589,0.051c-0.617,0.587-3.109,1.666-4.449,2.013c-0.254,0.066-0.406,0.325-0.34,0.578
		c0.066,0.254,0.325,0.406,0.578,0.34c0.637-0.165,1.552-0.496,2.43-0.876c-0.045,0.042-0.091,0.084-0.138,0.127
		c-0.937,0.857-1.897,1.614-2.325,1.892c-0.182,0.118-0.26,0.345-0.191,0.55c0.066,0.194,0.247,0.322,0.449,0.322
		c0.012,0,0.025,0,0.037-0.001c2.779-0.216,5.552-2.17,6.485-3.498C14.406,28.664,14.354,28.369,14.14,28.218z"/>
	<path fill="#FFFFFF" d="M11.009,26.554c-0.151-0.214-0.447-0.265-0.661-0.114c-0.853,0.602-2.538,1.198-5.024,1.779
		c1.861-1.046,4.534-2.348,6.529-3.319c0.367-0.179,0.715-0.348,1.037-0.506c0.232-0.113,0.33-0.391,0.222-0.625
		c-0.108-0.234-0.384-0.339-0.62-0.236c-3.518,1.534-6.522,2.476-8.46,2.653c-0.261,0.024-0.453,0.254-0.429,0.515
		c0.024,0.261,0.254,0.453,0.515,0.429c0.519-0.047,1.108-0.145,1.757-0.291c-1.55,0.827-2.723,1.531-3.226,2.02
		c-0.15,0.146-0.187,0.374-0.09,0.559c0.083,0.159,0.246,0.255,0.42,0.255c0.03,0,0.06-0.003,0.09-0.009
		c4.031-0.777,6.591-1.578,7.826-2.45C11.109,27.064,11.16,26.768,11.009,26.554z"/>
	<path fill="#FFFFFF" d="M12.958,20.017c0.212-0.152,0.261-0.447,0.11-0.66c-0.151-0.213-0.446-0.263-0.659-0.114
		c-1.735,1.217-3.465,1.723-4.991,2.169c-1.239,0.362-2.31,0.675-3.164,1.29c-0.213,0.153-0.261,0.449-0.108,0.662
		c0.153,0.212,0.449,0.261,0.662,0.108c0.722-0.52,1.72-0.812,2.876-1.15c0.29-0.085,0.587-0.171,0.89-0.265
		c-1.896,1.409-2.965,2.19-3.684,2.39c-0.249,0.07-0.397,0.326-0.331,0.577c0.056,0.213,0.248,0.354,0.458,0.354
		c0.037,0,0.075-0.004,0.113-0.014c1.531-0.375,4.538-1.419,5.032-1.621c0.242-0.099,0.359-0.376,0.259-0.618
		c-0.099-0.242-0.376-0.359-0.618-0.259c-0.178,0.073-0.719,0.267-1.403,0.5c0.301-0.222,0.627-0.465,0.981-0.728
		C10.332,21.933,11.514,21.055,12.958,20.017z"/>
	<path fill="#FFFFFF" d="M23.223,8.416c-0.379-0.173-0.772,0.025-1.035,0.19c-0.222,0.139-0.29,0.431-0.151,0.654
		s0.431,0.29,0.654,0.151c0.038-0.024,0.071-0.043,0.099-0.058c0.019,0.087,0.036,0.194,0.049,0.277
		c0.024,0.153,0.052,0.327,0.096,0.5c0.001,0.004,0.003,0.008,0.004,0.012c0.004,0.014,0.009,0.027,0.014,0.04
		c0.005,0.013,0.01,0.027,0.017,0.04c0.006,0.013,0.013,0.026,0.021,0.038c0.007,0.012,0.015,0.023,0.023,0.034
		c0.009,0.012,0.018,0.024,0.029,0.036c0.008,0.009,0.017,0.018,0.027,0.026c0.012,0.011,0.023,0.022,0.036,0.032
		c0.011,0.009,0.024,0.016,0.036,0.024c0.012,0.007,0.022,0.016,0.035,0.023c0.07,0.037,0.145,0.054,0.219,0.054
		c0.071,0,0.141-0.017,0.205-0.048c0.002-0.001,0.003-0.002,0.005-0.002c0.053-0.026,0.101-0.062,0.141-0.107
		c0.002-0.003,0.005-0.006,0.007-0.009c0.015-0.018,0.029-0.037,0.042-0.057c0.004-0.006,0.008-0.012,0.012-0.019
		c0.003-0.005,0.006-0.009,0.008-0.013c0.053-0.092,0.424-0.431,1.177-0.838c0.723-0.391,1.476-0.671,2.066-0.768
		c0.18-0.03,0.327-0.16,0.378-0.335c0.051-0.175-0.002-0.364-0.138-0.486c-0.928-0.835-2.285-0.833-3.482-0.832
		c-0.312,0-0.607,0.001-0.893-0.012c-0.262-0.011-0.483,0.192-0.494,0.453c-0.011,0.262,0.192,0.483,0.453,0.494
		c0.307,0.013,0.626,0.013,0.935,0.013c0.639-0.001,1.29-0.002,1.852,0.121c-0.716,0.274-1.442,0.657-1.969,1.035
		C23.627,8.799,23.503,8.544,23.223,8.416z"/>
	<path fill="#FFFFFF" d="M32.659,0H3.341C1.499,0,0,1.499,0,3.341v14.7v1.478c0.053,0.015,0.106,0.031,0.16,0.047
		c0.415,0.12,0.868,0.252,1.349,0.363c0.628,0.145,1.302,0.253,1.995,0.253c0.167,0,0.336-0.006,0.505-0.02
		c1.718-0.139,3.097-1.021,4.1-2.622c1.09-1.741,2.33-2.212,3.529-2.668c0.886-0.337,1.802-0.685,2.462-1.533
		c0.317-0.408,0.65-0.993,1.036-1.67c0.804-1.411,1.905-3.344,2.988-3.663c0.912-0.269,1.441-0.195,2.243-0.083
		c0.249,0.035,0.531,0.074,0.846,0.106c0.415,0.041,0.784-0.261,0.826-0.676c0.042-0.415-0.261-0.784-0.675-0.826
		c-0.286-0.029-0.542-0.064-0.789-0.099c-0.887-0.124-1.653-0.231-2.878,0.13c-1.667,0.491-2.89,2.638-3.873,4.363
		c-0.342,0.6-0.665,1.168-0.916,1.49c-0.4,0.514-1.021,0.75-1.807,1.049c-1.298,0.493-2.913,1.107-4.272,3.278
		c-0.756,1.208-1.691,1.818-2.942,1.919c-0.79,0.064-1.619-0.089-2.379-0.283V3.341c0-1.01,0.822-1.832,1.832-1.832h29.317
		c1.01,0,1.832,0.822,1.832,1.832v29.317c0,1.01-0.822,1.832-1.832,1.832H21.825c2.675-6.135,0.945-11.699,0.339-13.646
		c-0.069-0.223-0.148-0.476-0.161-0.552c-0.071-0.411-0.461-0.686-0.872-0.615c-0.411,0.071-0.686,0.461-0.615,0.872
		c0.03,0.173,0.1,0.4,0.207,0.743c0.332,1.066,0.949,3.051,1.036,5.592c0.091,2.684-0.445,5.236-1.595,7.606
		c-0.182,0.374-0.378,0.744-0.59,1.108C19.5,35.725,19.468,35.864,19.472,36h1.608h11.578C34.501,36,36,34.501,36,32.659V3.341
		C36,1.499,34.501,0,32.659,0z"/>
</g>
</svg>
