<?xml version="1.0" encoding="utf-8"?>
<!-- Generator: Adobe Illustrator 17.0.0, SVG Export Plug-In . SVG Version: 6.00 Build 0)  -->
<!DOCTYPE svg PUBLIC "-//W3C//DTD SVG 1.1//EN" "http://www.w3.org/Graphics/SVG/1.1/DTD/svg11.dtd">
<svg version="1.1" id="Capa_1" xmlns="http://www.w3.org/2000/svg" xmlns:xlink="http://www.w3.org/1999/xlink" x="0px" y="0px"
	 width="36px" height="36px" viewBox="0 0 36 36" enable-background="new 0 0 36 36" xml:space="preserve">
<g>
	<path fill="#FFFFFF" d="M3.123,13.238c0.704-0.353,1.989-0.927,2.443-0.967c0.056-0.005,0.127-0.007,0.212-0.007
		c0.289,0,0.688,0.028,1.109,0.057c0.48,0.034,0.977,0.068,1.396,0.068c0.295,0,0.524-0.018,0.699-0.054
		c0.511-0.107,0.844-0.623,0.991-1.536c0.09-0.56,0.085-1.092,0.084-1.114c-0.002-0.138-0.063-0.268-0.168-0.357
		C9.783,9.239,9.645,9.2,9.508,9.222c-0.583,0.093-3.525,0.577-4.241,1.001c-0.698,0.413-2.479,2.057-2.68,2.243
		c-0.173,0.16-0.202,0.424-0.067,0.618c0.091,0.132,0.239,0.204,0.39,0.204C2.982,13.288,3.055,13.272,3.123,13.238z M5.751,11.039
		c0.357-0.212,2.005-0.555,3.333-0.785c-0.008,0.096-0.019,0.198-0.034,0.302c-0.092,0.659-0.246,0.828-0.274,0.853
		c-0.079,0.015-0.226,0.032-0.493,0.032c-0.386,0-0.866-0.034-1.33-0.066c-0.439-0.031-0.853-0.06-1.176-0.06
		c-0.114,0-0.211,0.004-0.295,0.011c-0.051,0.004-0.107,0.013-0.166,0.024C5.492,11.213,5.642,11.103,5.751,11.039z"/>
	<path fill="#FFFFFF" d="M23.727,10.421c-0.006-0.018-0.013-0.037-0.02-0.059c-0.069-0.203-0.184-0.542-0.427-0.851
		c-0.345-0.439-0.84-0.667-1.396-0.64l-0.251,0.012C20.8,8.924,19.25,8.999,17.35,8.999c-1.332,0-2.58-0.171-3.491-0.296
		c-0.522-0.071-0.934-0.128-1.233-0.135c-0.547-0.013-1.042,0.231-1.391,0.688c-0.241,0.315-0.363,0.659-0.428,0.844l-0.007,0.019
		c-0.442,1.247-0.567,1.742-0.572,1.763c-0.1,0.404,0.145,0.812,0.548,0.913c0.404,0.101,0.813-0.144,0.915-0.547
		c0.001-0.005,0.119-0.465,0.531-1.624l0.007-0.021c0.098-0.276,0.21-0.53,0.361-0.527c0.214,0.005,0.608,0.059,1.064,0.122
		c0.954,0.131,2.261,0.31,3.696,0.31c1.937,0,3.511-0.077,4.357-0.118l0.249-0.012c0.076-0.004,0.161-0.008,0.323,0.47
		c0.01,0.028,0.019,0.055,0.027,0.078c0.411,1.159,0.529,1.62,0.531,1.624c0.086,0.342,0.393,0.571,0.731,0.571
		c0.06,0,0.122-0.007,0.183-0.023c0.404-0.101,0.651-0.51,0.55-0.914C24.295,12.164,24.17,11.668,23.727,10.421z"/>
	<path fill="#FFFFFF" d="M25.825,12.992c0.089-0.002,0.258-0.014,0.491-0.031c0.5-0.036,1.255-0.091,1.84-0.091
		c0.384,0,0.549,0.024,0.613,0.039c0.381,0.086,1.793,0.935,2.675,1.511c0.08,0.052,0.17,0.077,0.259,0.077
		c0.13,0,0.259-0.054,0.352-0.156c0.157-0.173,0.164-0.434,0.018-0.616c-0.193-0.24-1.915-2.356-2.876-2.865
		c-0.399-0.211-1.102-0.498-1.79-0.73c-0.597-0.201-1.418-0.441-1.942-0.441c-0.766,0-0.82,0.53-0.822,0.636
		c-0.014,0.501,0.245,1.986,0.704,2.458c0.169,0.174,0.346,0.21,0.465,0.21C25.815,12.993,25.821,12.992,25.825,12.992z
		 M27.103,11.028c0.634,0.214,1.297,0.483,1.649,0.67c0.143,0.076,0.32,0.211,0.515,0.383c-0.111-0.045-0.209-0.079-0.29-0.097
		c-0.188-0.042-0.449-0.062-0.822-0.062c-0.62,0-1.396,0.057-1.909,0.094c-0.102,0.007-0.197,0.014-0.275,0.02
		c-0.134-0.261-0.31-0.915-0.365-1.39C25.936,10.679,26.477,10.817,27.103,11.028z"/>
	<path fill="#FFFFFF" d="M8.206,17.511c-0.186-0.373-0.64-0.524-1.012-0.337c-0.005,0.002-0.506,0.229-1.092-0.02
		c-0.553-0.235-1.3-0.984-1.659-1.449c0.653-0.42,2.226-1.128,3.093-1.133c0.687-0.003,1.272,0.158,1.693,0.301
		c-0.146,0.761-0.221,1.721-0.251,2.198c-0.033,0.519-0.127,2.279,0.058,3.155c0.265,1.255,1.28,3.564,1.686,4.242
		c0.141,0.236,0.391,0.366,0.648,0.366c0.132,0,0.266-0.035,0.387-0.108c0.357-0.214,0.473-0.678,0.259-1.035
		c-0.349-0.582-1.285-2.743-1.504-3.778c-0.22-1.042,0.041-4.593,0.32-5.233c0.097-0.223,0.081-0.479-0.044-0.688
		c-0.117-0.196-0.316-0.328-0.54-0.36c-0.043-0.013-0.141-0.048-0.22-0.077c-0.475-0.172-1.356-0.492-2.468-0.492
		c-0.01,0-0.021,0-0.032,0c-0.884,0.005-1.981,0.423-2.557,0.671c-0.449,0.194-1.539,0.701-1.963,1.223
		c-0.256,0.315-0.263,0.609-0.224,0.8c0.159,0.782,1.69,2.345,2.73,2.786c1.219,0.517,2.244,0.037,2.357-0.02
		C8.242,18.337,8.393,17.884,8.206,17.511z"/>
	<path fill="#FFFFFF" d="M24.283,14.101c-0.24,0.022-0.456,0.157-0.58,0.365c-0.125,0.209-0.141,0.465-0.044,0.688
		c0.29,0.665,0.459,2.94,0.228,4.269c-0.192,1.11-1.458,3.173-1.935,3.95c-0.068,0.11-0.125,0.203-0.168,0.275
		c-0.214,0.357-0.099,0.821,0.259,1.035c0.122,0.073,0.255,0.108,0.387,0.108c0.256,0,0.506-0.131,0.648-0.366
		c0.041-0.069,0.095-0.157,0.16-0.262c0.936-1.526,1.922-3.251,2.135-4.481c0.207-1.195,0.154-3.012-0.08-4.234
		c0.509-0.092,1.163-0.19,1.585-0.146c0.227,0.024,0.818,0.232,1.507,0.582c0.525,0.267,0.877,0.5,1.072,0.653
		c-0.096,0.144-0.242,0.331-0.435,0.523c-0.384,0.382-0.671,0.504-0.769,0.515c-0.444,0.049-1.212-0.201-1.592-0.37
		c-0.38-0.17-0.826,0-0.996,0.38c-0.171,0.38-0.001,0.827,0.379,0.997c0.138,0.062,1.38,0.604,2.376,0.493
		c0.69-0.077,1.315-0.585,1.718-0.997c0.186-0.19,0.8-0.856,0.922-1.457c0.038-0.19,0.033-0.485-0.207-0.813
		c-0.348-0.475-1.161-0.951-1.782-1.267c-0.305-0.155-1.351-0.666-2.034-0.738c-0.774-0.082-1.819,0.122-2.443,0.243
		C24.476,14.067,24.328,14.096,24.283,14.101z"/>
	<path fill="#FFFFFF" d="M11.644,28.008c0.563,0.854,1.253,1.311,1.583,1.495c0.138,0.161,0.379,0.401,0.747,0.635
		c0.731,0.465,1.664,0.711,2.698,0.711h0.517c1.034,0,1.967-0.246,2.698-0.711c0.368-0.234,0.609-0.474,0.747-0.635
		c0.33-0.184,1.02-0.641,1.583-1.495c0.773-1.174-0.185-2.906-0.7-3.836c-0.06-0.108-0.128-0.231-0.147-0.273
		c-0.171-0.38-0.618-0.549-0.998-0.378c-0.38,0.171-0.549,0.618-0.378,0.998c0.045,0.099,0.111,0.219,0.203,0.385
		c0.193,0.348,0.484,0.875,0.66,1.386c0.229,0.665,0.114,0.868,0.101,0.889c-0.469,0.712-1.08,1.02-1.126,1.043
		c-0.096,0.041-0.175,0.101-0.242,0.175c-0.921-0.426-2.094-0.508-2.634-0.522c-0.909-0.023-2.051,0.085-2.772,0.437
		c-0.046-0.035-0.097-0.065-0.156-0.091c-0.006-0.003-0.64-0.309-1.122-1.041c-0.014-0.021-0.128-0.224,0.101-0.889
		c0.176-0.511,0.467-1.037,0.66-1.386c0.092-0.166,0.158-0.285,0.203-0.385c0.171-0.38,0.002-0.827-0.378-0.998
		c-0.38-0.171-0.827-0.002-0.998,0.378c-0.019,0.042-0.087,0.165-0.147,0.273C11.829,25.103,10.87,26.834,11.644,28.008z
		 M18.683,29.067c-0.36,0.151-0.849,0.272-1.494,0.272h-0.517c-0.739,0-1.27-0.156-1.638-0.335
		C15.964,28.757,17.559,28.742,18.683,29.067z"/>
	<path fill="#FFFFFF" d="M14.703,25.722c0.154,0.079,0.286,0.147,0.286,0.663c0,0.262,0.212,0.474,0.474,0.474
		c0.262,0,0.474-0.212,0.474-0.474c0-0.965-0.405-1.304-0.802-1.507c-0.02-0.01-0.048-0.024-0.057-0.03
		c-0.218-0.145-0.512-0.086-0.657,0.132c-0.145,0.218-0.086,0.512,0.132,0.658C14.606,25.672,14.658,25.699,14.703,25.722z"/>
	<path fill="#FFFFFF" d="M18.892,26.429c0-0.516,0.133-0.585,0.286-0.663c0.046-0.023,0.097-0.05,0.149-0.084
		c0.218-0.145,0.277-0.44,0.132-0.658c-0.145-0.218-0.439-0.277-0.657-0.132c-0.009,0.006-0.037,0.02-0.057,0.03
		c-0.396,0.204-0.802,0.542-0.802,1.507c0,0.262,0.212,0.474,0.474,0.474C18.68,26.903,18.892,26.691,18.892,26.429z"/>
	<path fill="#FFFFFF" d="M12.931,17.838c-0.029-0.25-0.096-0.625-0.188-0.864c-0.186-0.479-0.563-0.65-0.854-0.65
		c-0.093,0-0.181,0.016-0.263,0.048c-0.21,0.081-0.372,0.273-0.445,0.526c-0.047,0.161-0.077,0.417,0.043,0.727
		c0.088,0.228,0.279,0.522,0.427,0.721c0.302,0.404,0.516,0.562,0.764,0.562c0.064,0,0.126-0.012,0.185-0.034
		C13.032,18.706,12.966,18.141,12.931,17.838z"/>
	<path fill="#FFFFFF" d="M21.813,18.96c0.059,0.023,0.121,0.035,0.185,0.035c0,0,0,0,0,0c0.248,0,0.462-0.158,0.764-0.562
		c0.149-0.199,0.339-0.493,0.427-0.721c0.12-0.31,0.09-0.566,0.043-0.727c-0.073-0.253-0.235-0.445-0.445-0.526
		c-0.082-0.032-0.171-0.048-0.263-0.048c-0.291,0-0.668,0.171-0.854,0.65c-0.092,0.238-0.159,0.614-0.188,0.864
		C21.446,18.227,21.38,18.792,21.813,18.96z"/>
	<path fill="#FFFFFF" d="M32.659,0H3.341c-1.799,0-3.27,1.43-3.338,3.212C0.002,3.255,0,3.298,0,3.341v1.395
		c0.409,0.058,0.919,0.131,1.509,0.22c1.144,0.172,2.585,0.401,4.158,0.68c4.919,0.871,8.87,1.824,11.424,2.757
		c0.085,0.031,0.173,0.046,0.259,0.046c0.308,0,0.597-0.19,0.709-0.496c0.143-0.391-0.059-0.825-0.45-0.967
		C12.926,5.266,5.362,4.001,1.509,3.429V3.341c0-1.01,0.822-1.832,1.832-1.832h29.317c1.01,0,1.832,0.822,1.832,1.832v29.317
		c0,1.01-0.822,1.832-1.832,1.832H11.189c0.678-1.05,1.328-2.328,1.591-3.655c0.081-0.409-0.185-0.806-0.594-0.887
		c-0.409-0.081-0.806,0.185-0.887,0.594c-0.289,1.463-1.179,2.912-1.95,3.948c-0.671,0.903-1.251,1.492-1.264,1.504
		C8.085,35.997,8.084,35.999,8.082,36h2.01h22.567C34.501,36,36,34.501,36,32.659V3.341C36,1.499,34.501,0,32.659,0z"/>
</g>
</svg>
