<?xml version="1.0" encoding="utf-8"?>
<!-- Generator: Adobe Illustrator 17.0.0, SVG Export Plug-In . SVG Version: 6.00 Build 0)  -->
<!DOCTYPE svg PUBLIC "-//W3C//DTD SVG 1.1//EN" "http://www.w3.org/Graphics/SVG/1.1/DTD/svg11.dtd">
<svg version="1.1" id="Capa_1" xmlns="http://www.w3.org/2000/svg" xmlns:xlink="http://www.w3.org/1999/xlink" x="0px" y="0px"
	 width="36px" height="36px" viewBox="0 0 36 36" enable-background="new 0 0 36 36" xml:space="preserve">
<g>
	<path fill="#FFFFFF" d="M13.345,15.89c0.627,0.988,0.507,1.76,0.358,2.716c-0.155,0.992-0.33,2.116,0.349,3.586
		c0.475,1.028,1.078,1.815,1.744,2.276c0.455,0.315,0.937,0.476,1.401,0.476c0.199,0,0.396-0.03,0.585-0.09
		c0.577-0.184,1.041-0.636,1.306-1.274c0.044-0.107,0.074-0.223,0.107-0.338c0.252,0.252,0.594,0.383,1.023,0.383
		c0.184,0,0.461-0.06,0.734-0.345c0.602-0.627,0.895-2.063,0.876-2.853c0.252-1.792,0.309-3.214,0.174-4.347
		c-0.155-1.305-0.567-2.277-1.258-2.973c-0.346-0.348-0.387-0.564-0.509-1.206c-0.039-0.206-0.083-0.439-0.147-0.72
		c-0.058-0.255-0.312-0.416-0.567-0.358c-0.255,0.058-0.416,0.312-0.358,0.567c0.06,0.264,0.103,0.489,0.14,0.687
		c0.131,0.688,0.217,1.143,0.768,1.698c1.055,1.061,1.305,3.084,0.811,6.558c-0.004,0.029-0.006,0.057-0.004,0.086
		c0.016,0.393-0.073,0.956-0.226,1.435c-0.19,0.592-0.392,0.791-0.447,0.82c-0.25-0.003-0.324-0.083-0.349-0.109
		c-0.259-0.28-0.187-1.222-0.118-2.134c0.031-0.41,0.064-0.833,0.078-1.28c0.098-2.977-0.829-4.097-1.575-4.997
		c-0.361-0.436-0.647-0.781-0.765-1.278c-0.315-1.327-1.179-1.965-1.751-2.388c-0.123-0.091-0.229-0.169-0.309-0.239
		c-0.616-0.538-1.767-0.889-2.952-0.459c-0.246,0.089-0.374,0.361-0.284,0.607c0.089,0.246,0.361,0.374,0.607,0.284
		c0.817-0.296,1.612-0.061,2.005,0.282c0.109,0.095,0.235,0.189,0.369,0.287c0.516,0.381,1.157,0.855,1.392,1.844
		c0.169,0.713,0.57,1.196,0.958,1.664c0.433,0.523,0.902,1.093,1.162,2.12c-0.095-0.133-0.193-0.264-0.294-0.39
		c-0.99-1.235-1.833-1.671-2.365-1.82c-0.252-0.07-0.514,0.077-0.584,0.329c-0.07,0.252,0.077,0.514,0.329,0.584
		c0.555,0.155,1.24,0.701,1.88,1.5c0.262,0.326,0.506,0.686,0.714,1.041c-0.031-0.031-0.06-0.062-0.093-0.093
		c-0.444-0.423-0.868-0.716-0.886-0.728c-0.161-0.111-0.375-0.111-0.536-0.001c-0.162,0.111-0.239,0.309-0.194,0.5
		c0.272,1.163,0.649,1.68,0.981,2.136c0.3,0.413,0.538,0.739,0.69,1.553c0.229,1.219-0.109,2.229-0.822,2.457
		c-0.954,0.305-1.984-0.863-2.58-2.156c-0.558-1.21-0.42-2.1-0.273-3.043c0.173-1.112,0.353-2.261-0.726-3.706
		c-0.151-0.202-0.433-0.25-0.643-0.111c-0.038,0.025-0.222,0.038-0.446-0.083c-0.161-0.086-0.534-0.349-0.534-0.925
		c0-0.262-0.212-0.474-0.474-0.474c-0.262,0-0.474,0.212-0.474,0.474c0,0.756,0.387,1.414,1.036,1.762
		C12.703,15.863,13.044,15.93,13.345,15.89z"/>
	<path fill="#FFFFFF" d="M14.054,12.233c0.08,0.053,0.171,0.078,0.26,0.078c0.154,0,0.306-0.075,0.397-0.214
		c0.144-0.219,0.083-0.513-0.136-0.657c-0.051-0.034-0.474-0.271-0.722-0.271c-0.262,0-0.474,0.212-0.474,0.474
		c0,0.24,0.178,0.438,0.408,0.47C13.853,12.134,14.007,12.203,14.054,12.233z"/>
	<path fill="#FFFFFF" d="M32.659-0.065H3.341C1.499-0.065,0,1.434,0,3.277v3.081v1.513c0.556-0.053,1.075,0.045,1.509,0.272
		C2.028,8.413,2.426,8.866,2.62,9.463c0.086,0.264,0.309,0.459,0.582,0.509c0.207,0.038,0.45,0.251,0.651,0.57
		c0.375,0.595,0.493,1.342,0.39,1.72c-0.092,0.337,0.06,0.693,0.367,0.86c0.988,0.539,0.984,1.157,0.871,1.972
		c-0.039,0.282,0.083,0.561,0.317,0.724c1.164,0.808,2.796,3.22,3.327,4.081c0.141,0.228,0.387,0.359,0.643,0.359
		c0.088,0,0.177-0.015,0.264-0.048c0.338-0.126,0.539-0.473,0.481-0.829c-0.019-0.116-0.476-2.863-1.434-5.358
		c-0.428-1.114-0.425-2.989,0.593-4.475c0.899-1.314,2.391-2.011,4.315-2.017c0.523-0.003,1.43,0.115,2.262,0.449
		c1.073,0.431,1.789,1.109,2.13,2.016c0.146,0.39,0.581,0.588,0.972,0.441c0.39-0.147,0.587-0.582,0.441-0.972
		c-0.489-1.301-1.519-2.299-2.98-2.885c-1.033-0.415-2.138-0.561-2.829-0.558c-1.269,0.004-2.405,0.259-3.377,0.757
		C9.717,7.233,8.984,7.877,8.424,8.695c-1.333,1.946-1.34,4.35-0.757,5.869c0.183,0.477,0.348,0.969,0.494,1.449
		c-0.371-0.43-0.758-0.832-1.136-1.151c0.06-0.754-0.025-1.904-1.242-2.781c0.031-0.752-0.206-1.631-0.654-2.343
		C4.798,9.211,4.376,8.827,3.913,8.624C3.557,7.818,2.945,7.17,2.158,6.775C1.951,6.671,1.734,6.586,1.509,6.52V3.277
		c0-1.01,0.822-1.832,1.832-1.832h29.317c1.01,0,1.832,0.822,1.832,1.832v29.317c0,1.01-0.822,1.832-1.832,1.832H21.479
		c0.701-1.057,1.126-2.466,1.075-3.54c-0.04-0.834-0.417-1.478-0.72-1.995c-0.31-0.529-0.439-0.786-0.366-1.027
		c0.329-1.096-0.169-1.892-0.532-2.473c-0.154-0.247-0.314-0.502-0.314-0.645c0-0.417-0.338-0.754-0.754-0.754
		c-0.417,0-0.755,0.338-0.755,0.754c0,0.575,0.289,1.037,0.544,1.445c0.318,0.509,0.492,0.818,0.366,1.239
		c-0.269,0.896,0.163,1.632,0.51,2.224c0.253,0.432,0.493,0.84,0.515,1.303c0.058,1.222-0.852,3.122-1.65,3.444
		c-0.02,0.008-0.042,0.017-0.066,0.024h-0.158c-0.083-0.023-0.184-0.087-0.311-0.231c-0.149-0.17-0.366-0.264-0.592-0.256
		c-0.226,0.008-0.436,0.116-0.574,0.295c-0.051,0.066-0.146,0.135-0.289,0.192c-0.184,0.073-0.447,0.126-0.798,0.129
		c-0.01,0-0.02,0-0.031,0c-0.362,0-0.706-0.051-1.008-0.129c-0.538-0.139-0.945-0.364-1.085-0.542
		c-0.724-0.915-0.783-1.894-0.165-2.759c0.085-0.119,0.134-0.261,0.14-0.407c0.045-1.068-0.634-2.584-1.096-3.046
		c-0.295-0.295-0.772-0.295-1.067,0c-0.293,0.293-0.295,0.769-0.004,1.063c0.176,0.2,0.593,1.105,0.653,1.731
		c-0.775,1.243-0.745,2.68,0.074,3.959c0.085,0.134,0.18,0.265,0.282,0.395c0.455,0.574,1.273,0.937,2.099,1.114
		c0.406,0.087,0.814,0.129,1.182,0.129c0.013,0,0.025,0,0.038,0c0.368-0.003,0.708-0.047,1.014-0.129
		c0.241-0.065,0.461-0.154,0.656-0.265c0.244,0.148,0.503,0.237,0.77,0.265h0.377h13.222c1.842,0,3.341-1.499,3.341-3.341V3.277
		C36,1.434,34.501-0.065,32.659-0.065z"/>
</g>
</svg>
