<?xml version="1.0" encoding="utf-8"?>
<!-- Generator: Adobe Illustrator 17.0.0, SVG Export Plug-In . SVG Version: 6.00 Build 0)  -->
<!DOCTYPE svg PUBLIC "-//W3C//DTD SVG 1.1//EN" "http://www.w3.org/Graphics/SVG/1.1/DTD/svg11.dtd">
<svg version="1.1" id="Capa_1" xmlns="http://www.w3.org/2000/svg" xmlns:xlink="http://www.w3.org/1999/xlink" x="0px" y="0px"
	 width="36px" height="36px" viewBox="0 0 36 36" enable-background="new 0 0 36 36" xml:space="preserve">
<g>
	<path fill="#FFFFFF" d="M15.835,22.893c-0.226-0.132-0.517-0.056-0.649,0.17c-1.053,1.804-2.703,4.03-2.72,4.052
		c-0.156,0.21-0.112,0.507,0.098,0.664c0.085,0.063,0.184,0.094,0.282,0.094c0.145,0,0.288-0.066,0.381-0.191
		c0.069-0.093,1.698-2.29,2.778-4.14C16.137,23.316,16.061,23.025,15.835,22.893z"/>
	<path fill="#FFFFFF" d="M19.8,15.626c0.371,0,0.796-0.049,0.814-0.052c0.211-0.025,0.38-0.187,0.413-0.396
		c0.034-0.21-0.076-0.416-0.269-0.505c-0.113-0.052-0.697-0.313-1.143-0.313c-0.356,0-0.729,0.198-0.76,0.64
		c-0.01,0.147,0.04,0.289,0.142,0.398C19.173,15.588,19.446,15.626,19.8,15.626L19.8,15.626z"/>
	<path fill="#FFFFFF" d="M32.659,0H3.341C1.499,0,0,1.499,0,3.341v18.982v2.139c0.098-0.046,0.187-0.114,0.26-0.203
		c0.347-0.423,0.771-0.851,1.249-1.278c1.88-1.681,4.588-3.351,6.68-4.641c2.565-1.582,3.712-2.311,4.001-3.021
		c0.057-0.14,0.071-0.295,0.039-0.443c-0.24-1.119,0.158-1.895,0.415-2.043c0.323-0.187,0.46-0.583,0.323-0.93
		c-0.2-0.507-0.144-1.32,0.154-2.23c0.218-0.665,0.493-1.174,0.683-1.446c0.456,0.03,1.141,0.117,1.806,0.289
		c0.719,0.186,1.094,0.391,1.265,0.526c-0.25,0.051-0.636,0.075-0.874,0.09c-0.792,0.05-1.54,0.098-1.934,0.646
		c-0.196,0.273-0.188,0.644,0.021,0.908c0.209,0.264,0.567,0.358,0.879,0.23c0.293-0.12,1.035-0.119,1.365-0.035
		c0.131,0.193,0.35,0.322,0.6,0.33c1.264,0.039,2.46,0.321,3.459,0.815c1.005,0.497,1.784,1.2,2.253,2.033
		c0.652,1.159,2.398,1.388,4.246,1.63c0.451,0.059,0.91,0.119,1.329,0.193c-0.075,0.308-0.035,0.565,0.012,0.726
		c0.146,0.5,0.551,0.891,1.203,1.167c-0.109,0.249-0.245,0.508-0.406,0.766c-0.495,0.797-0.997,1.248-1.183,1.336
		c-3.061,0.072-4.487,0.47-5.634,0.791c-1.327,0.371-2.285,0.639-5.3,0.291c-0.414-0.048-0.788,0.249-0.836,0.663
		c-0.048,0.414,0.249,0.788,0.663,0.836c0.234,0.027,0.457,0.05,0.67,0.07c-0.955,1.577-2.909,5.068-3.28,6.307
		c-0.045,0.151-0.042,0.311,0.009,0.46c0.027,0.078,0.056,0.163,0.087,0.253c0.361,1.043,0.959,2.769,1.034,4.943
		c0.017,0.482,0.008,0.986-0.035,1.509h1.513h15.922C34.501,36,36,34.501,36,32.659V3.341C36,1.499,34.501,0,32.659,0z
		 M34.491,32.659c0,1.01-0.822,1.832-1.832,1.832H16.766c-0.079-2.443-0.749-4.379-1.116-5.438c0-0.001-0.001-0.003-0.001-0.004
		c0.594-1.582,3.143-5.96,3.429-6.341c0.021-0.027,0.039-0.055,0.056-0.084c1.619,0.017,2.504-0.23,3.484-0.504
		c1.128-0.315,2.406-0.672,5.313-0.736c0.494-0.011,1.049-0.365,1.649-1.054c0.469-0.538,0.893-1.197,1.194-1.856
		c0.375-0.821,0.529-1.562,0.455-2.201c-0.087-0.755-0.648-1.302-1.667-1.625c-0.709-0.225-1.608-0.343-2.477-0.457
		c-0.761-0.1-1.548-0.203-2.161-0.372c-0.729-0.201-0.918-0.418-0.965-0.501c-0.618-1.099-1.621-2.014-2.899-2.646
		c-0.827-0.409-1.76-0.695-2.747-0.848c0.154-0.251,0.184-0.503,0.186-0.649c0.004-0.289-0.077-0.72-0.485-1.134
		c-1.096-1.111-3.861-1.338-4.542-1.338c-0.181,0-0.356,0.065-0.493,0.183c-0.446,0.384-0.966,1.315-1.293,2.316
		c-0.395,1.206-0.399,2.097-0.278,2.717c-0.596,0.664-0.876,1.773-0.716,2.927c-0.128,0.123-0.392,0.344-0.929,0.709
		c-0.627,0.427-1.433,0.923-2.366,1.499c-1.887,1.164-4.078,2.514-5.888,3.953V3.341c0-1.01,0.822-1.832,1.832-1.832h29.317
		c1.01,0,1.832,0.822,1.832,1.832V32.659z"/>
</g>
</svg>
