<?xml version="1.0" encoding="utf-8"?>
<!-- Generator: Adobe Illustrator 17.0.0, SVG Export Plug-In . SVG Version: 6.00 Build 0)  -->
<!DOCTYPE svg PUBLIC "-//W3C//DTD SVG 1.1//EN" "http://www.w3.org/Graphics/SVG/1.1/DTD/svg11.dtd">
<svg version="1.1" id="Capa_1" xmlns="http://www.w3.org/2000/svg" xmlns:xlink="http://www.w3.org/1999/xlink" x="0px" y="0px"
	 width="36px" height="36px" viewBox="0 0 36 36" enable-background="new 0 0 36 36" xml:space="preserve">
<g>
	<path fill="#FFFFFF" d="M21.02,9.526c0.077-0.192,0.162-0.397,0.246-0.592c0.034,0.126,0.066,0.25,0.095,0.36
		c0.348,1.328,0.393,1.479,0.594,1.614c0.118,0.079,0.264,0.103,0.402,0.067c0.207-0.054,0.328-0.2,0.506-0.529
		c0.051,0.254,0.105,0.512,0.154,0.725c0.039,0.171,0.073,0.299,0.103,0.394c0.099,0.311,0.275,0.469,0.522,0.469
		c0.249,0,0.406-0.164,0.616-0.395c0.01,0.049,0.021,0.098,0.031,0.145c0.18,0.848,0.451,2.129,1.039,2.943
		c0.093,0.128,0.238,0.197,0.385,0.197c0.096,0,0.193-0.029,0.277-0.09c0.212-0.153,0.26-0.45,0.107-0.662
		c-0.47-0.651-0.717-1.815-0.88-2.585c-0.151-0.711-0.207-0.977-0.457-1.127c-0.323-0.194-0.625-0.025-0.882,0.209
		c-0.051-0.243-0.104-0.506-0.144-0.708c-0.167-0.839-0.194-0.948-0.261-1.06c-0.092-0.154-0.259-0.246-0.438-0.239
		c-0.297,0.011-0.427,0.201-0.677,0.69c-0.027-0.103-0.054-0.204-0.078-0.298c-0.095-0.363-0.194-0.739-0.277-1.024
		c-0.047-0.162-0.086-0.283-0.119-0.371c-0.04-0.108-0.163-0.437-0.515-0.437c-0.332,0-0.479,0.286-0.597,0.516
		c-0.075,0.146-0.168,0.346-0.277,0.595c-0.182,0.416-0.346,0.824-0.353,0.841c-0.098,0.243,0.02,0.519,0.263,0.617
		S20.923,9.769,21.02,9.526z"/>
	<path fill="#FFFFFF" d="M8.406,20.423c-0.794-0.502-1.287-1.32-1.287-2.136c0-0.417-0.338-0.754-0.754-0.754
		S5.61,17.871,5.61,18.287c0,1.328,0.762,2.635,1.99,3.411c0.125,0.079,0.265,0.117,0.403,0.117c0.25,0,0.495-0.124,0.638-0.351
		C8.863,21.112,8.758,20.646,8.406,20.423z"/>
	<path fill="#FFFFFF" d="M19.328,12.788c-0.229-0.127-0.518-0.044-0.644,0.186c-0.127,0.229-0.044,0.518,0.186,0.645
		c0.192,0.106,0.552,0.404,0.796,1.201c0.063,0.204,0.25,0.336,0.453,0.336c0.046,0,0.093-0.007,0.139-0.021
		c0.25-0.077,0.391-0.342,0.315-0.592C20.247,13.481,19.716,13.002,19.328,12.788z"/>
	<path fill="#FFFFFF" d="M16.049,15.586c0.448,0,1.741-0.208,1.939-0.877c0.202-0.681-0.68-1.523-0.781-1.617
		c-0.316-0.293-0.871-0.397-1.285-0.397c-0.546,0-0.959,0.171-1.164,0.48c-0.294,0.447-0.308,0.992-0.037,1.495
		C15.011,15.209,15.557,15.586,16.049,15.586z"/>
	<path fill="#FFFFFF" d="M17.177,22.103c0.342-0.19,0.613-0.34,0.831-0.34c0.743,0,1.078-0.161,1.542-0.384
		c0.273-0.131,0.612-0.294,1.191-0.498c0.563-0.198,1.921-0.357,3.684-0.266c1.778,0.092,3.438,0.412,4.556,0.878
		c0.385,0.16,0.826-0.021,0.987-0.406c0.02-0.048,0.019-0.097,0.029-0.146c0.101-0.242,0.027-0.55-0.303-1.233
		c-0.273-0.563-0.641-1.219-0.901-1.67c-0.494-0.854-1.434-2.398-1.827-2.768c-0.099-0.094-0.234-0.14-0.37-0.127
		c-0.136,0.013-0.26,0.084-0.34,0.194c-0.032,0.044-0.075,0.115-0.163,0.258c-0.074,0.121-0.229,0.373-0.356,0.563
		c-0.192-0.142-0.456-0.356-0.652-0.516c-0.441-0.359-0.897-0.73-1.219-0.905c-0.23-0.125-0.518-0.04-0.643,0.19
		c-0.125,0.23-0.04,0.518,0.19,0.643c0.245,0.133,0.685,0.491,1.073,0.807c0.264,0.215,0.513,0.418,0.719,0.566
		c0.234,0.169,0.588,0.425,0.925,0.2c0.137-0.091,0.272-0.258,0.553-0.701c0.29,0.421,0.705,1.074,1.164,1.857
		c0.358,0.611,0.629,1.105,0.826,1.487c-0.148-0.045-0.295-0.091-0.445-0.131c-1.382-0.882-2.72-1.428-3.996-1.717
		c0.194-0.064,0.332-0.249,0.326-0.464c-0.007-0.262-0.225-0.468-0.487-0.461c-0.033,0.001-0.81,0.023-1.853,0.135
		c-1.41,0.151-2.573,0.384-3.456,0.693c-0.23,0.08-0.361,0.321-0.305,0.558s0.283,0.392,0.524,0.36
		c1.789-0.24,3.818-0.331,6.007,0.379c-0.176-0.013-0.339-0.023-0.484-0.031c-1.785-0.092-3.378,0.039-4.262,0.35
		c-0.657,0.231-1.054,0.422-1.343,0.561c-0.396,0.19-0.49,0.235-0.889,0.235c-0.609,0-1.094,0.269-1.564,0.529
		c-0.503,0.279-0.979,0.543-1.674,0.543c-0.417,0-0.755,0.338-0.755,0.754s0.338,0.755,0.755,0.755
		C15.856,22.836,16.62,22.412,17.177,22.103z"/>
	<path fill="#FFFFFF" d="M32.659,0H3.341C1.499,0,0,1.499,0,3.341V17.94v4.662c0.085-0.089,0.149-0.201,0.183-0.328
		c0.094-0.36,0.192-0.709,0.292-1.05l1.034-3.001c2.294-5.69,5.412-8.093,7.821-9.095c4.361-1.814,8.017-0.551,9.578-0.012
		l0.022,0.007c0.394,0.136,0.823-0.073,0.959-0.467c0.136-0.394-0.073-0.823-0.467-0.959l-0.022-0.007
		C18.555,7.396,17.14,6.907,15.3,6.734c-2.246-0.211-4.45,0.125-6.549,0.998c-2.658,1.106-4.93,3.171-6.752,6.139
		c-0.167,0.272-0.331,0.552-0.49,0.839V3.341c0-1.01,0.822-1.832,1.832-1.832h29.317c1.01,0,1.832,0.822,1.832,1.832v29.317
		c0,1.01-0.822,1.832-1.832,1.832H17.426c-0.805-2.306-1.415-4.954-1.125-6.751c0.311-1.929,0.971-2.849,2.333-4.182
		c0.298-0.292,0.303-0.769,0.011-1.067c-0.292-0.298-0.769-0.303-1.067-0.011c-0.72,0.705-1.296,1.334-1.761,2.109
		c-0.5,0.833-0.82,1.758-1.006,2.91c-0.345,2.141,0.341,4.927,1.025,6.992c0.188,0.567,0.375,1.079,0.541,1.509h1.622h14.66
		C34.501,36,36,34.501,36,32.659V3.341C36,1.499,34.501,0,32.659,0z"/>
</g>
</svg>
