<?xml version="1.0" encoding="utf-8"?>
<!-- Generator: Adobe Illustrator 17.0.0, SVG Export Plug-In . SVG Version: 6.00 Build 0)  -->
<!DOCTYPE svg PUBLIC "-//W3C//DTD SVG 1.1//EN" "http://www.w3.org/Graphics/SVG/1.1/DTD/svg11.dtd">
<svg version="1.1" id="Capa_1" xmlns="http://www.w3.org/2000/svg" xmlns:xlink="http://www.w3.org/1999/xlink" x="0px" y="0px"
	 width="36px" height="36px" viewBox="0 0 36 36" enable-background="new 0 0 36 36" xml:space="preserve">
<g>
	<path fill="#FFFFFF" d="M32.659,0H3.341C1.499,0,0,1.499,0,3.341v5.299v0.763C0.008,9.41,0.017,9.416,0.026,9.421
		c0.482,0.309,1.003,0.745,1.483,1.192c0.853,0.794,1.58,1.625,1.738,1.85c0.092,0.131,0.239,0.202,0.388,0.202
		c0.094,0,0.189-0.028,0.272-0.086c0.214-0.151,0.266-0.446,0.115-0.661c-0.242-0.345-1.3-1.545-2.44-2.509
		c0.231-0.016,0.485-0.033,0.735-0.049c0.01,0.009,0.015,0.022,0.026,0.031c1.028,0.831,1.879,1.974,2.197,2.426
		c0.092,0.131,0.239,0.201,0.388,0.201c0.094,0,0.189-0.028,0.272-0.086c0.214-0.151,0.266-0.446,0.115-0.661
		c-0.268-0.38-0.89-1.216-1.686-1.996c0.186-0.012,0.367-0.022,0.553-0.034c0.843,0.78,1.523,1.692,1.78,2.058
		c0.092,0.131,0.239,0.202,0.388,0.202c0.094,0,0.189-0.028,0.272-0.086c0.214-0.151,0.266-0.446,0.115-0.661
		C6.485,10.391,6.03,9.788,5.455,9.169c0.194-0.01,0.393-0.021,0.577-0.03c0.641,0.657,1.147,1.329,1.398,1.685
		c0.092,0.131,0.239,0.202,0.388,0.202c0.094,0,0.189-0.028,0.272-0.086c0.214-0.151,0.266-0.446,0.115-0.661
		c-0.18-0.256-0.491-0.67-0.879-1.126c0.228,0.013,0.452,0.029,0.673,0.049c0.409,0.468,0.735,0.901,0.939,1.191
		c0.092,0.131,0.239,0.202,0.388,0.202c0.094,0,0.189-0.028,0.272-0.086c0.214-0.151,0.266-0.446,0.115-0.661
		C9.615,9.707,9.485,9.53,9.337,9.338C9.57,9.362,9.809,9.39,10.019,9.406c0.194,0.241,0.388,0.488,0.557,0.729
		c0.092,0.131,0.239,0.202,0.388,0.202c0.094,0,0.189-0.028,0.272-0.086c0.214-0.151,0.266-0.446,0.115-0.661
		c-0.039-0.056-0.088-0.112-0.129-0.169c0.236,0.003,0.49,0.021,0.754,0.051c0.126,0.164,0.253,0.329,0.367,0.491
		c0.092,0.131,0.239,0.201,0.388,0.201c0.094,0,0.189-0.028,0.272-0.086c0.131-0.092,0.192-0.238,0.193-0.387
		c0.485,0.121,0.907,0.27,1.149,0.428c0.22,0.143,0.513,0.081,0.656-0.139c0.143-0.22,0.081-0.513-0.139-0.656
		c-0.541-0.352-1.419-0.564-1.894-0.659c-0.226-0.045-0.45-0.08-0.672-0.11c-0.007-0.001-0.014-0.002-0.021-0.002
		c-0.526-0.07-1.027-0.099-1.434-0.075c-0.453,0.027-1.061-0.041-1.765-0.119C8.816,8.329,8.541,8.3,8.26,8.273
		c-0.003,0-0.005-0.001-0.008-0.001C7.619,8.211,6.945,8.17,6.25,8.188c-0.018-0.001-0.034,0-0.051,0.001
		C6.138,8.19,6.078,8.188,6.017,8.191c-1.402,0.065-3.149,0.18-4.508,0.272V3.341c0-1.01,0.822-1.832,1.832-1.832h29.317
		c1.01,0,1.832,0.822,1.832,1.832v29.317c0,1.01-0.822,1.832-1.832,1.832h-17.58c0.299-0.346,0.605-0.689,0.894-0.99
		c1.206-1.258,1.706-2.966,2.07-4.213c0.147-0.502,0.285-0.976,0.412-1.198c0.015-0.023,0.17-0.245,1.067-0.778
		c0.627-0.372,1.423-0.785,2.192-1.184c1.011-0.525,1.966-1.02,2.638-1.465c0.992-0.657,2.256-1.881,3.38-3.273
		c0.694-0.859,1.872-2.453,1.969-3.477c0.031-0.328-0.091-0.638-0.337-0.85c-0.168-0.145-0.382-0.238-0.652-0.279
		c0.069-0.429-0.067-0.739-0.185-0.916c-0.356-0.534-0.727-0.607-1.107-0.639c-0.23-0.019-0.544-0.046-1.257-0.419
		c-0.463-0.242-0.873-0.519-1.348-0.841c-1.084-0.733-2.434-1.646-5.241-2.706c-1.304-0.493-3.674-0.981-7.554-0.511
		c-2.405,0.291-4.813,0.912-5.992,1.546c-0.367,0.197-0.505,0.655-0.308,1.022s0.655,0.505,1.022,0.308
		c0.829-0.445,2.89-1.066,5.459-1.377c2.79-0.338,5.219-0.187,6.839,0.425c2.641,0.998,3.856,1.82,4.929,2.545
		c0.491,0.332,0.956,0.646,1.494,0.928c0.8,0.419,1.294,0.527,1.681,0.571c-0.075,0.124-0.192,0.277-0.304,0.388
		c-0.243,0.238-0.297,0.609-0.131,0.906c0.165,0.297,0.509,0.447,0.839,0.366c0.145-0.036,0.309-0.065,0.46-0.084
		c-0.233,0.475-0.692,1.209-1.451,2.149c-1.017,1.26-2.182,2.396-3.039,2.963c-0.604,0.4-1.568,0.9-2.499,1.383
		c-2.13,1.105-3.457,1.82-3.875,2.553c-0.215,0.378-0.371,0.909-0.55,1.524c-0.339,1.159-0.76,2.6-1.711,3.591
		c-0.597,0.623-1.255,1.401-1.777,2.034c-0.179,0.217-0.342,0.416-0.48,0.586c-0.205,0.252-0.383,0.469-0.454,0.548
		c-0.098,0.109-0.158,0.239-0.182,0.374h1.831h18.838C34.501,36,36,34.501,36,32.659V3.341C36,1.499,34.501,0,32.659,0z"/>
	<path fill="#FFFFFF" d="M21.232,19.193c0.043,0.469,0.533,1.365,1.341,1.828c0.344,0.197,0.708,0.295,1.08,0.295
		c0.338,0,0.682-0.081,1.026-0.243c0.237-0.112,0.338-0.394,0.227-0.631c-0.112-0.237-0.394-0.338-0.631-0.227
		c-0.437,0.206-0.835,0.203-1.217-0.01c-0.556-0.31-0.864-0.948-0.881-1.099c-0.024-0.261-0.255-0.453-0.515-0.429
		C21.4,18.701,21.208,18.932,21.232,19.193z"/>
	<path fill="#FFFFFF" d="M19.435,18.781c0.018-0.261-0.178-0.488-0.44-0.507c-0.262-0.018-0.488,0.178-0.507,0.44
		c-0.065,0.924,0.341,1.912,1.115,2.71c0.892,0.919,2.129,1.455,3.339,1.455c0.055,0,0.11-0.001,0.165-0.003
		c0.262-0.011,0.465-0.232,0.454-0.493c-0.011-0.262-0.231-0.464-0.493-0.455c-0.997,0.041-2.038-0.395-2.786-1.165
		C19.699,20.159,19.389,19.436,19.435,18.781z"/>
	<path fill="#FFFFFF" d="M15.771,17.691c-0.022-0.261-0.251-0.455-0.512-0.434c-0.261,0.022-0.455,0.251-0.434,0.512
		c0.173,2.098,0.942,3.787,2.223,4.887c1.062,0.911,2.476,1.406,4.005,1.406c0.079,0,0.159-0.001,0.238-0.004
		c0.262-0.009,0.467-0.228,0.458-0.49c-0.009-0.262-0.227-0.466-0.49-0.458c-0.977,0.033-2.395-0.145-3.594-1.174
		C16.563,20.99,15.925,19.561,15.771,17.691z"/>
	<path fill="#FFFFFF" d="M22.846,17.505c0.561,0,0.864-0.465,0.864-0.903c0-0.445-0.307-0.895-0.895-0.895
		c-0.263,0-0.497,0.101-0.657,0.286c-0.141,0.162-0.218,0.376-0.218,0.605C21.94,17.193,22.396,17.505,22.846,17.505z"/>
	<path fill="#FFFFFF" d="M14.328,28.724c0.397-0.126,0.617-0.55,0.492-0.947c-0.126-0.397-0.55-0.617-0.947-0.492
		c-0.951,0.301-1.7,0.61-2.424,0.909c-1.49,0.615-2.777,1.146-5.459,1.464c-0.414,0.049-0.709,0.424-0.66,0.838
		c0.045,0.384,0.371,0.666,0.748,0.666c0.03,0,0.06-0.002,0.09-0.005c2.888-0.342,4.33-0.937,5.857-1.567
		C12.719,29.303,13.438,29.006,14.328,28.724z"/>
	<path fill="#FFFFFF" d="M10.896,33.031c0.856-0.325,2.259-1.669,2.738-2.293c0.159-0.208,0.12-0.506-0.088-0.665
		c-0.208-0.159-0.505-0.12-0.665,0.088c-0.45,0.586-1.721,1.756-2.321,1.983c-0.245,0.093-0.368,0.367-0.275,0.612
		c0.072,0.19,0.252,0.306,0.444,0.306C10.784,33.062,10.841,33.052,10.896,33.031z"/>
	<path fill="#FFFFFF" d="M14.548,22.12c0.251,0.073,0.515-0.071,0.588-0.322c0.073-0.251-0.071-0.515-0.323-0.588
		c-1.335-0.389-3.053-0.533-4.713-0.394c-2.126,0.178-4.069,0.812-5.619,1.833c-0.219,0.144-0.279,0.438-0.135,0.657
		c0.091,0.138,0.242,0.213,0.396,0.213c0.09,0,0.18-0.025,0.261-0.078c1.417-0.935,3.207-1.515,5.176-1.68
		C11.705,21.633,13.339,21.767,14.548,22.12z"/>
	<path fill="#FFFFFF" d="M14.781,23.177c0.073-0.251-0.071-0.515-0.322-0.588c-2.143-0.625-5.511-0.506-8.206,1.17
		C6.03,23.898,5.961,24.19,6.1,24.412c0.09,0.145,0.245,0.224,0.403,0.224c0.086,0,0.172-0.023,0.25-0.072
		c2.447-1.521,5.5-1.631,7.44-1.065C14.444,23.573,14.708,23.429,14.781,23.177z"/>
	<path fill="#FFFFFF" d="M14.233,23.969c-1.851-0.54-3.784-0.294-5.444,0.694c-0.225,0.134-0.299,0.425-0.165,0.65
		c0.089,0.149,0.246,0.232,0.408,0.232c0.082,0,0.166-0.022,0.242-0.067c1.431-0.851,3.098-1.064,4.693-0.598
		c0.252,0.074,0.515-0.071,0.588-0.322C14.629,24.305,14.485,24.042,14.233,23.969z"/>
	<path fill="#FFFFFF" d="M13.788,25.346c-0.306,0.187-1.83,0.345-2.85,0.176c-0.258-0.043-0.503,0.132-0.545,0.39
		c-0.043,0.258,0.132,0.503,0.39,0.545c0.341,0.057,0.75,0.086,1.179,0.086c0.244,0,0.495-0.009,0.745-0.028
		c0.516-0.04,1.208-0.134,1.577-0.36c0.223-0.137,0.294-0.429,0.157-0.652C14.304,25.28,14.012,25.21,13.788,25.346z"/>
	<path fill="#FFFFFF" d="M16.381,28.256c0.057-0.175,0.115-0.353,0.176-0.535c0.084-0.248-0.05-0.517-0.298-0.601
		c-0.248-0.084-0.517,0.05-0.601,0.298c-0.062,0.185-0.121,0.366-0.179,0.544c-0.612,1.879-1.095,3.363-4.616,6.18
		c-0.205,0.164-0.238,0.462-0.074,0.667c0.094,0.117,0.232,0.178,0.371,0.178c0.104,0,0.209-0.034,0.296-0.104
		C15.198,31.889,15.746,30.205,16.381,28.256z"/>
</g>
</svg>
