<?xml version="1.0" encoding="utf-8"?>
<!-- Generator: Adobe Illustrator 17.0.0, SVG Export Plug-In . SVG Version: 6.00 Build 0)  -->
<!DOCTYPE svg PUBLIC "-//W3C//DTD SVG 1.1//EN" "http://www.w3.org/Graphics/SVG/1.1/DTD/svg11.dtd">
<svg version="1.1" id="Capa_1" xmlns="http://www.w3.org/2000/svg" xmlns:xlink="http://www.w3.org/1999/xlink" x="0px" y="0px"
	 width="36px" height="36px" viewBox="0 0 36 36" enable-background="new 0 0 36 36" xml:space="preserve">
<g>
	<path fill="#FFFFFF" d="M8.167,21.215c1.047-1.297,2.823-3.098,6.138-3.764c0.257-0.052,0.423-0.302,0.372-0.558
		c-0.052-0.257-0.301-0.424-0.558-0.372c-3.616,0.726-5.549,2.687-6.689,4.098c-0.966,1.196-3.647,1.655-5.087,1.902
		c-0.189,0.032-0.368,0.063-0.525,0.092c-0.258,0.047-0.428,0.295-0.381,0.552c0.042,0.229,0.242,0.388,0.466,0.388
		c0.029,0,0.057-0.003,0.086-0.008c0.151-0.028,0.327-0.058,0.514-0.09C4.175,23.169,6.976,22.689,8.167,21.215z"/>
	<path fill="#FFFFFF" d="M19.145,15.146c-0.534,0.231-0.986,0.404-1.385,0.557c-1.334,0.511-2.003,0.767-2.003,1.915
		c0,1.591-0.284,2.727-0.76,3.039c-0.267,0.175-0.506,0.279-0.737,0.379c-0.602,0.261-1.17,0.507-2.002,1.828
		c-0.538,0.855-1.158,1.031-2.664,1.284c-0.067,0.011-0.133,0.022-0.198,0.032c-0.902,0.146-1.615,0.262-2.601,1.377
		c-0.095,0.107-0.085,0.271,0.022,0.365c0.049,0.044,0.11,0.065,0.171,0.065c0.072,0,0.143-0.029,0.194-0.087
		c0.864-0.976,1.433-1.069,2.296-1.209c0.065-0.011,0.132-0.021,0.201-0.033c1.471-0.247,2.337-0.439,3.017-1.518
		c0.747-1.186,1.198-1.382,1.77-1.629c0.239-0.104,0.51-0.221,0.815-0.421c0.864-0.567,0.993-2.419,0.993-3.472
		c0-0.763,0.319-0.914,1.671-1.431c0.403-0.155,0.86-0.33,1.405-0.565c0.131-0.057,0.192-0.209,0.135-0.34
		S19.276,15.09,19.145,15.146z"/>
	<path fill="#FFFFFF" d="M18.311,16.801c-0.102-0.1-0.266-0.098-0.366,0.005c-0.561,0.575-0.94,1.756-0.581,2.898
		c0.351,1.115,1.315,1.876,2.715,2.143c0.016,0.003,0.033,0.005,0.049,0.005c0.122,0,0.23-0.086,0.254-0.21
		c0.027-0.14-0.065-0.276-0.206-0.303c-1.544-0.295-2.113-1.136-2.319-1.79c-0.295-0.938,0.016-1.927,0.458-2.381
		C18.416,17.065,18.413,16.901,18.311,16.801z"/>
	<path fill="#FFFFFF" d="M20.528,15.775c-0.102-0.1-0.266-0.099-0.366,0.003c-0.459,0.466-0.723,1.249-0.724,2.148
		c-0.001,0.897,0.262,1.779,0.723,2.419c0.409,0.568,0.964,0.939,1.607,1.072c0.185,0.038,0.376,0.057,0.573,0.057
		c0.582,0,1.217-0.166,1.896-0.497c0.128-0.063,0.182-0.217,0.119-0.346c-0.063-0.129-0.218-0.182-0.346-0.119
		c-0.803,0.392-1.523,0.526-2.137,0.398c-0.521-0.108-0.955-0.4-1.292-0.868c-0.885-1.23-0.767-3.174-0.05-3.902
		C20.631,16.039,20.63,15.875,20.528,15.775z"/>
	<path fill="#FFFFFF" d="M22.927,16.214c0.257,0,0.619-0.11,0.803-0.352c0.117-0.153,0.155-0.344,0.105-0.524
		c-0.081-0.292-0.348-0.481-0.68-0.481c-0.255,0-0.595,0.11-0.78,0.357c-0.121,0.162-0.159,0.362-0.105,0.549
		C22.335,15.98,22.541,16.214,22.927,16.214z"/>
	<path fill="#FFFFFF" d="M0.713,17.136c1.215,0.159,3.059,1.074,4.07,1.831c0.085,0.064,0.185,0.095,0.284,0.095
		c0.144,0,0.287-0.066,0.38-0.19c0.157-0.21,0.114-0.507-0.096-0.664c-1.131-0.847-3.13-1.831-4.516-2.012
		c-0.26-0.034-0.498,0.149-0.532,0.409C0.27,16.864,0.453,17.102,0.713,17.136z"/>
	<path fill="#FFFFFF" d="M0.639,18.788c0.374,0.094,1.874,0.57,2.443,1.026c0.087,0.07,0.192,0.104,0.296,0.104
		c0.139,0,0.277-0.061,0.371-0.178c0.164-0.205,0.13-0.503-0.074-0.667c-0.842-0.674-2.786-1.2-2.805-1.205
		c-0.254-0.064-0.512,0.09-0.576,0.344C0.231,18.466,0.385,18.724,0.639,18.788z"/>
	<path fill="#FFFFFF" d="M2.344,21.094c0.181,0,0.354-0.104,0.433-0.28c0.108-0.239,0.001-0.52-0.238-0.627
		C1.901,19.9,1.275,19.75,0.974,19.679c-0.041-0.01-0.075-0.018-0.104-0.025c-0.254-0.064-0.512,0.09-0.576,0.344
		c-0.064,0.254,0.09,0.512,0.344,0.576c0.031,0.008,0.07,0.017,0.115,0.028c0.294,0.07,0.84,0.2,1.396,0.451
		C2.213,21.08,2.279,21.094,2.344,21.094z"/>
	<path fill="#FFFFFF" d="M32.659,0H3.341C1.499,0,0,1.499,0,3.341v10.252v1.521c0.482,0.066,0.992,0.199,1.509,0.374
		c1.36,0.46,2.767,1.206,3.825,1.768c0.564,0.299,1.051,0.558,1.442,0.73c0.221,0.097,0.564,0.249,0.913,0.249
		c0.19,0,0.381-0.045,0.555-0.169c0.364-0.259,3.741-2.575,10.215-4.07c3.918-0.905,7.555-1.635,9.023-0.646
		c-0.619,0.709-1.563,1.84-1.9,2.517c-0.197,0.397-0.334,0.961-0.375,1.548c-0.044,0.636,0.026,1.045,0.21,1.216
		c0.076,0.07,0.169,0.107,0.265,0.106c0.069,0,0.139-0.019,0.203-0.057c0.131-0.078,0.328-0.264,0.693-0.613
		c0.456-0.437,1.082-1.035,1.448-1.226c0.268-0.14,0.55-0.43,0.795-0.788c-0.027,0.098-0.049,0.195-0.087,0.296
		c-0.664,1.767-4.466,4.633-6.293,6.011c-1.13,0.852-1.402,1.062-1.545,1.306c-0.244,0.417-0.208,0.917-0.168,1.497
		c0.079,1.131,0.186,2.646-1.512,4.211c-0.113-0.109-0.227-0.217-0.34-0.325c0.348-0.293,0.788-0.719,1.16-1.253
		c0.15-0.215,0.097-0.51-0.118-0.66c-0.215-0.15-0.51-0.097-0.66,0.118c-0.344,0.493-0.763,0.881-1.071,1.132
		c-0.13-0.128-0.255-0.253-0.367-0.371c0.362-0.258,1.478-1.094,2.214-2.135c0.151-0.214,0.101-0.51-0.113-0.661
		c-0.214-0.151-0.51-0.101-0.661,0.113c-0.656,0.927-1.707,1.709-2.005,1.921c-0.087-0.099-0.192-0.181-0.321-0.224
		c-0.236-0.079-0.496-0.037-0.695,0.113c-0.094,0.071-0.235,0.193-0.519,0.442c-0.916,0.801-2.823,2.468-5.313,4.171
		c-1.612,1.103-3.17,2.016-4.662,2.734c-1.192,0.573-2.341,1.021-3.443,1.342C2.629,35.941,2.978,36,3.341,36h2.741h26.577
		C34.501,36,36,34.501,36,32.659V3.341C36,1.499,34.501,0,32.659,0z M34.491,32.659c0,1.01-0.822,1.832-1.832,1.832H8.927
		c0.765-0.453,1.542-0.949,2.331-1.488c2.413-1.651,4.35-3.317,5.29-4.137c0.288,0.323,0.676,0.697,1.165,1.161
		c0.31,0.295,0.631,0.6,0.924,0.897c0.268,0.272,0.697,0.301,0.999,0.068c2.858-2.207,2.688-4.631,2.597-5.934
		c-0.014-0.205-0.033-0.475-0.023-0.613c0.199-0.172,0.694-0.545,1.139-0.88c2.893-2.181,6.042-4.675,6.797-6.685
		c0.124-0.329,0.275-0.843,0.293-1.418c0.019-0.615-0.118-1.144-0.408-1.573c-0.197-0.291-0.557-0.387-0.873-0.275
		c-0.053,0.001-0.106,0.015-0.153,0.043c-0.054,0.032-1.333,0.784-2.017,1.839c-0.097,0.15-0.054,0.35,0.095,0.447
		c0.15,0.097,0.35,0.055,0.447-0.095c0.323-0.499,0.816-0.928,1.205-1.223c0.009,0.02,0.014,0.042,0.026,0.061
		c-0.191,0.661-0.651,1.381-1.035,1.582c-0.448,0.234-1.084,0.843-1.595,1.332c-0.092,0.088-0.193,0.185-0.285,0.271
		c-0.014-0.442,0.059-1.201,0.315-1.717c0.375-0.754,1.759-2.341,2.299-2.932c0.024-0.026,0.054-0.043,0.074-0.073
		c0.234-0.345,0.143-0.814-0.202-1.048c-1.974-1.337-5.634-0.634-10.213,0.424c-2.512,0.58-4.865,1.348-6.993,2.281
		c-1.839,0.806-2.991,1.512-3.542,1.882c-0.326-0.121-0.991-0.474-1.541-0.766c-1.295-0.688-2.921-1.55-4.532-2.02V3.341
		c0-1.01,0.822-1.832,1.832-1.832h29.317c1.01,0,1.832,0.822,1.832,1.832V32.659z"/>
</g>
</svg>
