<?xml version="1.0" encoding="utf-8"?>
<!-- Generator: Adobe Illustrator 16.0.0, SVG Export Plug-In . SVG Version: 6.00 Build 0)  -->
<!DOCTYPE svg PUBLIC "-//W3C//DTD SVG 1.1//EN" "http://www.w3.org/Graphics/SVG/1.1/DTD/svg11.dtd">
<svg version="1.1" id="Layer_1" xmlns="http://www.w3.org/2000/svg" xmlns:xlink="http://www.w3.org/1999/xlink" x="0px" y="0px"
	 width="60px" height="60px" viewBox="0 0 60 60" enable-background="new 0 0 60 60" xml:space="preserve">
<g>
	<g>
		<g>
			<g>
				<path fill="#4C4C4C" d="M38.602,22.705c-2.174-1.876-3.25-1.856-2.266,0.156c1.56,3.206-1.723,5.708-1.723,5.708
					s-2.893-1.798-1.328-5.318c1.562-3.521,3.755-9.308,0.704-12.669C30.939,7.22,29.454,8,29.92,8.312c0,0,1.877,1.956,1.724,4.302
					c-0.157,2.351-4.772,6.104-8.137,10.793c-3.36,4.693-2.501,9.073,2.114,11.813c4.614,2.734,5.866,3.518,5.866,3.518
					s4.576-2.557,7.822-5.708C42.605,29.827,40.869,24.661,38.602,22.705z M26.321,30.838c-2.736-3.441,0.892-6.836,1.802-7.741
					c1.17-1.175,1.17-0.392,0.077,2.659c-1.095,3.049,1.643,5.082,3.52,6.724C33.597,34.124,29.059,34.28,26.321,30.838z"/>
			</g>
		</g>
	</g>
	
		<line fill="none" stroke="#4C4C4C" stroke-width="4" stroke-linecap="round" stroke-miterlimit="10" x1="20.863" y1="40.09" x2="43.137" y2="51.994"/>
	
		<line fill="none" stroke="#4C4C4C" stroke-width="4" stroke-linecap="round" stroke-miterlimit="10" x1="43.137" y1="39.496" x2="22.113" y2="51.994"/>
</g>
</svg>
