<?xml version="1.0" encoding="utf-8"?>
<!-- Generator: Adobe Illustrator 16.0.0, SVG Export Plug-In . SVG Version: 6.00 Build 0)  -->
<!DOCTYPE svg PUBLIC "-//W3C//DTD SVG 1.1//EN" "http://www.w3.org/Graphics/SVG/1.1/DTD/svg11.dtd">
<svg version="1.1" id="Layer_1" xmlns="http://www.w3.org/2000/svg" xmlns:xlink="http://www.w3.org/1999/xlink" x="0px" y="0px"
	 width="60px" height="60px" viewBox="0 0 60 60" enable-background="new 0 0 60 60" xml:space="preserve">
<g>
	<g>
		<path fill="#4C4C4C" d="M30,6.271c0.712,0,2.389,1.617,3.856,5.956c1.593,4.709,2.47,11.021,2.47,17.772
			c0,6.752-0.877,13.064-2.47,17.772c-1.468,4.339-3.145,5.957-3.856,5.957s-2.389-1.618-3.857-5.957
			c-1.593-4.708-2.47-11.021-2.47-17.772c0-6.751,0.877-13.063,2.47-17.772C27.611,7.889,29.288,6.271,30,6.271 M30,3.703
			c-4.912,0-8.895,11.773-8.895,26.297S25.088,56.297,30,56.297c4.912,0,8.895-11.773,8.895-26.297S34.912,3.703,30,3.703L30,3.703z
			"/>
		<path fill="#4C4C4C" d="M47.363,13.986v2.568c1.628,0,2.44,0.366,2.641,0.68c0.383,0.601-0.078,2.885-2.947,6.457
			c-3.113,3.877-7.961,8.011-13.653,11.642c-7.723,4.928-15.874,8.112-20.766,8.112c-1.629,0-2.441-0.366-2.642-0.68
			c-0.383-0.601,0.078-2.885,2.948-6.457c3.112-3.877,7.961-8.01,13.653-11.643c7.722-4.927,15.873-8.111,20.766-8.111
			L47.363,13.986 M47.362,13.986c-5.236,0-13.649,3.092-22.146,8.515C12.972,30.313,5.189,40.004,7.832,44.145
			c0.809,1.269,2.498,1.869,4.806,1.869c5.236,0,13.649-3.094,22.146-8.516c12.243-7.812,20.026-17.502,17.384-21.643
			C51.359,14.587,49.671,13.986,47.362,13.986L47.362,13.986z"/>
		<path fill="#4C4C4C" d="M12.616,14.148v2.566c4.902,0,13.041,3.11,20.737,7.92c5.726,3.58,10.612,7.669,13.76,11.516
			c2.902,3.544,3.385,5.824,3.008,6.429c-0.22,0.35-1.151,0.705-2.737,0.705c-4.902,0-13.042-3.109-20.737-7.919
			c-5.725-3.579-10.612-7.67-13.761-11.515c-2.902-3.545-3.385-5.824-3.007-6.43c0.219-0.35,1.151-0.705,2.737-0.706L12.616,14.148
			 M12.616,14.148c-2.372,0-4.104,0.615-4.914,1.914c-2.604,4.164,5.269,13.781,17.584,21.479c8.479,5.302,16.855,8.31,22.098,8.31
			c2.372,0,4.104-0.615,4.915-1.912c2.604-4.166-5.27-13.783-17.584-21.481C26.234,17.156,17.859,14.148,12.616,14.148
			L12.616,14.148z"/>
		<circle fill="#4C4C4C" cx="30" cy="30" r="3.964"/>
	</g>
</g>
</svg>
