<?xml version="1.0" encoding="utf-8"?>
<!-- Generator: Adobe Illustrator 16.0.0, SVG Export Plug-In . SVG Version: 6.00 Build 0)  -->
<!DOCTYPE svg PUBLIC "-//W3C//DTD SVG 1.1//EN" "http://www.w3.org/Graphics/SVG/1.1/DTD/svg11.dtd">
<svg version="1.1" id="Layer_1" xmlns="http://www.w3.org/2000/svg" xmlns:xlink="http://www.w3.org/1999/xlink" x="0px" y="0px"
	 width="60px" height="60px" viewBox="0 0 60 60" enable-background="new 0 0 60 60" xml:space="preserve">
<g>
	<g>
		<g>
			<g>
				<g>
					<path fill="#4C4C4C" d="M20.178,13.042c-0.027-0.012-0.054-0.02-0.081-0.026c0,0,0,0-0.002-0.002
						c-0.047-0.011-0.092-0.02-0.136-0.022c-0.005-0.002-0.011-0.001-0.018-0.001c-0.022-0.002-0.046-0.002-0.068-0.004
						c-0.038,0-0.079,0.004-0.116,0.009c-0.035,0.003-0.071,0.01-0.106,0.02c-0.017,0.005-0.032,0.011-0.047,0.017
						c-0.03,0.006-0.06,0.019-0.086,0.031c-0.038,0.016-0.076,0.034-0.112,0.056c-0.016,0.011-0.069,0.043-0.152,0.098
						c-0.606,0.411-2.808,2.055-3.144,4.537c-0.213,1.6,0.373,3.173,1.742,4.679c0.039,0.041,0.075,0.082,0.113,0.123
						c0.077,0.085,0.167,0.15,0.267,0.197c0.032,0.018,0.064,0.03,0.098,0.042c0.015,0.005,0.029,0.01,0.042,0.013
						c0.023,0.007,0.048,0.013,0.073,0.018c0.025,0.006,0.051,0.008,0.075,0.011c0.178,0.017,0.36-0.018,0.526-0.11
						c0.048-0.027,0.098-0.054,0.144-0.083c0.485-0.279,0.913-0.579,1.285-0.901c0.992-0.858,1.595-1.874,1.8-3.028
						c0.433-2.452-1.148-4.678-1.61-5.266c-0.002-0.003-0.002-0.003-0.004-0.005c-0.064-0.081-0.106-0.13-0.119-0.145
						C20.44,13.179,20.315,13.094,20.178,13.042z M20.491,18.398c-0.155,0.889-0.724,1.675-1.691,2.349
						c-0.711-0.932-1.012-1.852-0.895-2.744c0.167-1.246,1.099-2.249,1.762-2.82C20.124,15.928,20.708,17.167,20.491,18.398z"/>
					<path fill="#4C4C4C" d="M18.232,22.752c-0.152-0.065-0.285-0.175-0.38-0.32c0.039,0.041,0.075,0.082,0.113,0.123
						C18.042,22.64,18.133,22.705,18.232,22.752z"/>
					<path fill="#4C4C4C" d="M19.266,13.206c0.176-0.153,0.39-0.226,0.608-0.22c-0.038,0-0.077,0.002-0.116,0.009
						c-0.035,0.003-0.071,0.01-0.106,0.02c-0.017,0.005-0.032,0.011-0.047,0.017c-0.03,0.006-0.06,0.019-0.086,0.031
						c-0.038,0.016-0.076,0.034-0.112,0.056c-0.016,0.011-0.069,0.043-0.152,0.098L19.266,13.206z"/>
					<path fill="#4C4C4C" d="M19.941,12.99c-0.022-0.002-0.046-0.002-0.068-0.004c0.017,0,0.033-0.001,0.052,0.001
						C19.933,12.987,19.936,12.988,19.941,12.99z"/>
					<path fill="#4C4C4C" d="M19.19,22.642c-0.195,0.158-0.438,0.222-0.67,0.193c0.178,0.017,0.36-0.018,0.526-0.11
						C19.095,22.697,19.145,22.671,19.19,22.642z"/>
					<path fill="#4C4C4C" d="M20.649,13.421c0.005,0.006,0.008,0.013,0.012,0.021c-0.064-0.081-0.106-0.13-0.119-0.145
						c-0.103-0.118-0.227-0.203-0.364-0.255C20.37,13.104,20.539,13.236,20.649,13.421z"/>
				</g>
				<g>
					<path fill="#4C4C4C" d="M23.171,28.383c-0.192-0.06-0.362-0.184-0.477-0.36c0.039,0.041,0.075,0.082,0.114,0.123
						C22.912,28.258,23.039,28.337,23.171,28.383z"/>
					<path fill="#4C4C4C" d="M24.108,18.797c0.176-0.153,0.39-0.226,0.607-0.22c-0.159,0.002-0.322,0.043-0.468,0.132
						c-0.016,0.01-0.069,0.043-0.151,0.098L24.108,18.797z"/>
					<path fill="#4C4C4C" d="M24.784,18.581c-0.021-0.002-0.046-0.002-0.068-0.004c0.017,0,0.033-0.001,0.052,0.001
						C24.775,18.578,24.778,18.578,24.784,18.581z"/>
					<path fill="#4C4C4C" d="M25.021,18.633c-0.027-0.012-0.054-0.02-0.081-0.026c0,0,0,0-0.001-0.002
						c-0.047-0.011-0.093-0.02-0.136-0.022c-0.005-0.002-0.011-0.001-0.019-0.001c-0.021-0.002-0.046-0.002-0.068-0.004
						c-0.159,0.002-0.322,0.043-0.468,0.132c-0.016,0.01-0.069,0.043-0.151,0.098c-0.606,0.411-2.81,2.053-3.144,4.537
						c-0.214,1.599,0.371,3.171,1.742,4.679c0.039,0.041,0.075,0.082,0.114,0.123c0.104,0.112,0.23,0.191,0.363,0.237
						c0.046,0.015,0.089,0.024,0.133,0.035c0.02,0.004,0.04,0.007,0.058,0.008c0.045,0.006,0.09,0.005,0.135,0.003h0.004
						c0.131-0.007,0.264-0.044,0.388-0.113c0.048-0.027,0.098-0.054,0.144-0.083c0.484-0.28,0.913-0.579,1.285-0.901
						c0.992-0.858,1.594-1.874,1.8-3.028c0.433-2.452-1.149-4.678-1.611-5.267l-0.005-0.006c-0.064-0.082-0.105-0.129-0.117-0.143
						C25.282,18.769,25.158,18.685,25.021,18.633z M25.332,23.987c-0.155,0.889-0.726,1.677-1.689,2.351
						c-0.713-0.934-1.014-1.854-0.895-2.744c0.163-1.247,1.095-2.25,1.762-2.82C24.965,21.518,25.55,22.758,25.332,23.987z"/>
					<path fill="#4C4C4C" d="M24.033,28.232c-0.154,0.126-0.344,0.188-0.532,0.196c0.131-0.007,0.264-0.044,0.388-0.113
						C23.938,28.288,23.987,28.262,24.033,28.232z"/>
					<path fill="#4C4C4C" d="M25.492,19.012c0.005,0.006,0.008,0.013,0.01,0.019c-0.064-0.082-0.105-0.129-0.117-0.143
						c-0.104-0.119-0.228-0.203-0.365-0.255C25.212,18.695,25.379,18.825,25.492,19.012z"/>
				</g>
				<g>
					<path fill="#4C4C4C" d="M28.093,34.065c-0.192-0.06-0.362-0.184-0.477-0.361c0.039,0.042,0.075,0.083,0.114,0.124
						C27.834,33.939,27.96,34.019,28.093,34.065z"/>
					<path fill="#4C4C4C" d="M29.03,24.479c0.176-0.152,0.39-0.226,0.607-0.219c-0.159,0.001-0.321,0.044-0.468,0.132
						c-0.015,0.011-0.069,0.043-0.151,0.098L29.03,24.479z"/>
					<path fill="#4C4C4C" d="M29.706,24.263c-0.021-0.002-0.046-0.001-0.068-0.003c0.017,0,0.034,0,0.052,0.001
						C29.697,24.261,29.701,24.261,29.706,24.263z"/>
					<path fill="#4C4C4C" d="M29.926,24.309c-0.021-0.009-0.043-0.015-0.064-0.02c0,0,0,0-0.001-0.002
						c-0.047-0.011-0.093-0.02-0.136-0.023c-0.005-0.001-0.011,0-0.019-0.001c-0.021-0.002-0.046-0.001-0.068-0.003
						c-0.159,0.001-0.321,0.044-0.468,0.132c-0.015,0.011-0.069,0.043-0.151,0.098c-0.606,0.411-2.81,2.053-3.144,4.537
						c-0.213,1.599,0.373,3.173,1.742,4.678c0.039,0.042,0.075,0.083,0.114,0.124c0.104,0.111,0.23,0.19,0.363,0.237
						c0.046,0.014,0.091,0.026,0.133,0.035c0.02,0.003,0.04,0.007,0.059,0.008c0.043,0.003,0.089,0.005,0.135,0.002l0.004,0.001
						c0.131-0.007,0.264-0.044,0.388-0.113c0.048-0.028,0.098-0.054,0.144-0.084c0.484-0.278,0.913-0.578,1.285-0.9
						c0.993-0.859,1.595-1.874,1.801-3.028c0.432-2.452-1.15-4.678-1.612-5.268c-0.001-0.001-0.001-0.001-0.003-0.003
						c-0.064-0.082-0.106-0.131-0.118-0.145C30.2,24.447,30.067,24.36,29.926,24.309z M30.254,29.671
						c-0.155,0.888-0.724,1.678-1.69,2.35c-0.711-0.932-1.012-1.852-0.895-2.744c0.165-1.249,1.097-2.252,1.762-2.82
						C29.887,27.204,30.47,28.442,30.254,29.671z"/>
					<path fill="#4C4C4C" d="M28.955,33.914c-0.154,0.126-0.344,0.188-0.532,0.197c0.131-0.007,0.264-0.044,0.388-0.113
						C28.859,33.97,28.909,33.944,28.955,33.914z"/>
					<path fill="#4C4C4C" d="M30.414,24.693c0.005,0.006,0.008,0.014,0.011,0.021c-0.064-0.082-0.106-0.131-0.118-0.145
						c-0.107-0.123-0.24-0.21-0.381-0.262C30.122,24.372,30.298,24.504,30.414,24.693z"/>
				</g>
				<g>
					<path fill="#4C4C4C" d="M12.71,20.697c-2.504-0.021-4.446,1.923-4.937,2.463c-0.068,0.075-0.108,0.124-0.119,0.136
						c-0.076,0.09-0.131,0.192-0.166,0.299c-0.021,0.066-0.034,0.131-0.041,0.199c0.001,0.005,0.001,0.013-0.001,0.018
						c-0.002,0.05-0.002,0.101,0.003,0.154l0.002,0.002c0.001,0.022,0.006,0.043,0.012,0.065c0.003,0.021,0.01,0.043,0.016,0.065
						c0.007,0.027,0.016,0.055,0.025,0.08c0.005,0.014,0.009,0.026,0.018,0.04c0.036,0.081,0.082,0.158,0.145,0.23
						c0.012,0.014,0.053,0.061,0.125,0.136c0.506,0.533,2.488,2.43,4.99,2.35c1.17-0.036,2.261-0.489,3.252-1.348
						c0.372-0.322,0.729-0.703,1.072-1.141c0.037-0.042,0.071-0.089,0.105-0.133c0.115-0.151,0.176-0.326,0.185-0.505
						c0-0.024,0.001-0.051,0-0.076c-0.002-0.025-0.003-0.052-0.007-0.075c-0.001-0.014-0.003-0.028-0.006-0.044
						c-0.006-0.034-0.015-0.068-0.028-0.103c-0.033-0.104-0.084-0.203-0.157-0.292c-0.035-0.044-0.071-0.085-0.106-0.13
						C15.798,21.519,14.324,20.715,12.71,20.697z M12.732,25.127c-0.991,0.033-1.91-0.427-2.586-0.899
						c-0.182-0.127-0.345-0.257-0.487-0.377c0.658-0.576,1.783-1.355,3.042-1.341c0.9,0.012,1.768,0.44,2.589,1.277
						C14.49,24.645,13.629,25.095,12.732,25.127z"/>
					<path fill="#4C4C4C" d="M7.48,24.099c-0.006-0.022-0.012-0.045-0.016-0.065c0.009,0.05,0.022,0.097,0.041,0.146
						C7.497,24.153,7.487,24.126,7.48,24.099z"/>
					<path fill="#4C4C4C" d="M7.773,23.16c-0.068,0.075-0.108,0.124-0.119,0.136c-0.076,0.09-0.131,0.192-0.166,0.299
						c0.047-0.158,0.135-0.306,0.271-0.423L7.773,23.16z"/>
					<path fill="#4C4C4C" d="M17.355,23.511c-0.033-0.104-0.084-0.203-0.157-0.292c-0.035-0.044-0.071-0.085-0.106-0.13
						C17.224,23.204,17.313,23.351,17.355,23.511z"/>
					<path fill="#4C4C4C" d="M7.587,24.34c0.023,0.037,0.05,0.074,0.08,0.109c0.012,0.014,0.053,0.061,0.125,0.136
						c-0.007-0.005-0.014-0.009-0.019-0.014C7.694,24.504,7.636,24.425,7.587,24.34z"/>
					<path fill="#4C4C4C" d="M7.523,24.219c0.016,0.043,0.042,0.082,0.064,0.121C7.562,24.301,7.542,24.261,7.523,24.219z"/>
					<path fill="#4C4C4C" d="M17.397,23.809c-0.006,0.233-0.104,0.469-0.291,0.638c0.037-0.042,0.071-0.089,0.105-0.133
						C17.327,24.162,17.388,23.987,17.397,23.809z"/>
				</g>
				<g>
					<path fill="#4C4C4C" d="M17.553,26.288c-2.503-0.023-4.443,1.918-4.938,2.463c-0.068,0.075-0.108,0.123-0.118,0.136
						c-0.068,0.084-0.121,0.173-0.155,0.269c0,0.003-0.002,0.005-0.002,0.009c-0.002,0.009-0.005,0.018-0.009,0.024
						c-0.005,0.021-0.012,0.042-0.018,0.063c-0.009,0.045-0.019,0.089-0.022,0.133c0.001,0.005,0.001,0.012-0.001,0.018
						c-0.002,0.05-0.001,0.101,0.004,0.154l0.001,0.002c0.004,0.021,0.006,0.042,0.01,0.063c0,0,0,0,0.002,0.002
						c-0.001,0.007,0,0.013,0.003,0.021c0.002,0.014,0.006,0.029,0.012,0.045c0.007,0.023,0.013,0.05,0.024,0.074
						c0,0,0,0.005,0.001,0.006c0.001,0.006,0.003,0.012,0.008,0.018c0.002,0.007,0.006,0.015,0.009,0.022
						c0.032,0.081,0.084,0.16,0.145,0.23c0.012,0.013,0.052,0.061,0.124,0.136c0.507,0.533,2.488,2.429,4.99,2.35
						c1.17-0.037,2.261-0.489,3.253-1.348c0.372-0.322,0.729-0.704,1.072-1.141c0.036-0.042,0.071-0.089,0.105-0.133
						c0.115-0.151,0.176-0.326,0.185-0.506c0.001-0.019,0.001-0.038,0-0.059c-0.002-0.046-0.006-0.091-0.015-0.137
						c-0.027-0.138-0.087-0.274-0.183-0.394c-0.035-0.044-0.071-0.085-0.106-0.13C20.639,27.107,19.166,26.305,17.553,26.288z
						 M17.573,30.715c-0.992,0.033-1.911-0.427-2.585-0.897c-0.181-0.126-0.345-0.256-0.486-0.376
						c0.658-0.576,1.785-1.354,3.043-1.341c0.898,0.009,1.766,0.438,2.588,1.277C19.332,30.235,18.472,30.686,17.573,30.715z"/>
					<path fill="#4C4C4C" d="M12.323,29.689c-0.006-0.016-0.009-0.031-0.012-0.045c0.004,0.022,0.012,0.046,0.02,0.069
						c0.004,0.017,0.008,0.034,0.017,0.05c-0.002-0.006-0.003-0.011-0.007-0.015C12.333,29.729,12.329,29.708,12.323,29.689z"/>
					<path fill="#4C4C4C" d="M12.306,29.625l0.002-0.001c-0.001,0.007,0,0.013,0.003,0.021
						C12.308,29.637,12.307,29.631,12.306,29.625z"/>
					<path fill="#4C4C4C" d="M12.616,28.751c-0.068,0.075-0.108,0.123-0.118,0.136c-0.068,0.084-0.121,0.173-0.155,0.269
						c0.047-0.148,0.132-0.282,0.259-0.393L12.616,28.751z"/>
					<path fill="#4C4C4C" d="M22.225,29.203c-0.027-0.138-0.087-0.274-0.183-0.394c-0.035-0.044-0.071-0.085-0.106-0.13
						C22.093,28.819,22.193,29.005,22.225,29.203z"/>
					<path fill="#4C4C4C" d="M12.306,29.622c0,0,0,0,0.002,0.002c-0.001,0.007,0,0.013,0.003,0.021
						c-0.003-0.008-0.004-0.014-0.005-0.02C12.306,29.622,12.306,29.622,12.306,29.622z"/>
					<path fill="#4C4C4C" d="M12.433,29.937c0.023,0.035,0.049,0.071,0.077,0.104c0.012,0.013,0.052,0.061,0.124,0.136
						c-0.007-0.005-0.014-0.009-0.019-0.015C12.538,30.096,12.481,30.019,12.433,29.937z"/>
					<path fill="#4C4C4C" d="M12.366,29.81c0.017,0.045,0.042,0.085,0.067,0.127C12.406,29.895,12.383,29.853,12.366,29.81z"/>
					<path fill="#4C4C4C" d="M12.323,29.689c0.007,0.023,0.013,0.05,0.024,0.074c-0.002-0.006-0.003-0.011-0.007-0.015
						C12.333,29.729,12.329,29.708,12.323,29.689z"/>
					<path fill="#4C4C4C" d="M22.239,29.398c-0.005,0.234-0.103,0.469-0.29,0.639c0.036-0.042,0.071-0.089,0.105-0.133
						C22.17,29.753,22.23,29.578,22.239,29.398z"/>
				</g>
				<g>
					<path fill="#4C4C4C" d="M17.538,34.434c-0.068,0.075-0.108,0.124-0.118,0.136c-0.068,0.083-0.121,0.173-0.155,0.269
						c0.047-0.148,0.132-0.282,0.259-0.393L17.538,34.434z"/>
					<path fill="#4C4C4C" d="M27.146,34.886c-0.027-0.139-0.087-0.274-0.183-0.394c-0.035-0.044-0.071-0.086-0.106-0.13
						C27.015,34.502,27.115,34.687,27.146,34.886z"/>
					<path fill="#4C4C4C" d="M22.475,31.971c-2.503-0.023-4.443,1.918-4.938,2.463c-0.068,0.075-0.108,0.124-0.118,0.136
						c-0.068,0.083-0.121,0.173-0.155,0.269c0,0.003-0.002,0.004-0.002,0.008c-0.002,0.009-0.005,0.019-0.009,0.025
						c-0.005,0.022-0.012,0.041-0.018,0.063c-0.01,0.043-0.017,0.087-0.022,0.132c0.001,0.006,0.001,0.013-0.001,0.019
						c-0.002,0.049-0.001,0.101,0.004,0.154l0.002,0.002c0.004,0.021,0.006,0.043,0.01,0.062c0,0,0,0,0.002,0.003
						c0.003,0.02,0.009,0.043,0.013,0.062c0.004,0.021,0.012,0.042,0.02,0.062c0.002,0.002,0,0.004,0.003,0.004
						c0,0-0.002,0.005,0.002,0.006c0.001,0.009,0.005,0.019,0.009,0.025c0.003,0.008,0.008,0.018,0.011,0.025
						c0.003,0.008,0.005,0.015,0.009,0.022c0.033,0.074,0.08,0.144,0.135,0.208c0.012,0.014,0.052,0.061,0.123,0.134
						c0.506,0.533,2.49,2.432,4.992,2.352c1.17-0.037,2.261-0.489,3.253-1.348c0.372-0.322,0.729-0.703,1.072-1.142
						c0.036-0.041,0.071-0.088,0.105-0.132c0.115-0.151,0.176-0.327,0.185-0.506c0.001-0.019,0-0.039,0-0.06
						c0-0.043-0.006-0.09-0.015-0.136c-0.027-0.139-0.087-0.274-0.183-0.394c-0.035-0.044-0.071-0.086-0.106-0.13
						C25.562,32.792,24.088,31.987,22.475,31.971z M22.495,36.397c-0.99,0.035-1.911-0.427-2.584-0.896
						c-0.182-0.127-0.346-0.257-0.489-0.375c0.658-0.576,1.786-1.358,3.045-1.343c0.9,0.011,1.768,0.44,2.588,1.277
						C24.254,35.918,23.394,36.368,22.495,36.397z"/>
					<path fill="#4C4C4C" d="M17.356,35.623c0.023,0.034,0.049,0.067,0.076,0.1c0.012,0.014,0.052,0.061,0.123,0.134
						c-0.006-0.003-0.012-0.007-0.017-0.013C17.461,35.781,17.404,35.704,17.356,35.623z"/>
					<path fill="#4C4C4C" d="M17.356,35.623c-0.022-0.035-0.042-0.071-0.059-0.108C17.312,35.553,17.336,35.587,17.356,35.623z"/>
					<path fill="#4C4C4C" d="M17.276,35.471c0.003,0.008,0.008,0.014,0.012,0.021c0.003,0.008,0.005,0.015,0.009,0.022
						C17.289,35.502,17.283,35.486,17.276,35.471z"/>
					<path fill="#4C4C4C" d="M27.162,35.081c-0.004,0.236-0.104,0.469-0.29,0.638c0.036-0.041,0.071-0.088,0.105-0.132
						C27.092,35.436,27.152,35.26,27.162,35.081z"/>
				</g>
				<g>
					<path fill="#4C4C4C" d="M8.351,12.542c-0.071,0.107-0.123,0.233-0.146,0.369c-0.003,0.017-0.011,0.078-0.021,0.179
						c-0.001-0.005-0.003-0.012-0.002-0.019C8.183,12.873,8.244,12.69,8.351,12.542z"/>
					<path fill="#4C4C4C" d="M14.941,19.96c-0.184,0.144-0.424,0.21-0.666,0.177c0.059,0.001,0.116-0.001,0.174-0.004
						C14.634,20.124,14.802,20.061,14.941,19.96z"/>
					<path fill="#4C4C4C" d="M9.279,12.166c-0.111-0.006-0.181-0.003-0.2-0.005c-0.167,0.001-0.325,0.049-0.46,0.129
						c-0.02,0.013-0.04,0.024-0.06,0.037c-0.039,0.031-0.078,0.064-0.116,0.101c-0.016,0.017-0.028,0.034-0.044,0.052
						c-0.015,0.021-0.032,0.042-0.048,0.062c-0.071,0.107-0.123,0.233-0.146,0.369c-0.003,0.017-0.011,0.078-0.021,0.179
						c-0.003,0-0.003,0.004-0.002,0.009c-0.083,0.739-0.256,3.468,1.411,5.328c1.073,1.2,2.647,1.776,4.682,1.71
						c0.059,0.001,0.116-0.001,0.174-0.004c0.185-0.009,0.352-0.072,0.491-0.173c0.02-0.013,0.04-0.029,0.059-0.047
						c0.014-0.012,0.029-0.025,0.041-0.039c0.117-0.122,0.204-0.275,0.24-0.454c0.011-0.055,0.022-0.108,0.03-0.163
						c0.37-2.004,0.038-3.652-0.988-4.896C12.745,12.444,10.042,12.197,9.279,12.166z M13.617,18.325
						c-1.172-0.064-2.066-0.434-2.669-1.102c-0.843-0.935-1-2.298-1.002-3.173c0.865,0.134,2.186,0.496,2.984,1.469
						C13.501,16.215,13.731,17.157,13.617,18.325z"/>
					<path fill="#4C4C4C" d="M9.279,12.166c-0.111-0.006-0.181-0.003-0.2-0.005c-0.167,0.001-0.325,0.049-0.46,0.129
						c0.179-0.114,0.399-0.164,0.624-0.13C9.256,12.163,9.267,12.164,9.279,12.166z"/>
					<path fill="#4C4C4C" d="M15.311,19.257c-0.006,0.241-0.108,0.46-0.27,0.617c0.117-0.122,0.204-0.275,0.24-0.454
						C15.292,19.365,15.303,19.312,15.311,19.257z"/>
				</g>
			</g>
			<path fill="#4C4C4C" d="M41.478,35.493c-0.017,0.075-0.737,3.497-0.238,7.762c1.653,0.465,3.44,0.711,5.337,0.61
				c0.498-0.024,0.924,0.355,0.951,0.857c0.015,0.29-0.109,0.555-0.312,0.73c-0.146,0.127-0.336,0.21-0.544,0.222
				c-1.81,0.097-3.521-0.083-5.117-0.453c0.599,2.944,1.854,6.091,4.318,8.726c0.341,0.365,0.322,0.937-0.042,1.279l-0.027,0.023
				c-0.365,0.317-0.92,0.29-1.254-0.067c-3.025-3.231-4.408-7.073-4.977-10.528c-6.85-2.355-11.16-7.888-11.393-8.192
				c-0.303-0.397-0.232-0.967,0.168-1.269c0.396-0.305,0.965-0.229,1.27,0.166c0.01,0.012,0.14,0.181,0.382,0.461
				c1.097,1.266,4.493,4.843,9.318,6.781c-0.344-4.092,0.332-7.252,0.389-7.503c0.109-0.488,0.594-0.794,1.08-0.687
				C41.277,34.52,41.586,35.006,41.478,35.493z"/>
		</g>
		<g>
			<g>
				<g>
					<path fill="#4C4C4C" d="M52.246,13.542c-0.088-0.074-0.191-0.135-0.309-0.175c-0.018-0.005-0.08-0.025-0.185-0.056H51.75
						c-0.723-0.205-3.377-0.82-5.48,0.515c-1.365,0.864-2.194,2.329-2.467,4.358c-0.006,0.05-0.013,0.101-0.018,0.15
						c-0.017,0.123-0.005,0.243,0.027,0.355c0.012,0.038,0.023,0.075,0.039,0.109c0.012,0.023,0.023,0.045,0.034,0.066
						c0.005,0.013,0.012,0.024,0.019,0.032c0.008,0.014,0.016,0.027,0.024,0.036c0.026,0.039,0.056,0.076,0.089,0.111l0.006,0.006
						c0.022,0.022,0.045,0.044,0.067,0.062c0.025,0.021,0.052,0.044,0.079,0.06c0.055,0.04,0.117,0.073,0.184,0.099
						c0.053,0.021,0.105,0.038,0.16,0.057c1.913,0.695,3.59,0.64,4.987-0.166c0.278-0.162,0.534-0.348,0.766-0.548
						c1.563-1.354,2.101-3.441,2.229-4.078c0.022-0.101,0.033-0.168,0.035-0.184c0.024-0.155,0.012-0.309-0.037-0.447
						c-0.016-0.045-0.036-0.089-0.061-0.133c-0.012-0.021-0.024-0.04-0.038-0.06c-0.028-0.041-0.057-0.077-0.091-0.113
						C52.286,13.579,52.268,13.562,52.246,13.542z M48.594,17.593c-0.781,0.451-1.748,0.524-2.885,0.219
						c0.254-1.145,0.766-1.969,1.523-2.45c1.06-0.678,2.428-0.608,3.29-0.466C50.246,15.727,49.673,16.97,48.594,17.593z"/>
					<path fill="#4C4C4C" d="M44.018,19.046c-0.008-0.009-0.018-0.021-0.028-0.029c-0.024-0.027-0.042-0.052-0.061-0.082
						C43.955,18.974,43.984,19.011,44.018,19.046z"/>
					<path fill="#4C4C4C" d="M43.803,18.185c-0.006,0.05-0.013,0.101-0.018,0.15c-0.017,0.123-0.005,0.243,0.027,0.355
						C43.76,18.53,43.754,18.354,43.803,18.185z"/>
					<path fill="#4C4C4C" d="M52.246,13.542c-0.088-0.074-0.191-0.135-0.309-0.175c-0.018-0.005-0.08-0.025-0.185-0.056
						c0.01,0,0.021,0,0.03,0.003C51.964,13.342,52.121,13.425,52.246,13.542z"/>
					<path fill="#4C4C4C" d="M43.929,18.935c0.026,0.039,0.056,0.076,0.089,0.111c-0.008-0.009-0.018-0.021-0.028-0.029
						C43.965,18.989,43.947,18.965,43.929,18.935z"/>
					<path fill="#4C4C4C" d="M44.514,19.329c-0.196-0.036-0.363-0.138-0.49-0.277c0.022,0.022,0.045,0.044,0.067,0.062
						c0.025,0.021,0.052,0.044,0.079,0.06c0.055,0.04,0.117,0.073,0.184,0.099C44.406,19.293,44.459,19.311,44.514,19.329z"/>
					<path fill="#4C4C4C" d="M52.531,14.354c0.024-0.155,0.012-0.309-0.037-0.447c0.074,0.188,0.081,0.402,0.014,0.608
						c-0.004,0.009-0.007,0.016-0.012,0.022C52.519,14.437,52.529,14.369,52.531,14.354z"/>
				</g>
				<g>
					<path fill="#4C4C4C" d="M51.074,20.842C51.074,20.842,51.074,20.842,51.074,20.842c-0.085-0.075-0.188-0.134-0.302-0.172
						c-0.017-0.007-0.077-0.026-0.179-0.051c-0.002-0.003-0.003-0.004-0.004-0.003c-0.723-0.204-3.38-0.821-5.486,0.514
						c-1.363,0.861-2.189,2.323-2.462,4.348c-0.007,0.054-0.013,0.107-0.021,0.161c-0.004,0.031-0.007,0.063-0.007,0.095
						c-0.003,0.108,0.017,0.214,0.05,0.312l0.002,0.002c0,0.005,0.004,0.008,0.004,0.012c0.015,0.038,0.035,0.076,0.053,0.112
						c0.004,0.014,0.008,0.022,0.016,0.03c0.008,0.014,0.016,0.027,0.024,0.037c0.026,0.038,0.056,0.075,0.09,0.11l0.005,0.006
						c0.022,0.022,0.044,0.044,0.066,0.062c0.027,0.022,0.053,0.044,0.08,0.062c0.055,0.038,0.118,0.072,0.185,0.097
						c0.052,0.021,0.105,0.039,0.159,0.058c1.912,0.699,3.59,0.64,4.987-0.167c0.278-0.161,0.534-0.348,0.765-0.547
						c1.563-1.354,2.102-3.441,2.23-4.078c0.022-0.102,0.035-0.166,0.037-0.183c0.029-0.18,0.004-0.355-0.066-0.511
						c-0.023-0.052-0.051-0.104-0.082-0.147c-0.02-0.025-0.039-0.052-0.061-0.078C51.133,20.892,51.106,20.866,51.074,20.842z
						 M47.428,24.896c-0.781,0.45-1.75,0.525-2.886,0.219c0.255-1.145,0.767-1.969,1.524-2.45c1.06-0.679,2.431-0.608,3.294-0.466
						C49.084,23.029,48.51,24.272,47.428,24.896z"/>
					<path fill="#4C4C4C" d="M42.853,26.349c-0.009-0.01-0.019-0.021-0.029-0.03c-0.024-0.026-0.042-0.052-0.061-0.08
						C42.789,26.276,42.818,26.313,42.853,26.349z"/>
					<path fill="#4C4C4C" d="M42.642,25.478c-0.007,0.054-0.013,0.107-0.021,0.161c-0.004,0.031-0.007,0.063-0.007,0.095
						c-0.003,0.108,0.017,0.214,0.05,0.312C42.598,25.868,42.586,25.669,42.642,25.478z"/>
					<path fill="#4C4C4C" d="M51.074,20.841c-0.085-0.074-0.188-0.133-0.302-0.171c-0.017-0.007-0.077-0.026-0.179-0.051
						l0.022,0.001C50.793,20.647,50.949,20.729,51.074,20.841z"/>
					<path fill="#4C4C4C" d="M42.763,26.238c0.026,0.038,0.056,0.075,0.09,0.11c-0.009-0.01-0.019-0.021-0.029-0.03
						C42.799,26.292,42.781,26.267,42.763,26.238z"/>
					<path fill="#4C4C4C" d="M43.348,26.632c-0.195-0.036-0.363-0.138-0.49-0.277c0.022,0.022,0.044,0.044,0.066,0.062
						c0.027,0.022,0.053,0.044,0.08,0.062c0.055,0.038,0.118,0.072,0.185,0.097C43.24,26.595,43.294,26.613,43.348,26.632z"/>
					<path fill="#4C4C4C" d="M51.301,21.146c0.002,0.002,0.002,0.002,0.004,0.004c0.092,0.201,0.113,0.439,0.037,0.666
						c-0.003,0.01-0.008,0.017-0.012,0.023c0.022-0.102,0.035-0.166,0.037-0.183C51.396,21.478,51.371,21.302,51.301,21.146z"/>
				</g>
				<g>
					<path fill="#4C4C4C" d="M41.457,32.901c-0.009,0.053-0.014,0.105-0.021,0.159c-0.02,0.164,0.006,0.32,0.063,0.462
						C41.414,33.333,41.392,33.113,41.457,32.901z"/>
					<path fill="#4C4C4C" d="M50.047,28.446c-0.105-0.158-0.266-0.283-0.46-0.351c-0.015-0.005-0.073-0.025-0.169-0.053
						c0.006-0.001,0.011,0.001,0.015,0.002C49.695,28.087,49.914,28.236,50.047,28.446z"/>
					<path fill="#4C4C4C" d="M41.729,33.834c-0.002-0.002-0.006-0.006-0.011-0.008c-0.015-0.014-0.028-0.029-0.042-0.046
						C41.692,33.801,41.711,33.818,41.729,33.834z"/>
					<path fill="#4C4C4C" d="M42.16,34.056c-0.172-0.032-0.322-0.115-0.442-0.229c-0.021-0.02-0.043-0.041-0.063-0.065
						c0.008,0.009,0.012,0.015,0.021,0.02c0.017,0.021,0.035,0.038,0.053,0.054c0.052,0.044,0.107,0.085,0.169,0.117
						c0.034,0.019,0.067,0.034,0.104,0.047C42.053,34.019,42.106,34.037,42.16,34.056z"/>
					<path fill="#4C4C4C" d="M49.587,28.096c-0.015-0.005-0.073-0.025-0.169-0.053c-0.701-0.2-3.381-0.831-5.498,0.511
						c-1.365,0.863-2.194,2.324-2.463,4.348c-0.009,0.053-0.014,0.105-0.021,0.159c-0.02,0.164,0.006,0.32,0.063,0.462
						c0.007,0.012,0.013,0.026,0.021,0.038c0.014,0.032,0.031,0.062,0.049,0.09c0.014,0.02,0.027,0.039,0.043,0.057l0.001,0.001
						c0.005,0.011,0.013,0.02,0.021,0.028l0.021,0.024c0.008,0.009,0.012,0.015,0.021,0.02c0.017,0.021,0.035,0.038,0.053,0.054
						c0.052,0.044,0.107,0.085,0.169,0.117c0.034,0.019,0.067,0.034,0.104,0.047c0.052,0.021,0.105,0.039,0.159,0.058
						c1.914,0.697,3.594,0.64,4.988-0.166c0.28-0.162,0.535-0.347,0.768-0.548c1.556-1.347,2.096-3.42,2.229-4.068
						c0.021-0.108,0.034-0.178,0.037-0.193c0.025-0.152,0.01-0.302-0.037-0.439c-0.01-0.023-0.018-0.044-0.027-0.066
						s-0.021-0.044-0.032-0.065c-0.011-0.02-0.022-0.041-0.038-0.062C49.941,28.288,49.781,28.163,49.587,28.096z M46.234,32.324
						c-0.781,0.447-1.746,0.52-2.877,0.213c0.256-1.144,0.768-1.968,1.523-2.45c1.061-0.677,2.433-0.607,3.294-0.463
						C47.902,30.455,47.326,31.696,46.234,32.324z"/>
					<path fill="#4C4C4C" d="M50.182,29.08c0.025-0.152,0.01-0.302-0.037-0.439c0.074,0.185,0.081,0.398,0.014,0.601
						c-0.006,0.011-0.008,0.023-0.014,0.032C50.166,29.165,50.179,29.096,50.182,29.08z"/>
				</g>
				<g>
					<path fill="#4C4C4C" d="M36.777,10.921c-0.002,0.002-0.004,0-0.005,0.001c-0.104-0.005-0.17-0.007-0.187-0.006
						c-0.17,0.003-0.324,0.048-0.461,0.129c-0.02,0.013-0.04,0.024-0.06,0.037c-0.04,0.032-0.079,0.066-0.116,0.101
						c-0.016,0.018-0.029,0.036-0.045,0.054c-0.1,0.119-0.166,0.267-0.192,0.434c-0.003,0.016-0.012,0.081-0.024,0.186l-0.002,0.005
						c-0.084,0.75-0.249,3.468,1.412,5.322c1.077,1.2,2.65,1.775,4.682,1.711c0.06,0,0.116-0.001,0.176-0.005
						c0.184-0.009,0.352-0.071,0.49-0.172c0.016-0.01,0.031-0.022,0.045-0.035c0.02-0.017,0.037-0.032,0.055-0.051
						c0.117-0.122,0.205-0.277,0.24-0.454c0.012-0.059,0.023-0.116,0.031-0.175c0.367-1.999,0.035-3.642-0.989-4.885
						C40.244,11.195,37.527,10.952,36.777,10.921z M41.121,17.077c-1.172-0.06-2.066-0.429-2.67-1.098l-0.038-0.045
						c-0.808-0.931-0.961-2.259-0.96-3.123c0.863,0.135,2.183,0.496,2.979,1.457C41.005,14.963,41.234,15.907,41.121,17.077z"/>
					<path fill="#4C4C4C" d="M36.772,10.922c-0.104-0.005-0.17-0.007-0.187-0.006c-0.17,0.003-0.324,0.048-0.461,0.129
						c0.178-0.112,0.397-0.162,0.622-0.128C36.756,10.919,36.764,10.919,36.772,10.922z"/>
					<path fill="#4C4C4C" d="M42.816,18.002c-0.004,0.246-0.105,0.468-0.271,0.629c0.117-0.122,0.205-0.277,0.24-0.454
						C42.797,18.118,42.809,18.061,42.816,18.002z"/>
					<path fill="#4C4C4C" d="M35.904,11.236c-0.1,0.119-0.166,0.267-0.192,0.434c-0.003,0.016-0.012,0.081-0.024,0.186
						c-0.002-0.01-0.001-0.017-0.002-0.026C35.686,11.604,35.766,11.393,35.904,11.236z"/>
					<path fill="#4C4C4C" d="M42.445,18.717c-0.182,0.142-0.424,0.21-0.666,0.177c0.06,0,0.116-0.001,0.176-0.005
						C42.139,18.88,42.307,18.817,42.445,18.717z"/>
				</g>
				<g>
					<path fill="#4C4C4C" d="M35.613,18.224c-0.003,0.002-0.005-0.001-0.006,0.001c-0.105-0.005-0.17-0.007-0.188-0.006
						c-0.14,0.001-0.271,0.034-0.391,0.091c-0.021,0.012-0.043,0.025-0.066,0.037c-0.02,0.015-0.039,0.023-0.057,0.039
						c-0.045,0.029-0.087,0.064-0.123,0.106c-0.016,0.014-0.029,0.033-0.043,0.048c-0.016,0.021-0.032,0.042-0.049,0.062
						c-0.072,0.107-0.123,0.233-0.146,0.369c-0.002,0.018-0.011,0.078-0.023,0.179c0,0.004,0,0.004,0,0.008
						c-0.082,0.738-0.256,3.467,1.41,5.327c1.077,1.2,2.65,1.775,4.682,1.71c0.059,0.001,0.116-0.001,0.176-0.003
						c0.104-0.006,0.205-0.028,0.298-0.063c0.07-0.03,0.131-0.065,0.193-0.109c0.015-0.01,0.03-0.023,0.044-0.035
						c0.02-0.018,0.037-0.032,0.056-0.051c0.116-0.122,0.203-0.275,0.239-0.455c0.012-0.054,0.021-0.11,0.03-0.166
						c0.372-2.003,0.038-3.648-0.988-4.893C39.078,18.498,36.362,18.255,35.613,18.224z M39.951,24.38
						c-1.169-0.062-2.063-0.431-2.664-1.096l-0.039-0.045c-0.808-0.934-0.961-2.266-0.964-3.126c0.867,0.132,2.19,0.493,2.987,1.466
						C39.84,22.274,40.07,23.216,39.951,24.38z"/>
					<path fill="#4C4C4C" d="M35.607,18.225c-0.105-0.005-0.17-0.007-0.188-0.006c-0.14,0.001-0.271,0.034-0.391,0.091
						c0.165-0.087,0.355-0.123,0.553-0.09C35.59,18.222,35.598,18.223,35.607,18.225z"/>
					<path fill="#4C4C4C" d="M41.649,25.312c-0.007,0.241-0.106,0.462-0.27,0.621c0.116-0.122,0.203-0.275,0.239-0.455
						C41.631,25.425,41.64,25.368,41.649,25.312z"/>
					<path fill="#4C4C4C" d="M34.691,18.603c-0.072,0.107-0.123,0.233-0.146,0.369c-0.002,0.018-0.011,0.078-0.023,0.179
						c0.001-0.007,0-0.013,0-0.021C34.521,18.933,34.584,18.752,34.691,18.603z"/>
					<path fill="#4C4C4C" d="M40.789,26.192c0.104-0.006,0.205-0.028,0.298-0.063c-0.146,0.066-0.308,0.091-0.474,0.066
						C40.672,26.196,40.729,26.194,40.789,26.192z"/>
					<path fill="#4C4C4C" d="M41.28,26.02c-0.062,0.045-0.124,0.083-0.193,0.109C41.157,26.099,41.218,26.063,41.28,26.02z"/>
				</g>
				<g>
					<path fill="#4C4C4C" d="M34.434,25.65c-0.111-0.007-0.182-0.005-0.199-0.006c-0.167,0.001-0.324,0.049-0.461,0.129
						c-0.02,0.013-0.039,0.024-0.06,0.037c-0.039,0.03-0.078,0.064-0.115,0.101c-0.016,0.018-0.028,0.034-0.044,0.052
						c-0.017,0.021-0.032,0.041-0.049,0.062c-0.072,0.106-0.123,0.232-0.145,0.369c-0.004,0.017-0.012,0.078-0.021,0.179
						c-0.002,0.005-0.002,0.005-0.002,0.009c-0.082,0.739-0.256,3.467,1.41,5.328c1.075,1.201,2.648,1.776,4.682,1.709
						c0.059,0.001,0.115,0,0.175-0.004c0.185-0.008,0.353-0.071,0.491-0.171c0.016-0.011,0.031-0.024,0.045-0.036
						c0.02-0.017,0.037-0.032,0.055-0.051c0.117-0.122,0.204-0.275,0.24-0.454c0.012-0.055,0.022-0.108,0.03-0.163
						c0.369-2.005,0.038-3.651-0.987-4.896C37.899,25.928,35.197,25.681,34.434,25.65z M38.771,31.808
						c-1.172-0.063-2.066-0.433-2.67-1.102l-0.039-0.045c-0.808-0.933-0.961-2.265-0.965-3.125c0.866,0.134,2.189,0.494,2.987,1.467
						C38.656,29.699,38.887,30.64,38.771,31.808z"/>
					<path fill="#4C4C4C" d="M34.434,25.65c-0.111-0.007-0.182-0.005-0.199-0.006c-0.167,0.001-0.324,0.049-0.461,0.129
						c0.179-0.114,0.398-0.164,0.625-0.13C34.41,25.646,34.421,25.647,34.434,25.65z"/>
					<path fill="#4C4C4C" d="M40.466,32.74c-0.007,0.242-0.108,0.46-0.271,0.617c0.117-0.122,0.204-0.275,0.24-0.454
						C40.447,32.849,40.458,32.795,40.466,32.74z"/>
					<path fill="#4C4C4C" d="M33.506,26.025c-0.072,0.106-0.123,0.232-0.145,0.369c-0.004,0.017-0.012,0.078-0.021,0.179
						c-0.001-0.006-0.002-0.011-0.002-0.02C33.338,26.355,33.398,26.174,33.506,26.025z"/>
					<path fill="#4C4C4C" d="M40.096,33.444c-0.185,0.142-0.424,0.21-0.666,0.175c0.059,0.001,0.115,0,0.175-0.004
						C39.789,33.607,39.957,33.544,40.096,33.444z"/>
				</g>
				<g>
					<path fill="#4C4C4C" d="M43.819,14.347c-0.222-0.051-0.425-0.187-0.554-0.391c0.037,0.043,0.075,0.087,0.114,0.127
						C43.502,14.217,43.656,14.304,43.819,14.347z"/>
					<path fill="#4C4C4C" d="M45.271,4.532c-0.129,0.013-0.261,0.055-0.379,0.127c-0.016,0.011-0.075,0.048-0.168,0.111
						c0.006-0.009,0.014-0.016,0.021-0.022l0.006-0.005C44.904,4.614,45.086,4.543,45.271,4.532z"/>
					<path fill="#4C4C4C" d="M45.58,4.557c-0.023-0.007-0.051-0.012-0.075-0.017c-0.052-0.007-0.103-0.011-0.153-0.011
						c-0.027,0-0.054,0.002-0.08,0.003c-0.129,0.013-0.261,0.055-0.379,0.127c-0.016,0.011-0.075,0.048-0.168,0.111
						c-0.636,0.42-2.812,2.039-3.163,4.495c-0.228,1.598,0.346,3.174,1.704,4.69c0.037,0.043,0.075,0.087,0.114,0.127
						c0.122,0.134,0.276,0.221,0.439,0.264c0.019,0.005,0.034,0.008,0.051,0.011c0.05,0.007,0.104,0.013,0.155,0.014
						c0.045,0,0.093-0.004,0.142-0.011c0.099-0.017,0.2-0.05,0.293-0.1c0.046-0.026,0.093-0.053,0.138-0.078
						c0.506-0.287,0.949-0.597,1.337-0.932c0.974-0.844,1.572-1.842,1.784-2.977c0.449-2.444-1.102-4.676-1.564-5.272
						c-0.002-0.003-0.002-0.007-0.006-0.006c-0.064-0.088-0.107-0.138-0.119-0.15C45.907,4.701,45.749,4.605,45.58,4.557z
						 M45.938,9.945c-0.167,0.887-0.738,1.669-1.709,2.335c-0.705-0.937-0.999-1.859-0.875-2.748c0.17-1.204,1.054-2.176,1.717-2.75
						l0.066-0.058C45.59,7.473,46.164,8.718,45.938,9.945z"/>
					<path fill="#4C4C4C" d="M44.598,14.183c-0.128,0.101-0.275,0.159-0.431,0.178c0.099-0.017,0.2-0.05,0.293-0.1
						C44.506,14.234,44.553,14.208,44.598,14.183z"/>
					<path fill="#4C4C4C" d="M46.137,4.969c0.004,0.01,0.011,0.018,0.012,0.027c-0.064-0.088-0.107-0.138-0.119-0.15
						c-0.122-0.145-0.28-0.24-0.449-0.289C45.807,4.613,46.006,4.756,46.137,4.969z"/>
				</g>
			</g>
		</g>
	</g>
</g>
</svg>
