<?xml version="1.0" encoding="utf-8"?>
<!-- Generator: Adobe Illustrator 16.0.0, SVG Export Plug-In . SVG Version: 6.00 Build 0)  -->
<!DOCTYPE svg PUBLIC "-//W3C//DTD SVG 1.1//EN" "http://www.w3.org/Graphics/SVG/1.1/DTD/svg11.dtd">
<svg version="1.1" id="Layer_1" xmlns="http://www.w3.org/2000/svg" xmlns:xlink="http://www.w3.org/1999/xlink" x="0px" y="0px"
	 width="60px" height="60px" viewBox="0 0 60 60" enable-background="new 0 0 60 60" xml:space="preserve">
<g>
	<g>
		<path fill="#4C4C4C" d="M29.86,7.559c0.072-0.074,0.215-0.146,0.287-0.217c3.373,7.395,9.549,12.993,12.921,20.313
			c3.015,5.961,4.021,13.783-0.286,19.383c-6.029,7.395-18.881,7.468-25.197,0.358c-4.451-5.17-3.876-12.922-1.078-18.734
			C19.81,20.91,26.127,15.024,29.86,7.559L29.86,7.559z"/>
		<path fill="#FFFFFF" d="M22.609,23.997c2.369-3.374,4.451-6.892,7.323-9.835c-2.872,7.323-8.902,13.352-9.908,21.465
			c-0.933,4.951,1.077,9.905,4.81,13.136c-3.302-1.22-6.172-3.806-7.034-7.395C16.221,35.195,19.307,29.021,22.609,23.997
			L22.609,23.997z"/>
	</g>
</g>
</svg>
