<?xml version="1.0" encoding="utf-8"?>
<!-- Generator: Adobe Illustrator 16.0.0, SVG Export Plug-In . SVG Version: 6.00 Build 0)  -->
<!DOCTYPE svg PUBLIC "-//W3C//DTD SVG 1.1//EN" "http://www.w3.org/Graphics/SVG/1.1/DTD/svg11.dtd">
<svg version="1.1" id="Layer_1" xmlns="http://www.w3.org/2000/svg" xmlns:xlink="http://www.w3.org/1999/xlink" x="0px" y="0px"
	 width="230px" height="230px" viewBox="0 0 230 230" enable-background="new 0 0 230 230" xml:space="preserve">
<g>
	<path fill="#FFFFFF" d="M180.802,22.641c-0.977-0.977-2.562-0.977-3.54,0l-22.748,22.748l-12.784-12.786
		c-0.902-0.902-2.102-1.399-3.38-1.399c-1.276,0-2.476,0.497-3.378,1.399L117.17,50.405c0,0-0.002,0-0.002,0c0,0,0,0,0,0
		l-11.263,11.263l0,0v0l-41.837,41.836c-0.185,0.185-0.346,0.383-0.494,0.588l-7.377-7.376c-0.889-0.889-2.329-0.889-3.218,0
		l-2.098,2.097c-0.889,0.889-0.889,2.329,0,3.218l22.803,22.804l-14.382,14.383l-10.757-10.758c-0.889-0.888-2.329-0.888-3.218,0
		l-1.561,1.562c-0.889,0.889-0.889,2.329,0,3.219l26.434,26.433c0.889,0.891,2.33,0.889,3.219,0l1.561-1.561
		c0.889-0.889,0.889-2.33,0-3.219l-10.757-10.756l14.383-14.383l22.804,22.803c0.889,0.889,2.33,0.889,3.218,0l2.097-2.098
		c0.889-0.889,0.889-2.328,0-3.219l-7.375-7.375c0.206-0.148,0.404-0.312,0.587-0.494l70.901-70.902
		c0.904-0.903,1.401-2.103,1.401-3.38c0-1.276-0.497-2.477-1.401-3.379l-12.783-12.785l22.747-22.748
		C181.78,25.204,181.78,23.619,180.802,22.641z M96.558,135.674L67.77,106.886L83.7,90.955l14.663,14.664
		c0.489,0.489,1.129,0.733,1.77,0.733s1.281-0.245,1.77-0.733c0.978-0.978,0.978-2.563,0-3.54L87.24,87.415l8.207-8.207l8.924,8.924
		c0.489,0.489,1.129,0.733,1.77,0.733c0.64,0,1.281-0.244,1.77-0.733c0.977-0.978,0.977-2.562,0-3.54l-8.924-8.924l8.689-8.689
		l13.268,13.268c0.488,0.489,1.13,0.733,1.77,0.733c0.642,0,1.282-0.245,1.77-0.733c0.979-0.978,0.979-2.562,0-3.54l-13.267-13.268
		l7.724-7.723l8.923,8.923c0.488,0.489,1.129,0.733,1.771,0.733c0.641,0,1.281-0.244,1.769-0.733c0.978-0.978,0.978-2.562,0-3.54
		l-8.922-8.923l15.87-15.871l28.788,28.788L96.558,135.674z"/>
	<g>
		<path fill="#FFFFFF" d="M166.618,139.172c5.037,0,9.136,4.098,9.136,9.137c0,5.037-4.099,9.137-9.136,9.137h-13.15
			c-3.158-3.445-4.537-7.145-4.134-10.965c-0.83,0.152-1.675,0.232-2.525,0.232c-0.833,0-1.654-0.076-2.46-0.217
			c-0.286,3.77,0.672,7.477,2.876,10.949h-14.446c-5.037,0-9.137-4.1-9.137-9.137c0-5.039,4.1-9.137,9.137-9.137h1.544
			c-0.826-1.57-1.329-3.256-1.522-4.963h-0.021c-7.775,0-14.1,6.325-14.1,14.1c0,7.773,6.324,14.1,14.1,14.1h33.84
			c7.773,0,14.1-6.326,14.1-14.1c0-7.676-6.168-13.935-13.807-14.092l-5.951,4.956H166.618z"/>
		<path fill="#FFFFFF" d="M140.442,139.172h6.018c-0.415,0.82-0.765,1.645-1.06,2.467c0.462,0.072,0.933,0.111,1.408,0.111
			c1.604,0,3.177-0.428,4.556-1.223c0.259-0.451,0.538-0.904,0.844-1.355h0.997l5.959-4.963h-21.349
			c0.267,1.516,0.913,2.987,1.966,4.252C139.99,138.709,140.212,138.947,140.442,139.172z"/>
		<path fill="#FFFFFF" d="M183.642,101.937c-2.688-3.227-6.639-5.078-10.843-5.078c-3.285,0-6.486,1.16-9.015,3.265l-26.004,21.654
			c-3.781,3.148-5.491,7.872-4.98,12.431h5.016c-0.549-3.123,0.534-6.446,3.141-8.616l10.513-8.755
			c1.565,6.777,5.838,11.483,12.281,13.553l-4.586,3.818h7.454c0.099,0,0.195,0.005,0.293,0.008l14.918-12.423
			C187.803,116.819,188.616,107.911,183.642,101.937z M178.652,117.98l-10.094,8.406c-7.546-1.021-11.897-5.567-12.666-13.232
			l11.067-9.216c1.639-1.364,3.712-2.116,5.839-2.116c2.726,0,5.288,1.2,7.029,3.291
			C183.051,108.983,182.523,114.755,178.652,117.98z"/>
		<path fill="#FFFFFF" d="M159.164,134.208l-5.959,4.963h7.755l5.951-4.956c-0.098-0.003-0.194-0.008-0.293-0.008H159.164z"/>
		<path fill="#FFFFFF" d="M146.809,141.75c-0.476,0-0.946-0.039-1.408-0.111c-0.582,1.623-0.93,3.246-1.052,4.857
			c0.806,0.141,1.627,0.217,2.46,0.217c0.851,0,1.695-0.08,2.525-0.232c0.207-1.957,0.884-3.947,2.03-5.953
			C149.985,141.322,148.412,141.75,146.809,141.75z"/>
		<path fill="#FFFFFF" d="M140.442,139.172c-0.23-0.225-0.452-0.463-0.661-0.711c-1.053-1.266-1.699-2.736-1.966-4.252H132.8
			c0.193,1.708,0.696,3.393,1.522,4.963H140.442z"/>
	</g>
</g>
</svg>
