<?xml version="1.0" encoding="utf-8"?>
<!-- Generator: Adobe Illustrator 16.0.0, SVG Export Plug-In . SVG Version: 6.00 Build 0)  -->
<!DOCTYPE svg PUBLIC "-//W3C//DTD SVG 1.1//EN" "http://www.w3.org/Graphics/SVG/1.1/DTD/svg11.dtd">
<svg version="1.1" id="Layer_1" xmlns="http://www.w3.org/2000/svg" xmlns:xlink="http://www.w3.org/1999/xlink" x="0px" y="0px"
	 width="150px" height="41px" viewBox="0 0 150 41" enable-background="new 0 0 150 41" xml:space="preserve">
<g>
	<path fill="#4C3C2C" d="M54.604,35.564h5.167V21.38c-0.035-2.324-1.049-4.299-3.048-5.925c-1.999-1.623-4.428-2.449-7.288-2.478
		h-12.92v4.201h12.92c1.377,0,2.583,0.421,3.618,1.262c1.032,0.84,1.55,1.821,1.55,2.94V35.564L54.604,35.564z"/>
	<path fill="#4C3C2C" d="M41.684,26.345c0-0.96,0.517-1.941,1.55-2.782c1.035-0.84,2.24-1.261,3.618-1.261h1.733V18.1h-1.733
		c-2.859,0.028-5.289,0.854-7.288,2.48c-1.999,1.624-3.015,3.599-3.049,5.765H41.684L41.684,26.345z"/>
	<path fill="#4C3C2C" d="M36.476,27.32c0.074,2.166,1.089,4.142,3.088,5.765c1.999,1.626,4.429,2.451,7.288,2.479h6.759v-4.201
		h-6.759c-1.378,0-2.583-0.421-3.618-1.261c-1.033-0.84-1.55-1.821-1.589-2.782H36.476L36.476,27.32z"/>
	<path fill="#4C3C2C" d="M116.667,35.564h5.167V21.38c-0.033-2.324-1.049-4.299-3.047-5.925c-1.998-1.623-4.428-2.449-7.289-2.478
		H98.579v4.201h12.919c1.379,0,2.584,0.421,3.619,1.262c1.032,0.84,1.55,1.821,1.55,2.94V35.564L116.667,35.564z"/>
	<path fill="#4C3C2C" d="M103.747,26.345c0-0.96,0.518-1.941,1.551-2.782c1.034-0.84,2.24-1.261,3.618-1.261h1.732V18.1h-1.732
		c-2.86,0.028-5.29,0.854-7.288,2.48c-1.999,1.624-3.014,3.599-3.049,5.765H103.747L103.747,26.345z"/>
	<path fill="#4C3C2C" d="M98.54,27.32c0.074,2.166,1.089,4.142,3.088,5.765c1.998,1.626,4.428,2.451,7.288,2.479h6.758v-4.201
		h-6.758c-1.378,0-2.584-0.421-3.618-1.261c-1.033-0.84-1.551-1.821-1.59-2.782H98.54L98.54,27.32z"/>
	<path fill="#4C3C2C" d="M68.491,12.913h-5.168v14.209c0.034,2.323,1.05,4.299,3.049,5.923c1.999,1.626,4.428,2.451,7.287,2.479
		h12.919v-4.201H73.659c-1.378,0-2.583-0.421-3.617-1.262c-1.033-0.84-1.551-1.821-1.551-2.939V12.913L68.491,12.913z"/>
	<path fill="#4C3C2C" d="M144.667,35.564h5.167V21.38c-0.032-2.324-1.049-4.299-3.048-5.925c-1.998-1.623-4.428-2.449-7.287-2.478
		H126.58v4.201h12.919c1.378,0,2.583,0.421,3.618,1.262c1.032,0.84,1.55,1.821,1.55,2.94V35.564L144.667,35.564z"/>
	<polygon fill="#4C3C2C" points="131.341,35.526 126.639,35.526 126.639,18.087 131.341,18.087 131.341,35.526 	"/>
	<polygon fill="#4C3C2C" points="94.738,17.176 90.364,17.176 90.364,12.913 94.738,12.913 94.738,17.176 	"/>
	<polygon fill="#4C3C2C" points="90.364,18.089 90.364,35.567 94.738,35.567 94.738,35.557 94.738,18.089 90.364,18.089 	"/>
	<polygon fill="#9B8579" points="13.456,40.672 13.456,25.418 18.772,25.418 18.772,40.672 13.456,40.672 	"/>
	<path fill="#4C3C2C" d="M29.083,3.071c-2.183-1.774-4.787-2.668-7.811-2.688V0.379H10.956v0.003
		c-3.024,0.02-5.628,0.915-7.812,2.688c-2.208,1.795-3.31,3.938-3.31,6.432v16.8v0.043c0,2.494,1.102,4.637,3.31,6.433
		c2.183,1.773,4.787,2.668,7.812,2.688v0.004h0.101h0.16v-5.821h-0.16c-1.534,0-2.853-0.449-3.957-1.347
		c-1.104-0.897-1.655-1.97-1.655-3.216V9.502c0-1.246,0.551-2.317,1.655-3.216c1.104-0.897,2.423-1.345,3.957-1.345h10.115
		c1.534,0,2.853,0.448,3.956,1.345c1.103,0.899,1.655,1.971,1.655,3.216l0,15.584c0,1.246-0.552,2.318-1.655,3.216
		c-1.104,0.897-2.423,1.347-3.958,1.347h-0.222v5.821h0.222h0.103v-0.004c3.024-0.021,5.627-0.915,7.811-2.688
		c2.208-1.796,3.31-3.938,3.31-6.433V9.502C32.393,7.009,31.29,4.866,29.083,3.071L29.083,3.071z"/>
</g>
</svg>
