<?xml version="1.0" encoding="utf-8"?>
<!-- Generator: Adobe Illustrator 16.0.0, SVG Export Plug-In . SVG Version: 6.00 Build 0)  -->
<!DOCTYPE svg PUBLIC "-//W3C//DTD SVG 1.1//EN" "http://www.w3.org/Graphics/SVG/1.1/DTD/svg11.dtd">
<svg version="1.1" id="Capa_1" xmlns="http://www.w3.org/2000/svg" xmlns:xlink="http://www.w3.org/1999/xlink" x="0px" y="0px"
	 width="300px" height="150px" viewBox="0 0 300 150" enable-background="new 0 0 300 150" xml:space="preserve">
<g>
	<g>
		<path fill="#FFFFFF" d="M20.32,91.147v3.092h0.088c0.824-1.178,1.817-2.091,2.981-2.738c1.163-0.647,2.495-0.972,3.997-0.972
			c1.442,0,2.76,0.28,3.953,0.839c1.192,0.56,2.098,1.546,2.716,2.959c0.677-1.001,1.597-1.884,2.76-2.649s2.54-1.148,4.129-1.148
			c1.207,0,2.326,0.147,3.356,0.441c1.03,0.295,1.914,0.766,2.65,1.413c0.735,0.648,1.31,1.495,1.722,2.54
			c0.412,1.045,0.618,2.304,0.618,3.775v15.28H43.02V101.04c0-0.766-0.03-1.486-0.088-2.164c-0.06-0.677-0.221-1.266-0.486-1.767
			c-0.265-0.5-0.655-0.897-1.17-1.192c-0.515-0.294-1.214-0.441-2.098-0.441s-1.597,0.17-2.142,0.508
			c-0.545,0.339-0.971,0.78-1.28,1.325c-0.31,0.545-0.516,1.163-0.619,1.854c-0.104,0.692-0.154,1.391-0.154,2.098v12.719h-6.271
			v-12.808c0-0.677-0.015-1.347-0.044-2.009c-0.03-0.662-0.155-1.273-0.375-1.833c-0.221-0.559-0.589-1.008-1.104-1.347
			c-0.516-0.338-1.274-0.508-2.274-0.508c-0.294,0-0.685,0.066-1.17,0.198c-0.486,0.133-0.957,0.383-1.413,0.751
			c-0.457,0.368-0.847,0.898-1.17,1.59c-0.324,0.692-0.486,1.598-0.486,2.716v13.249h-6.271V91.147H20.32z"/>
		<path fill="#FFFFFF" d="M53.022,98.169c0.088-1.472,0.457-2.693,1.104-3.665c0.647-0.972,1.472-1.751,2.473-2.341
			c1-0.589,2.126-1.008,3.378-1.259c1.251-0.25,2.51-0.375,3.776-0.375c1.148,0,2.311,0.081,3.489,0.243
			c1.177,0.162,2.252,0.479,3.224,0.949c0.971,0.471,1.766,1.126,2.385,1.965c0.618,0.84,0.927,1.951,0.927,3.335V108.9
			c0,1.031,0.059,2.018,0.177,2.959c0.117,0.943,0.324,1.649,0.618,2.12h-6.359c-0.118-0.354-0.214-0.714-0.287-1.082
			c-0.074-0.368-0.125-0.743-0.155-1.126c-1.001,1.031-2.179,1.752-3.533,2.164c-1.354,0.412-2.738,0.618-4.151,0.618
			c-1.09,0-2.105-0.133-3.047-0.397c-0.942-0.265-1.767-0.677-2.473-1.236s-1.259-1.266-1.656-2.12
			c-0.397-0.854-0.596-1.869-0.596-3.047c0-1.296,0.228-2.363,0.685-3.202c0.456-0.839,1.045-1.509,1.767-2.01
			c0.721-0.5,1.546-0.875,2.473-1.126c0.927-0.25,1.862-0.448,2.804-0.597c0.942-0.146,1.87-0.265,2.782-0.353
			s1.723-0.221,2.429-0.397s1.266-0.434,1.678-0.772c0.412-0.339,0.603-0.832,0.574-1.479c0-0.678-0.11-1.215-0.332-1.612
			c-0.221-0.397-0.515-0.707-0.883-0.928s-0.795-0.367-1.28-0.441c-0.486-0.073-1.009-0.11-1.568-0.11
			c-1.237,0-2.208,0.265-2.915,0.795s-1.119,1.413-1.236,2.649H53.022z M67.508,102.807c-0.265,0.235-0.596,0.419-0.994,0.552
			s-0.825,0.243-1.281,0.331c-0.457,0.088-0.935,0.162-1.436,0.221c-0.501,0.06-1.001,0.133-1.501,0.221
			c-0.471,0.089-0.935,0.207-1.391,0.354c-0.457,0.147-0.854,0.347-1.192,0.597c-0.339,0.25-0.611,0.566-0.817,0.949
			c-0.207,0.383-0.309,0.868-0.309,1.457c0,0.56,0.103,1.031,0.309,1.413c0.206,0.384,0.486,0.685,0.839,0.905
			c0.354,0.222,0.765,0.376,1.237,0.464c0.471,0.089,0.956,0.133,1.457,0.133c1.237,0,2.193-0.206,2.871-0.618
			s1.177-0.905,1.502-1.479c0.323-0.574,0.522-1.155,0.596-1.744c0.073-0.589,0.11-1.061,0.11-1.414V102.807z"/>
		<path fill="#FFFFFF" d="M84.152,82.447v31.532h-6.271V82.447H84.152z"/>
		<path fill="#FFFFFF" d="M100.74,91.147v4.195h-4.593v11.306c0,1.06,0.177,1.767,0.53,2.12c0.353,0.353,1.06,0.529,2.12,0.529
			c0.354,0,0.691-0.014,1.016-0.044c0.324-0.029,0.633-0.073,0.928-0.133v4.858c-0.53,0.088-1.119,0.147-1.767,0.177
			c-0.648,0.029-1.281,0.044-1.899,0.044c-0.972,0-1.892-0.066-2.76-0.198c-0.869-0.133-1.634-0.391-2.296-0.773
			c-0.663-0.382-1.186-0.927-1.568-1.634c-0.383-0.707-0.574-1.634-0.574-2.782v-13.47h-3.798v-4.195h3.798v-6.846h6.271v6.846
			H100.74z"/>
		<path fill="#FFFFFF" d="M103,98.169c0.088-1.472,0.457-2.693,1.104-3.665c0.647-0.972,1.472-1.751,2.473-2.341
			c1-0.589,2.126-1.008,3.378-1.259c1.251-0.25,2.51-0.375,3.776-0.375c1.148,0,2.311,0.081,3.489,0.243
			c1.177,0.162,2.252,0.479,3.224,0.949c0.971,0.471,1.766,1.126,2.385,1.965c0.618,0.84,0.927,1.951,0.927,3.335V108.9
			c0,1.031,0.059,2.018,0.177,2.959c0.117,0.943,0.324,1.649,0.618,2.12h-6.359c-0.118-0.354-0.214-0.714-0.287-1.082
			c-0.074-0.368-0.125-0.743-0.155-1.126c-1.001,1.031-2.179,1.752-3.533,2.164c-1.354,0.412-2.738,0.618-4.151,0.618
			c-1.09,0-2.105-0.133-3.047-0.397c-0.942-0.265-1.767-0.677-2.473-1.236s-1.259-1.266-1.656-2.12
			c-0.397-0.854-0.596-1.869-0.596-3.047c0-1.296,0.228-2.363,0.685-3.202c0.456-0.839,1.045-1.509,1.767-2.01
			c0.721-0.5,1.546-0.875,2.473-1.126c0.927-0.25,1.862-0.448,2.804-0.597c0.942-0.146,1.87-0.265,2.782-0.353
			s1.723-0.221,2.429-0.397s1.266-0.434,1.678-0.772c0.412-0.339,0.603-0.832,0.574-1.479c0-0.678-0.11-1.215-0.332-1.612
			c-0.221-0.397-0.515-0.707-0.883-0.928s-0.795-0.367-1.28-0.441c-0.486-0.073-1.009-0.11-1.568-0.11
			c-1.237,0-2.208,0.265-2.915,0.795s-1.119,1.413-1.236,2.649H103z M117.486,102.807c-0.265,0.235-0.596,0.419-0.994,0.552
			s-0.825,0.243-1.281,0.331c-0.457,0.088-0.935,0.162-1.436,0.221c-0.501,0.06-1.001,0.133-1.501,0.221
			c-0.471,0.089-0.935,0.207-1.391,0.354c-0.457,0.147-0.854,0.347-1.192,0.597c-0.339,0.25-0.611,0.566-0.817,0.949
			c-0.207,0.383-0.309,0.868-0.309,1.457c0,0.56,0.103,1.031,0.309,1.413c0.206,0.384,0.486,0.685,0.839,0.905
			c0.354,0.222,0.765,0.376,1.237,0.464c0.471,0.089,0.956,0.133,1.457,0.133c1.237,0,2.193-0.206,2.871-0.618
			s1.177-0.905,1.502-1.479c0.323-0.574,0.522-1.155,0.596-1.744c0.073-0.589,0.11-1.061,0.11-1.414V102.807z"/>
	</g>
</g>
<g>
	<path fill="#FFFFFF" d="M131.815,41.977l11.539,11.539v12.131c0,1.104,0.896,2,2,2s2-0.896,2-2V53.058l11.081-11.081
		c0.508-0.508,0.68-1.219,0.527-1.869c0.035-0.148,0.059-0.302,0.059-0.461v-27.5c0-1.104-0.896-2-2-2s-2,0.896-2,2v4.775
		l-3.931,3.931V6c0-1.104-0.895-2-2-2s-2,0.896-2,2v18.853l-1.965,1.966l-1.965-1.966V2c0-1.104-0.896-2-2-2s-2,0.896-2,2v18.853
		l-3.931-3.931V8.146c0-1.104-0.896-2-2-2s-2,0.896-2,2v31.5c0,0.159,0.023,0.312,0.059,0.461
		C131.135,40.758,131.307,41.469,131.815,41.977z M143.354,42.6v5.26l-8.133-8.133c0.001-0.027,0.008-0.053,0.008-0.08v-5.172
		L143.354,42.6z M147.354,42.141l7.667-7.666v5.172c0,0.027,0.007,0.053,0.008,0.08l-7.674,7.675V42.141z M155.021,28.818
		l-7.667,7.666v-6.239l2.502-2.502c0.488-0.202,0.878-0.593,1.081-1.08l4.084-4.085V28.818z M139.313,26.662
		c0.203,0.488,0.593,0.878,1.081,1.081l2.96,2.96v6.24l-8.125-8.125v-6.24L139.313,26.662z"/>
	<path fill="#FFFFFF" d="M164.195,19.224c-0.862-0.686-2.12-0.546-2.811,0.318c-0.688,0.863-0.546,2.122,0.318,2.811
		c6.385,5.087,10.047,12.681,10.047,20.835c0,14.681-11.944,26.625-26.625,26.625c-14.681,0-26.625-11.944-26.625-26.625
		c0-8.153,3.663-15.748,10.048-20.836c0.864-0.688,1.006-1.947,0.317-2.811c-0.688-0.864-1.946-1.007-2.811-0.318
		C118.712,25.074,114.5,33.81,114.5,43.188c0,16.887,13.738,30.625,30.625,30.625s30.625-13.738,30.625-30.625
		C175.75,33.809,171.538,25.074,164.195,19.224z"/>
</g>
<g>
	<path fill="#FFFFFF" d="M14.434,130.146h7.87v1.653h-5.956v2.863h5.512v1.562h-5.512v3.2h6.063v1.653h-7.977V130.146z"/>
	<path fill="#FFFFFF" d="M23.608,130.146h1.746v10.932h-1.746V130.146z"/>
	<path fill="#FFFFFF" d="M31.232,130.146h7.87v1.653h-5.956v2.863h5.512v1.562h-5.512v3.2h6.063v1.653h-7.977V130.146z"/>
	<path fill="#FFFFFF" d="M42.763,136.914l-2.741-3.752h2.113l1.654,2.435l1.73-2.435h2.021l-2.695,3.66l3.032,4.256h-2.098
		l-2.006-2.925l-1.944,2.925h-2.052L42.763,136.914z"/>
	<path fill="#FFFFFF" d="M48.666,133.162h1.654v1.072h0.031c0.245-0.459,0.586-0.788,1.025-0.987s0.914-0.299,1.424-0.299
		c0.622,0,1.166,0.109,1.63,0.329s0.85,0.521,1.156,0.903s0.536,0.829,0.689,1.34c0.153,0.511,0.23,1.057,0.23,1.638
		c0,0.531-0.069,1.047-0.207,1.547c-0.138,0.5-0.347,0.941-0.627,1.324s-0.635,0.689-1.064,0.919s-0.934,0.344-1.516,0.344
		c-0.255,0-0.51-0.022-0.765-0.068c-0.255-0.046-0.5-0.12-0.735-0.222c-0.235-0.103-0.452-0.232-0.65-0.391
		c-0.199-0.158-0.365-0.345-0.498-0.559h-0.031v3.95h-1.746V133.162z M54.76,137.128c0-0.357-0.046-0.704-0.138-1.041
		s-0.229-0.636-0.414-0.896c-0.184-0.261-0.413-0.47-0.689-0.628c-0.275-0.158-0.592-0.237-0.949-0.237
		c-0.735,0-1.289,0.255-1.661,0.766s-0.559,1.189-0.559,2.036c0,0.398,0.048,0.769,0.145,1.11c0.097,0.342,0.243,0.635,0.437,0.88
		s0.426,0.439,0.697,0.582c0.27,0.143,0.584,0.214,0.941,0.214c0.398,0,0.735-0.081,1.011-0.244
		c0.275-0.163,0.502-0.375,0.681-0.636s0.306-0.557,0.383-0.888C54.722,137.814,54.76,137.476,54.76,137.128z"/>
	<path fill="#FFFFFF" d="M59.071,137.572c0,0.306,0.043,0.603,0.13,0.888c0.086,0.286,0.216,0.536,0.39,0.75
		c0.173,0.215,0.393,0.386,0.658,0.513c0.266,0.128,0.582,0.191,0.95,0.191c0.51,0,0.921-0.109,1.232-0.329
		c0.311-0.219,0.543-0.548,0.696-0.987h1.654c-0.092,0.429-0.25,0.812-0.475,1.148c-0.225,0.337-0.495,0.62-0.812,0.85
		s-0.671,0.403-1.064,0.521c-0.393,0.117-0.804,0.176-1.232,0.176c-0.623,0-1.174-0.102-1.654-0.306
		c-0.48-0.204-0.886-0.49-1.217-0.857s-0.582-0.807-0.75-1.316c-0.168-0.511-0.253-1.072-0.253-1.685c0-0.562,0.089-1.095,0.268-1.6
		c0.179-0.506,0.434-0.949,0.766-1.332c0.332-0.383,0.732-0.687,1.202-0.911c0.47-0.225,1-0.337,1.592-0.337
		c0.623,0,1.182,0.13,1.677,0.391c0.495,0.26,0.906,0.604,1.232,1.033s0.564,0.921,0.712,1.478s0.186,1.131,0.115,1.723H59.071z
		 M63.144,136.424c-0.021-0.275-0.079-0.541-0.176-0.796c-0.097-0.256-0.229-0.478-0.398-0.666c-0.168-0.189-0.373-0.342-0.612-0.46
		c-0.24-0.117-0.508-0.176-0.804-0.176c-0.306,0-0.584,0.054-0.834,0.161c-0.25,0.106-0.465,0.255-0.643,0.443
		c-0.179,0.189-0.322,0.411-0.429,0.666c-0.107,0.256-0.166,0.531-0.176,0.827H63.144z"/>
	<path fill="#FFFFFF" d="M66.011,133.162h1.638v1.531h0.031c0.051-0.214,0.15-0.423,0.299-0.628c0.147-0.203,0.326-0.39,0.536-0.559
		c0.209-0.168,0.441-0.304,0.697-0.405c0.255-0.103,0.515-0.153,0.781-0.153c0.204,0,0.344,0.005,0.421,0.016
		c0.077,0.01,0.156,0.021,0.237,0.03v1.685c-0.123-0.021-0.248-0.039-0.375-0.054c-0.128-0.016-0.252-0.023-0.375-0.023
		c-0.296,0-0.574,0.059-0.834,0.176c-0.26,0.118-0.488,0.291-0.681,0.521c-0.194,0.229-0.347,0.513-0.459,0.85
		s-0.168,0.725-0.168,1.163v3.767h-1.746V133.162z"/>
	<path fill="#FFFFFF" d="M70.9,133.162h1.316v-2.373h1.746v2.373h1.577v1.302h-1.577v4.226c0,0.184,0.008,0.343,0.023,0.475
		c0.015,0.133,0.051,0.245,0.107,0.337c0.056,0.092,0.14,0.161,0.252,0.207s0.265,0.068,0.459,0.068
		c0.122,0,0.245-0.002,0.367-0.007c0.123-0.006,0.245-0.023,0.368-0.054v1.347c-0.194,0.021-0.383,0.041-0.566,0.062
		c-0.184,0.021-0.373,0.03-0.567,0.03c-0.459,0-0.829-0.043-1.11-0.13s-0.5-0.214-0.658-0.383c-0.159-0.168-0.266-0.38-0.322-0.635
		c-0.056-0.256-0.089-0.546-0.1-0.873v-4.67H70.9V133.162z"/>
	<path fill="#FFFFFF" d="M79.949,141.292c-0.633,0-1.197-0.104-1.692-0.313s-0.914-0.497-1.255-0.865
		c-0.342-0.367-0.603-0.806-0.781-1.316c-0.179-0.511-0.268-1.071-0.268-1.685c0-0.602,0.089-1.158,0.268-1.669
		c0.178-0.51,0.438-0.949,0.781-1.316c0.342-0.367,0.76-0.655,1.255-0.865c0.495-0.209,1.059-0.313,1.692-0.313
		c0.633,0,1.196,0.104,1.692,0.313c0.495,0.21,0.913,0.498,1.255,0.865c0.342,0.367,0.602,0.807,0.781,1.316
		c0.178,0.511,0.268,1.067,0.268,1.669c0,0.613-0.09,1.174-0.268,1.685c-0.179,0.511-0.439,0.949-0.781,1.316
		c-0.342,0.368-0.761,0.656-1.255,0.865C81.145,141.188,80.582,141.292,79.949,141.292z M79.949,139.914
		c0.388,0,0.725-0.081,1.01-0.244s0.521-0.378,0.705-0.644c0.184-0.266,0.319-0.563,0.406-0.896c0.086-0.332,0.13-0.671,0.13-1.019
		c0-0.337-0.043-0.673-0.13-1.01c-0.087-0.337-0.222-0.636-0.406-0.896c-0.184-0.26-0.419-0.472-0.705-0.635
		s-0.623-0.245-1.01-0.245c-0.388,0-0.725,0.082-1.011,0.245s-0.521,0.375-0.704,0.635c-0.184,0.261-0.319,0.56-0.406,0.896
		c-0.087,0.337-0.13,0.673-0.13,1.01c0,0.348,0.043,0.687,0.13,1.019c0.086,0.332,0.222,0.63,0.406,0.896s0.418,0.48,0.704,0.644
		S79.561,139.914,79.949,139.914z"/>
	<path fill="#FFFFFF" d="M90.498,137.572c0,0.306,0.043,0.603,0.13,0.888c0.086,0.286,0.216,0.536,0.39,0.75
		c0.173,0.215,0.393,0.386,0.658,0.513c0.266,0.128,0.582,0.191,0.95,0.191c0.51,0,0.921-0.109,1.232-0.329
		c0.311-0.219,0.543-0.548,0.696-0.987h1.654c-0.092,0.429-0.25,0.812-0.475,1.148c-0.225,0.337-0.495,0.62-0.812,0.85
		s-0.671,0.403-1.064,0.521c-0.393,0.117-0.804,0.176-1.232,0.176c-0.623,0-1.174-0.102-1.654-0.306
		c-0.48-0.204-0.886-0.49-1.217-0.857s-0.582-0.807-0.75-1.316c-0.168-0.511-0.253-1.072-0.253-1.685c0-0.562,0.089-1.095,0.268-1.6
		c0.179-0.506,0.434-0.949,0.766-1.332c0.332-0.383,0.732-0.687,1.202-0.911c0.47-0.225,1-0.337,1.592-0.337
		c0.623,0,1.182,0.13,1.677,0.391c0.495,0.26,0.906,0.604,1.232,1.033s0.564,0.921,0.712,1.478s0.186,1.131,0.115,1.723H90.498z
		 M94.57,136.424c-0.021-0.275-0.079-0.541-0.176-0.796c-0.097-0.256-0.229-0.478-0.398-0.666c-0.168-0.189-0.373-0.342-0.612-0.46
		c-0.24-0.117-0.508-0.176-0.804-0.176c-0.306,0-0.584,0.054-0.834,0.161c-0.25,0.106-0.465,0.255-0.643,0.443
		c-0.179,0.189-0.322,0.411-0.429,0.666c-0.107,0.256-0.166,0.531-0.176,0.827H94.57z"/>
	<path fill="#FFFFFF" d="M97.438,133.162h1.654v1.164l0.031,0.03c0.265-0.438,0.612-0.783,1.041-1.033s0.903-0.375,1.424-0.375
		c0.867,0,1.551,0.225,2.052,0.674c0.5,0.449,0.75,1.123,0.75,2.021v5.436h-1.746v-4.976c-0.021-0.623-0.153-1.074-0.398-1.355
		c-0.245-0.28-0.627-0.421-1.148-0.421c-0.296,0-0.561,0.054-0.796,0.161c-0.235,0.106-0.434,0.255-0.597,0.443
		c-0.164,0.189-0.291,0.411-0.383,0.666c-0.092,0.256-0.138,0.526-0.138,0.812v4.67h-1.746V133.162z"/>
	<path fill="#FFFFFF" d="M110.13,130.146h2.021l4.991,8.054h0.031v-8.054h1.822v10.932h-2.021l-4.976-8.038h-0.046v8.038h-1.822
		V130.146z"/>
	<path fill="#FFFFFF" d="M127.699,141.078h-1.715v-1.103h-0.031c-0.214,0.398-0.533,0.718-0.957,0.957
		c-0.424,0.24-0.855,0.359-1.294,0.359c-1.041,0-1.794-0.257-2.258-0.772s-0.697-1.294-0.697-2.335v-5.022h1.746v4.854
		c0,0.694,0.132,1.185,0.398,1.47c0.266,0.286,0.638,0.429,1.118,0.429c0.368,0,0.674-0.056,0.919-0.168
		c0.245-0.112,0.444-0.263,0.597-0.451c0.153-0.189,0.263-0.416,0.33-0.682c0.066-0.266,0.099-0.552,0.099-0.857v-4.594h1.746
		V141.078z"/>
	<path fill="#FFFFFF" d="M128.488,133.162h1.316v-2.373h1.746v2.373h1.577v1.302h-1.577v4.226c0,0.184,0.008,0.343,0.023,0.475
		c0.015,0.133,0.051,0.245,0.107,0.337c0.056,0.092,0.14,0.161,0.252,0.207s0.265,0.068,0.459,0.068
		c0.122,0,0.245-0.002,0.367-0.007c0.123-0.006,0.245-0.023,0.368-0.054v1.347c-0.194,0.021-0.383,0.041-0.566,0.062
		c-0.184,0.021-0.373,0.03-0.567,0.03c-0.459,0-0.829-0.043-1.11-0.13s-0.5-0.214-0.658-0.383c-0.159-0.168-0.266-0.38-0.322-0.635
		c-0.056-0.256-0.089-0.546-0.1-0.873v-4.67h-1.316V133.162z"/>
	<path fill="#FFFFFF" d="M134.095,133.162h1.638v1.531h0.031c0.051-0.214,0.15-0.423,0.299-0.628
		c0.147-0.203,0.326-0.39,0.536-0.559c0.209-0.168,0.441-0.304,0.697-0.405c0.255-0.103,0.515-0.153,0.781-0.153
		c0.204,0,0.344,0.005,0.421,0.016c0.077,0.01,0.156,0.021,0.237,0.03v1.685c-0.123-0.021-0.248-0.039-0.375-0.054
		c-0.128-0.016-0.252-0.023-0.375-0.023c-0.296,0-0.574,0.059-0.834,0.176c-0.26,0.118-0.488,0.291-0.681,0.521
		c-0.194,0.229-0.347,0.513-0.459,0.85s-0.168,0.725-0.168,1.163v3.767h-1.746V133.162z"/>
	<path fill="#FFFFFF" d="M139.401,130.146h1.746v1.653h-1.746V130.146z M139.401,133.162h1.746v7.916h-1.746V133.162z"/>
	<path fill="#FFFFFF" d="M148.113,135.812c-0.072-0.49-0.268-0.86-0.59-1.11c-0.321-0.25-0.727-0.375-1.217-0.375
		c-0.225,0-0.465,0.038-0.72,0.115c-0.255,0.076-0.49,0.219-0.705,0.429c-0.214,0.209-0.393,0.5-0.536,0.872
		c-0.143,0.373-0.214,0.86-0.214,1.462c0,0.327,0.038,0.653,0.115,0.98c0.077,0.326,0.199,0.617,0.368,0.873
		c0.168,0.255,0.385,0.462,0.65,0.619c0.266,0.159,0.587,0.237,0.965,0.237c0.51,0,0.931-0.157,1.263-0.475
		c0.332-0.315,0.538-0.76,0.62-1.332h1.745c-0.163,1.031-0.554,1.82-1.171,2.366s-1.437,0.818-2.457,0.818
		c-0.623,0-1.171-0.104-1.646-0.313s-0.875-0.495-1.202-0.857c-0.327-0.362-0.574-0.793-0.743-1.294
		c-0.168-0.5-0.253-1.041-0.253-1.623c0-0.592,0.082-1.147,0.245-1.668s0.408-0.973,0.735-1.355s0.732-0.684,1.217-0.903
		s1.054-0.329,1.707-0.329c0.459,0,0.896,0.059,1.309,0.176c0.414,0.118,0.781,0.294,1.103,0.528
		c0.321,0.235,0.584,0.531,0.789,0.888c0.204,0.357,0.326,0.781,0.367,1.271H148.113z"/>
	<path fill="#FFFFFF" d="M151.053,130.146h1.746v1.653h-1.746V130.146z M151.053,133.162h1.746v7.916h-1.746V133.162z"/>
	<path fill="#FFFFFF" d="M158.019,141.292c-0.633,0-1.196-0.104-1.691-0.313s-0.914-0.497-1.256-0.865
		c-0.342-0.367-0.602-0.806-0.78-1.316s-0.269-1.071-0.269-1.685c0-0.602,0.09-1.158,0.269-1.669c0.179-0.51,0.438-0.949,0.78-1.316
		s0.761-0.655,1.256-0.865c0.495-0.209,1.059-0.313,1.691-0.313s1.197,0.104,1.692,0.313c0.495,0.21,0.913,0.498,1.255,0.865
		s0.603,0.807,0.781,1.316c0.179,0.511,0.268,1.067,0.268,1.669c0,0.613-0.089,1.174-0.268,1.685s-0.439,0.949-0.781,1.316
		c-0.342,0.368-0.76,0.656-1.255,0.865S158.651,141.292,158.019,141.292z M158.019,139.914c0.388,0,0.725-0.081,1.011-0.244
		s0.521-0.378,0.704-0.644s0.319-0.563,0.406-0.896c0.086-0.332,0.13-0.671,0.13-1.019c0-0.337-0.044-0.673-0.13-1.01
		c-0.087-0.337-0.223-0.636-0.406-0.896c-0.184-0.26-0.418-0.472-0.704-0.635s-0.623-0.245-1.011-0.245s-0.725,0.082-1.01,0.245
		c-0.286,0.163-0.521,0.375-0.705,0.635c-0.184,0.261-0.318,0.56-0.405,0.896s-0.13,0.673-0.13,1.01c0,0.348,0.043,0.687,0.13,1.019
		s0.222,0.63,0.405,0.896c0.185,0.266,0.419,0.48,0.705,0.644C157.294,139.833,157.631,139.914,158.019,139.914z M158.524,129.871
		h2.066l-2.174,2.189h-1.271L158.524,129.871z"/>
	<path fill="#FFFFFF" d="M163.21,133.162h1.653v1.164l0.03,0.03c0.266-0.438,0.612-0.783,1.041-1.033s0.903-0.375,1.424-0.375
		c0.868,0,1.552,0.225,2.052,0.674s0.751,1.123,0.751,2.021v5.436h-1.746v-4.976c-0.021-0.623-0.153-1.074-0.397-1.355
		c-0.245-0.28-0.628-0.421-1.148-0.421c-0.297,0-0.562,0.054-0.797,0.161c-0.234,0.106-0.434,0.255-0.597,0.443
		c-0.163,0.189-0.291,0.411-0.383,0.666c-0.092,0.256-0.138,0.526-0.138,0.812v4.67h-1.745V133.162z"/>
	<path fill="#FFFFFF" d="M174.86,133.162h1.914l2.066,5.91h0.031l2.005-5.91h1.822l-3.077,8.345
		c-0.144,0.357-0.283,0.699-0.421,1.025c-0.138,0.327-0.307,0.615-0.506,0.865c-0.198,0.25-0.446,0.449-0.742,0.598
		c-0.296,0.147-0.674,0.222-1.133,0.222c-0.408,0-0.812-0.03-1.21-0.092v-1.47c0.144,0.021,0.281,0.043,0.414,0.068
		c0.132,0.025,0.27,0.039,0.413,0.039c0.204,0,0.372-0.026,0.505-0.077s0.242-0.125,0.329-0.222
		c0.087-0.098,0.161-0.212,0.223-0.345c0.061-0.133,0.117-0.286,0.168-0.459l0.199-0.612L174.86,133.162z"/>
	<path fill="#FFFFFF" d="M188.915,137.435c0,0.418,0.071,0.775,0.215,1.071c0.143,0.296,0.342,0.539,0.597,0.728
		s0.549,0.326,0.881,0.413c0.331,0.087,0.691,0.13,1.079,0.13c0.418,0,0.775-0.048,1.071-0.146c0.296-0.097,0.536-0.222,0.72-0.375
		c0.184-0.152,0.316-0.329,0.398-0.528c0.081-0.198,0.122-0.4,0.122-0.604c0-0.418-0.095-0.728-0.283-0.926
		c-0.188-0.199-0.396-0.34-0.62-0.422c-0.388-0.143-0.84-0.277-1.354-0.405c-0.516-0.128-1.151-0.293-1.906-0.498
		c-0.47-0.122-0.86-0.283-1.172-0.481c-0.312-0.199-0.559-0.422-0.742-0.666c-0.184-0.245-0.313-0.506-0.391-0.781
		c-0.076-0.275-0.114-0.557-0.114-0.842c0-0.552,0.114-1.028,0.344-1.432c0.23-0.403,0.533-0.737,0.911-1.003
		s0.807-0.462,1.286-0.59c0.479-0.127,0.965-0.191,1.455-0.191c0.571,0,1.109,0.074,1.615,0.223c0.505,0.147,0.949,0.37,1.332,0.666
		s0.686,0.661,0.911,1.095c0.224,0.434,0.336,0.937,0.336,1.508h-1.913c-0.052-0.704-0.291-1.202-0.72-1.493
		s-0.975-0.436-1.639-0.436c-0.225,0-0.454,0.022-0.688,0.068c-0.235,0.046-0.449,0.122-0.644,0.229
		c-0.193,0.107-0.354,0.253-0.482,0.437c-0.127,0.184-0.191,0.413-0.191,0.689c0,0.388,0.12,0.691,0.36,0.91
		c0.239,0.22,0.554,0.386,0.941,0.498c0.041,0.01,0.201,0.054,0.482,0.13c0.28,0.077,0.595,0.161,0.941,0.253
		s0.687,0.182,1.019,0.268c0.331,0.087,0.568,0.151,0.712,0.191c0.356,0.112,0.668,0.266,0.934,0.46
		c0.266,0.193,0.487,0.416,0.666,0.666s0.312,0.518,0.398,0.804c0.086,0.285,0.13,0.571,0.13,0.857c0,0.612-0.125,1.136-0.375,1.569
		s-0.579,0.788-0.987,1.063c-0.409,0.275-0.873,0.478-1.394,0.605c-0.521,0.127-1.052,0.191-1.593,0.191
		c-0.622,0-1.209-0.077-1.761-0.23c-0.551-0.152-1.03-0.388-1.438-0.704s-0.735-0.722-0.98-1.217s-0.372-1.08-0.383-1.753H188.915z"
		/>
	<path fill="#FFFFFF" d="M203.735,139.317c0,0.215,0.028,0.367,0.084,0.459c0.057,0.092,0.166,0.138,0.33,0.138
		c0.051,0,0.111,0,0.184,0c0.071,0,0.152-0.01,0.245-0.03v1.21c-0.062,0.021-0.141,0.043-0.237,0.068
		c-0.098,0.025-0.197,0.049-0.299,0.069c-0.103,0.021-0.204,0.035-0.307,0.046c-0.102,0.01-0.188,0.015-0.26,0.015
		c-0.357,0-0.653-0.071-0.889-0.214c-0.234-0.143-0.388-0.393-0.459-0.75c-0.347,0.337-0.773,0.582-1.278,0.734
		c-0.505,0.153-0.993,0.229-1.462,0.229c-0.357,0-0.699-0.048-1.026-0.145c-0.326-0.098-0.615-0.24-0.865-0.429
		c-0.25-0.189-0.449-0.429-0.597-0.72c-0.148-0.291-0.222-0.631-0.222-1.019c0-0.49,0.089-0.888,0.268-1.194
		c0.179-0.306,0.413-0.546,0.704-0.72c0.291-0.173,0.618-0.298,0.98-0.375c0.362-0.076,0.727-0.135,1.095-0.176
		c0.315-0.062,0.617-0.104,0.903-0.13c0.285-0.025,0.538-0.069,0.758-0.131c0.219-0.061,0.393-0.155,0.521-0.283
		c0.127-0.127,0.191-0.318,0.191-0.574c0-0.224-0.054-0.407-0.161-0.551c-0.107-0.143-0.24-0.253-0.398-0.329
		s-0.334-0.128-0.527-0.153c-0.194-0.025-0.378-0.038-0.552-0.038c-0.49,0-0.894,0.103-1.209,0.307
		c-0.316,0.204-0.495,0.521-0.536,0.949h-1.745c0.03-0.511,0.152-0.935,0.367-1.271c0.214-0.337,0.487-0.606,0.819-0.812
		c0.331-0.204,0.706-0.347,1.125-0.429c0.418-0.081,0.847-0.122,1.286-0.122c0.388,0,0.771,0.041,1.148,0.122
		c0.377,0.082,0.717,0.215,1.018,0.398c0.302,0.184,0.544,0.421,0.728,0.712s0.275,0.646,0.275,1.064V139.317z M201.99,137.112
		c-0.266,0.174-0.592,0.278-0.979,0.314c-0.389,0.036-0.776,0.089-1.164,0.16c-0.184,0.031-0.362,0.074-0.536,0.131
		c-0.174,0.056-0.326,0.133-0.459,0.229s-0.237,0.225-0.313,0.383c-0.077,0.158-0.115,0.35-0.115,0.574
		c0,0.193,0.056,0.357,0.168,0.489c0.112,0.133,0.248,0.237,0.406,0.314c0.158,0.076,0.331,0.13,0.521,0.16
		c0.188,0.031,0.359,0.046,0.513,0.046c0.194,0,0.403-0.024,0.628-0.076c0.225-0.051,0.437-0.138,0.636-0.26
		c0.198-0.123,0.364-0.278,0.497-0.468c0.133-0.188,0.199-0.421,0.199-0.696V137.112z"/>
	<path fill="#FFFFFF" d="M205.486,130.146h1.745v10.932h-1.745V130.146z"/>
	<path fill="#FFFFFF" d="M215.76,141.078h-1.715v-1.103h-0.031c-0.214,0.398-0.533,0.718-0.957,0.957
		c-0.424,0.24-0.854,0.359-1.293,0.359c-1.042,0-1.794-0.257-2.259-0.772s-0.696-1.294-0.696-2.335v-5.022h1.745v4.854
		c0,0.694,0.133,1.185,0.398,1.47c0.265,0.286,0.638,0.429,1.117,0.429c0.367,0,0.674-0.056,0.919-0.168s0.443-0.263,0.597-0.451
		c0.153-0.189,0.263-0.416,0.329-0.682s0.1-0.552,0.1-0.857v-4.594h1.746V141.078z"/>
	<path fill="#FFFFFF" d="M224.815,141.078h-1.653v-1.071h-0.031c-0.234,0.459-0.576,0.788-1.025,0.987s-0.924,0.298-1.424,0.298
		c-0.623,0-1.166-0.109-1.631-0.329c-0.465-0.219-0.85-0.518-1.156-0.896c-0.306-0.377-0.535-0.824-0.688-1.34
		c-0.153-0.515-0.229-1.068-0.229-1.661c0-0.714,0.097-1.332,0.291-1.853c0.193-0.521,0.451-0.949,0.772-1.286
		c0.322-0.337,0.689-0.584,1.103-0.742s0.835-0.237,1.264-0.237c0.244,0,0.494,0.022,0.75,0.069c0.255,0.046,0.5,0.119,0.734,0.222
		c0.235,0.102,0.452,0.232,0.651,0.391s0.364,0.344,0.497,0.559h0.031v-4.042h1.745V141.078z M218.722,137.204
		c0,0.337,0.043,0.669,0.13,0.996c0.087,0.326,0.22,0.617,0.398,0.872c0.179,0.256,0.405,0.46,0.682,0.612
		c0.275,0.153,0.602,0.229,0.979,0.229c0.388,0,0.722-0.081,1.003-0.244c0.28-0.163,0.51-0.378,0.688-0.644s0.312-0.563,0.398-0.896
		s0.13-0.671,0.13-1.019c0-0.877-0.196-1.562-0.589-2.051c-0.394-0.49-0.927-0.735-1.601-0.735c-0.408,0-0.753,0.084-1.033,0.253
		c-0.281,0.168-0.511,0.388-0.688,0.658c-0.179,0.271-0.307,0.576-0.383,0.919C218.76,136.498,218.722,136.848,218.722,137.204z"/>
	<path fill="#FFFFFF" d="M233.619,130.146h2.036l4.211,10.932h-2.052l-1.026-2.894h-4.363l-1.025,2.894h-1.976L233.619,130.146z
		 M232.945,136.729h3.338l-1.639-4.7h-0.046L232.945,136.729z"/>
	<path fill="#FFFFFF" d="M240.547,133.162h1.653v1.164l0.03,0.03c0.266-0.438,0.612-0.783,1.041-1.033s0.903-0.375,1.424-0.375
		c0.868,0,1.552,0.225,2.052,0.674s0.751,1.123,0.751,2.021v5.436h-1.746v-4.976c-0.021-0.623-0.153-1.074-0.397-1.355
		c-0.245-0.28-0.628-0.421-1.148-0.421c-0.297,0-0.562,0.054-0.797,0.161c-0.234,0.106-0.434,0.255-0.597,0.443
		c-0.163,0.189-0.291,0.411-0.383,0.666c-0.092,0.256-0.138,0.526-0.138,0.812v4.67h-1.745V133.162z"/>
	<path fill="#FFFFFF" d="M249.07,130.146h1.745v1.653h-1.745V130.146z M249.07,133.162h1.745v7.916h-1.745V133.162z"/>
	<path fill="#FFFFFF" d="M252.403,133.162h1.653v1.103h0.046c0.133-0.193,0.275-0.372,0.429-0.535
		c0.153-0.164,0.324-0.302,0.513-0.414s0.406-0.201,0.65-0.268c0.245-0.066,0.526-0.1,0.843-0.1c0.479,0,0.926,0.107,1.34,0.321
		c0.413,0.215,0.706,0.546,0.88,0.995c0.296-0.408,0.638-0.729,1.025-0.964c0.389-0.235,0.873-0.353,1.455-0.353
		c0.837,0,1.487,0.204,1.952,0.612c0.464,0.408,0.696,1.093,0.696,2.052v5.466h-1.745v-4.624c0-0.316-0.011-0.604-0.03-0.865
		c-0.021-0.26-0.08-0.484-0.177-0.673c-0.097-0.189-0.242-0.335-0.437-0.437c-0.193-0.103-0.459-0.153-0.796-0.153
		c-0.592,0-1.021,0.184-1.286,0.551c-0.266,0.368-0.397,0.889-0.397,1.562v4.639h-1.746v-5.083c0-0.552-0.1-0.967-0.298-1.248
		c-0.199-0.28-0.564-0.421-1.095-0.421c-0.225,0-0.442,0.046-0.651,0.138s-0.393,0.225-0.551,0.398s-0.286,0.388-0.383,0.643
		c-0.098,0.256-0.146,0.546-0.146,0.873v4.7h-1.745V133.162z"/>
	<path fill="#FFFFFF" d="M272.1,139.317c0,0.215,0.028,0.367,0.084,0.459c0.057,0.092,0.166,0.138,0.33,0.138
		c0.051,0,0.111,0,0.184,0c0.071,0,0.152-0.01,0.245-0.03v1.21c-0.062,0.021-0.141,0.043-0.237,0.068
		c-0.098,0.025-0.197,0.049-0.299,0.069c-0.103,0.021-0.204,0.035-0.307,0.046c-0.102,0.01-0.188,0.015-0.26,0.015
		c-0.357,0-0.653-0.071-0.889-0.214c-0.234-0.143-0.388-0.393-0.459-0.75c-0.347,0.337-0.773,0.582-1.278,0.734
		c-0.505,0.153-0.993,0.229-1.462,0.229c-0.357,0-0.699-0.048-1.026-0.145c-0.326-0.098-0.615-0.24-0.865-0.429
		c-0.25-0.189-0.449-0.429-0.597-0.72c-0.148-0.291-0.222-0.631-0.222-1.019c0-0.49,0.089-0.888,0.268-1.194
		c0.179-0.306,0.413-0.546,0.704-0.72c0.291-0.173,0.618-0.298,0.98-0.375c0.362-0.076,0.727-0.135,1.095-0.176
		c0.315-0.062,0.617-0.104,0.903-0.13c0.285-0.025,0.538-0.069,0.758-0.131c0.219-0.061,0.393-0.155,0.521-0.283
		c0.127-0.127,0.191-0.318,0.191-0.574c0-0.224-0.054-0.407-0.161-0.551c-0.107-0.143-0.24-0.253-0.398-0.329
		s-0.334-0.128-0.527-0.153c-0.194-0.025-0.378-0.038-0.552-0.038c-0.49,0-0.894,0.103-1.209,0.307
		c-0.316,0.204-0.495,0.521-0.536,0.949h-1.745c0.03-0.511,0.152-0.935,0.367-1.271c0.214-0.337,0.487-0.606,0.819-0.812
		c0.331-0.204,0.706-0.347,1.125-0.429c0.418-0.081,0.847-0.122,1.286-0.122c0.388,0,0.771,0.041,1.148,0.122
		c0.377,0.082,0.717,0.215,1.018,0.398c0.302,0.184,0.544,0.421,0.728,0.712s0.275,0.646,0.275,1.064V139.317z M270.354,137.112
		c-0.266,0.174-0.592,0.278-0.979,0.314c-0.389,0.036-0.776,0.089-1.164,0.16c-0.184,0.031-0.362,0.074-0.536,0.131
		c-0.174,0.056-0.326,0.133-0.459,0.229s-0.237,0.225-0.313,0.383c-0.077,0.158-0.115,0.35-0.115,0.574
		c0,0.193,0.056,0.357,0.168,0.489c0.112,0.133,0.248,0.237,0.406,0.314c0.158,0.076,0.331,0.13,0.521,0.16
		c0.188,0.031,0.359,0.046,0.513,0.046c0.194,0,0.403-0.024,0.628-0.076c0.225-0.051,0.437-0.138,0.636-0.26
		c0.198-0.123,0.364-0.278,0.497-0.468c0.133-0.188,0.199-0.421,0.199-0.696V137.112z"/>
	<path fill="#FFFFFF" d="M273.851,130.146h1.745v10.932h-1.745V130.146z"/>
</g>
<g>
	<path fill="#FFFFFF" d="M282.597,139.344c0,0.333-0.059,0.636-0.175,0.909c-0.117,0.273-0.275,0.507-0.476,0.701
		s-0.432,0.345-0.695,0.451c-0.264,0.107-0.54,0.16-0.829,0.16c-0.32,0-0.614-0.056-0.882-0.169s-0.497-0.269-0.689-0.467
		c-0.191-0.197-0.342-0.433-0.451-0.703c-0.109-0.271-0.163-0.565-0.163-0.883c0-0.332,0.059-0.636,0.175-0.909
		c0.117-0.272,0.275-0.507,0.476-0.7c0.2-0.194,0.433-0.345,0.698-0.452c0.265-0.106,0.544-0.16,0.837-0.16
		c0.289,0,0.565,0.054,0.829,0.16c0.264,0.107,0.495,0.258,0.695,0.452c0.2,0.193,0.358,0.428,0.476,0.7
		C282.538,138.708,282.597,139.012,282.597,139.344z M282.121,139.344c0-0.27-0.043-0.517-0.13-0.742
		c-0.088-0.226-0.208-0.42-0.363-0.582c-0.154-0.163-0.334-0.288-0.54-0.378c-0.206-0.089-0.428-0.134-0.666-0.134
		c-0.241,0-0.466,0.045-0.674,0.134c-0.208,0.09-0.389,0.215-0.544,0.378c-0.154,0.162-0.275,0.356-0.362,0.582
		s-0.131,0.473-0.131,0.742c0,0.254,0.04,0.491,0.119,0.713s0.193,0.416,0.342,0.582c0.148,0.167,0.327,0.299,0.537,0.396
		s0.448,0.146,0.713,0.146c0.238,0,0.46-0.045,0.666-0.134s0.386-0.215,0.54-0.377c0.155-0.162,0.275-0.355,0.363-0.579
		C282.078,139.866,282.121,139.617,282.121,139.344z M281.545,139.771c-0.023,0.143-0.068,0.271-0.134,0.384
		c-0.065,0.112-0.144,0.209-0.234,0.288s-0.195,0.14-0.312,0.181c-0.117,0.042-0.241,0.062-0.372,0.062
		c-0.189,0-0.362-0.033-0.517-0.101s-0.287-0.162-0.397-0.282c-0.111-0.121-0.196-0.264-0.256-0.428
		c-0.06-0.165-0.089-0.342-0.089-0.532c0-0.178,0.028-0.346,0.086-0.502s0.14-0.291,0.246-0.404c0.107-0.112,0.238-0.202,0.393-0.27
		s0.329-0.102,0.522-0.102c0.273,0,0.508,0.076,0.704,0.229c0.196,0.153,0.314,0.376,0.354,0.669h-0.403
		c-0.032-0.15-0.106-0.273-0.224-0.368c-0.116-0.096-0.26-0.143-0.431-0.143c-0.127,0-0.237,0.023-0.332,0.071
		c-0.096,0.047-0.176,0.11-0.241,0.189c-0.065,0.08-0.114,0.174-0.148,0.282c-0.033,0.109-0.051,0.226-0.051,0.348
		c0,0.131,0.019,0.254,0.054,0.368c0.036,0.115,0.088,0.216,0.157,0.304c0.069,0.087,0.153,0.156,0.25,0.208
		c0.097,0.051,0.205,0.077,0.323,0.077c0.179,0,0.325-0.05,0.44-0.148c0.114-0.1,0.182-0.227,0.202-0.381H281.545z"/>
</g>
<g>
	<path fill="#FFFFFF" d="M282.597,112.642c0,0.333-0.059,0.636-0.175,0.909c-0.117,0.273-0.275,0.507-0.476,0.701
		s-0.432,0.345-0.695,0.451c-0.264,0.107-0.54,0.16-0.829,0.16c-0.32,0-0.614-0.056-0.882-0.169s-0.497-0.269-0.689-0.467
		c-0.191-0.197-0.342-0.433-0.451-0.703c-0.109-0.271-0.163-0.565-0.163-0.883c0-0.332,0.059-0.636,0.175-0.909
		c0.117-0.272,0.275-0.507,0.476-0.7c0.2-0.194,0.433-0.345,0.698-0.452c0.265-0.106,0.544-0.16,0.837-0.16
		c0.289,0,0.565,0.054,0.829,0.16c0.264,0.107,0.495,0.258,0.695,0.452c0.2,0.193,0.358,0.428,0.476,0.7
		C282.538,112.006,282.597,112.31,282.597,112.642z M282.121,112.642c0-0.27-0.043-0.517-0.13-0.742
		c-0.088-0.226-0.208-0.42-0.363-0.582c-0.154-0.163-0.334-0.288-0.54-0.378c-0.206-0.089-0.428-0.134-0.666-0.134
		c-0.241,0-0.466,0.045-0.674,0.134c-0.208,0.09-0.389,0.215-0.544,0.378c-0.154,0.162-0.275,0.356-0.362,0.582
		s-0.131,0.473-0.131,0.742c0,0.254,0.04,0.491,0.119,0.713s0.193,0.416,0.342,0.582c0.148,0.167,0.327,0.299,0.537,0.396
		s0.448,0.146,0.713,0.146c0.238,0,0.46-0.045,0.666-0.134s0.386-0.215,0.54-0.377c0.155-0.162,0.275-0.355,0.363-0.579
		C282.078,113.164,282.121,112.915,282.121,112.642z M281.545,113.069c-0.023,0.143-0.068,0.271-0.134,0.384
		c-0.065,0.112-0.144,0.209-0.234,0.288s-0.195,0.14-0.312,0.181c-0.117,0.042-0.241,0.062-0.372,0.062
		c-0.189,0-0.362-0.033-0.517-0.101s-0.287-0.162-0.397-0.282c-0.111-0.121-0.196-0.264-0.256-0.428
		c-0.06-0.165-0.089-0.342-0.089-0.532c0-0.178,0.028-0.346,0.086-0.502s0.14-0.291,0.246-0.404c0.107-0.112,0.238-0.202,0.393-0.27
		s0.329-0.102,0.522-0.102c0.273,0,0.508,0.076,0.704,0.229c0.196,0.153,0.314,0.376,0.354,0.669h-0.403
		c-0.032-0.15-0.106-0.273-0.224-0.368c-0.116-0.096-0.26-0.143-0.431-0.143c-0.127,0-0.237,0.023-0.332,0.071
		c-0.096,0.047-0.176,0.11-0.241,0.189c-0.065,0.08-0.114,0.174-0.148,0.282c-0.033,0.109-0.051,0.226-0.051,0.348
		c0,0.131,0.019,0.254,0.054,0.368c0.036,0.115,0.088,0.216,0.157,0.304c0.069,0.087,0.153,0.156,0.25,0.208
		c0.097,0.051,0.205,0.077,0.323,0.077c0.179,0,0.325-0.05,0.44-0.148c0.114-0.1,0.182-0.227,0.202-0.381H281.545z"/>
</g>
<g>
	<path fill="#FFFFFF" d="M160.965,97.647l-0.028-0.526c-0.225-4.283-1.97-8.109-4.914-10.772c-3.362-3.035-6.764-4.273-11.739-4.273
		c-5.099,0-8.836,1.327-12.119,4.305c-3.224,2.925-4.859,6.836-4.859,11.624c0,1.118,0.11,2.881,0.634,4.933
		c0.592,2.314,2.199,4.948,4.096,6.708c3.418,3.173,7.425,4.715,12.249,4.715h14.702l-1.617-4.942h-14.361
		c-3.047-0.076-5.447-1.661-6.924-2.978c-3.703-3.301-3.654-7.573-3.461-9.258c0.407-3.546,1.663-5.427,3.559-7.313
		c1.581-1.58,4.301-2.416,7.867-2.416c3.312,0,6.396,1.022,8.053,2.668c1.784,1.767,3.149,3.406,3.149,7.027v0.5H160.965z"/>
	<path fill="#FFFFFF" d="M195.291,114.462l-2.037-4.304h-0.315c0,0-7.95-0.01-8.832-0.01c-5.32,0-7.135-1.687-8.122-3.155
		c-0.423-0.631-0.667-1.41-0.74-2.372h19.296l-0.013-0.513c-0.006-0.23-0.176-5.691-2.944-9.036
		c-2.412-2.915-5.753-4.394-9.931-4.394c-10.857,0-11.701,9.005-11.701,11.765c0,3.538,1.784,7.61,4.15,9.471
		c2.4,1.893,5.711,2.773,10.418,2.773c1.017,0,9.636-0.199,10.002-0.208L195.291,114.462z M189.078,99.936h-13.847
		c0.254-1.363,0.866-2.384,1.94-3.26c1.229-0.993,2.459-1.609,4.783-1.609c2.038,0,4.096,0.669,5.242,1.703
		C188.139,97.619,188.692,98.539,189.078,99.936z"/>
	<rect x="162.558" y="84.593" fill="#FFFFFF" width="5.32" height="29.72"/>
	<path fill="#FFFFFF" d="M276.439,101.552l-0.002-0.502v-0.498h-0.021c-0.213-6.27-4.031-10.002-10.316-10.002h-13.315v24.138h6.465
		V95.402h6.505c2.74,0,4.312,1.923,4.312,5.275v0.874v13.136h6.371v-13.136H276.439z"/>
	<path fill="#FFFFFF" d="M239.367,90.389c-3.886,0-7.027,1.062-9.336,3.159c-2.215,2.008-3.485,5.453-3.485,9.462
		c0.07,3.706,1.374,7.061,3.486,8.973c2.312,2.089,5.453,3.148,9.335,3.148c3.854,0,6.982-1.06,9.3-3.148
		c2.118-1.912,3.425-5.267,3.497-8.982c0-3.822-1.372-7.532-3.496-9.452C246.354,91.451,243.225,90.389,239.367,90.389z
		 M244.643,108.467c-1.262,1.267-3.037,1.908-5.275,1.908c-2.271,0-4.058-0.647-5.308-1.925c-1.199-1.222-1.832-3.059-1.878-5.45
		c0-2.295,0.767-4.658,1.865-5.748c1.24-1.241,3.03-1.87,5.32-1.87c2.258,0,4.036,0.63,5.287,1.872
		c1.264,1.248,1.878,3.127,1.878,5.735C246.481,105.416,245.846,107.26,244.643,108.467z"/>
	<path fill="#FFFFFF" d="M225.366,109.077c-0.002,0.001-0.216,0.058-0.509,0.058c-1.173,0-1.768-0.842-1.768-2.501
		c0-0.305-0.017-0.658-0.035-1.062c-0.024-0.52-0.053-1.124-0.053-1.816V94.75h4.749l-1.269-4.228h-3.48v-5.647h-5.963v5.647h-2.223
		l-0.461,0.05l-2.752-0.025l-7.634,16.684l-4.722-17.003h-6.413l7.166,22.938l-5.905,12.396h6.089l15.316-30.758l1.538-0.041v10.77
		c0,2.876,0.191,6.01,1.607,7.443c1.497,1.517,4.192,1.711,6.373,1.711h3.123l-2.351-5.725L225.366,109.077z"/>
</g>
</svg>
