<?xml version="1.0" encoding="utf-8"?>
<!-- Generator: Adobe Illustrator 16.0.0, SVG Export Plug-In . SVG Version: 6.00 Build 0)  -->
<!DOCTYPE svg PUBLIC "-//W3C//DTD SVG 1.1//EN" "http://www.w3.org/Graphics/SVG/1.1/DTD/svg11.dtd">
<svg version="1.1" id="Layer_1" xmlns="http://www.w3.org/2000/svg" xmlns:xlink="http://www.w3.org/1999/xlink" x="0px" y="0px"
	 width="98.304px" height="34.059px" viewBox="0 0 98.304 34.059" enable-background="new 0 0 98.304 34.059" xml:space="preserve">
<g>
	<defs>
		<rect id="SVGID_1_" width="98.304" height="34.059"/>
	</defs>
	<clipPath id="SVGID_2_">
		<use xlink:href="#SVGID_1_"  overflow="visible"/>
	</clipPath>
	<path clip-path="url(#SVGID_2_)" fill="#C8DF8E" d="M19.297,17.029c0,0.905-0.734,1.64-1.641,1.64c-0.906,0-1.64-0.735-1.64-1.64
		c0-0.906,0.734-1.641,1.64-1.641C18.563,15.389,19.297,16.123,19.297,17.029"/>
	<path clip-path="url(#SVGID_2_)" fill="#008752" d="M17.657,0c-1.144,0-2.075,0.93-2.075,2.074c0,1.144,0.931,2.074,2.075,2.074
		s2.074-0.931,2.074-2.074C19.731,0.93,18.8,0,17.657,0"/>
	<path clip-path="url(#SVGID_2_)" fill="#008752" d="M28.222,7.911c0.826,0,1.495-0.669,1.495-1.495
		c0-0.826-0.669-1.496-1.495-1.496c-0.827,0-1.496,0.67-1.496,1.496C26.727,7.242,27.396,7.911,28.222,7.911"/>
	<path clip-path="url(#SVGID_2_)" fill="#008752" d="M7.092,4.1c-1.304,0-2.364,1.062-2.364,2.364c0,1.303,1.061,2.364,2.364,2.364
		s2.364-1.061,2.364-2.364C9.456,5.161,8.396,4.1,7.092,4.1"/>
	<path clip-path="url(#SVGID_2_)" fill="#008752" d="M2.653,14.376C1.19,14.376,0,15.566,0,17.029s1.19,2.652,2.653,2.652
		s2.653-1.189,2.653-2.652S4.116,14.376,2.653,14.376"/>
	<path clip-path="url(#SVGID_2_)" fill="#008752" d="M7.043,25.23c-1.303,0-2.364,1.061-2.364,2.364s1.061,2.364,2.364,2.364
		c1.304,0,2.364-1.061,2.364-2.364S8.347,25.23,7.043,25.23"/>
	<path clip-path="url(#SVGID_2_)" fill="#008752" d="M17.657,29.909c-1.144,0-2.075,0.932-2.075,2.075
		c0,1.145,0.931,2.074,2.075,2.074s2.074-0.93,2.074-2.074C19.731,30.841,18.8,29.909,17.657,29.909"/>
	<path clip-path="url(#SVGID_2_)" fill="#008752" d="M28.222,26.099c-0.827,0-1.496,0.669-1.496,1.496
		c0,0.825,0.669,1.496,1.496,1.496c0.826,0,1.495-0.671,1.495-1.496C29.717,26.768,29.048,26.099,28.222,26.099"/>
	<path clip-path="url(#SVGID_2_)" fill="#7AC143" d="M22.891,12.88c0.573,0,1.037-0.464,1.037-1.038
		c0-0.573-0.464-1.037-1.037-1.037s-1.037,0.464-1.037,1.037C21.854,12.416,22.318,12.88,22.891,12.88"/>
	<path clip-path="url(#SVGID_2_)" fill="#7AC143" d="M17.681,8.297c-0.731,0-1.327,0.595-1.327,1.327s0.596,1.326,1.327,1.326
		c0.731,0,1.327-0.594,1.327-1.326S18.412,8.297,17.681,8.297"/>
	<path clip-path="url(#SVGID_2_)" fill="#7AC143" d="M12.374,13.363c0.891,0,1.616-0.725,1.616-1.616
		c0-0.892-0.725-1.616-1.616-1.616s-1.616,0.725-1.616,1.616C10.758,12.638,11.483,13.363,12.374,13.363"/>
	<path clip-path="url(#SVGID_2_)" fill="#7AC143" d="M12.206,17.053c0-1.051-0.855-1.905-1.906-1.905
		c-1.051,0-1.906,0.854-1.906,1.905s0.854,1.906,1.906,1.906C11.351,18.959,12.206,18.104,12.206,17.053"/>
	<path clip-path="url(#SVGID_2_)" fill="#7AC143" d="M12.422,20.6c-0.891,0-1.616,0.725-1.616,1.615
		c0,0.892,0.725,1.616,1.616,1.616c0.892,0,1.617-0.725,1.617-1.616C14.039,21.324,13.313,20.6,12.422,20.6"/>
	<path clip-path="url(#SVGID_2_)" fill="#7AC143" d="M17.681,23.108c-0.731,0-1.327,0.595-1.327,1.326
		c0,0.732,0.596,1.326,1.327,1.326s1.327-0.594,1.327-1.326C19.007,23.703,18.412,23.108,17.681,23.108"/>
	<path clip-path="url(#SVGID_2_)" fill="#7AC143" d="M22.891,21.274c-0.573,0-1.037,0.463-1.037,1.038
		c0,0.572,0.464,1.036,1.037,1.036c0.572,0,1.037-0.464,1.037-1.036C23.928,21.737,23.463,21.274,22.891,21.274"/>
	<path clip-path="url(#SVGID_2_)" fill="#919195" d="M32.72,21.034c-0.986,0-1.877-0.109-2.67-0.902l1.021-1.022
		c0.518,0.517,1.191,0.588,1.672,0.588c0.542,0,1.107-0.179,1.107-0.648c0-0.313-0.169-0.529-0.662-0.577l-0.986-0.097
		c-1.131-0.108-1.828-0.602-1.828-1.756c0-1.299,1.143-1.996,2.417-1.996c0.974,0,1.792,0.168,2.394,0.733l-0.962,0.974
		c-0.361-0.325-0.915-0.421-1.456-0.421c-0.625,0-0.889,0.29-0.889,0.602c0,0.229,0.096,0.493,0.649,0.541l0.986,0.097
		c1.239,0.12,1.864,0.781,1.864,1.84C35.377,20.372,34.198,21.034,32.72,21.034"/>
	<path clip-path="url(#SVGID_2_)" fill="#919195" d="M43.375,20.961v-3.788c0-0.854-0.542-1.142-1.034-1.142
		c-0.482,0-1.046,0.288-1.046,1.106v3.824H39.73v-3.788c0-0.854-0.542-1.142-1.035-1.142c-0.493,0-1.046,0.288-1.046,1.142v3.788
		h-1.564v-6.265h1.528v0.577c0.409-0.421,0.986-0.649,1.563-0.649c0.698,0,1.263,0.252,1.66,0.793
		c0.529-0.553,1.094-0.793,1.876-0.793c0.625,0,1.191,0.205,1.54,0.553c0.505,0.506,0.686,1.095,0.686,1.78v4.004H43.375z"/>
	<path clip-path="url(#SVGID_2_)" fill="#919195" d="M49.229,20.961v-0.54c-0.42,0.422-0.817,0.602-1.539,0.602
		c-0.71,0-1.227-0.18-1.601-0.553c-0.336-0.35-0.516-0.854-0.516-1.409c0-0.998,0.685-1.815,2.14-1.815h1.48v-0.312
		c0-0.686-0.338-0.986-1.167-0.986c-0.601,0-0.878,0.145-1.203,0.517l-0.999-0.974c0.613-0.673,1.215-0.866,2.261-0.866
		c1.756,0,2.669,0.745,2.669,2.212v4.125H49.229z M49.194,18.317h-1.239c-0.565,0-0.878,0.264-0.878,0.709
		c0,0.432,0.289,0.721,0.902,0.721c0.433,0,0.71-0.035,0.987-0.301c0.168-0.156,0.229-0.408,0.229-0.793V18.317z"/>
	<path clip-path="url(#SVGID_2_)" fill="#919195" d="M55.242,16.404c-0.24-0.241-0.444-0.373-0.829-0.373
		c-0.481,0-1.01,0.361-1.01,1.155v3.775H51.84v-6.265h1.527v0.601c0.3-0.36,0.9-0.673,1.576-0.673c0.612,0,1.045,0.156,1.479,0.589
		L55.242,16.404z"/>
	<path clip-path="url(#SVGID_2_)" fill="#919195" d="M58.669,20.961c-1.275,0-1.815-0.901-1.815-1.791v-3.104h-0.662v-1.191h0.662
		v-1.852h1.563v1.852h1.106v1.191h-1.106v3.007c0,0.36,0.168,0.566,0.541,0.566h0.565v1.321H58.669z"/>
	<path clip-path="url(#SVGID_2_)" fill="#919195" d="M69.396,21.034c-1.25,0-2.802-0.674-2.802-3.211s1.552-3.199,2.802-3.199
		c0.866,0,1.516,0.265,2.068,0.842l-1.059,1.058c-0.324-0.349-0.601-0.493-1.01-0.493c-0.373,0-0.661,0.132-0.891,0.409
		c-0.24,0.301-0.348,0.721-0.348,1.383s0.107,1.095,0.348,1.395c0.229,0.278,0.518,0.41,0.891,0.41c0.409,0,0.686-0.144,1.01-0.493
		l1.059,1.046C70.911,20.759,70.262,21.034,69.396,21.034"/>
	<path clip-path="url(#SVGID_2_)" fill="#919195" d="M73.086,18.317c0,0.805,0.494,1.395,1.372,1.395
		c0.686,0,1.022-0.192,1.418-0.59l0.951,0.926c-0.638,0.638-1.251,0.986-2.382,0.986c-1.479,0-2.897-0.674-2.897-3.211
		c0-2.045,1.105-3.199,2.73-3.199c1.743,0,2.729,1.274,2.729,2.994v0.699H73.086z M75.324,16.572
		c-0.17-0.372-0.518-0.649-1.046-0.649c-0.529,0-0.879,0.277-1.047,0.649c-0.097,0.229-0.134,0.397-0.146,0.674h2.382
		C75.456,16.969,75.42,16.801,75.324,16.572"/>
	<path clip-path="url(#SVGID_2_)" fill="#919195" d="M81.493,20.961v-3.788c0-0.854-0.542-1.142-1.034-1.142
		c-0.493,0-1.047,0.288-1.047,1.142v3.788h-1.563v-6.265h1.526v0.577c0.41-0.433,0.986-0.649,1.565-0.649
		c0.625,0,1.13,0.205,1.478,0.553c0.506,0.506,0.637,1.095,0.637,1.78v4.004H81.493z"/>
	<path clip-path="url(#SVGID_2_)" fill="#919195" d="M86.099,20.961c-1.274,0-1.817-0.901-1.817-1.791v-3.104H83.62v-1.191h0.661
		v-1.852h1.564v1.852h1.106v1.191h-1.106v3.007c0,0.36,0.168,0.566,0.541,0.566h0.565v1.321H86.099z"/>
	<path clip-path="url(#SVGID_2_)" fill="#919195" d="M88.96,18.317c0,0.805,0.493,1.395,1.372,1.395c0.684,0,1.021-0.192,1.419-0.59
		l0.95,0.926c-0.638,0.638-1.252,0.986-2.382,0.986c-1.479,0-2.898-0.674-2.898-3.211c0-2.045,1.106-3.199,2.729-3.199
		c1.744,0,2.73,1.274,2.73,2.994v0.699H88.96z M91.197,16.572c-0.169-0.372-0.518-0.649-1.047-0.649s-0.877,0.277-1.047,0.649
		c-0.095,0.229-0.131,0.397-0.144,0.674h2.381C91.33,16.969,91.293,16.801,91.197,16.572"/>
	<path clip-path="url(#SVGID_2_)" fill="#919195" d="M97.125,16.404c-0.241-0.241-0.445-0.373-0.83-0.373
		c-0.481,0-1.011,0.361-1.011,1.155v3.775h-1.562v-6.265h1.527v0.601c0.3-0.36,0.901-0.673,1.575-0.673
		c0.614,0,1.047,0.156,1.479,0.589L97.125,16.404z"/>
	<path clip-path="url(#SVGID_2_)" fill="#B30838" d="M65.286,17.462c0,1.04-1.056,1.883-2.202,1.883c-0.141,0-0.1,0.001-0.233-0.014
		c-0.389-0.039,0.126,0.878,0.126,0.878s-1.818-1.074-1.839-2.747c-0.014-1.039,0.929-1.883,2.073-1.883
		C64.357,15.579,65.286,16.423,65.286,17.462"/>
</g>
</svg>
