<?xml version="1.0" encoding="utf-8"?>
<!-- Generator: Adobe Illustrator 16.0.0, SVG Export Plug-In . SVG Version: 6.00 Build 0)  -->
<!DOCTYPE svg PUBLIC "-//W3C//DTD SVG 1.1//EN" "http://www.w3.org/Graphics/SVG/1.1/DTD/svg11.dtd">
<svg version="1.1" id="Layer_1" xmlns="http://www.w3.org/2000/svg" xmlns:xlink="http://www.w3.org/1999/xlink" x="0px" y="0px"
	 width="121px" height="38px" viewBox="0 0 121 38" enable-background="new 0 0 121 38" xml:space="preserve">
<g>
	<g>
		<g>
			<path fill="#5C6670" d="M0.63,24.893c0-6.503,4.855-9.711,9.711-9.711s9.711,3.208,9.711,9.711v12.398H14.07V24.979
				c0-2.602-1.777-3.729-3.729-3.729c-1.907,0-3.729,1.127-3.729,3.729v12.312H0.63V24.893z"/>
			<path fill="#5C6670" d="M44.2,29.055H29.503c1.084,2.123,3.642,3.164,6.503,3.164c2.255,0,4.726-0.65,6.807-1.863l0.823,5.549
				c-2.471,1.214-4.812,1.82-8.28,1.82c-6.979,0-12.702-3.988-12.702-11.185c0-6.591,4.205-11.359,10.794-11.359
				c6.331,0,10.753,4.379,10.753,10.622L44.2,29.055L44.2,29.055z M37.566,24.068c0-2.082-1.561-3.383-4.075-3.383
				c-2.037,0-3.599,1.127-4.249,3.383H37.566z"/>
			<path fill="#5C6670" d="M46.367,26.496c0-6.243,5.029-11.315,11.272-11.315c6.242,0,11.271,5.072,11.271,11.315
				c0,6.242-5.029,11.229-11.271,11.229C51.396,37.725,46.367,32.738,46.367,26.496 M63.016,26.496c0-2.948-2.429-5.376-5.375-5.376
				c-2.949,0-5.377,2.428-5.377,5.376c0,2.947,2.428,5.375,5.377,5.375C60.587,31.871,63.016,29.443,63.016,26.496"/>
		</g>
		<g>
			<polygon fill="#6CC04A" points="67.827,15.613 74.634,15.613 79.229,25.368 83.781,15.613 90.588,15.613 79.229,37.725 			"/>
			<path fill="#6CC04A" d="M92.234,18.389c0-1.777,1.474-3.252,3.295-3.208c1.82-0.044,3.295,1.431,3.295,3.208
				c0,1.777-1.475,3.251-3.295,3.208C93.708,21.641,92.234,20.166,92.234,18.389 M92.537,23.201h5.982v14.09h-5.982V23.201z"/>
			<path fill="#6CC04A" d="M101.122,31.135c0-4.552,4.508-7.152,9.971-7.152c1.04,0,2.167,0.086,3.296,0.304v-0.954
				c0-1.777-1.908-2.602-4.293-2.602c-2.037,0-4.466,0.606-6.242,1.733l-1.17-5.506c2.73-1.171,5.547-1.777,8.105-1.777
				c5.375,0,9.581,2.645,9.581,8.15v13.96h-5.981v-2.602c-0.867,1.388-3.34,3.033-6.635,3.033
				C103.766,37.725,101.122,34.906,101.122,31.135 M111.654,28.229c-2.688,0-4.551,0.912-4.551,2.688c0,1.17,0.91,1.647,2.082,1.647
				c2.166,0,4.854-2.039,5.201-4.119C113.605,28.316,112.395,28.229,111.654,28.229"/>
		</g>
	</g>
	<g>
		<path fill="#5C6670" d="M1.199,0.401h2.707v0.924h-1.77v0.896h1.77v0.907h-1.77v1.305h1.77v0.928H1.199V0.401z"/>
		<path fill="#5C6670" d="M4.679,1.692h0.92v0.422c0.158-0.173,0.333-0.303,0.525-0.388C6.316,1.64,6.525,1.598,6.753,1.598
			c0.229,0,0.437,0.056,0.621,0.168c0.184,0.112,0.332,0.276,0.445,0.492c0.146-0.216,0.325-0.38,0.538-0.492
			C8.57,1.654,8.801,1.598,9.053,1.598c0.262,0,0.49,0.061,0.688,0.182c0.197,0.121,0.34,0.279,0.427,0.476
			c0.087,0.195,0.13,0.514,0.13,0.954v2.151H9.372V3.5c0-0.416-0.052-0.697-0.155-0.845c-0.103-0.148-0.259-0.22-0.465-0.22
			c-0.158,0-0.299,0.045-0.424,0.135C8.203,2.66,8.11,2.783,8.051,2.941c-0.062,0.16-0.092,0.413-0.092,0.764v1.656H7.032V3.584
			c0-0.328-0.024-0.566-0.073-0.713C6.911,2.724,6.838,2.614,6.741,2.542C6.645,2.471,6.527,2.435,6.39,2.435
			c-0.153,0-0.292,0.046-0.417,0.137C5.848,2.663,5.754,2.79,5.691,2.953C5.63,3.117,5.599,3.376,5.599,3.729v1.633h-0.92V1.692z"/>
		<path fill="#5C6670" d="M12.089,1.692v0.404c0.167-0.166,0.347-0.291,0.54-0.374s0.399-0.124,0.62-0.124
			c0.479,0,0.886,0.181,1.221,0.542c0.335,0.362,0.502,0.826,0.502,1.394c0,0.545-0.173,1.002-0.519,1.369
			c-0.347,0.368-0.757,0.552-1.231,0.552c-0.211,0-0.407-0.037-0.59-0.113c-0.182-0.075-0.363-0.198-0.543-0.368v1.729h-0.913v-5.01
			L12.089,1.692L12.089,1.692z M13.057,2.448c-0.29,0-0.53,0.099-0.722,0.297c-0.19,0.197-0.286,0.456-0.286,0.775
			c0,0.325,0.096,0.589,0.286,0.79c0.191,0.201,0.432,0.302,0.722,0.302c0.281,0,0.518-0.103,0.71-0.307
			c0.192-0.205,0.288-0.465,0.288-0.782c0-0.314-0.094-0.572-0.283-0.773C13.582,2.548,13.345,2.448,13.057,2.448z"/>
		<path fill="#5C6670" d="M15.518,1.692h0.789v0.462c0.085-0.182,0.199-0.32,0.341-0.414c0.142-0.095,0.297-0.142,0.465-0.142
			c0.119,0,0.244,0.031,0.374,0.094L17.2,2.485c-0.108-0.055-0.197-0.082-0.267-0.082c-0.142,0-0.261,0.088-0.358,0.264
			c-0.099,0.175-0.147,0.52-0.147,1.032l0.004,0.178v1.484h-0.914V1.692z"/>
		<path fill="#5C6670" d="M21.617,3.793H18.66c0.043,0.261,0.156,0.468,0.343,0.622c0.186,0.154,0.422,0.23,0.709,0.23
			c0.344,0,0.64-0.12,0.887-0.36l0.775,0.364c-0.193,0.274-0.425,0.477-0.694,0.608c-0.269,0.131-0.59,0.197-0.961,0.197
			c-0.575,0-1.044-0.182-1.406-0.545c-0.361-0.362-0.542-0.817-0.542-1.363c0-0.56,0.18-1.024,0.541-1.395
			c0.36-0.369,0.812-0.554,1.357-0.554c0.577,0,1.047,0.185,1.408,0.554c0.362,0.37,0.543,0.858,0.543,1.466L21.617,3.793z
			 M20.696,3.068c-0.061-0.205-0.181-0.371-0.359-0.499c-0.18-0.128-0.387-0.192-0.623-0.192c-0.257,0-0.481,0.072-0.676,0.216
			c-0.121,0.09-0.234,0.249-0.337,0.476L20.696,3.068L20.696,3.068z"/>
		<path fill="#5C6670" d="M24.607,2.205l-0.569,0.569c-0.232-0.229-0.442-0.344-0.631-0.344c-0.104,0-0.185,0.022-0.243,0.066
			c-0.059,0.043-0.087,0.098-0.087,0.163c0,0.05,0.018,0.095,0.056,0.137c0.037,0.042,0.129,0.099,0.274,0.17l0.337,0.169
			c0.355,0.175,0.599,0.354,0.731,0.536c0.132,0.182,0.199,0.396,0.199,0.641c0,0.326-0.12,0.598-0.359,0.815
			c-0.239,0.217-0.561,0.327-0.962,0.327c-0.535,0-0.963-0.209-1.281-0.627l0.566-0.617c0.107,0.126,0.234,0.228,0.379,0.305
			c0.146,0.078,0.273,0.117,0.386,0.117c0.122,0,0.22-0.029,0.294-0.088c0.074-0.059,0.111-0.126,0.111-0.202
			c0-0.142-0.134-0.28-0.401-0.415l-0.311-0.155c-0.593-0.299-0.89-0.673-0.89-1.122c0-0.29,0.111-0.538,0.335-0.743
			c0.224-0.206,0.51-0.309,0.858-0.309c0.238,0,0.462,0.052,0.673,0.156C24.283,1.859,24.461,2.01,24.607,2.205z"/>
		<path fill="#5C6670" d="M28.106,1.692h0.921v3.669h-0.921V4.974c-0.18,0.17-0.359,0.293-0.54,0.368
			c-0.181,0.076-0.377,0.113-0.588,0.113c-0.474,0-0.883-0.184-1.229-0.552c-0.347-0.367-0.519-0.824-0.519-1.369
			c0-0.567,0.167-1.031,0.501-1.394c0.335-0.361,0.741-0.542,1.22-0.542c0.22,0,0.427,0.041,0.619,0.124
			c0.193,0.083,0.372,0.208,0.535,0.374L28.106,1.692L28.106,1.692z M27.14,2.448c-0.284,0-0.521,0.1-0.709,0.302
			c-0.188,0.201-0.282,0.459-0.282,0.773c0,0.317,0.096,0.577,0.287,0.782c0.191,0.204,0.428,0.307,0.707,0.307
			c0.289,0,0.528-0.101,0.72-0.302c0.189-0.201,0.285-0.465,0.285-0.79c0-0.319-0.096-0.578-0.285-0.775
			C27.671,2.547,27.431,2.448,27.14,2.448z"/>
		<path fill="#5C6670" d="M34.428,0.276h0.92v5.085h-0.92V4.974c-0.18,0.17-0.36,0.293-0.541,0.368
			c-0.181,0.076-0.376,0.113-0.588,0.113c-0.473,0-0.883-0.184-1.229-0.552c-0.346-0.367-0.519-0.824-0.519-1.369
			c0-0.567,0.167-1.031,0.502-1.394c0.334-0.361,0.74-0.542,1.219-0.542c0.22,0,0.427,0.041,0.619,0.124
			c0.193,0.083,0.372,0.208,0.536,0.374v-1.82H34.428z M33.46,2.448c-0.284,0-0.521,0.1-0.709,0.302
			c-0.188,0.201-0.282,0.459-0.282,0.773c0,0.317,0.096,0.577,0.287,0.782c0.191,0.204,0.427,0.307,0.708,0.307
			c0.288,0,0.528-0.101,0.719-0.302c0.189-0.201,0.285-0.465,0.285-0.79c0-0.319-0.096-0.578-0.285-0.775
			C33.992,2.547,33.751,2.448,33.46,2.448z"/>
		<path fill="#5C6670" d="M39.953,3.793h-2.957c0.043,0.261,0.157,0.468,0.343,0.622c0.186,0.154,0.422,0.23,0.71,0.23
			c0.344,0,0.639-0.12,0.887-0.36l0.775,0.364c-0.193,0.274-0.425,0.477-0.695,0.608c-0.27,0.132-0.59,0.197-0.961,0.197
			c-0.575,0-1.043-0.182-1.405-0.545c-0.362-0.362-0.543-0.817-0.543-1.363c0-0.56,0.181-1.024,0.541-1.395
			c0.361-0.369,0.813-0.554,1.357-0.554c0.577,0,1.047,0.185,1.409,0.554c0.361,0.37,0.543,0.858,0.543,1.466L39.953,3.793z
			 M39.033,3.068c-0.062-0.205-0.181-0.371-0.359-0.499c-0.18-0.128-0.387-0.192-0.624-0.192c-0.257,0-0.481,0.072-0.675,0.216
			c-0.121,0.09-0.234,0.249-0.338,0.476L39.033,3.068L39.033,3.068z"/>
		<path fill="#5C6670" d="M40.597,0.276h0.921v5.085h-0.921V0.276z"/>
		<path fill="#5C6670" d="M46.996,1.692h0.917v3.143c0,0.62-0.124,1.077-0.374,1.369C47.204,6.6,46.7,6.797,46.025,6.797
			c-0.359,0-0.661-0.045-0.907-0.135c-0.244-0.09-0.451-0.222-0.62-0.396c-0.169-0.174-0.293-0.386-0.374-0.635h1.015
			c0.09,0.104,0.206,0.182,0.348,0.234c0.142,0.052,0.309,0.079,0.502,0.079c0.248,0,0.446-0.038,0.597-0.115
			c0.15-0.076,0.257-0.175,0.318-0.296c0.062-0.122,0.093-0.331,0.093-0.628c-0.161,0.162-0.331,0.278-0.509,0.35
			c-0.178,0.07-0.379,0.106-0.604,0.106c-0.492,0-0.908-0.178-1.247-0.533c-0.34-0.355-0.509-0.805-0.509-1.349
			c0-0.582,0.18-1.05,0.539-1.402c0.325-0.319,0.715-0.479,1.166-0.479c0.211,0,0.411,0.038,0.599,0.116
			c0.188,0.077,0.376,0.205,0.564,0.382V1.692z M46.042,2.458c-0.29,0-0.529,0.098-0.718,0.292
			c-0.189,0.194-0.283,0.438-0.283,0.733c0,0.306,0.097,0.556,0.29,0.752c0.193,0.195,0.436,0.293,0.729,0.293
			c0.285,0,0.521-0.096,0.706-0.286c0.186-0.191,0.277-0.442,0.277-0.752c0-0.306-0.093-0.555-0.279-0.745
			C46.577,2.554,46.337,2.458,46.042,2.458z"/>
		<path fill="#5C6670" d="M48.628,1.692h0.789v0.462c0.085-0.182,0.199-0.32,0.341-0.414c0.142-0.095,0.297-0.142,0.465-0.142
			c0.119,0,0.244,0.031,0.374,0.094l-0.286,0.793c-0.108-0.055-0.197-0.082-0.267-0.082c-0.142,0-0.261,0.088-0.358,0.264
			c-0.099,0.175-0.147,0.52-0.147,1.032l0.004,0.178v1.484h-0.914L48.628,1.692L48.628,1.692z"/>
		<path fill="#5C6670" d="M51.049,1.692h0.931v1.767c0,0.345,0.023,0.583,0.071,0.717c0.047,0.134,0.123,0.238,0.228,0.312
			c0.104,0.074,0.234,0.111,0.388,0.111c0.152,0,0.283-0.036,0.39-0.109c0.107-0.072,0.187-0.181,0.238-0.322
			c0.038-0.105,0.058-0.331,0.058-0.677V1.692h0.92v1.555c0,0.641-0.05,1.079-0.151,1.314c-0.123,0.288-0.306,0.509-0.546,0.663
			c-0.24,0.153-0.546,0.23-0.917,0.23c-0.402,0-0.728-0.09-0.976-0.27c-0.249-0.18-0.424-0.431-0.525-0.752
			c-0.071-0.223-0.107-0.627-0.107-1.214V1.692H51.049z"/>
		<path fill="#5C6670" d="M56.109,1.692v0.404c0.166-0.166,0.347-0.291,0.539-0.374c0.194-0.083,0.4-0.124,0.621-0.124
			c0.479,0,0.886,0.181,1.22,0.542c0.336,0.362,0.503,0.826,0.503,1.394c0,0.545-0.173,1.002-0.52,1.369
			c-0.346,0.368-0.756,0.552-1.23,0.552c-0.211,0-0.408-0.037-0.59-0.113c-0.182-0.075-0.363-0.198-0.543-0.368v1.729h-0.914v-5.01
			L56.109,1.692L56.109,1.692z M57.077,2.448c-0.29,0-0.53,0.099-0.722,0.297c-0.191,0.197-0.287,0.456-0.287,0.775
			c0,0.325,0.096,0.589,0.287,0.79c0.191,0.201,0.432,0.302,0.722,0.302c0.281,0,0.518-0.103,0.709-0.307
			c0.192-0.205,0.289-0.465,0.289-0.782c0-0.314-0.095-0.572-0.283-0.773C57.603,2.548,57.365,2.448,57.077,2.448z"/>
		<path fill="#5C6670" d="M61.477,1.599c0.348,0,0.672,0.086,0.977,0.26c0.305,0.173,0.542,0.407,0.713,0.704
			s0.257,0.617,0.257,0.961c0,0.346-0.086,0.67-0.258,0.971c-0.173,0.302-0.406,0.537-0.703,0.707
			c-0.296,0.169-0.624,0.254-0.979,0.254c-0.526,0-0.977-0.187-1.348-0.562c-0.372-0.374-0.559-0.828-0.559-1.363
			c0-0.573,0.21-1.051,0.631-1.434C60.574,1.765,60.998,1.599,61.477,1.599z M61.491,2.465c-0.285,0-0.523,0.1-0.714,0.298
			c-0.19,0.199-0.285,0.454-0.285,0.765c0,0.318,0.094,0.577,0.282,0.774C60.962,4.5,61.2,4.599,61.488,4.599
			c0.287,0,0.527-0.1,0.719-0.3c0.191-0.2,0.288-0.457,0.288-0.771c0-0.315-0.095-0.57-0.282-0.768
			C62.023,2.563,61.784,2.465,61.491,2.465z"/>
	</g>
</g>
</svg>
