<?xml version="1.0" encoding="utf-8"?>
<!-- Generator: Adobe Illustrator 18.0.0, SVG Export Plug-In . SVG Version: 6.00 Build 0)  -->
<!DOCTYPE svg PUBLIC "-//W3C//DTD SVG 1.1//EN" "http://www.w3.org/Graphics/SVG/1.1/DTD/svg11.dtd">
<svg version="1.1" id="Capa_1" xmlns="http://www.w3.org/2000/svg" xmlns:xlink="http://www.w3.org/1999/xlink" x="0px" y="0px"
	 viewBox="270.9 147.6 300 300" enable-background="new 270.9 147.6 300 300" xml:space="preserve">
<path fill="#FFFFFF" stroke="#009BFF" stroke-width="2" d="M562.9,297.8l-1.5,1.5l-0.2,10.5l-0.4,3.3l-7.8,4.5
	c-1-1.1-0.3-3.6-1.8-4.1c-0.9-0.3-1.8-0.3-2.6-0.8c-0.6-0.3-1.1-0.9-1.7-1.2c-0.4,0.5,0.9,2.1,1.3,2.4c0.6,0.4,1.1,0.6,1.7,0.9
	c0.7,0.3,1,2.5,1,3.4c0,0.5,0.1,1,0.3,1.6c0.3,1.1,0,1.9-0.1,3c0.1,0.9,0.9,1.2,1.5,1.8c0.6,0.7,0.6,2.4,0.9,3.3l0.5,1.4
	c0,0.1,0.3,1.1,0.4,1.1c0-1.3,0.4-2.1,1.3-3c1-1,4.2-0.5,5.5-0.5c0.7,0,1.1,0.8,1.9,1c1,0.2,2.6-0.1,3.7-0.1l1.8,0.7l-1,10.2
	l-11.7-0.8l-39.6,14.8l-0.2,3.3l-4.9-0.7l0.1,4.3l-0.5,1.4c-0.3,0.6-0.3,1.3-0.4,2c-0.1,0.6-0.3,1.1-0.5,1.7c-0.6,1.5-2,0.7-2.9,1.8
	c-0.5,0.7-0.3,1.4-0.1,2.1c0.2,0.9-0.5,1.9-0.8,2.6c-0.6,1.4-2.3,1.9-2.9,3.3c-0.3,0.7-1.1,2.7-2,2.7c-1.1,0-1.3-1-2-1.5
	c-0.5-0.3-2.6,2-3,2.4c-0.5,0.6,0,1.1,0,1.7c0.2,1,2.4,1.5,1,2.2c-1.1,0.6-2.8,0.7-2.7,2.2c0,1-1.3,0.5-1.1,1.1
	c0.1,0.3,0.3,0.5,0.1,0.8c-0.2,0.4-0.9,0.6-1.3,0.7c-0.8,0.2-0.7,0.6-1.2,1.1c-0.3,0.4-1.4,0.8-1.4,1.1c0.1,0.7,0.2,1.3-0.1,2
	c-1,0.7-2.4,0.8-2.4,2.3c0,1.4-0.7,1.3-1.8,1.8c-2,0.9-2.6,3.3-2.9,5.3c-0.2,1.3-2.6,0-3.2,0.9c-0.7,1.2-0.4,0.9-1.7,0.6
	c-0.7-0.2-2,0.3-2.1-0.8c-0.1-1-0.2-1.1-1.4-0.7c-0.7,1-1.3,1.9-1.5,3.2c-0.1,0.7-0.1,1.9-0.5,2.4c-1.2,0.2-3.7-0.7-5-1l-5-1.3
	c-0.7-0.2-0.6,1.1-0.7,1.6c-0.3,1.2-0.4,2.4-1,3.5l-1.4,3.9c-0.4,1.1-0.6,2.2-1.3,3.2c-0.4,0.6-1.2,0.4-1.9,0.4
	c-1-0.1-2.1-0.2-3.2-0.2c-2.4,0-5.2,0.5-7.5,0c-2-0.4-2.5-2.6-2.7-4.3l0-0.1c0,0,0,0-0.1,0c-2.4,0-3.9,1.7-5.3,3.2
	c-0.2,1-0.1,1.6,0.9,1.6c0.8,0,1.4,0,0.6,0.9c-0.3,0.3-0.7,1.1-0.9,1.5c-0.9,1.8-2.4,6.5-5.1,5.3c-0.8-0.3-1.6,1.6-2.8,1.3
	c-3.1-0.9-7.5-4.1-11.3-6.3c-0.3-0.8-0.6-2.3-1.6-2.3c-1.2,0-2.1-0.3-3.3-0.2c-1,0.1-1-0.8-1.8-1.1c-0.4-0.1-0.7-0.3-1.2-0.4
	c-0.5-0.2-3.7-0.6-3.7-1.3c0-1.2,0.3-0.7-0.8-1.3c-2-0.9-3.9-2-6.1-2.3c-1.4-0.2-2.5-0.1-3.6-1.1c-1.2-1-2-2.4-3.1-1
	c-0.4,0.5-1.2-0.1-1.7-0.2c0.5-2.1,2.7-0.8,1.7-3.4c-1-2.2-0.9-2-3.2-2.1c-1.1-0.1-2.7,1.2-2.9,0.8c-0.3-0.7-0.2-1.5-0.5-2.2
	c-0.3-0.6-3-1.6-3.6-1.9l-7.5-3.9c-0.8-0.2-1.6-0.8-2.3-1.1l-3.7-1.6c-1.4-0.6-3.3-2.1-4-3.5c-0.5-1-1.3-0.8-2.3-0.8
	c-1.6,0-3,0.7-4.5,0.4c-0.5-0.1-0.8-0.4-1.3-0.4c-1.2,0-3.6,0.6-4-0.5c-0.3-0.7,0.2-2.5-0.6-2.8c-1-0.4-1.4,0.7-2.1,1
	c-1.1,0.5-1.9-0.8-3-1c-0.8-0.1-1.3-0.3-1.8-0.9c-1.1-1.4-2.5-3.3-4.4-2.1c-1.1,0.7-1.4,0.8-2.6,0.7c-0.9-0.4-0.8-1.3-2-0.8
	c-1.1,0.5-1.6,0.9-2.8,0.4c-2.2-1-2.5,3-4.5,3.3c-1.3,0.2-2.1-0.4-3,0.8c-1,1.5-2.1,2.6-2.2,4.4c0,0.8,0.8,1.1,1,1.7
	c0.2,0.8-1.2,0.5-1.5,0.5c-1.7-0.4-3.5,0.1-4.4-1.4c-0.6,0-0.9,2.8-1,3.2c-0.4,1.4-3.3,2.4-4.7,2.2c-0.8-0.1-2.2-1.5-2.9-1.4l0,0
	l-4.5-3.3c-1.2-0.6-2.6-2.8-3.8-1.7c-0.7,0.7-1.4-1-1.2-1.6c0.3-0.8-1-0.5-1.3-1.1l-0.6-1.1c-0.6-1.1-2.8-2.8-3.9-3.3
	c-0.7-0.3-1.7-0.8-2.2-1.4c-0.6-0.8-1.5,0-2.3-0.7c-0.4-0.3-1.4-1.6-1.6-2.1c-0.4-0.9-0.1-1.7-0.3-2.6c-0.2-0.5-0.8-0.9-1.1-1.3
	c-0.3-0.6-0.6-1.2-0.9-1.8c-0.8-1.3-2.6,0-3.6-1.2c-0.4-0.5-0.7-0.6-1.3-0.5c-0.8,0.2-1.1,0.3-1.8,0c-0.2-0.8-0.1-0.8,0.5-1.2
	c0.4-0.2-0.3-0.9-0.3-1.3c0-0.7,0.7-1.3,0.4-1.9c-0.3-0.5,0.2-1.1,0.3-1.6c0.2-0.5,0.5-1.3,0.5-1.9c0-0.3-0.7-1-0.6-1.2
	c0.3-0.3,0.4-0.2,0.5-0.7c0-1.2,0.4-1.4-1.2-1.4c-1.2,0-2.4,0-2.9-1.4c-0.4-1.2-0.7-1.7-2-2c-0.6-0.1-0.9-0.5-1.2-0.8
	c-1.3-1.3,0-2.6,0.8-3.6c0.8-0.7,1.7-1.1,2-2.2c0.1-0.6,0.1-1.4,0.6-2c0.5-0.6,0.4-0.8,0.1-1.4c-0.3-0.7-0.1-0.7,0.6-1.1
	c0.7-0.5,0.5-1.5,0.8-2.2c0.4-0.8,1-1.8,1.2-2.6c0.4-1.6,0.7-3,1.7-4.3c0.2-0.2,0.8-0.9,0.3-1.1c-0.6-0.2,0-0.6,0.1-1
	c0.4-0.4,0.6-2.2,0.7-2.8c0.2-1.1,0-2.8,0.6-3.8c0.3-0.4,0.6-0.7,1.1-0.5c0.5,0.2,0.8-0.5,1-0.9c1-1,3.1-3.4,3.2-4.8
	c0.1-1.2,0.6-1.7,1-2.8l1.8-4.6c0.4-0.7,0.8-1.7,1.1-2.5c0.6-1.6,2.1-3,3.1-4.4l3.4-5l7.8-12c0.9-1.6,2.7-4.7,4.3-5.5l10.9-6
	c1-0.3,2.7-0.9,3.5-1.5c0.2-1.6-0.1-4,0.4-5.5c0.3-0.8,0.8-1.4,1-2.3c0.2-0.9,0-1.5,0.5-2.4c0.4-0.4,0.7-1.3,0.8-1.8
	c0.4-1.8,0.7-0.7,1.6-0.4c0.2,0.1,0.3-0.5,0.4-0.6c0.2-0.6,2.5-3.5,1.9-3.8c-0.8-0.4-0.3-3.2-0.3-4l0.2-1.2c0.7-1.5,1.7-2.8,2.3-4.4
	l2.8-6.4l3.5-4.5l-9.1-6.3l0.2-13.8l38.4,0.4l6.4-0.3c0.7-1,1.2-3.5,2.4-3.8c2.3-0.6,5.1,0.6,7.5-0.3c0.5-0.2,0.6-0.8,1.1-1.2
	c0.5-0.4,1.6-0.5,1.7-1.3c0.1-0.7-0.1-1.4,0.2-2.2c0.3-1.1,1.1-0.2,1.4-0.7c0.1-0.2,0-1.8,0-2.2c0-1-1-0.9-1.8-0.9
	c-1.4-0.1-0.3-3.8-0.2-4.5c0.1-0.5,0-1.1,0.6-1c1.1,0.2,3-0.3,4.1-0.6l4.9-1.3l13.1-2.5l2.9,1.9l5.2-7.8l-0.9-1.4l11.9,0v-6.8l0.1-3
	l2.5-6.2l0.1-5l3.8-0.7l2.3,12c0.7,0.6,0.3,1,1.3,1.1c0.6,0.1,0.8,0.6,1.4,0.6l2.2,0.2c0.8,0.1,0.8,0.1,0.3,0.6
	c-1,0.9,0.6,0.9,1.2,1.4c0.2,0.2,0.3,1,0.4,1.3c0.1,0.3,0.3,1.1,0.7,1.1c0.9,0.1,1.1,0,1,0.8c-0.1,0.9,0.7,1.1,1.3,1.5
	c0,0.5,0,0.9,0.2,1.4c0.2,0,0.6-0.5,0.7-0.3c0.2,0.3,0.8,0.7,0.9,1c0.1,0.4-0.2,1.5-0.5,1.8c-0.2,0.1-1.1,0.6-0.7,0.9
	c0.3,0.2,0.4,0.5,0.7,0.6c1,0.5,2.7-0.1,3.9,0.2c0.6,0.1,1.1,0.2,1.7,0.3c1.2,0.1,3.5-0.2,4.4,0.9c0.3,0.4,0.2,1.1,0.5,1.5
	c0.4,0.5,1.4,0.5,2,0.6l8.7,0.1l-0.8,3.7l9,1.3l-1.3,17.4l14.4,1.5l4.2-1.6l3.5-4.8l4.9,1.8l0.1,1.8l1.1,0.8l3.3-0.8
	c0.6-0.2,0.9-1,1.4-1.1c0.4,1,0.8,2.1,1.3,3.1c0.8,1.7,1.8,2.8,1.7,4.8c0,1-0.3,2.1,0,3l1,2.9l0.9,3.3l4.5,0
	c0.1,1.4,1.1,2.8,1.4,4.2c0.4,1.9,0.3,3.6,0.1,5.5l-1.1,1.7l-0.1,10.9l-8-0.1l-1.7,2.3l-1.8,0.4l-0.6,1.6l7.1,0l-1.4,7.7
	c1,1.1,4.3,1.9,5.8,2.1l4.3,0.6c1.4,0.2,3.5,1.7,4.8,2.4c1.8,0.9,1.3,1.6,1.3,3.3c1.1,0,2-0.3,3.1-0.4c0.7,0,3.7-0.7,4-0.5
	c0,0.9-0.4,1.2,0.7,1.8l2.7,1.5c0.7,0.4,1.4,0.5,2,0.8c0.4,0.2,0.1,1.5,0.3,2.1c0.4,0.9,1,2.3,1.7,3.1c0.8,1.8,3.8,3.2,5.5,4.1
	c0.7,0.4,1.5,1,2.3,1.1c0.8,0.1,2-0.1,2.8-0.2c1.1-0.2,1.1-0.2,1.8,0.7c1.1,1.4,2.9,3.1,4.3,4.2L562.9,297.8L562.9,297.8
	L562.9,297.8z"/>
</svg>
