<?xml version="1.0" encoding="utf-8"?>
<!-- Generator: Adobe Illustrator 18.0.0, SVG Export Plug-In . SVG Version: 6.00 Build 0)  -->
<!DOCTYPE svg PUBLIC "-//W3C//DTD SVG 1.1//EN" "http://www.w3.org/Graphics/SVG/1.1/DTD/svg11.dtd">
<svg version="1.1" id="Capa_1" xmlns="http://www.w3.org/2000/svg" xmlns:xlink="http://www.w3.org/1999/xlink" x="0px" y="0px"
	 viewBox="270.9 147.6 300 300" enable-background="new 270.9 147.6 300 300" xml:space="preserve">
<path fill="#FFFFFF" stroke="#009BFF" stroke-width="2" d="M275.8,273.3l-0.6,0.5c-0.4,0.4,0.1,0.6,0.3,1c0.3,0.7-0.5,0.8-1,0.9
	c-0.6,0.1-1.1,1.3-1.1,1.9l0,0c0.5-0.1,1.1-0.2,1.5-0.1c2.6,0.4,6.3,1.4,8.6,2.6c1.1,0.3,2.1,0.8,3.2,1.2l5.1,1.8
	c1.5,0.6,3.7,1.6,5.4,1.6c4.9,0,9.4,1.6,14,3c2,0.1,4.7,1.3,6.7,1.8c2.6,0.7,4.9,1.7,7.3,2.8c0.7,0.6,1.8,0.7,2.1,1.7
	c0.5,0.1,0.5,0.1,0.6,0.6c0.3,0,0.7-0.2,1.2-0.2c0.7,0.1,2.3,0.2,2.7,0.8c0.3,0.5,0,1.3,0.4,1.8c0.7,0.8,0.2,0.4,0.4,1.2
	c0.1,0.5,1.1,0.5,1.1,1c0,1.1,0.8,0.8,0.9,1.9c0,0.4,0.4-0.2,0.5-0.4c0-0.2,0.2-1.2,0.1-1.3c-0.4-0.5-0.6-2.3,0.4-1.6
	c0.5,0.3,1.1,1.2,1.8,1.2c0.2-0.2,0-0.5,0.2-0.7c0.6-0.8,1.6-1.2,2.1-2c0.4-1,0.7-0.6,1.6-0.6c0.2,0,2,1.3,2.1,1.5
	c0.2,0.6,0.3,0.6,0.7,1.1c0.1,0.1,0.2,0.5,0.4,0.6c0.1,0,0.5,0.1,0.5,0.2c0,0,0.1,0,0.1,0.1c0.1,0-0.4,0.6-0.1,0.8
	c0.2,0.1,0.5,0.6,0.6,0.1c0-0.4,0.3-0.5,0.6-0.7c0.3-0.2,0.5-1.3,0.4-1.6c-0.4-0.9-1.5-1.1-1.7-2c-0.3-1.5,1.1-2.3,2.2-2.9
	c2.6-0.4,4.4-1.2,7.1,0.1c0.7,0.3,1.9,0.7,2.1,1.6c0.1,0.9-0.6,1.2-0.6,1.5c0.1,0.1,0.9,0,1.1,0c0.2,0.3-0.8,1.6-1.1,1.8
	c-0.4,0.2,0,1.2,0.1,1.5c0.2,0.4,1.2,0.3,1.4-0.1c0.1-0.3-0.3-0.8-0.1-1.1c0.9-1.7,0.8-2.4,2.9-1.7c0.5,0.4,1.3,0.5,1.9,0.7
	c1.1,0.4,1.7,1.2,2.7,2c0.9,0.7,2.1,1.9,2.6,3c-0.2,0.5,0.4,1.2,0.6,1.6c0.4,0.9,0.4,1.7,0.4,2.7c0,1,1.2,0.4,1.5-0.1
	c0.4-0.8-2.1-3.6-0.2-4.1c0.1,0,0.4,0.3,0.5,0.4c0.5,0.3,1.3,0.4,1.1,1.2c-0.3,1-0.2,2.2-0.2,3.2c0,1.1-4.9,0.7-5.7,1
	c-0.9,0.2-1.4,0.9-2.1,1.4c-0.9,0.6-1.2,0.4-1.6,1.5c0,0.2-0.1,1-0.1,1.2c0.1,0.5,0.4,0.4,0.1,1c-0.2,0.5-0.2,1.2-0.6,1.6
	c-0.2,0.3-0.1,0.3,0.2,0.3c0.9,0,1,0.2,1-0.9c0-0.6,0.5-1.7,1-2c0.5-0.3,0.7,0.4,1.1-0.2c0.2-0.3,0.1-0.8,0.2-1
	c0.1-0.2,0.6-0.4,0.5,0c-0.2,1.1,0.2,2.6-0.4,3.7c-0.3,0.6-0.7,0.9-1.4,1.1c-0.4,0.1-1.1-0.1-1.2-0.5h0c0,0-0.4,0-0.4,0h-0.8
	c-0.1,0,0.1,0.9,0.1,1c0.1,0.2,0.1,0.6,0.3,0.8c0.1,0.3,0.2,0.6,0.5,0.7c2,0.1,3.4,0.2,5.3,0.9l6.5,2.3c1,0.2,2.2,0.7,3.1,1.1
	c0.8,0.4,1.1,0.7,1.7,1.3c0.3,0.3,0.8-0.1,1.2,0.1c1,0.4,0.5-0.8,0.7-1.5c0.1-0.4-0.5-1-0.6-1.4c-0.2-0.8-0.4-0.1-1-0.4
	c-1-0.7-2.3-1-3.3-1.7c-1.2-0.8-2.3-1-3.7-1.4c-1.8-0.9-4.4-1.7-6.5-1.7c-0.3-1.1,0.1-2.6,0.2-3.8c0.1-1.7,2-0.6,3.2-0.5
	c1,0,1.6-0.5,2.7-0.2c0.7,0.2,1.1,1,1.7,1.2c1.3,0.5,1.5-0.4,0.6-1.1c-0.3-0.2,0.2-0.9,0.4-0.7c0.4,0.3,0.8,0.4,1.2,0.6
	c0,0.3-0.4,0.5-0.2,0.9c0.3,0.4,0.6,1,1.1,1.2c0.4,0.1,1,0.2,1.3,0.6c0.2,0.3,0.5,0.7,0.8,0.9c1.1,0.6,2.5,0.8,3.6,1.4
	c0.1,0.1-0.1,0.4-0.2,0.5c-0.4,0.7-0.6,1.8-0.6,2.6c0,0.5,0.3,1.1,0.7,1.4c0.4,0.2,0.8-0.6,1.4-0.6c0.4,0.5,2.1,1.7,2.7,1.6
	c0.8,0,1.8-0.5,2.6-0.6c1.2-0.2,2.5-0.2,3.7-0.2c1.5,0.1,3,0.1,4.4,0.6c0.8,0.2,1.6,0.7,2.2,1.3c0.8,1,2.5,1.2,3.8,1.3
	c2,0.2,3-0.6,4.3-2c0.3-0.2,1.1-1,1.4-1c0,0,0,0,0.1,0l3.3,3.6l2.2,2c1.2,1.1,1,2.3,3.2,1.6c0.9-0.3,1.4-1.3,2.1-1.8
	c0.8-0.6,1.9-0.7,2.9-0.8c0.9,0,2.2,0.5,2.3,1.5c0.1,0.7-0.2,1.3,0.4,1.8c0.4,0.4,1.1,0.4,1.5,0.8c0.4,0.3,0.5,1.3,0.8,1.8
	c0.5,0.8,0.8,1.2,1.7,1.4c0.5,0.1,0.7,0.4,1.1,0.7l1.1,0.7c0.6,0.4,1.1,0.7,1.2,1.4c0.2,0.9-0.1,1.6,0.5,2.4
	c0.5,0.6,0.6,1.5,0.2,2.2c-0.3,0.4-0.9,1.7-1.6,1.4c-1.4-0.7-2.3-1.9-3.4-2.8c-1.3-1.1-2.3-2.6-3.8-3.5c-1.9-0.5-4.4-1.2-6.2-2.2
	l-2.1-1.1l-3-1c-1.2,0.1-2.1-0.7-3.1-1.1c-1.3-0.6-2.7-1.3-3.8-2.3c-0.4-0.4-0.7-0.8-1.3-0.7c-0.3,0-1.5,0-1.7,0.2
	c0,0.4,0.8,1.2,0.5,1.7c-0.8,0.1-1.4-0.5-2.1-0.8l-0.1-0.1c-1.3-0.1-2.4-1.1-3.6-1.5c-0.8-0.3-1.7-0.4-2.5-0.6
	c-1.2-0.3-1.6-0.4-2.6-1.2c-0.4-0.1-0.9-0.3-1.2-0.6c-0.5-0.4-1.7-0.6-2.3-0.8c-1.2-0.4-2.5-0.5-3.7-0.9c-1.4-0.5,0.1,1.3,0.1,1.9
	c-0.1,0.1-0.6,0.1-0.8,0.1c-0.7,0-1.5,0.2-1.6-0.7c-0.1-1,1.3-2.2-0.6-2.3c-0.4,0-1.2-0.3-1.3,0.2c-0.1,0.5-0.5,0.4-0.9,0.5
	c0,0,0,0,0,0.1c0,0.5,0.2,0.9,0,1.5c-0.1,0.5,3.6,1.7,4.2,1.9l7.3,2.5c0.9,0.5,1.8,0.7,2.7,1.1l4.7,2.1l5.2,2.5l6.1,2.9
	c2.5,1.2,5.7,2,7.9,3.8l6,3.9l3.2,2.2l3.9,2.3l3.8,1.9l6.2,3.1c1.4,0.7,4.3,1.7,5.2,2.8c0.8,0.8,2.1,1.3,2.9,2.1l4.1,4l4.7,3.5
	l12.6,8l10.9,7.5l10.4,8.4l10.3,10c0.2,0.7,1.6,1.7,2.2,2.3c0.7,0.7,0.7,1.1,0.7,2l0.1,0.1l0,0c1.1-1.1,1-2.3,1.8-3.4
	c0.5-0.7,1.1-1,1.6-1.9c0.4-0.8,1.2-0.9,1.6-1.4c0.8-0.9,0.6-2,1.3-3c1-1.4,1.7-2.2,2.3-3.9c0.4-1.2,0-2.7,0.9-3.7
	c1.1-1.3,1.6,0.2,2.5-0.4c1.5-1,1.6-3.8,3.3-4.8c0.7-0.4,2.5-1.3,3.2-1.3c3.5,0,9.8-3.3,10.1-7.2c0.1-0.9,0.5-1.4,0.2-2.3
	c-0.3-1.2-1.2-2.4-1.4-3.5c-0.2-1.6,1-1.1,1.6-2c1.9-2.6-1.2-4.4-2.9-5.7c-1.4-1.1-2.6-2.4-1.5-4.1c0.7-1.2,2.3-1.6,3.2-2.9
	c0.4-0.5,1.4-2.9,2.3-2c1.3,1.3,2.2,1.9,3.8,2.6c2.3,1,1.4,4.7,4.9,3.1c1.6-0.8,1.1-1.5,2-2.8c0.8-1.3-0.7-2.2,0.2-3.3
	c0.8-0.9,2.3-0.4,2.9-1.7c1.6-3.5,6.2-0.7,7.4-3.1c0.6-1.2-1.2-2.6-0.8-3.5c0.4-0.9,1.3-0.6,2-0.5c1,0,1.5-1.2,2-1.9
	c0.9-1.2-2.4-2.5-0.4-3.6c0.8-0.5,2.4,1,2.9,0c0.4-0.7-0.7-1.9-0.8-2.7c-0.1-2.1,2.6-0.6,3.4-0.3c0.4,0.2,1.1,0,1.2-0.5
	c0.1-0.4-0.3-1.1-0.5-1.6l0,0c-0.5-1.3-0.5-1.2,0-2.4c0.6-1.3-0.3-2.4-0.4-3.6c-0.1-1.1-0.2-2.3-0.2-3.4c-0.1-1.1-0.7-1.2-0.1-2.4
	c0.4-0.8,1.7-2.7,1.3-3.6c-0.2-0.4-0.9-0.5-1.3-0.7c-0.8-0.4-0.1-1.7-0.4-2.4c-0.7-1.3-1.4-2.3-2.7-3.2c-0.9-0.6-1.9-1.2-2.8-1.9
	c-1.8-1.2,0.4-4.5,0.6-6c0.1-0.8-0.4-1.8-0.4-2.6c0-0.9,0.3-2.5,0.4-3.4c0.3-1.4-2.3-2-1.3-3.5c0.7-1.1,1.8-1.3,2.3-2.5
	c0.8-1.7,0.1-2.9,0.2-4.6c0.1-1,0.6-1.5,1.2-2.2c0.7-1.1,1.3-1.9,1.4-3.2c0.1-0.9,0.6-2.5,0.8-3.4c0.4-1.6,1.1-3,0.5-4.6
	c-0.2-0.4-1-0.7-1.4-0.9c-0.8-0.6-1.1-1.4-1.4-2.4c-0.6-1.8-0.8-2.4-0.3-4.1c0.3-1.1,0.1-1.9,0-3c-0.2-1.7,2-2.7,1-4.4
	c-1.1-1.7-0.3-4.2-0.1-6.1c0.1-1,0.5-1.5,0.6-2.5c0.2-1.7-0.4-2.2,1.5-2.9c0.8-0.3,0.7-1.3,1-1.9c0.2-0.4,0.6-0.8,0.4-1.3
	c-0.6-1.3-1.1-1.7,0.8-2.2c1.4-0.4,1.1-2.2,0.8-3.4c-0.4-0.5-2-1.2-2.2-1.7c-0.2-0.6-0.1-0.4-0.7-0.8c-0.6-0.4-0.8,0.7-1.7,0.3
	c-1.1-0.5-1.3-1.3-2.6-1.6c-0.7-0.2-3.1-1.8-3.1-2.6c-0.1-0.9,0-1.8-0.5-2.5l-1.2-1.9c-0.3-0.4-0.8-0.4-1.1-0.8
	c-0.4-0.5-0.4-1.1-0.8-1.7c-0.6-0.8-1.2-1.7-2-2.3c-0.3-0.2-1-0.6-1.2-0.8c-0.4-0.4-0.5-0.8-0.7-1.3c-0.9-1.3-1.5-0.5-2.7-0.2
	c-0.7,0.1-1.1-0.7-1.4-1.1c-0.4-0.5-1.1-1.5-1-2.1c0.1-0.7-0.2-0.8-0.4-1.4c-0.3-0.4-0.2-1.6-0.4-2.3c-0.3-1-0.3-0.9-1.2-1.4
	c-0.7-0.4-0.4-0.4-0.5-1.1c-0.1-0.4-0.9-1.2-1.2-1.6c-0.3-0.4-1.9-1.8-1.9-2.2c-0.2-0.7-0.3-1.3-0.9-1.7c-0.3-0.3-1.2-0.7-1.3-1.1
	c0-0.4-0.2-0.5-0.6-0.5c-0.7,0-0.8-0.6-1.1-1.1c-0.4-0.6,0-1.3,0.4-1.8c0.5-0.7,0.2-1.9-0.4-2.4c-0.2-0.7,0.3-0.9,0.8-1.1
	c0.6-0.2,1-0.7,1.3-1.2c0.4-0.7-1.3-2-1.7-2.5c-0.8-1.1-0.8-0.8-1.9-0.4c-1.4,0.4-3.2,1.6-4.7,1.6l-2.8,1c-0.4,0.2-1.6-0.2-2.1-0.3
	c-1.9-0.3-2.1,0.9-3.6,1.4c-0.3,0.1-0.7,0-1.1,0.2c-0.4,0.2-0.7,0.5-1.2,0.5c-0.6,0-0.7,0-1.2,0.4c-0.4,0.3-0.6,0.9-0.9,1.2
	c-0.6,0.6-1.4,0.4-1.6,1.5c-0.1,0.7-1,0.6-1.3,1.2c-0.2,0.4-0.3,0.9-0.5,1.4c-0.3,0.7-0.7,1-1.4,1.2c-1.1,0.3-0.7,1.2-0.8,2.1
	c-0.1,1.8-0.8,1.4-2,2.1c-0.8,0.5-2.8,2.5-3.8,2.1c-1.2-0.4-1.7-1.1-3.1-0.4c-2.3,1.2-4.2,4-7.1,3.8c-0.8,0-1.8,0.1-2.6,0.5
	c-0.6,0.3-1,0.9-1.6,1.3c-1.2,0.8-2.5,1.4-3.7,2.3c-0.7,0.5-1.5,1.4-2.4,1.6c-0.3-0.4-0.5-0.8-0.6-1.1c-0.4-1.2-0.1-3.5-0.9-4.4
	c-0.7-0.8-0.1-1.7,0.2-2.5c0-0.1,0-0.1-0.1-0.1l-2.1,0c-0.8,0.1-1.6,0.6-2.2,1c-0.6,0.5-1.8,1.6-2.6,0.8c-0.4-0.4-0.6-0.8-0.7-1.4
	c-0.1-0.7-0.5-1-0.7-1.6c-0.3-1.4-0.5-0.8-1.7-0.6c-1,0-1.8,1.2-2.5-0.1l-1.4-2.7l-1.2-1.9c-1.1,0-3.3,1.7-4.3,2.3l0,0
	c0,0.4,1.8,3.9,2.1,4.2c0,0.3,0.2,0.9,0,1.1c-0.8,0-2.4-0.8-3.1-1.1l-4.5-1.6l-5.6-1.5c-1.1-0.3-3.1-0.7-3.6-1.8
	c-0.3-0.6-1-1.5-1.1-2.1c-0.3-0.7-0.5-1.5-0.5-2.2l0,0c-0.3-0.2-2.1,0.1-2.6,0.1c-0.9,0-0.6,1.2-1.9,0.9c-0.7-0.2-1-0.3-1.6,0.2
	c-0.6,0.4-1.7-0.5-2.2-0.8c-1.2-0.7-2.7-1.2-4-1.4c-1.1-0.6-2.9-1-3.8-2l-2.3-2.7c-0.5-0.6-1.1-0.4-1.8-0.4c-1.2,0-1.4,0.2-1.9,1.3
	c-0.4,0.9-0.5,2.1-1.4,2.7c-0.6,0.4-1.1,0-1.5,0.8l-2.5,9.7c1.7,2.1,1.4,2,3.6,1.9c0.1,0,0.1,0,0,0.1l-2.8,4.5l-0.5,2.6l-0.9,3.7
	l-2,1.1l-1.9,1.5l-0.8,0.2l-2.4,2.6l-0.4,3.1l-3.3,1.7l2,6.1c0.1,1,1.4,2-1.5,2.5c-0.7,0.1-0.1,0.7-0.5,0.9
	c-0.7,0.3-1.5,0.1-2.1,0.5c-1.4,0.9-1,0.1-2.3,0.1c-1.2,0-1.7,3.5-3.2,2.2c-1-0.8-1.7-3.9-3.7-1.4c-0.9,1.2-2.5,5.6-4.3,3.6
	c-1.1-1.2-1.5-1.9-3.2-1.3c-1.7,0.6-2.8-0.1-4.4-0.5c-0.8-0.2-1.5-0.9-2.3-1.3c-0.7-0.4-1.7-1-2.6-0.7c-0.8,0.3-1.2,0.8-2,0.5
	c-0.8-0.3-1.5,1.1-2.1,1.5c-1.8,1.4-1.5,1-3.4,0.5c-0.5-0.1-1,2.5-1.6,1.1c-1.5-3.7-3.3,1.1-4.8,1.6c-1,0.3-1.1,1.5-1.5,2.3
	c-0.2,0.6-0.6,1-1.3,0.9c-1.8-0.3-3.1-3.1-5.6-2.7c-1,0.2-5.5,8-5.6,4.2c-0.1-2.4-2.5-2.1-4-1.4c-0.9,0.4-0.5,1.4-1.6,2
	c-0.7,0.4-1.2-0.3-1.9,0.1c-2.3,1.4-1.8,1.3-2.2-1.4c-0.2-1.2,1.2-1.9,1-2.8c-0.2-1.2-3.2,0.7-3.7,1.2c-1.1,1-5-0.1-5.8,1.6
	c-0.5,0.9,0.4,2.4,0.1,3.4c-0.4,1.4-3.4,0.8-4.4,1c-1.7,0.4,0.6,3.8-1,3.8c-0.4,0-2.2-0.1-1.5,0.8c0.3,0.5,1.6,1.4,1.2,2.1
	c-0.2,0.4-2.4,0.7-2.8,0.5c-1.1-0.6,0.3-2-1.7-1.3c-1.4,0.5-2.3,2.2-2.3-0.2c0-0.9,0.2-2.6-0.4-3.4c-2.4-3.3-3.3,3.3-6.1,0.1
	c-1.2-1.4-2.5-2-4.2-0.9c-1.6,1-3.6,3-5,4.4c-1.5,1.5-2.4,4.3-4,5.6c-2.1,1.8,1.1,2.2,0.5,3.9c-0.4,1-1.5,2.3-1.5,3.3
	c0,1,0,1.9-1.1,2.4c-1.5,0.7-1.7-1.6-2.6-2.1c-1.9-1.1-2.3,3.6-1.2,4.7c0.4,0.4,1.9,1.3,2,1.8c1.2,3.8-3.8,1.9-5.3,1.4
	c-2.1-0.7-0.3-1.6-1.7-2.4c-0.8-0.5-1.2-1-0.7-1.9c2-3.7-3.2-0.2-3.7-0.3c-1.1-0.3-1.9-0.7-2.7-1.4c-1-0.9-2.1-0.6-3.3-1l0,0
	c-0.1,0.3-0.9,0-1.2-0.1c-0.6-0.2-0.5-0.3-1-0.6c-0.4-0.2-0.9,0-1.3-0.1C276.8,274.9,276.2,274,275.8,273.3L275.8,273.3L275.8,273.3
	z"/>
</svg>
