<?xml version="1.0" encoding="utf-8"?>
<!-- Generator: Adobe Illustrator 18.0.0, SVG Export Plug-In . SVG Version: 6.00 Build 0)  -->
<!DOCTYPE svg PUBLIC "-//W3C//DTD SVG 1.1//EN" "http://www.w3.org/Graphics/SVG/1.1/DTD/svg11.dtd">
<svg version="1.1" id="Capa_1" xmlns="http://www.w3.org/2000/svg" xmlns:xlink="http://www.w3.org/1999/xlink" x="0px" y="0px"
	 viewBox="270.9 147.6 300 300" enable-background="new 270.9 147.6 300 300" xml:space="preserve">
<path fill="#FFFFFF" stroke="#009BFF" stroke-width="2" d="M358.5,403.2c15.8,7.7,26.7,29.2,45.4,28.2c9.1-0.5,16.7-2.9,25.9-0.6
	c10.8,2.8,20.1,16.8,32.2,13.8c17.1-4.2,33.5-11.6,51.8-13.8l0,0l13.8-20.7c0-29,5.1-57.7,4-85.9c-1.5-39.5-26.3-44.5-45.4-72.6
	c-10.9-16,0.9-35.1-8.6-47.8c-16.6-22.2-36.2-18.1-36.2-52.4c-9.6-9.6-32.5,38.6-41.4,45c0,34.8-0.2,27.2-21.3,55.9
	c-9.4,12.8-70.4,46.9-68.4,53.6c4.8,16.4,21.4,30.2,30.5,45C349.6,365.2,358,386.4,358.5,403.2L358.5,403.2L358.5,403.2z"/>
</svg>
