<?xml version="1.0" encoding="utf-8"?>
<!-- Generator: Adobe Illustrator 18.0.0, SVG Export Plug-In . SVG Version: 6.00 Build 0)  -->
<!DOCTYPE svg PUBLIC "-//W3C//DTD SVG 1.1//EN" "http://www.w3.org/Graphics/SVG/1.1/DTD/svg11.dtd">
<svg version="1.1" id="Capa_1" xmlns="http://www.w3.org/2000/svg" xmlns:xlink="http://www.w3.org/1999/xlink" x="0px" y="0px"
	 viewBox="270.9 147.6 300 300" enable-background="new 270.9 147.6 300 300" xml:space="preserve">
<path fill="#FFFFFF" stroke="#009BFF" stroke-width="2" d="M405.4,193c-0.7,0-1.4,0.7-2,0.6c-0.3-0.1-0.5-0.3-0.9-0.2
	c-0.4,0.1-0.4,0.5-1,0.5c-0.3-0.1-0.6-0.7-0.9-0.6c-0.3,0.2-1.2,0.7-1.3,1c-0.1,0.3,0,0.7-0.2,1c-0.3,0.5-1,0.3-1.4,0.7
	c-0.8,0.6-1.1,0-1.8,0c-1.1,0-0.8,1.4-1.8,1.2c-0.6-0.1-0.7,0.2-1.2,0.4c-0.4,0.1-1.2-0.2-1.6-0.4c-0.2-0.1-0.3-0.4-0.6-0.4
	c-0.3-0.1-0.6,0.1-0.8,0c-0.5-0.1-0.2-0.8-0.7-1c-0.3-0.1-0.7,0-1,0.1c-0.5,0.2-0.7,0.9-1.3,0.7c-0.8-0.2-0.8,0.4-1.4,0.8
	c-0.5,0.3-1.2,0.6-1.7,0.7c-0.6,0.2-1-0.4-1.6-0.4c-0.4,0-0.6,0.3-0.9,0.2c-0.5-0.2-0.7-0.6-1.4-0.4c-0.8,0.3-0.9-0.5-1.6-0.6
	c-1.2-0.1-1.6,1.1-2.5,0.9c-0.5-0.1-1.1,0.3-1.5,0.5c-0.5,0.2-0.3,0.7-0.5,1.1c-0.3,0.6-0.6,0.1-1-0.1c-1-0.5-0.5,1.4-1.1,1.5
	c-0.4,0.1-1.3-0.7-1,0.3c0.3,0.8,1.2,1.3-0.3,1.7c-0.6,0.1-0.4-0.5-0.7-0.6c-0.6-0.1-0.5,0.5-0.8,0.8c-0.4,0.7-0.6-0.3-0.7-0.4
	c-0.4-0.7-0.8,0.1-1,0.4c-0.4,0.8-1,0.8-1.7,0.7c-0.5-0.1-0.6-1.1-1.4-0.6c-0.5,0.4,0.3,0.9-0.4,1.1c-0.4,0.1-0.3,0.3-0.3,0.6
	c0,0.4-0.4,0.5-0.5,0.9c0,0.6-0.8,1.1-1.4,1.1c-0.8-0.1-1.2-0.8-2.1-0.6c-1.5,0.4-0.9,1.6-1.7,2.2c0.2,0.7,0.1,1.3-0.1,2
	c-0.2,0.8-1.3,0.7-2.1,0.6c-0.9-0.2-1.7,0-2.5,0.3c-0.6,0.3-0.9,1-1.1,1.6c-0.1,0.4-1,0.5-1.3,0.8c-0.4,0.4-2.6,0.1-3.4,0.3
	c-0.1,0-0.1,0,0,0.1l1,0.9c0.5,0.4-0.1,1.6-0.7,1.7c-1,0.2-2.2-1.4-2.6-2.1c-0.5-0.8,0-1.3-0.9-1.6c-0.4-0.1-0.5-0.8-0.8-0.7
	c-0.7,0.3-1.1,0.2-1.9,0.1c-1.4-0.1-1.8-0.3-2.9-0.8c-0.6-0.2-1.3-0.3-2-0.3c0,0.8,0.6,1.6,1.2,2.2c0.3,0.3,1.7,1,1.3,1.3
	c-0.3,0.3-1.2,0.6-1.5,0.3c-0.2-0.2-1.3-1.1-1.3-0.8c-0.4,1.6-0.6,1.1-2,1.2c-0.4,0-0.9,0.3-1.2,0c-0.6-0.5,0.1-1.1-1.1-0.9
	c-0.5,0.1-1.1,0-1.6,0.2c-0.4,0.1,0,0.6-0.3,0.8c-0.1,0.1-0.4,0.1-0.4,0.2c0,0.5-0.1,0.6,0.5,0.5c0.4,0,0.2,0.9,0.1,1.1
	c-0.2,0.5-0.3,0.7-0.6,1.2c0,0,0.6,0.7,0.6,0.9c0.1,0.5,0.2,1.3,0.6,1.7c0.8,0.7,0.4,0.5,0.1,1.1c-0.1,0.3,0.2,0.8-0.1,1
	c-0.2,0.2-0.6,0.2-0.7,0.6c-0.1,0.4,0.1,0.7-0.2,1.1c-0.3,0.6-0.7,0.8-0.8,1.5c-0.3,0.8,0.6,2.3,1.3,2.7c1.5,0.9,1.1,0,2.3-0.6
	c0.4-0.2,0.5-0.6,0.8-0.8c0.6-0.4,3.2-1.8,3.6-0.7c0.4,1,0.4,0.7,1.4,0.6c0.4,0,1.5,0.7,1.9,1c0.3,0.5,1.5,0.6,1.7,0
	c0.3-0.7,2.5,0.2,3.4,0.3c1.1,0.1,2.5,0.4,3.4,1.2c0.6,0.6,1,0.1,1.6-0.2c0.8-0.3-0.1,0.9,0.6,1.6l2.5,2.4l0.8,0.6
	c0.5,0.4,0.3,1.1-0.1,1.4c-0.3,0.2-0.5,0.7-0.2,1c0.3,0.3,0.4,0.4,0.3,0.8c-0.1,0.5,0.6,1,0.3,1.3c-0.1,0.2-0.6,0.3-0.8,0.4
	c-0.3,0.2-0.5,0.5-0.6,0.9c-0.4,0.6,0.3,1.1,0.6,1.5c0.3,0.5-1.1,0.3-1.3,0.4c-0.4,0.3-2.9-0.2-2.7,0.1c0.1,0.2,0.4,1,0,1.2
	c-0.4,0.2-0.7-0.3-1.1-0.2c-0.1,0-0.4,0.3-0.5,0.4c-0.2,0.1-0.6,0.3-0.2,0.5c0.8,0.4,0.5,0.4,0.2,1c-0.2,0.4-0.2,0.5,0,0.9
	c0.4,0.5-0.7,1.2-0.5,1.4c0.1,0.1,1.5-0.4,1.1,0.2c-0.5,0.4-0.8,0.4-0.2,1c0.3,0.3,0.8,0.7,0.9,1.1c0.3,0.8,1.1,1,0.9,2
	c-0.1,0.6-0.6,0.8-0.8,1.3c-0.2,0.3-0.7,0.5-0.8,0.9c0,0.2,0.6,0.1,0.7,0.2c0.4,0.3-0.2,0.9,0,1.4c0.2,0.2,0.3,0.2,0.5,0.4
	c0.2,0.1,0.3,0.5,0.4,0.7c0.2,0.4,0.2,1.4,0.7,1.3c0.7,0,1-0.3,1.3,0.3c0.2,0.3,0.5,1,0.9,1c0.5,0,0.6-0.3,1.1,0
	c0.4,0.3,1.3,0.2,1.3,0.8c0,0.6-0.3,0.7-0.6,1.1c-0.3,0.4,0,1.2,0.2,1.7c0.1,0.2,0.4,0.4,0.5,0.6c0,0.3-0.3,0.6-0.2,0.9
	c0.2,0.2,0.7,0.5,0.5,0.8c-0.5,0.7-0.3,1.3-0.6,2c-0.3,0.6-2.5,1.7-0.6,2.1c1.1,0.2,2.4-1.6,3.6-1.8c0.6-0.1,1,1,1,1.5
	c0,0.5-0.3,0.9-0.3,1.4c0,0.4,0.8,0.1,1,0c0.4-0.3,0.7-0.7,1.2-0.9c0.7-0.3,1.5-0.3,2.1-0.7c0.6-0.4,0.8-1.2,1.4-1.6
	c0.5,0,1.2-0.3,1.5-0.7c0.3-0.4,0.4-0.4,0.6,0c0.2,0.6,0.4,1,0.3,1.6c-0.1,0.4-0.4,0.7,0.1,0.8c0.9,0.2,1.4,0,1.9,0.9
	c0.1,0.3,0.3,0.5,0.3,0.8c-0.1,0.3-0.7,0.4-0.9,0.6c0,0.1,0.1,0.7-0.1,0.7c-0.2,0-0.5-0.3-0.6-0.1l-0.3,1.6c-0.1,0.3,1.1-0.4,1.4,0
	c0.2,0.3-0.5,0.5-0.5,0.7c0,0.3,0.7,0.1,0.9,0.2c0.3,0.1,0.2,1.3-0.5,0.5c-0.2-0.2-0.8-0.6-1.1-0.3c-0.2,0.2,0,0.5-0.5,0.6
	c-0.5,0.1,0.4,0.7,0.3,1.1c-0.1,0.5-0.8,1.6-1.1,1.9c-0.4,0.4-0.4-0.1-0.6,0.6c-0.2,0.8-0.9,1.2-1,2c-0.2,0.9,0,2.9-0.8,3.4
	c-0.6,0.4-1.2,0.2-1.4,1.1c-0.2,0.7-0.6,1.3-0.8,2c-0.1,0.4-0.1,0.5,0,0.9c0.2,1.1-0.3,0.5-0.5,1.1c-0.1,0.3-0.1,0.9-0.2,1.3
	c-0.2,0.9-1,1.4-1.3,2.2c-0.2,0.4-0.5,0.1-0.6-0.2c-0.3-0.6-0.6-0.3-1.2-0.5c-1-0.2-0.2-0.7-0.4-1.4c-0.1-0.3-0.4-1.1-0.6-0.7
	l-0.5,1.1c-0.3,0.1-1.3-0.3-1.7-0.3c-1.2-0.1-1.1-1.8-2.4-1.1l-2.3,1.1c-0.6,0.3-0.3,1.1-0.8,1.2c-1.3,0.3-1,0.6-1.8,1.4
	c-0.9,1-0.4-1.1-1.2-0.3c-0.2,0.6-0.6,1.1-1.3,0.9c-0.5-0.1-1.1-0.8-1.2-0.8c-0.1,0.3-0.9,0.2-1.1,0.4c-0.4,0.2-0.7,0.2-1.1,0.6
	c-0.4,0.4-1.6,2.1-2.2,1.8c-0.7-0.3-1.1,0.3-1.4,0.1c-0.4-0.3-0.8,0.3-1.2,0.3c-0.5,0.1-0.3-0.3-0.8,0.2c-0.4,0.5-0.8,0.9-1.3,1.3
	c-0.7,0.5-0.4,1,0,1.8c0.1,0.3,0.2,0.8,0.1,1.1c-0.6,0.1-1.5-0.6-1.9-1c-0.4-0.4-0.9-0.1-1.4,0.2c0,0.2,0.2,0.4,0.2,0.7
	c0,0.3-0.1,0.8,0.2,1c0.3,0.3,0.2,0.4-0.2,0.5c-0.2,0.4,0,1.6,0.1,2c0.2,0.8,1.4,1.5,2,2.1c0.4,1,0.4,0.8-0.4,0.6
	c-0.8-0.1-2.3-0.3-2.4,0.7c0,0.4-0.6,0.9-1,1c-0.5,0.1-0.6-0.5-1-0.6c-0.3-0.1-0.3,0.3-0.5,0.5c-0.2,0.2-0.4,0.1-0.6,0.3
	c-0.6,0.6,1.1,2.7-0.5,2.7c-1,0-1.7,1.5-2.1,2.2c0,0.7-0.7,0.7-0.9,1.2c-0.1,0.3-0.1,0.4-0.4,0.7c-0.5,0.4-0.6,0.4-0.9,1
	c-0.2,0.5-2.2,0.5-2.7,0.5c-1.6-0.3-1.4-1.2-2.4-2l-1.2-1c-0.1-0.1-0.1-0.6-0.1-0.8c0-0.5-0.2-0.6-0.4-1c0-0.2,0-0.2,0-0.4
	c0-0.4,0.1-0.8-0.3-1c-0.2-0.1-0.5-0.1-0.7-0.2c-0.3-0.1-0.3-0.4-0.4-0.7l-0.2-0.8c-0.1,0.1-0.3,0.1-0.4,0.2
	c-0.5,0.3-0.7,0.8-1.3,0.6c-0.8-0.3-0.6,0.1-0.8,0.6c-0.2,0.6-1.8,0.5-2,0.8c-0.4,0.6-1,0-1.4,0.7c-0.3,0.4-2,1.3-2.5,1.2
	c-0.5,0-0.9-0.4-1.5-0.4c-0.5,0-1.4,0.5-1.8,0.2c-1-0.8-0.6,0.4-1,0.6c-0.5,0.3-1.9,0-2.2-0.3c-0.4-0.4,0-0.8-0.8-0.8
	c-0.5,0-1.1,0-1.6,0c-0.4,0-0.7,0.3-1.1,0.3c-0.7,0.1-0.4-0.6-0.8-0.8c-0.4-0.3-0.9,0.7-1.1,1c-0.1,0.3-0.3,0.8-0.6,1.1l0,0
	c-0.3,0.3-0.6,0.4-1.1,0.1c-0.7-0.4-0.2,0.9-0.2,1c-0.3,0.7-1.2-0.7-1.2,0.3c0,0.3,0.4,0.4,0.3,0.7c-0.2,0.5-0.3,0.7-0.9,0.7
	c-0.6,0-0.7,0.4-0.3,0.8c0.8,0.9,0,1.2-0.8,0.8c-0.3-0.1-1,0.1-1.3,0.4c-0.2,0.2-0.1,0.5-0.2,0.6c-0.3,0.3-0.8,0.1-0.8,0.7
	c0,0.3,0,0.9-0.2,1.2c-0.3,0.3-0.9-0.5-1,0.4c-0.1,0.8-0.4-0.3-0.4-0.6c0-0.8-0.9-0.3-1.2-0.3c-0.7-0.2-0.7-1.5-1.6-0.7
	c-0.5,0.5-0.9,1.2-1.2,1.8c-0.3,0.4,1.5,1.4,1.6,1.7c0.1,0.3,0.3,0.4,0.3,0.7c0,0.3-0.6,0.3-0.7,0.4c-0.3,0.3,0.3,1.4,0.4,1.8
	c0.3,1.6-1.5,2.4-2.7,3c-0.5,0.2-0.8-0.2-1.2,0c-0.2,0.1-0.5,0.2-0.6,0.3c-0.2,0.2-0.4,0.9-0.6,1.2c-0.3,0.4-0.6,0.2-1.1,0.3
	c-0.7,0.1-0.4,1.7-0.3,2c0.1,0.5-0.6,0.8-0.9,1.1c-0.5,0.5-0.4,1.1-1.2,1.3c-0.9,0.2-0.1,1.3-1,1.8l0,0c0.2,0.2,0.5,0.4,0.9,0.6
	c1.1,0.5,2.1,2.2,2.8,3.2c0.8,1.2,0.3,1.8-0.3,2.9c-0.3,0.3-0.5,0.2-0.8,0.3c0,0.2-0.3,0.4-0.3,0.5c0.3,0.8,0.6,0.2,1.2,0.2
	c0.7,0.1,2.1,1.2,2.5,1.8c0.2,0.4,0.3,0.7,0.8,0.8c0.6,0.1,0.8,0.3,1.4,0.7c1.6,0.5,3.1,2.9,4.2,4c0.6,0.6,0.5,1.1,0.9,1.7
	c0.4,0.7,0.9,1,1.1,1.9c-0.1,0.6,0,0.6,0.4,1c0.5,0.5,0.8,1.4,1.1,2.1l0.8,1.6c0.5,0.9,0.3,1.5,0.5,2.4c0.2,0.9,1,0.9,1,2.1
	c0.1,0.8,0.4,1.2,1.2,1.3c0.4,0.1,0.7,0.8,1.1,1l5.6,2.5c0.6,0.5,0.8,0.8,1.6,1c1.2,0.4,1.7,0.6,2.5,1.5c0.5,0.5,1.2-0.2,1.9-0.2
	c0.7,0,0.9,0.4,1.4,0.6c1.2,0.3,1.2,0.2,2.1,1.1c0.5,0.6,2,0.7,2.8,1c0.6,0.1,1.2,0.5,1.9,0.5c0.7,0.1,1.1-0.2,1.8,0
	c0.6,0.1,0.6,0.4,0.9,0.8c0.1,0.2,1.7,0,2.1,0.4c0.5,0.5,2.1,1.3,2.8,1.3c1.1,0,2.3-0.8,2.3,0.8c0.4,0.2,0.8,0.1,1.2,0.1
	c0.8,0.3,1.4-0.1,2.2-0.1c0.6,0,0.7,0.1,1.2,0.4c0.7,0.5,1.7-0.1,2.6,0.6c0.7,0.6,0.5,0.5,1.5,0.5c1,0,1.7,0.7,2.5,1
	c0.5,0.2,0.9,0.1,1.4,0.3c0.5,0.3,1.1,0.7,1.6,0.8c3.1,1.7,6.3,3.2,9.7,4.3c1.2,1,2.2,1.3,3.7,1.7c0.5,0.1,0.6,0.6,1.3,0.5
	c1-0.3,0.3,0.5,1.4,0.4c0.9-0.1,1,0.1,1.4,0.7c0.1,0.2,1.3,0.5,1.6,0.6c0.5,0.1,0.7,0,1.1-0.3c0.4-0.3,1.4,0,1.9,0.1
	c0.3,0.1,0.5,0.3,0.7,0.5c0.2,0.2,0.7-0.1,0.9-0.1c2.5,0.1,4.4,1.1,6.8,1.6l6.9,1.5l13.1,4.1c0.9,0.5,2.3,0.7,3.3,1.2l4.7,2.5
	c1.2,0.6,2.4,1,3.5,0.1c0,0,0.1-0.1,0.1-0.1l0,0c-0.3-0.3-0.5-0.8-0.8-0.9c-1.6-0.4,1.6-2.2,1.9-2.4c1.1-1-2.1-2.5-2.4-3.4
	c-0.4-1.1-0.2-2.3-0.2-3.5c0-0.8-0.2-1.5,0.3-2.2c0.5-0.8,0.5-2.3,0.4-3.2c0-0.4-0.4-0.9-0.2-1.3c0.2-0.5,0.7-0.9,1-1.4
	c0.9-2,1.4-5,4.3-4.7c1,0.1,3.8,0.2,4.5-0.4c0.4-0.4,1-1.1,1.6-0.9c0.7,0.1,0.7,0.7,1.4,0.6c0.7-0.1,3.4,0,3.4-0.8
	c0-0.7-0.3-2.1,1-1.7c0.7,0.2,1.1,0.6,1.7,0c0.4-0.3,0.8,0,1.2-0.1c0.4-0.2,0.3-0.5,0.6-0.7c0.5-0.2,0.8,0.1,1.2-0.5
	c0-0.1,0.1-0.1,0.1-0.2c0.8,0,1.5,0,2.3,0.3l1.8,0.6c0.4,0.1,1,0.2,1.4,0.5c0.4,0.4,1.4,0.9,2,0.6c0.7-0.3,0.7-0.6,0.7-1.3
	c0-3.2-2.9-0.9-4.6-1.3c-0.4-0.1-0.4-0.5-0.7-0.8c-0.1-0.1-1.7-1.1-1-1.3c0.3-0.1,1-0.2,1.2-0.4c0.3-0.3-0.1-0.6-0.1-0.9
	c0-0.2-0.3-1-0.1-1.1c0.1-0.1,0.4,0,0.6-0.1c0.3-0.2,0-0.7-0.2-0.8c-0.2-0.1-0.4-0.3-0.5-0.4c-0.2-0.3,0-0.6,0.1-0.9
	c0.4-0.8,0.4-1.3,0-2.1c-0.2-0.3-0.3-0.5-0.5-0.8c-0.2-0.4-0.1-1-0.4-1.4c-1-0.9-0.9-1.3-0.4-2.4c0.5-1.1,1.5-2.2,0.9-3.4
	c-0.3-0.6-0.6-1.1-1.1-1.5c-0.6-0.6-0.4-1.2-0.4-2c0.1-0.8,0.5-1.5,0.8-2.3c0.2-0.5,0.7-0.8,1-1.2c0.6-0.8,0.9-1.7,1.7-2.5
	c1.1-1,1.8-1.5,3.3-1.9c1.1-0.6,2.6-1.3,3.8-0.9c1,0.4,2.7,0,3.2,1.1c0.7,0.5,5.1-0.7,6-1.1c0.4,0.2,1.1,0.1,1.4,0.5
	c0.4,0.5,0.5,1,1,1.4l0.6,0.4c0,0.3,0,0.7,0,1c0,0.3,0.1,0.6,0.2,0.8c0.2,0.5,0.6,0.4,0.8,0.8c0.2,0.5-0.2,0.8,0,1.3
	c0.3,0.5,1.1,0.7,1.4,1.1c0.4,0.7,1.2,0.1,1.7,0.4c0.4,0.2,0.5,0.9,1,1.1c0.5,0.2,0.9,0.1,1.4,0.2c0.7,0.1,1.1,1.1,2.1,0.8
	c0.6-0.2,1-0.4,1.6-0.2c1,0.3,1.2-1,1.8-0.6c1,0.8,0.8,0.5,1.6-0.1c0.7-0.5,1.5,0.3,1.8-0.5c0.1-0.3,0.2-1.4,0.8-0.8
	c0.5,0.5,0.5,0.6,1.1,0.1c0.8-0.6,1,0.8,1.7,0.8c0.9,0,0.2-1.1,0.4-1.5c0.2-0.4,0.7-0.1,1-0.4c0.9-0.7,1-0.2,1.9-0.4
	c0.3-0.1,0.5-0.4,0.9-0.4c0.5-0.1,0.8,0.2,1.4-0.2c0.4-0.2,1.2-0.7,1.6-0.6c0.3,0.1,0.3,0.5,0.8,0.6c0.3,0.1,0.8-0.1,1.1-0.1
	c0.5-0.1,0.8,0.2,1.3,0.2c0.5,0.1,1.2-0.2,1.8-0.2c0.3,0,0.9,0.2,1.1,0.4c0.4,0.3,0.4,0.9,1.1,1c0.7,0,1.2,0.1,1.9,0.1
	c0.6,0,0.8,0,1.2,0.4c0.7,0.7,1.1-0.9,1.9-0.1c0.7,0.7,0.7,0.6,1.7,0.5c0.5-0.1,0.7,0.3,1.1,0.3c0.7-0.1,0.6-0.9,1.3-0.9
	c0.3,0,0.6,0.3,0.8,0.1c0.4-0.2,0.7-0.4,1.1-0.6c0.4-0.1,0.9-0.6,1.4-0.4c0.3,0.1,0.4,0.4,0.8,0.3c0.6-0.2,0.9-0.9,1,0.3
	c0.1,1.2-0.4,2.5,1.4,2.4c0.7,0,1.6,0.6,1.9,1.2c0.5,0.9,0.2,0.9,0.2,1.9c0,0.6,0.9,1.1,1.2,0.4c0.7-1.5,1.6,1.3,2.7,0.4
	c0.4-0.3-0.2-2.6,1-1.6c1.7,1.5,1.3-1.8,2.3-2.2c0.7-0.2,1,0.8,1.3,1.1c0.6,0.6,2.1,0.3,2.9,0.3c0.7,0,2-0.8,2.5,0
	c0.2,0.4,0.6,0.8,0.8,1.2c0.2,0.6-0.2,1.4,0.6,1.7c0.4,0.1,0.7,0.1,1,0.3c0.4,0.3,0.4,0.7,1,0.8c1,0.1,1.2,0.4,1.6,1.2
	c0.1,0.3,0.1,0.6,0.4,0.8c0.5,0.5,0.9,0.1,1-0.4c0.1-0.5,0.2-1,0.7-1.1c1.3-0.4,1.1,1.6,1.2,2.5c0.9,0.6,1.1,1.4,2.1,2
	c0.7,0.4,1,0.8,1.4,1.4c0.4,0.6,0.5-0.6,0.5-0.8c0-0.8,0.8-1.2,1.4-1.5c0.4-0.2,0.6,0.2,1-0.3c0.3-0.3,0.2-0.2,0.2-0.6
	c0.3-0.1,1.1-0.7,0.9-1c-0.3-0.5,1.3-0.7,0.3-1.4c-0.9-0.6-2.7-1-3.3-1.7c0.1-0.3-0.3-1-0.4-1.4c-0.1-0.4-0.2-0.3-0.5-0.4
	c-1.2-0.1-3-2.6-4.1-2.4c-0.9,0.2-1-0.5-1.3-1.2c-0.2-0.7-1-1.3-1.7-1.6c-0.8,0.4-0.9-0.3-1.1-0.9c-0.2-0.4-0.3-1-0.5-1.3
	c-0.3-0.5-0.7-1.2-0.5-1.8c0.3-0.9,0.2-1.5,0.2-2.4c0.2-0.7,0.4-1.7,0.5-2.4c0.1-0.5,0-0.7-0.3-1.1c-0.5-0.6,0-1.4-0.2-2
	c-0.2-0.7-0.2-1.3-0.3-1.9c-0.3-0.6-0.5-0.6-1.1-0.4c-0.2,0.1-0.8,0.3-0.7-0.1c0.2-0.7,0.2-1.4,0.5-2.1c0.2-0.5,0.9-2.7-0.3-2.4
	c-0.4,0.1-0.9,0.1-1.1-0.4c-0.1-0.3,0.3-0.5,0.4-0.8c0.1-0.3,0-0.5-0.1-0.8c-0.1-0.6-0.5-1.4-0.4-1.9c0.3-0.3,1.2-0.5,1.2-1
	c0-0.4-0.3-0.7-0.4-1.1c-0.2-0.6-0.4-1.6-0.2-2.1c0.1-0.3,0.4-0.4,0.5-0.7c0.2-0.4,0.2-0.8,0.3-1.1c0.7-0.3,2.1-1.5,2.4-0.2
	c0.2,0.7,1-0.7,1.1,0.4c0.1,0.7,0.3,0.5,0.7,0.6c0.5,0.2,0.5,0.6,0.9,0.9c0.4,0.2-0.4,1,0.3,1.2c0.1,0,0.8,0,0.7,0.2
	c-0.1,0.4-0.6,0.5-0.4,1c0.1,0.4-0.1,1,0.2,1.2c0.3,0.3,0.7,0.2,0.8-0.2c0.2-0.6,1-0.2,1.1-1c0.1-0.7,0.7-0.4,0.7-0.8
	c0.1-0.4-0.2-0.6,0.2-0.9c0.3-0.2,0.7-0.3,1-0.5c0.4-0.3,0.1-0.8,0.7-0.9c0.7-0.1,0.2-0.7,0.4-1.2c0.4-0.2,1-0.2,1.4-0.5
	c0.2-0.1,0.3-0.2,0.3-0.4c0-0.2,0.2-0.4,0.3-0.6l0.5-0.5l0,0c0.2-0.4,0.1-0.7,0.6-0.6c0.4-0.5,0.2-0.7,0.9-1
	c0.5-0.3,0.2-0.6,0.9-0.7c0.7-0.1,1-1.3,1.8-1.5c0.6-0.1,1.7,0.1,0.9-0.7c-0.3-0.4,0.2-0.7,0.2-1.2c0-0.2-0.4-0.7,0-0.7
	c0.1,0,1.4,0.5,0.8-0.2c-0.4-0.5-0.1-1.1-0.1-1.6c0.4-0.5,1-0.5,0.9-1.2c-0.1-0.4-0.2-1.5,0.5-1.1c0.4,0.2,0.8,0.3,1.1-0.1
	c0.7-0.8,1.4-0.5,2-1.3c0.5-0.7,0.7,0.1,1.2-0.1c0.3-0.2,0.3-0.5,0.4-0.8c0.1-0.2,0.4-0.4,0.6-0.4c0.3,0,0.6-0.6,0.9-0.8
	c0.5-0.3,1.1-0.5,1.8-0.6c0.8-0.3,0.8-2.2,0.9-3c0-0.3,0-0.8,0.1-1c0.3-0.4,0.7-0.1,0.9-0.4c0.1-0.2-0.1-0.9,0.2-1.3
	c0.6-0.8-0.1-2,1.4-1.8c0.3,0,1.1-0.2,1.3-0.5c0.1-0.2-0.8-0.4-1-0.5l-0.6-0.6c-0.3-0.3,0.1-1.7,0.3-2.1c0.6-1,5.3-4.1,4-5.6
	c-0.1-0.8-0.2-1,0.2-1.7c0.1-0.2,0.3-0.5,0.3-0.7c0-0.3-0.3-0.1-0.4-0.3v0c0.2-0.1,0.7-0.4,0.4-0.6c-0.2-0.2-0.5-0.2-0.6-0.4
	c-0.1-0.2,0.5-1.4,0.8-1.4c0.3-0.1,0.9-0.2,0.8-0.6c0-0.3-0.2-0.5,0-0.7c0.4-0.5,0.5-0.7,0-1c-0.5-0.3-0.3-0.8-0.3-1.3
	c1-0.4,0.9-1.4,1.2-2.3c0.3-1.2,3.6-1,4.5-1c0.7-0.1,1.8-0.8,2.2-1.4l0.7-1c0.2-0.3,0.4-0.3,0.7-0.5c0.3-0.5-0.9-1.3-1.1-1.8
	c-0.3-0.8,0.5-1,0.5-1.5c-1.5-1.5,1.5-1.1,2-1.4c0-0.3-1-0.5-1.3-0.5c-0.8,0-0.5-1-0.6-1.6c0-0.3,0-0.6,0-0.9c0-0.2-0.1-0.3-0.2-0.4
	c-0.3-0.2-0.2-0.5-0.4-0.8c-0.5-0.3-0.9-1.2-1.4-1.2c-0.2,0.2-0.5,0.2-0.8,0.2c-0.4,0-0.1-1.2-0.2-1.5c-0.1-0.4-0.4-0.6-0.5-1.1
	c-0.2-0.8-0.6-1.5-0.8-2.3c-0.3-1-0.2-1.1,0.2-2c0.6-1.2-0.6-1.4-0.6-2.3c0.1-0.1,0.3-0.3,0.3-0.5c-0.4-0.4-1.2-0.5-0.9-1.2
	c0.4-1.4,0-1.5,1.6-2c0.6-0.2,0.8-2,1.6-1.3c0,0.2-0.5,0.5-0.3,0.8c0.2,0.2,0.5,0.1,0.7,0.1c0.6,0,1.1,0.7,1.6,0.4
	c0.3-0.2,0.8,0.1,0.9-0.2c0.3-0.5,0-0.9,0.9-0.7c0.8,0.2,0.9-0.3,1.1-1c0.4-0.4,0.4-0.6,1.1-0.6c0.7,0,0.7-0.5,0.5-1
	c-0.2-0.7-0.1-0.5,0.1-1.1c0.1-0.2-0.3-0.6-0.4-0.8c-0.2-0.6,0.8-0.9,0.5-1.4c-0.4-0.7-0.5-1.3-0.2-2.1c0.2-0.8-0.3-1.1,0.2-1.9
	c0.8-1.3,0.4-2.7,2.4-2.3c1,0.2,1.3-0.7,2.3-0.3c0.2,0.1,1.3,0.6,1.5,0.2c0.2-0.5-0.4-0.5-0.7-0.6c-0.8-0.2-1.2-1.1-2-1.3
	c-0.8-0.3-1.2-1.3-1.4-2.1c-0.1-0.4-0.2-0.6-0.5-0.8c-0.7-0.5-0.6-0.5-0.6-1.4c0-1-0.1-1.8,0.1-2.8c0.1-0.5-0.1-0.6-0.2-1.1
	c-0.1-0.6,0.3-1.2,0.4-1.8c0.1-0.4,0.3-1.3-0.2-1.4c-0.4-0.1-2.4,0.9-2.2-0.2c0.1-0.4,0.6-0.7,1-0.9c0.3-0.1,0.3-0.2,0.5-0.5
	c0.1-0.3,0.3-0.4,0.5-0.7l0.5-0.3l0,0c-0.7-0.1-1,0-1.3-0.7c-0.4-1-0.9-0.7-1.7-1.1c-0.3-0.1,0-0.8-0.1-1c0-0.5-0.9-0.3-1.2-0.2
	c-0.8,0.4-0.3-0.6-0.3-0.8c-0.1-0.7-1.2,0.7-1.3,0.8c-0.2,0.1-0.3-0.1-0.5-0.3l0.1-4.5c-0.3-0.5-2.9-0.4-2.7-1.3
	c0.4-0.2,0.7-0.2,1.2-0.5c0.7-0.4,1.4-1.1,1.9-1.7c0.3-0.4,0.3-1,0.5-1.2c0.3-0.3,0.5-0.2,0.6-0.6c0.1-0.5,0.4-0.9-0.1-1.3
	c-0.5-0.4-0.9-1-1.3-1.4c-0.4-0.2-0.5-0.5-1-0.5c-0.4,0-0.5-0.3-0.8-0.5c-0.6-0.4-1.5-0.8-2-1.3c-0.3-0.3-0.5-0.9-0.8-1.2
	c-0.5-0.4-1.5-0.5-2.2-0.7c-0.5-0.1-0.7-0.5-1.2-0.6c-0.5-0.1-0.9-0.4-1.4-0.6c-0.5-0.2-1-0.5-1.5-0.7c-0.3-0.1-0.5-0.3-0.8-0.4
	c-0.2,0.3,0,0.7-0.2,0.9l0,0c0,0.5,0.2,1,0.4,1.4c0.1,0.2,0.2,0.3,0.3,0.4c0.2,0.1,0.4,0.1,0.6,0.2c0.1,0.4,0.4,0.8,0.4,1.2
	c0,0.5-0.6,0.7-0.9,0.9c-0.2,0.1-0.3,0.3-0.3,0.5c0,0.4-0.3,0.7-0.5,0.9c-0.4,0.5-0.9,1.7-0.1,2c0.3,0.1,0.4,1,0.1,1.2
	c-0.1,0.1-0.4,0.2-0.5,0.3c-0.2,0.2,0,0.2,0,0.4c0,0.3-0.7,0.3-0.5,0.8c0.2,0.5-0.2,1-0.5,1.4c-0.1,0.2-0.2,0.4-0.1,0.6
	c0.1,0.4-0.2,0.5-0.4,0.8c-0.4,0.4-0.8,0.8-1.2,1.1c-0.4,0.2-0.3,0.6-0.1,0.9c0.8,0.9-0.2,0.9-0.7,1.3c-0.2,0.2,0.2,0.8,0.3,0.9
	c0.3,0.4,0.7,0.8,1.2,1.1c0.4,0.2,1.9,0.8,1.6,1.4c0,0.2-0.2,0.3-0.1,0.5c0.1,0.9,0.3,1.7,0.5,2.6c0,0.2,0.2,0.5,0.1,0.7
	c-0.1,0.3-0.3,0.2-0.4,0c-0.1-0.2-0.2-0.9-0.4-0.7c-0.4,0.4-0.7,0.1-0.5,0.8c0.1,0.4,0.6,1.4,0.5,1.8c-0.1,0.3-1.1,0.2-1.4,0.1
	c-0.3,0.1-0.8,0.3-1.1,0.3c-0.4,0-0.5-0.4-1-0.2c-0.8,0.3-1.2,0.1-1.9,0.3c-0.4,0.1-0.9,0.3-1.2,0.2c-0.5-0.1-0.5-0.6-1-0.5
	c-0.6,0.1-0.7,0.9-1.1,1.3c-0.5,0.6-1.9,0.8-2.2,1.3c-0.2,0.4,0,1.3-0.8,1.3c-0.3,0.2-0.4,0.3-0.6,0.7c-0.1,0.3-0.2,0.5-0.2,0.9
	c0,0.1,0,0.4-0.1,0.5c-0.1,0.1-0.4-0.2-0.5-0.2c-0.3-0.1-0.6,0.1-0.5-0.4c0-0.2,0-0.4,0.1-0.6c0.3-0.6,0.9-1.2,0.6-1.9
	c-0.3-0.6,0.4-1.5-0.5-1.5c-0.3,0-1-0.1-0.4,0.3c0.5,0.4-0.6,0.8-0.9,0.9c-1,0.4-1.3-0.6-2.1-0.2c-0.2,0.1-1.4,0.7-1.5,0.2
	c0-0.2,0.2-0.9,0.4-1.1c0.6-0.4,1.3,0,1.7-0.3c0.2-0.1,1-1.5,0.4-1.4c-0.5,0.1-1-0.1-1.5-0.1c-1.3,0-2,0.1-2.5,1.5
	c-0.1,0.3-0.3,1.1-0.6,1.4c-0.4,0.3-1.6,0.1-2,0.1c-1.2-0.1-0.8-0.9-2.1-0.2c-0.6,0.2-0.6,0.6-1,0.9c-0.4,0.3-0.9,0.4-1.4,0.4
	c-1.2,0-2.1,0.5-2.9,1.3c-0.4,0.4-0.6,0.9-1.1,1.4c-0.8,0.8-0.4-0.5-1.3-0.3c-0.5,0.1-0.2,0.5-0.8,0.1c-0.4-0.2-0.6-0.4-0.7-0.9
	c-0.2-0.6,0-0.6-0.3-1.2c-0.4-0.8,0.3-1.4-0.9-1.6c-0.4-0.1-0.7-0.3-1-0.5c-0.2-0.2-0.5-0.5-0.7-0.7c0-0.1-0.1-0.4-0.2-0.4
	c-0.2,0-0.4,0.3-0.6,0.4c-0.3,0.3,0,0.7,0,1.1c0,0.2,0,0.5-0.1,0.7c-0.2,0.4,0,1.7-0.8,1.6l-0.8-0.1c-0.1-0.3-0.2-0.5-0.3-0.8
	l-0.1-0.3c-0.2-0.3-0.8-0.2-1.1-0.1c-0.3,0.1-0.7,0.4-1,0.4c-0.3-0.1-0.3-0.2-0.5-0.4c-0.2-0.2-0.5-0.5-0.7-0.7
	c-0.7-0.3-0.6-0.6-1.4-0.3c-0.3,0.1-1.1,0.5-1.4,0.4c-0.4-0.2-0.4-0.5-0.9-0.6c-0.1,0.4-0.4,1-0.4,1.4c0,0.4,0.3,1.1-0.2,1.2
	c-0.3,0.1-0.6,0-0.9,0.2c-0.7,0.2-0.8,0.1-1.1-0.6c-0.2-0.5-0.2-1-0.4-1.5c-0.2-0.1-0.4-0.1-0.7-0.1c-0.2,0-0.6,0.3-0.8,0.2
	c-0.2-0.1-0.2-1.2-0.2-1.4c0.3-0.3,1-0.6,1.4-0.8c0.9-0.5,0.1-1.1,0.1-1.7c0.1-0.6,0.8-0.4,1.1-0.5c0.6-0.3-0.5-0.9-0.7-1.1
	c-0.2-0.2-0.1-0.6-0.4-0.6c-0.4,0-1,0.1-1.3,0c-0.4-0.1-0.1-0.7-0.8-0.7c-0.2-0.3-0.3-0.6-0.4-0.9c0.1-0.9,2.1-1.5,2.1-2
	c-0.4-0.3-0.8-0.5-1.2-0.9c-0.3-0.3-1-1-1.3-1c-0.4-0.1-0.8,0-1.2,0c-0.5,0-0.8-0.4-1.2-0.4c-0.7,0.1-1.5,0.4-2.3,0.6
	c-0.4,0.1-0.8,0.2-1.1,0.3c-0.4,0.2-0.6,0.5-1,0.5c-1,0-1.1,0.4-1.9,0.9c-1.2,0.9-1.3-1.1-2-1.7c-0.2-0.2-0.6-0.2-0.9-0.4
	c-0.3-0.1-0.5-0.7-0.7-0.7c-0.4,0.4,0.2,1.1,0.1,1.6c0,0.6,0.2,0.8-0.2,1.3c-0.2,0.2-1.4,0.5-1.4,0.6c0.6,0.8,1.9,0.8,2.5,1.4
	c0.2,0.3-1.1,0.8-1.3,1c-0.5,0.5-0.5,0.3-1,0.1c-0.6-0.2-1,0.3-1.2,0.9c0,0.2,0,0.8-0.2,0.7l-1.5-0.6c-0.5-0.2-0.3-1-1-1.3
	c-0.6-0.2-1.1,1.1-1.4,0.4c-0.4-0.9-1.6-0.3-2.4-0.3c-0.6,0-0.6-0.6-1.2-0.8c-0.8,0.2-1.6,0.2-2.3,0.6c-0.6,0.3-1.4-0.4-2-0.4
	c-0.4,0-1,0.4-1.4,0.2c-0.6-0.2-0.4-0.3-1.1,0c-1.3,0.6-0.6,0-1.4-0.4c-0.4-0.2-0.1-0.6,0.1-0.8c0.2-0.3,0.4-0.4,0.4-0.9
	c0-0.3-0.1-0.6-0.1-0.9c0-0.4,0.8-1.3,0-1.2c-0.7,0.1-0.5,0.2-0.6-0.5l-0.3-1.6c-0.1-0.8-0.6-1.6,0.6-1.5c0.8,0.1,0.8,0.1,0.7-0.7
	c0-0.2-0.1-0.7-0.3-0.8c-0.3-0.2-0.7,0.1-0.9-0.1c-0.4-0.3-0.9-1.3-1.2-1.7c-0.2-0.3-0.1-1-0.1-1.4c0-0.4,0.1-1.7,0-1.9v0
	c0,0,0,0,0,0l0,0c0.5,0,1.4-0.3,1.7-0.1c0.7,0.3,1.4,0.5,2.1,0.6c0.2,0,0.3,0.2,0.5,0.2c0.3,0.1,0.4-1.1,0.5-1.3
	c0.4-0.9,1.1-3.3-0.5-3.4l-2-0.2c-1.1-0.1-0.7-0.9-1.5-1.2c-0.3-0.1-0.7-0.2-0.8-0.6c-0.2-0.6-0.5-0.4-1-0.4c-0.7,0-0.5,0.2-0.6,0.8
	c-0.1,0.6-0.8-0.1-1.2-0.2c-0.5-0.1-0.1-0.4-0.3-0.6c-0.1-0.1-0.2-0.1-0.2-0.3c0-0.6,0.2-0.7,0.7-0.9c0.5-0.2,0.2-0.5,0.3-0.8
	c0.1-0.1,0.4-0.4,0.3-0.5c-0.1-0.2-0.9,0-1.2-0.2c-0.4-0.3,0.3-0.9,0-1.3c-0.2-0.2-0.5-0.6-0.7-0.7c-0.2,0-0.4,0-0.7-0.1
	c-1-0.3-1.3,1.7-1.9,1.3c-0.3-0.2,0-1.3-0.9-0.7c-1.3,0.9-0.3-0.9-1.3-0.7c-0.3,0-1,0.8-1.2,0.5c-0.5-0.7-0.7-0.3-1.2,0
	c-0.6,0.4-0.4,1.5-1,0.4c-0.6-1-0.9,0.5-1,0.8c-0.1,0.6-0.4,0.3-0.8,0.3c-0.8,0,0,1-0.6,1c-0.7,0-0.5-1.4-1.6-1
	c-0.7,0.2-0.4,0.8-0.6,1.3c-0.2,0.5-0.9,0.1-0.4,1.1c0.1,0.3,1.1,1,0.3,1.3c-0.5,0.2-1.2-0.7-1.4,0.4c-0.1,0.4-0.5,0.7-0.5,0.7
	c0,0.3,0.4,0.6,0.4,0.9c0,0.4-0.8,0.2-1.1,0.2c-0.5,0.1-0.6,0.7-0.7,1.1c-0.2,0.5,0.3,1.4-0.5,1.3c-0.5,0-0.8-1-1.1-0.7
	c-0.1,0.1-0.3,1.1-0.3,1.3c0.1,0.8,0.1,1.4-1,1.1c-0.9-0.3-0.1-1.4-1.4-1.1c-0.5,0.1-0.5-0.5-0.8-0.6c-0.4-0.3-0.8,0.6-1.1,0.8
	c-0.2,0.1-0.5-0.1-0.8,0c-0.9,0.4-0.8-0.4-1.6-0.4c-0.2,0-0.7,0.2-0.8-0.1c-0.4-0.8-0.6-1.1-1.4-0.2c-0.4,0.4-0.4-0.2-0.9,0
	c-0.4,0.2-0.4,0.6-0.9,0.4c-0.4-0.1-0.6-0.8-0.8-1.1c-0.6-1.1-1.6,0.8-2.1,0.8c-0.2,0-0.5-0.3-0.7,0c-0.3,0.4-0.2,0.6-0.8,0.8
	c-0.7,0.2-0.1,0.7-0.5,1c-0.7,0.4-0.3-1-0.9-1.2c-0.4-0.1-0.9,0-1.2,0.3c-0.2,0.3-1,0.5-0.8-0.1c0.1-0.4,0.8-0.5,0.7-0.9
	c-0.1-0.7-1.1,0-1.3,0c-0.3,0,0.1-0.7,0.1-0.8c0.1-0.6-1.1,0-1.1-0.9c0-0.7,0.6-0.9-0.1-1.4c-0.4-0.3-0.9-1.1-0.7-1.7
	c0.1-0.3,1-1,0.9-1.1c-0.2-0.2-0.9-0.2-0.4-0.6c0.5-0.4,0.6-0.5,0.2-1c-0.3-0.3-0.5-0.3-0.9-0.1c-0.4,0.2-0.5-0.2-0.3-0.5
	c0.2-0.3,0.6-0.4,0.3-0.7c-0.2-0.2-1-0.4-0.3-0.8c0.4-0.2,0.8-0.4,0.8-0.9c0-1.1-1.7,0.2-1.7-1c0-1-1.3-0.8-1.9-0.6
	c-0.2,0.1-0.4,0.3-0.7,0.3c-0.4,0-0.7-0.1-1.1,0.1c-0.7,0.3-1.4,0.4-1-0.6c0.2-0.6,1.3-2.1,1-2.7c-0.5-0.7-0.6,0.7-0.8,0.9
	c-0.9,0.7-1.9,0.2-3,0.5C407,194.3,406.6,193,405.4,193L405.4,193L405.4,193z"/>
</svg>
