<?xml version="1.0" encoding="utf-8"?>
<!-- Generator: Adobe Illustrator 18.0.0, SVG Export Plug-In . SVG Version: 6.00 Build 0)  -->
<!DOCTYPE svg PUBLIC "-//W3C//DTD SVG 1.1//EN" "http://www.w3.org/Graphics/SVG/1.1/DTD/svg11.dtd">
<svg version="1.1" id="Capa_1" xmlns="http://www.w3.org/2000/svg" xmlns:xlink="http://www.w3.org/1999/xlink" x="0px" y="0px"
	 viewBox="147.6 270.9 300 300" enable-background="new 147.6 270.9 300 300" xml:space="preserve">
<g>
	<path fill="#FFFFFF" stroke="#009BFF" stroke-width="2" d="M261,454.6c-0.4,0.1-0.8,0.2-1.2,0.2c-0.2,0-0.4,0-0.5,0
		c-0.2,0-0.2,0.1-0.3,0.1c0,0.2-0.1,0.4,0,0.7c0,0.1,0.1,0.2,0.1,0.3c0.1,0.4,0,0.8,0.2,1.2c0.1,0.2,0.6,0.2,0.8,0.3
		c0.2,0.1,0.5,0,0.8,0c0.4,0,0.5-0.3,0.7-0.6c0.1-0.2,0-0.9,0.2-0.9c0,0,0,0,0,0c0-0.4,0.1-0.6-0.1-0.9L261,454.6z"/>
	<path fill="#FFFFFF" stroke="#009BFF" stroke-width="2" d="M178.1,309.4c-0.4,0.1-1,0-1.4,0c-0.2,0-1-0.2-0.5,0.3
		c0.2,0.2,0.6,0.3,0.9,0.4c0.2,0.1,0.3,0.2,0.5,0.3c0.2,0.1,0.7,0.3,1,0.2c0.2-0.1,0.4-0.5,0.3-0.7
		C178.7,309.8,178.1,309.4,178.1,309.4z"/>
	<path fill="#FFFFFF" stroke="#009BFF" stroke-width="2" d="M275.3,444c0.3-0.6,1-2.6,0.9-3.1c-0.4-1.4-1.2-2.7-1.9-4
		c-0.4-0.7-1.3-1.4-1.3-2.2c0-0.6,0.6-1.8,0.4-2.3c-0.6-1.5-2.8-1.6-4.2-1.1c-0.8,0.3-1.5,1.8-2.4,1.4c-1-0.3-1.7-0.9-2,0.7
		c-0.2,1.1-0.3,2.3-0.7,3.3c-0.5,1.2-0.2,2.4-0.5,3.6c-0.1,0.5-0.3,1.5,0.3,1.8c-0.3,0.4,0.3,1.2,0.3,1.6c0,1-2.8,3.3-3.8,3.5
		c-0.1,0.8,1.1,0.3,1.6,0.9c0.9,0.9,1.9,1.5,2.8,2.1c0.4,0.3,0.4,0.7,1,0.8c1.2,0.2,1.7,0.1,2.6,1c0.4,0.4,0.9,0.7,1.3,1.1
		c0.2,0.2,0.8-0.1,1.2,0.1c1,0.4,0.5,0.7,1.5,0.1c0.6-0.4,1.2-0.4,1.8-0.6v0c-1.3-0.3-0.7-0.6-0.9-1.6c-0.1-0.7,0.8-2.7,1.1-2.9
		c0.8-0.6,0.1-1,0.2-1.6c0.1-0.8,0.7-1,0.7-2.1L275.3,444L275.3,444z"/>
	<path fill="#FFFFFF" stroke="#009BFF" stroke-width="2" d="M272.5,455.3c-0.1-0.2-0.2-0.4-0.3-0.5c0,0-0.1-0.2-0.1-0.2
		c0,0-0.1,0-0.1,0c0,0.1-0.1,0.2,0,0.3c0,0.1,0.1,0.1,0.2,0.2c0,0,0.1,0.1,0.1,0.2c0,0.1,0,0.2,0,0.3c0,0.1,0.2,0.2,0.3,0.2V455.3
		L272.5,455.3z"/>
	<path fill="#FFFFFF" stroke="#009BFF" stroke-width="2" d="M310.5,491.3c-0.1,0-0.2-0.2-0.2-0.3c-0.1-0.2-0.3-0.4-0.3-0.6
		c0-0.2,0-0.4,0.2-0.4c0.2,0,0.4,0.5,0.5,0.7c0,0.2,0.4,0.6,0.2,0.7L310.5,491.3z"/>
	<path fill="#FFFFFF" stroke="#009BFF" stroke-width="2" d="M344.9,522.4c-0.4,0.1-1.6-0.7-1.6-1.1c0.1-0.6,0-1.2,0.1-1.7
		c0.2,0,0.7,1,0.7,1.2c0,0.4,0,0.8,0.3,1c0.4,0.2,1.4,0.2,1.7,0.5c0.1,0.1,0,0.4,0.1,0.5c0.1,0.4-0.5,0.1-0.6-0.1L344.9,522.4z"/>
	<path fill="#FFFFFF" stroke="#009BFF" stroke-width="2" d="M406.2,568.4c-0.4-0.2-0.8-0.4-0.2-0.8c0.4-0.3-0.5-0.3-0.6-0.4
		c-0.1-0.1,0.9-0.8,0.1-0.6c-1.2,0.2-0.4-0.5-0.8-1.1c-0.1-0.2-0.4-0.4-0.5-0.6h-0.1c0,0.5,0.7,1.7-0.3,1.1
		c-0.3-0.2-1.5-2.1-1.8-1.3c-0.1,0.2-1,4.6-0.9,2.2c0-0.6,0.3-1.5,0.5-2.1c0.3-0.9-0.1-1.9-0.1-2.8c0-1.2-0.4-0.5-0.6-1.1
		c-1-2.1-1.5-4.3-3.7-5.7c-0.9-0.5-0.9-1.1-1.4-1.9c-0.6-0.8-1.8-1.1-2.5-1.8c-0.8-0.5,0.8-1.5-0.7-1.8c-1.8-0.4-1.3,0-1.3-1.5
		c-0.4,0-0.7,0.7-1,0.4c-0.2-0.2-0.3-1-0.8-0.7c-0.5,0.4-1.5,1.1-1.1,1.8c0.3,0.6,1.6,0.5,1.6,0.5c-0.3,0.2-0.7,0.1-1,0.2
		c-0.7,0.3,2.2,1.2,1,1.1c-0.6-0.1-1-0.5-1.6-0.5c-1-0.1-4.1-0.8-4.5,0.3c-0.2,0.5-2.2-0.3-2.7-0.4c-2.7-0.8-4.6-3.1-5.9-5.5
		c-0.6-1.2-0.4-2.7-1.3-3.8c0.1,0,0.1,0,0.1,0c-0.8-1.9-0.5-2.9-0.9-4.8c-0.4-2.1-0.1-2.8-1.8-4.5c-0.3-0.3-2.3-1.7-2.6-1.6
		c-0.4,0.1-2.2,1.1-2.2,1.5c-0.3,0-1.8-1-2.4-1.1l-4.1-0.9c-2-0.4-4.2-0.9-5.4-2.5c-0.5-0.5-1.2-0.8-1.6-1.4
		c-0.3-0.4-0.6-1.1-1.1-1.4c-1-0.7-1.9-1.8-3.2-2.1c-0.1,0-2.2,0-2-0.5c0.1-0.3,0.5-0.2,0.7-0.4c0.1-0.1,0-0.3,0.1-0.3
		c0.2,0.6,1.7,0.6,1-0.1c-0.7-0.7,0.4-1.2,0.3-1.8c-0.1-0.3-0.9-1-1.1-1.3c-0.5-0.5-1.9,0.9-1.8,0c0-0.3,0.7-0.6,0.8-0.9
		c-0.4,0-0.9,0-1.3-0.1c0-0.4,0-0.9-0.2-1.2c-0.4-0.7-0.7-0.1-1.3-0.1l-0.1-0.9c-0.2-0.9,0.3-2,0-2.8c-0.3-0.8,0.8-1.2-0.3-1.6
		c-0.1-0.1,0-0.8-0.3-1.1c-0.5-0.4,0.1-1.5-0.3-1.4c-0.6,0.1-0.4,0-0.5-0.6c-0.1-0.5,0-1.1,0-1.5c0-0.7,0.1-0.4,0.6-0.7
		c0.3-0.2,0.3-0.5,0.6-0.5l1.1,0c-0.1-0.3-0.1-0.6-0.1-1c0-0.2-0.9,0-1.2-0.2c0-0.6,0.3-1.8,1.1-1.6c1.1,0.3,0.7-1,0.3-0.7
		c-0.6,0.4-0.8,0.7-1.1-0.1c-0.2-0.5-1.3-0.8-1-1.2c0.7-1,1.2-0.7,0.5-2c-0.3-0.5,0.8-0.3,0.9-0.8c0.2-1.2,1,0.2,1.4-0.4
		c0.4-0.5,0.3-0.2,0.8-0.3c0.2-0.1,0.4-0.3,0.4-0.5c0-0.4-0.2-0.1-0.6-0.2c-0.5,0-1.5-1-2.1-1.3c-0.8-0.2-2.5,0.6-2.5-0.5
		c0-0.6-0.7,0-1,0.1c-0.3,0.1-1-0.2-1.3-0.3c-1.3-0.6-2.9-0.8-4.3-1.1c-0.2-0.2-2.1-3.1-2.3-2.5c-0.1,0.2,0.2,2.6-0.1,2.6
		c0-0.8-1.1,0-1.3,0.4c-0.4,0.9,0.7,0.6,0.7,0.8c0,0.5-0.2,3-0.9,1.7c-0.5-0.8-1-0.3-1.4-0.9c-0.4-0.6-0.6,0.4-0.8,0.4
		c-0.2,0-0.1-0.3-0.1-0.4c0.1-0.6-0.3-0.6-0.6-1.1c-0.2-0.3,1-0.2,1-0.6c0-1.3-1.1,0.1-1.4-0.8c-0.9-2.9-3.9,0.4-4.5-0.6
		c-0.5-1-2-1.9-3-2.2c-0.9-0.2-0.9-0.8-1.4-1.4c-1.1-1.2-2.2-1.5-3.3-2.6c-1.3-0.9-1.3-3.2-2.5-3.9c-0.5-0.3-0.7-0.8-0.5-1.3
		c0.1-0.3-0.4-1.4-0.6-1.6c-0.2-0.2-1-0.2-1.1-0.3c-0.1-0.2,0.1-0.6-0.1-0.9c-0.3-0.5-0.5-0.2-0.5-0.9c0-0.8-0.7-0.5-1.2-0.9
		l-1.7-1.6c-0.1-0.1,0-0.7-0.1-0.9c-0.2-0.5-0.5-1-0.7-1.5c-0.8-1.6-2.5-1.7-4.1-2.3c-1.6-0.6-3-1.6-4.6-2c-1.6-0.4-0.7-0.4-1.3-1.6
		c-0.2-0.5-0.5-0.9-0.7-1.3c-0.5-1.3-1-2.7-1.2-4c-0.2-1-3.2-1.8-4-2.8c-0.4-0.6-1.3-1.5-1.9-1.8c-1-0.6-1.1-0.3-0.7-1.4
		c0.1-0.4-0.6-0.8-0.9-1c-0.7-0.5-0.8-0.7,0.2-0.7c0.9,0,0.8-0.1,1.3-1c0.3-0.6,0.4,2.2,1.5,1.7c0.6-0.3,1,0.4,1.1-0.3
		c0-0.6-0.1-0.8,0.1-1.4c0.3-1.1-0.2-0.5-0.9-0.4c-0.4,0-0.2-0.4-0.3-0.6c-0.7,0-0.6-0.5-1.1-0.5c-0.1,0.2,0.2,1-0.1,1.1
		c-0.3,0.1-0.6-0.6-0.7-0.8c-0.3-0.5-0.8,0.2-1.5-0.4c-0.6-0.4-1.2-0.7-1.8-1.1c-0.9-0.7-1.3-0.4-1.9-1.5c-0.1-0.2-0.7-0.3-0.7-0.5
		c0-0.2,0.2-0.3,0.2-0.5c0-0.3-1-0.8-1.3-0.9c-1.1-0.6-0.4-1.7-1.6-2c-0.4-0.1-2.1-0.2-2.3-0.5c-0.1-0.3,0.4-0.4,0.5-0.5
		c0.8-0.8-0.6-1.6-0.2-2.2c0.1-0.2-0.3-0.8-0.3-1.2c0-0.8,0.3-1-0.6-1.2c0-0.5,0.6-1.2,0.8-1.7c0-0.6-0.2-1-0.5-1.5
		c-0.2-0.3-1.1-0.4-0.9-0.7c1.1-1.7-1.7-0.3-1-1.6c0.2-0.5,0.3-1.1,0.5-1.6c1-2.6-1.6-6.6-4.6-5c-0.9,0.5-1.5,0.1-2.4-0.1
		c-1.9-0.5-1.2-4.6-0.1-5.4c0.5-1.4,0.1-2.2-1.1-3.1c-0.2-0.2-0.9-0.5-0.8-0.9c0.3-2.1-1.6-2-2.2-3.6c-0.2-0.3-0.9-0.4-0.9-0.8
		c0-0.3-0.1-0.6-0.3-0.9c-0.4-0.4-0.3-1-0.7-1.5c-0.2-0.3-0.4-0.5-0.4-0.8c-0.2-0.8-0.4-0.5-1-0.8c-0.7-0.3-0.7-1.3-0.9-1.9
		c-0.1-0.4-0.4-0.8-0.5-1.3c-0.1-0.7-1.4-2.7-2.2-2.8c0-0.4,0.2-0.8,0.2-1.3c0-0.5-0.5-0.9-0.6-1.4c-0.1-0.7-1.4-1.4-2.1-1.2
		c-0.7,0.3-1.2-0.2-1.2-0.8c0.6-0.4,0.4-5-0.2-5.6c-0.6-0.5-1-1.6-0.5-2.3c0.1-1.3,0.8-3.2,0.3-4.5c-0.2-0.6-1-2.9-1.6-3.2
		c-0.2-1.1-1.9-0.8-2.5-0.8l-0.1-0.1c0-0.9,0.7-1.6,0.7-2.7c-0.1-1.6-1.1-2.9-1.2-4.3c-0.5-1.1-1.7-2.4-2.5-3.3
		c-0.5-0.6-2.1-1.4-2.3-1.9c-0.8-2.2-2.2-4.1-3.3-6.2c-0.6-1.1-1.6-3.7-1.5-4.9c-0.2-0.9-0.4-1.9-1-2.6c-0.2-0.2,0.4-0.9,0.5-1.1
		c0.7-1.1,0.6-3.1,1-4.4c0.4-1.4-0.3-1.9-0.3-3.2c0-1.2-0.8-2-0.8-3.1c0,0,0,0,0.1-0.1c0.3,0,0.5,1.1,0.7,1.1c0,0.2,0.2,1.5,0.4,1.5
		c0.1-0.5,0.2-0.9,0.6-1.3c0.8-0.9,0-1.1,0.1-2c0-0.8,0.7-1.9,0.1-2.7c-0.7-0.8-1.2-0.4-1.2-1.9c-0.4,0-0.3,0.5-0.7,0.1l-1.3-1.2
		c-0.6-0.5-1.1-2.2-2.1-2.2h-1.7l-4.1-1l-5.8-1.5c-1.2-0.3-1.9,0.1-2.2-1.1c-0.8-0.7-1.3-0.9-2.4-0.9c-0.8,0-0.8-0.3-1.2-0.9
		c0.4-0.3,1.1,1,1.1-0.3c0-1.2-0.2-1.8-0.6-2.9c-0.3-0.9,0.2-1,0.1-1.7c-0.2-0.8-1-1.9-1.6-2.5c-1.2-1.2-3.1-1.3-4.2-2.4
		c-0.8-0.8-1.5-0.4-2.3-1l-1.2-0.8c-0.3-0.2-0.9,0.7-1,0c-0.1-0.2-1.5-1.9-1.7-1.9c0,0.6,0.7,1.8-0.3,1.4c-0.3-0.1-1.4-1.2-1.6-1.5
		c-0.3-0.7-0.4-0.1-0.4,0.3c0.1,1.2,0.7,3.2-0.3,4.2c-0.9,0.8-0.6,0.2-1.3,0.1c-0.1,0-0.1,0.4-0.2,0.5c-0.8,0.8,0.1,1-0.3,1.3
		c-1.1,1.2-6-0.3-7.2-1.2c-0.8-0.5-2.6-1.1-3.1-1.6c-0.4-0.4-0.7-0.8-1.3-1.1c-1-0.6-1-2.1-2.7-2.2l-4.2-2.8l-3.3-3.2
		c-1.2-1.1-1.9-1-3.5-1c-0.9,0-3.3-1.4-3.7-2.1c-0.6-0.9-0.8-1.5-1.9-1.1c-0.9,0.3-1.3-0.8-1.7-1.5c-0.5-0.9-1.7-0.9-2.6-1.1
		c-0.6-0.1-0.8-0.1-0.9,0l0,0c-0.4-0.4-0.9-0.8-1.2-1.3c-0.2-0.4-0.4-0.6-0.6-0.7l-0.3-1c-0.2-0.7-0.3-1.4-0.1-2
		c0.2-1.1,0.1-1-0.9-1.5c-0.5-0.2,0.5-0.8,0.6-0.9c0.2-0.2,0.4-0.4,0.5-0.6c0.6-0.9,0.1-1.1,0-2.1c0.4-1.1-0.4-1.7-0.6-2.6
		c-0.2-0.6,0.3-1.4,0-1.9c-0.3-0.5-0.7-0.7-0.8-1.4c-0.1-1.1-0.3-1.1-1-1.8c-0.2-0.2-0.2-0.9-0.3-1.2c0.2-0.3,0.3-0.5,0.5-0.8
		c0.3-0.5,2-1.8,1.9-2.1c-0.3-1.1-0.2-1.2,0.8-1.7c1.7-0.9-0.8-2.4,1.3-4c1.1-0.8-0.5-1.3,1.1-1.7c1.1-0.3,2.4-0.3,3.6-0.3l0,0
		l30.9,12.5l1.9-0.1l119.7,44.6l94.9-1.1l0,0l-1.8,3.2c-0.4,0.3-0.5,0.7-1.1,0.9c-0.4,0.2-2.3,0.5-2.3,0.9c0,0.3,0.4,0.5,0.7,0.5
		c0.5,0.1,0.5,0.7,1.2,0.7c0.7,0.1,0,1.1-0.1,1.5c-0.1,0.6,0,0.9,0.2,1.4c0.3,0.7,0.9,0.7,1.5,1c1.5,0.5,0.8,1.4,1.8,2.1
		c0.3,0.2,1.5,1.8,1.6,2.1c-0.9,0.7-3.3-0.4-3.3,1.3l-0.1,3.6c0,1.1,0,1.1-1.1,0.9c-0.8-0.1-3.2-0.1-3.8,0.3
		c-0.5,0.3-0.3,3.7-0.2,4.3c0.1,0.9-0.3,1.7-0.3,2.5c0,0.7,2.4,1.5,2.8,2.9c0.2,0.6-0.3,2.6,0,2.8l2.2,1.5c0.5,0.4,1.4,1,2.1,0.7
		c1.3-0.6,4.2,1.2,4.3,2.8c0.1,1-0.5,1.9,0.5,2.4c0.5,0.2,2.3,0,2.4,0.5c0.3,1.9-2.4,1.3-1.2,2.7c0.7,0.8-0.4,1.9,0.6,2.6
		c0.7,0.4,1.4,0.3,1.8,1.1c0.2,0.6,1.5,2.6,0.3,2.4c-2-0.4-1.9-0.2-2.3,1.7c0.1,0.5,0.4,0.9,0.6,1.4c0.1,0.5-0.2,1.6-0.1,2.4
		c0.2,1.5,0.3,3.1,0.3,4.5c0,1.9,0.2,3.1-0.3,5c0.1,1.9,0.2,3.8-0.2,5.7c-0.2,0.6,0.3,1.2,0.3,1.8c0.2,1.6,2.9,0.3,3.2,0.8
		c1.1,2.2-1,2.8-2.8,3.4c-0.8,0.3-1.9,0.1-1.2,1.3c0.4,0.6,1.2,1.8,0.3,2.2c-0.6,0.7,0,1.3-0.3,1.8c-0.4,0.6-1,0.5-0.4,1.2
		c0.7,0.8-0.6,1.7,0,2.6c0.3,0.6,1.4,1.3,0.3,1.6c-1.6,0.5-1.9,0.3-2.4,2.1c-0.4,1.7,0.8,3.6,1.2,5.3c0.8,2.1,0.5,2.9-1.6,3.4
		c-2.3,0.5-0.4,0.9-0.7,2.3c-0.4,2.1,1.6,2.5,1.6,4.5c0,0.8-1,0.9-0.7,1.8c0.3,0.8,0.3,2,0.3,2.9c0.4,0.9,0.8,1.8,0.7,2.7
		c-0.2,1.3-0.6,3.3,0.5,4.3c0.7,0.6,0.6,2.2,1.3,2.8c0.3,0.3,1.5,0.3,1.1,0.9c-0.6,0.8-0.1,1.9,0.7,2.5c1.2,0.8,2,0.6,1.6,2.6
		c0,1.4,0.7,2.6,1.1,3.9c0.3,1,0.8,1.9,1.1,2.9c0.2,1,0.4,1.1,0.9,1.8c0.5,0.7-0.4,1.7,0.1,2.6c0.3,0.4,0,0.8-0.1,1.3
		c-0.1,0.5,0.3,1,0.4,1.5c0.2,0.3,1,1.4,0.3,1.5c-0.4,0.1-0.5,0.8-0.9,1.1c-1.1,1-2.3-0.2-3.4-0.2c-1.3,0-0.2,2.8-1.9,2.3
		c-0.9-0.3-1.5-0.3-2.3,0.1c-1.1,0.7-1.5,1-2.9,1.2c-1.4,0.7-2.8,0.5-4.3,0.6l-2.4,0.2c-0.9,0.1-1-0.5-1.6-0.8
		c-0.1-0.1-0.1-0.1-0.2-0.2c-0.4-0.1-1.1,0.5-1.7,0.5c-0.4,0-1.5-0.3-1.8,0l0.1,5.7c0,2.2,0.1,4.7,1.4,6.5c1.1,0.9,0.5,1.3,2.1,1.6
		c1.6,0.4,2.5,1.8,2.6,3.4c0.1,2,0,1.9,1.8,2.9c0,0.1,0.1,0.1,0.1,0.1c0,0.1,0,0.1,0,0.1l-1.8,1.9c-0.3,0.4,0.4,1.2,0.7,1.6
		c0.7,1.2,2.7,0.1,3.7,1.1c1.1,1.1,1.7,1,2.2,2.6c1.2,1.1,0.5,2.6,1.6,3.9c0.9,1.1,1.1,1.6,2.5,2c1.1,0.4,0.7,2.8,0.7,3.7
		c0,1.4,1.4,3.2,1.8,4.7c0.3,0.7,0.5,1.4,0.9,2.1c0.4,0.6-0.2,0.9-0.6,1.3c-0.7,0.6-1,2-1.8,2.7c-0.6,0.6,0.6,3.3,1.2,3.9
		c0.7,0.7,1.2,0.8,1.4,1.8c0.2,0.9,0.2,1.9,0,2.7c0,0.4-0.1,0.7-0.1,1.1c0,0.9,1.1-0.1,1.3,0.8c0.1,0.4,0.1,0.9,0.4,1.2
		c0.1,0.1,0.6,0.2,0.8,0.3c0.4,0,0.6,0.4,1.1,0.4l1,0.2l0,0c0.5,0.1,1.1,0.4,1.5,0.4l0,0c0,0.3-0.4,0.4-0.5,0.7
		c-0.3,0.8-0.3,1.7-0.8,2.5c-0.2,0.4-0.6,0.8-0.8,1.2c-0.3,0.5-0.5,1-0.7,1.5c0.5,1.4-2.1,2.7-1.8,3.6c0.2,0.7-0.9,0.8-0.9,1.4
		c0,0.8-0.1,0.8-0.6,1.3c-0.4,0.3-0.2,1-0.4,1.4c-0.3,0.7-1.6,1.1-2,1.8c-0.4,0.7-0.1,1.4-0.4,2.2c-0.4,1.1-1.6,0.8-2.6,1.1
		l-4.4,1.4c-0.3,0.2-1.2,0.3-1.1,0.8c0.1,1-0.3,1-0.6,2c-0.3,0.8,1.6,0.2,1.6,0.8c0,0.4,0,1.2-0.4,1.6l-2.4,2.5
		c-0.7,0.7-1.7-0.2-2.6-0.2c-1,0-2.3,1.7-3.3,2.1c-1,0.4-0.8,0.4-1,1.3C408,567.8,406.8,568,406.2,568.4L406.2,568.4L406.2,568.4z"
		/>
</g>
</svg>
