<?xml version="1.0" encoding="utf-8"?>
<!-- Generator: Adobe Illustrator 18.0.0, SVG Export Plug-In . SVG Version: 6.00 Build 0)  -->
<!DOCTYPE svg PUBLIC "-//W3C//DTD SVG 1.1//EN" "http://www.w3.org/Graphics/SVG/1.1/DTD/svg11.dtd">
<svg version="1.1" id="Capa_1" xmlns="http://www.w3.org/2000/svg" xmlns:xlink="http://www.w3.org/1999/xlink" x="0px" y="0px"
	 viewBox="147.6 270.9 300 300" enable-background="new 147.6 270.9 300 300" xml:space="preserve">
<g>
	<path fill="#FFFFFF" stroke="#009BFF" stroke-width="2" d="M211,285c0,0.3,0,0.5,0,0.8c-0.1,0.4,0,1.2,0,1.6c0,0.8,0.2,1.8,0.4,2.6
		c0.3,0.9,0.4,2.1,0.9,2.9c-0.2,1.1,1.2,3.5,1.6,4.6l0.8,2.2c0.1,0.4,0.8,0.9,0.7,1.3c-0.5-0.4-0.8-0.9-1-1.5
		c-0.2-0.7-0.7-1.3-1.1-1.9c-0.4-0.5-0.1-1.4-0.4-1.9c-0.5-0.8-0.5-1.7-0.9-2.4c-0.3-0.6,0,1.7,0.1,1.9l1.8,4.2
		c0.2,0.6,0.4,1.7,0.8,2.1c0.2,0.2-0.1,0.5-0.1,0.7c-0.1,0.5,0.2,1,0.2,1.4c0.7,0.9,1.1,2.3,1.5,3.4c0.3,0.7,1,1.7,1.2,2.4
		c0.3,1.4,0.5,2.1,1.8,2.9c0.6,0.4,0.9,0.3,1.1,1c0.1,0.4,0.4,0.7,0.4,1.1c-0.5,0-1.3-0.9-1.7-1.3c-0.4-0.3-1-0.4-1.3-0.9
		c-0.5-0.7-0.5-1.7-1.1-2.3c-0.3-0.3-0.6-1.6-0.6-1.9c-0.1,0-0.5-0.4-0.6-0.5c-0.1,0-0.6,0.8-0.7,1c-0.2,0.5,0.9,2,1,2.6
		c0.3,1,0.6,2.2,0.5,3.3c-0.1,1.5,0.3,3.2,0.9,4.6c0.4,1,1.4,0.5,1.5,1.6c0,0.8,0.3,1.6,0.4,2.4c0.1,0.5,0.3,0.9,0.7,1.2
		c0.5,0.3,0.8,1.2,1.2,1.6c0.5,0.5,0.2,1.5,0.8,2.2c0.6,0.5,1.1,1.2,2,1.2c0.3,0,1.7-0.7,1.8-1h0c0.2,0.7,1.2,1.3,1.2,2.1
		c0,0.7-0.8,1.1-0.9,1.8c-0.1,1.1,0.6,2.5,1.2,3.4c0.6,0.9,1.7,1.2,2,2.3c0,0.7-0.2,1.6,0.1,2.2c0.3,0.7,0.5,0.4,1.2,0.4
		c0,0,0,0,0,0c0,2.9,1.1,5.3,2.5,7.8c0,0.7,0.7,2.3,1,3c0.2,0.7,0.6,1.3,0.9,2c0.3,0.8,0.5,1.6,0.9,2.4c0.4,0.8,0.1,0.7-0.6,0.9
		c0-0.2-0.2-0.5-0.3-0.7c-0.2-0.6,0.2-1.3-0.5-1.8c-0.3-0.2-0.3-1-0.8-1.2c-0.1,0-1-0.1-1-0.1c-0.1,0.4,0,1.1,0.5,1
		c0.6-0.2,0.4,0.3,0.3,0.7c-0.1,0.8,0.6,1.2,1.1,1.6c0.4,0.3,0.3,0.5,0.5,0.8c0.1,0.2,1.3-0.5,1.5-0.2c0.4,0.6,0.6,2,0.9,2.7
		c0.6,1,1.5,3.4,2.3,4c0.8,0.6,0.9,1.1,1.1,2.1c0.3,1,1,2.4,1.4,3.4c0.3,0.7,0,0.8,0,1.5c0,0.5,0.3,1.5,0.5,1.9
		c0.6,2.4,2.3,3.6,3.7,5.5c1.4,2,3.2,3.4,4.8,5.3l0.3,0.9c0.1,0.3,0.7,0,1,0.2c1.2,0.6,1.8,2.8,2.7,3.8l4.2,4.5
		c1.5,2.3,4.1,4.3,5.9,6.4l2.6,3.1c0.9,1,2,2.3,2.7,3.4c1,1,1.8,2.2,2.6,3.4c0.5,0.8,1.5,1.5,1.7,2.4c0.7,3.9,4.2,4.7,6.2,7.6
		c0.2,1.2,0.7,2.4,1.2,3.6c0.7,1.6,1.4,3,1.5,4.8l0.1,2.3c0,1.2,0,1.7,0.9,2.7c0.6,0.6,0.2,1,0.2,1.8c0,1,0.4,2.3,0.6,3.4
		c0.2,0.9,1,0.7,1.6,1.2c0.5,0.5,0.2,0.6,0.2,1.2c0,0.4,0.3,0.7,0.4,1c0.2,0.5,0.1,1.3,0.1,1.8c0,0.8,0.5,1.6,0.5,2.5
		c0.3,1.3,0.7,3.1,1.6,4.2c1.1,1.5,3.1,2.7,4.9,3.1c1.1-0.2,0.5,1.3,1.6,1.6c0.4,0.1,1.7-0.4,1.8,0.3c0,0,0,0,0,0.1
		c-0.1,0.1-0.5,0-0.6,0c-0.1,0-0.4,0.2-0.2,0.3c0.1,0.4,1.6,1.9,2,2.3c0.2,0.2-0.2,2.2-0.1,2.6c0.1,1.8,1.3,2.6,3,3.1
		c1.3,0.3,3-0.3,4,0.3c0,0.6,0.1,1.8,0.3,2.4c0.3,1.6,0.6,3.7,1.2,5.2c0.5,1.2,2,2.4,2.3,3.4c-0.5,0-1.1-1.2-1.9-1.2
		c-0.5,0-0.9,1.1-0.5,1.4c0.8,0.5,1.2,1.8,2.1,0.7c0.4-0.5,0.4-0.8,1-0.4c0.6,0.3,1,0.7,1.6,1c1.4,0.4,2.6,1.3,4.1,1.6
		c1.4,0.3,1.1,0.4,1.1,1.6c-1.1,0.4-3.4-2.2-4.8-2.2c-0.1-0.2-0.4,0.2-0.6-0.2c-0.2-0.5-0.7-0.2-1,0.1c-0.4,0.3,0.9,0.5,1.1,0.5
		c0,0.2-0.6,0.3-0.5,0.8c0.2,0.7,1.5,1.1,2.1,1.5c0.4,0.3,0.4,1,0.2,1.4c-0.1,0.3-1.2,0-1.4-0.1c-0.5-0.2-0.7,0.7-0.5,1
		c0.2,0.2,1.3,0,1.7,0c0.4,0.1,0.9-1.7,2.2-1.9c1-0.2,1.3,0.7,2.2,1.1c1.3,0.6,5,0.1,5.5,1.9c0.7,0-0.3-1.2-0.5-1.4
		c-1.2-0.9-3.4-0.4-4.7-1.1c-0.9-0.4-0.7-1-0.7-1.7c0-1.1,0.9-0.3,1.2,0.1c2.2,2.2,7.7,2.9,10.6,2.9c1.4-0.2,3.6,0.3,5.1,0.4
		c2.5,0,5.6-0.3,8,0.2c1.5,0.4,2.9,0.1,4.4,0.3c0,0,0,0,0.1,0.1c0,0.1,0.1,0.3,0.1,0.4l1.7,0.8c0.6,0.3,0.9,0.2,1,0.9
		c0.2,1.3,2,0.6,2.4,1.4c0.1,0.3,0,0.7,0.3,0.8c0.9,0.4,1.2,1.5,1.5,2.4c0.3,0.7,2,1.1,2.6,1.3v0c-0.5,0.1-1.2,1-1.6,1.5
		c-0.1,0.1,0.2,1,0.2,1c0.3,0.1,1.3-0.2,1.7-0.3c0.1-0.2-0.4-0.6-0.6-0.8c-0.1-0.1-0.3-0.6-0.3-0.6c0-0.2,0.1-0.3,0.1-0.4
		c0,0,0.1-0.1,0.1-0.1c0.4,0,0.9-0.5,1.2-0.5l4.3,0.7c1.3,0.2,3,0.2,4.2,0.7c1.3,0.9,1.9,1.9,2.1,3.6c0.1,1.2,0.4,1.9,1.4,2.5
		c0.5,0.3,0.5,1.2,0.9,1.8c0.7,1,1.6,1.7,2.6,2.4c1.2,0.8,0.9,1.4,1.9,2.3c0.4,0.5,0.8,0.6,1.2,1c0,0.6-0.2,2,0.3,2.5
		c0.1,0.7,0.7,1.3,0.8,1.9c1.2,0.9,1.7,1.7,3.1,2.3c4.6,2.1,12-0.6,16.8-1.5l4.7-1.4l0,0c-0.2,0.8-0.2,1.5,0.1,2.3
		c0.4,1.1,1.2-0.2,1.7,0.4c0.3,0.3-0.1,0.9-0.2,1.2c-0.2,0.7,0,1.5,0.5,2c0.3,0.3,0.4,0.4,0.2,0.7c-1,1.6,0.6,0.9,0.7,2
		c0,0.5-1.2,1.8-0.6,2.3c0.3,0.2,2,1.1,1.1,1.6c-0.7,0.3-0.5,0.5-1,0.8c-0.7,0.4-0.1,2.7,0,3.4c0.1,0.8-0.6,1.9,0.3,2.3
		c0.7,0.4,1.5-0.3,2.2-0.2c0.8,0.2,0.4,1.4,1.4,1.5c0.7,0,1.9-0.7,2.5,0.2c0.5,0.9-0.1,1.3,0.5,2c1.2,1.3-0.2,3.1,2.5,2.7
		c1.2-0.2,2.2-0.4,1.9,1c-0.2,0.8,0.4,1.1,1.1,1c1.3-0.2,1.4,1.2,2.8,1.3c0.9,0.1,2.6,0.6,2.9,1.6c0.2,0.6,0.3,0.9,0.5,1.3
		c0.3,0.5,1.2,0.5,1.6,1.1c0.6,1,0.9,1.8,1.8,2.5c0.5,0.3,1,0.7,1.5,0.8c0.4,0.1,1.3,0,1.2,0.5c0,1-1.2,0.9-1.1,2.1
		c0.1,0.6,0.1,1.1-0.3,1.7c-0.2,0.3-0.5,0.5-0.7,0.8c-0.5,0.7,0.5,0.9,0.3,1.6c-0.2,0.6-1,0.8-1.4,1.3c-0.4,0.4,0,0.9,0,1.4
		c0,0.7-0.3,0.8-0.7,1c-0.3,0.9,1.6,0.6,1.7,1.4c0.1,0.4-0.2,0.8,0,1.1c0.2,0.4,0.6,0.2,1,0.2l0.9,0.5l0,0c-0.1,0.5-1.2,1.3-1.7,1.4
		c-0.3,0.1-0.5,0.1-0.7,0.2c-0.4,0.3-0.4,0.6-0.4,1c0,0.7-1,0.3-1.4,0.6c-0.2,0.7-1.4,0.2-1.9,0.2c-0.7-0.1-1.3,0.7-1.9,0.5
		c-0.3-0.1-0.4-0.4-0.8-0.2c-0.3,0.2-0.4,0.8-0.8,0.1c-0.1-0.3-0.3,0.2-0.3,0.3c0,0.7-0.5,1.2-0.8,1.8c-0.2,0.4-0.2,1-0.5,1.4
		c-0.2,0.3-1.1,0.3-1.5,0.5c-0.6,0.3-0.6,1.1-1,1.7l0,0l-33.7-1.9l-0.4,0.4c-0.1,0.5,0.3,0.9-0.3,1.2c-0.5,0.2-0.7,0-0.9-0.4
		c-0.5-1.2-1.1-1.4-2.4-1.4c-0.8,0-1.1-0.3-1.8,0.1c-0.4,0.3-0.9,0-1.2-0.2c-0.7-0.4-1-0.3-1.8-0.2c-1.8,0.3-1.3,0-2.6-0.8
		c-0.5-0.3-1.3-0.8-1.7,0.1c-0.4,0.9-0.5,0.1-1.2,0.2l-2.8,0.4c-1.7,0.3-1.6-1.1-2.8-1.1c-0.4,0-0.2-2.2,0.1-2.4
		c0.9-0.5-0.3-0.6-0.2-1.2c0-0.3,0.4-0.6,0.2-0.9c-1-1,0.5-0.5,0.5-1.2c0-0.5-1.8-0.9-1.9-0.8c-0.4,0.3-1,0.6-1.5,0.1
		c-0.5-0.5-0.4-1.2-1.4-1.2c-0.3,0-0.9,0-1-0.2c-0.2-0.3-0.1-0.8-0.6-0.8c-0.9,0-2,0.9-2.6-0.2c-0.5-0.8-0.8-0.4-1.3-0.8
		c-0.2-0.2-0.3-0.5-0.5-0.7c-0.7-0.8-1.5,0.5-1.9-0.7c-0.1-0.5-0.2-1-0.2-1.5c-0.2-1.3-1.6-2.3-0.6-3.3c0.2-0.2,0-0.5,0-0.7
		c0.2-0.5,1.1-0.2,1.3-1c0.1-0.3,0-1.3,0-1.2c0.2-0.8-0.3-1.2-1-1c-0.6,0.1-1.1,1-1.7,1c-0.7,0-2.6-1.1-2.6-1.8c0-1-0.5-0.3-0.9-1
		c-0.3-0.4-0.9-0.1-0.9-0.3c0-0.2,0.1-0.5,0-0.7c-0.3-0.5,0.9-0.4,1-0.6c0.2-0.2-0.4-0.9,0.5-0.9c0.9,0,1.1,0.5,1.9-0.3
		c0.5-0.5,1.2,0.3,0.8-1c-0.3-0.8,0.2-2.2-0.6-2.7l-1.6-0.4c-0.6,0-1-0.5-1.5-0.6c-0.8-0.2-0.4,0.4-0.6,0.8
		c-0.3,0.6-1.1-0.1-1.5,0.3c-0.9,1.1-1.7,1.8-3.3,2.2c-1.5,0.4-5.1,2.6-5.5,4.1c-0.1,0.2-1.2,0-1.6,0.4c-1.3,0.9-1.7,2.1-3.2,2.2
		c-0.6,0.1-1,0.6-1.4,1c-0.3,0.2-4.3,0.3-5,0.3c-0.3,0-0.6,0-0.9,0c-0.3-0.1-1.2-1-1.4-1.3c-0.2-0.5,0.2-1.3-0.4-1.6
		c-0.5-0.3-1.4-0.1-1.8-0.4c-0.2-0.2-0.2-0.4-0.4-0.6c-0.5-0.4-1.5,1.1-1.6,0c0-0.5,0.7-0.3,0.8-0.6l0,0c0-0.4,1.1,0.1,0.7-0.7
		c-0.5-1-0.6-0.3-1.5-0.3c-0.3,0-0.3-0.9-0.5-1.1c-0.5-0.4-1.2-0.2-1.3-1.1c-0.9-0.6-0.9-0.4-1.4-1.3c-0.1-0.3-0.1-0.4-0.4-0.5
		c-0.2-0.1-0.5-0.1-0.6-0.2c-0.4-0.3,0.3-0.7,0.5-0.8c0.2-0.1,0.3-0.2,0.1-0.4c-0.3-0.2-0.7,0-1,0c-0.3-0.1-0.2-0.7-0.2-0.9
		c0.1,0,0.1-0.1,0.1-0.2c0.2-0.7,0.6-0.9,1.3-1.1c0.5-0.2,0.2-0.5,0.2-0.9c0.1-1,1.2-0.6,1-2c-0.1-1,0.8-0.9,1.1-1.7
		c0.2-0.5-0.1-0.9,0.3-1.3c0.4-0.4,0.3-1.8,1.1-1.6c0.5,0.2,0.9-0.1,1.2-0.4l-0.6-0.6c-0.2-0.5-0.5-0.8-0.5-1.4l0-1.2
		c0-0.4,0.2-2-0.2-2.2c-0.1-0.6-1.1,0.2-1.2,0.2c-0.3-0.3-0.7-1.1-0.7-1.6c0-1.4,0.2-4.2-0.5-5.4c-0.3-0.5-0.8-0.5-1-0.9
		c-0.1-0.2,0-0.6-0.3-0.6c-0.2,0-0.7,0.3-0.7,0.4c0.1,0,0.1,0.5,0,0.6c-0.1,0.2-0.5,0.2-0.7,0.2c-0.6,0.1-1,0.1-1.2-0.5
		c-0.2,0-0.4,0.5-0.6,0.4c-0.2-0.1-0.1-0.5-0.2-0.7c-0.3-0.4-1.5,0.3-1.8,0.4c-0.5,0.2-0.7,0-1.2,0c-0.4,0-1.1,0.8-1.5,0.9
		c-0.6,0.2-1.7,0.2-2.2-0.1l-1-1.8c-0.3,0-0.6-0.1-1,0.1c-0.4,0.2-0.7,0.5-1,0.8c-0.8,0.7-1.4,1.4-2.6,0.3c-1-0.9,0.2-1.2,0-2
		c-0.2-0.9-2.2,1.5-2.8,0.4c-0.8-1.5-2-1.8-2-3.7c0-0.5-1.7-0.8-0.9-1.4c0.6-0.4,0.6-1.3,0.2-1.8c-0.6-0.7-2.1-0.9-2.2-1.9
		c-0.1-1.4,0.7-1.9-1-2.5c-0.8-0.3-0.5-1.1-0.9-1.7c-0.5-1-2.1-0.8-2.2-2.1c0-0.8-0.3-0.6-0.8-1c-0.5-0.3,0.2-1.1,0.1-1.5
		c-0.2-0.7-0.7-1.1-1.2-1.5c-0.4-0.3-0.7-0.8-0.8-1.3c-0.1-0.3,0.2-0.9-0.1-1.2c-0.2-0.2-2.4-1.1-2.6-1.1c-0.7,0-1.5,0.1-2.2,0.1
		c-0.8,0-1.9-0.8-2.5-1.2c-0.8-0.6-2-1.3-2.6-2c-0.4-0.5-1.2-0.3-1.8-0.4l-0.5,1c-0.1,0.4,0.8,1.1,0.7,1.7c-0.1,0.6-1.2,0.8-0.8,1.4
		c0.2,0.3,0.4,0.7,0.1,1c-0.4,0.3-1.5-0.6-1.6-0.1c-0.1,0.4,0.5,0.5,0.7,0.6c0.2,0.1-0.5,0.3-0.6,0.4c-0.7,0.5,1.1,1.4,1.5,1.4
		c0.5,0,0.3,0.7,0.2,1c-0.3,0.6,0.7,1.9-0.3,2.2c-0.9,0.3-1,1-0.5,1.8c0.2,0.3,0.6,0.5,0.9,0.6c0.4,0.1,0.2,0.9,0.3,1.2
		c0.2,0.8-0.1,0.9-0.7,1.5c-0.5,0.5,0-0.7-0.3-0.8c-0.5-0.1-1,0.2-1.5,0.2c-0.9,0,0.1-0.7-0.3-1.1l0,0l0.1-0.5
		c-0.4-0.4-2.6-0.5-2.6-1.6c0-1.5-1.3-2-0.9-3.5c0.2-0.6-0.6-0.9-1.1-0.9c-0.4,0.4-0.5,1.9-1.5,0.9c-0.4-0.4-1.1-1.6-1.5-1.7
		c-0.7-0.3-0.6-0.3-1-0.8c-0.5,0-1.3,0.7-1.7,0.6c-0.4-0.1-1.1-0.9-1.2-0.9c-0.3,0-2.5,1.2-2.8,1.5c-0.6,0.6-1.3,0.5-1.7,1
		c-0.9,1.2-0.6,1.9-2.4,2.1c-1.1,0.1-0.2-0.3-0.3-0.9c-0.1-0.4-1.1-0.2-1.1-1.1c0-1.5-2.3-1.5-2.3-2.2c0-0.5,0.3-1.8,0.5-2.3
		c0.1-0.5-2.1-1.5-2.6-1.8c-0.8-0.7-0.8,0.1-1.5-0.1c-0.5-0.1-0.8-1.4-1.3-0.7c-0.8,1.2-0.8,0.9-1.2-0.2c-0.2-0.5-1.4-1.7-1.9-1.7
		c-0.2,0-0.8,1-0.9,0.3c-0.2-0.8-0.2-0.9-0.7-1.6c-0.2-0.4-0.5-0.8-0.2-1.2c0.3-0.4,0.1-0.8,0.1-1.2c0-1,0.9-1.4,0.1-2
		c-0.7-0.6-0.3-0.9,0.3-1.2c0.5-0.2,0.9-1.2,0.9-1.7c0-0.4,0.7-0.4,1.1-0.6c0.4-0.4,0-1.1,0.4-1.5c0.2-0.3,0.8-1.1,1-1.2
		c0.3-0.2,0.8,0,1-0.2c0.7-0.5,0.3-1.2-0.2-1.6c-0.3-0.3-0.3-0.8-0.3-1.2c-0.3-0.7-1.1-1.5-1.3-2.3c-0.1-0.6,0.3-1,0.5-1.6
		c0.2-0.9,0.5-3.8,1.1-4.4c0.5-0.6,1.5-0.8,1.9-1.5c0.5-1,1.7-0.8,0.8-1.7c0.8-0.3,0.3-0.6,1.3-0.4c0.6,0.1,1.3,0.1,2,0.2
		c0.5,0.1,0.7-0.2,1.1-0.4c0.6-0.2,1.2,0.6,1.7,0.7c0.3,0,0.6-0.3,0.8-0.1l0.7,0.9c0.7,0.9,1.8,0.2,1.4-0.3
		c-0.6-0.8-0.4-0.6-0.6-1.6c0-0.6-1-0.8-0.6-1.5c0.3-0.5,1.2-0.4,1.6-0.9c0.2-0.2,0.2-0.7,0.4-0.7c0.6-0.2,0.8-0.1,0.8-0.9
		c0-0.8-0.1-0.9,0.4-1.6c0.6-1-1.2-0.8-1.7-1.1c-0.4-0.2-0.7-0.7-0.8-1.1c-0.5,0-1.3,1.1-1.4,0.3c-0.1-0.9-1-0.1-1.6,0.2
		c-1.5,0.4-1.8-0.3-3.1-0.7c-1.8-0.6-1.4,1.1-2.6,0.1c-0.7-0.6,0.1-0.5-0.1-1.3c-0.2-0.9-0.9-1.2-1.6-1.7c-1.4-1.1-4-0.6-5.5-0.4
		c-1.2,0.2-0.8,0-1.2-0.9c-0.4-1-0.9,0-1.1-1.4c-0.1-0.9,1.1-0.5,1.7-0.9c0.8-0.5,0.6-2.1-0.1-2.6c-1.6-1-1.9-0.1-2.4-2.1
		c-0.2-0.8-1-0.5-1.1-1.8c0-1-0.4-1.9,0-2.8c0.4-1,0.3-1,1.5-0.6c1.3,0.5,2.6-3.7,4-3.2c2.2,0.7,0-1.4-0.3-2c1.3-0.3,0-1.8,0.3-2.6
		c0.1-0.7,0.3-1.6,0.3-2.3c0-0.6-0.4-1.1-0.1-1.7c0.6-1.1,0.6-2.2,1.2-3.2c0.2-0.4,0.9-1.4,1.3-1.6c1.5-0.6,0.2-1.2,0.2-2.5
		c0-1.4,1.9-1.2,2.3-2.6c0.2-0.2,1.2-0.6,1.1-0.9c-0.1-0.3-0.6-0.8-0.6-1c0.1-0.3,1.5-0.9,1.8-1.4c0.3-0.4-0.5-0.5,0-1.2
		c0.5-0.7,1-1.2,1.7-1.7c1.6-1.1,1-0.7-0.2-1c-0.5-0.1,0.2-1.3-0.4-1.1c-0.9,0.3-1,0.9-1-0.4c0-1.2-1.6,0.4-2.1,0.2
		c-0.8-0.3-1.8-1.2-2.7-0.9c-0.4,0.1-1.8-1-2.6-1c0,0,0,0,0,0c0,0.4-1.1,3.4-1.1,1.8c0-1.2,0.4-2.6-0.9-2.9
		c-0.9-0.2-1.1-0.6-1.5-1.4c-0.5-0.9-1.3,0.6-2,0.2c-2.2-1.6-1.5,2.4-2.2,3.1c-0.6,0.6-3.3,1.1-1.7,2.1c0.5,0.3-0.8,0.8-1,1
		l-1.7,1.1c-1.2,0.8-0.7,0.3-1.4,1.3c-0.2,0.3-1.9-0.7-0.4-0.9c0.1-0.5-0.5-0.8-0.8-1.1c-0.4-0.3-0.1-0.8-0.1-1.2
		c-0.3-1.5-0.3-1.5-1.7-2c-0.1,0-0.5-0.4-0.5-0.3c-0.3,0-0.4,0.7-1.1,0.7c-0.6,0-1.3-0.1-1.9-0.2c-1.3-0.4-2.4-1.1-1.9-2.5
		c0-0.6,0.2-1.2,0.1-1.8c0-0.4-1-0.9-0.9-1.2c0.1-0.2,0.6-0.1,0.8-0.1c0.4-0.1,0.7-0.2,1.1-0.3c1-0.2,0.3-1.3,0.6-1.4
		c0.2-0.1,2.2,0.3,1.2-0.7c-0.4-0.4-0.1-0.3,0.2-0.7c0.3-0.4,0-0.6,0-1c-0.6,0-0.6,0.8-0.8,1.2c-0.2,0.5-1.4-0.6-1.6-0.7
		c-0.4-0.3-1.3-0.8-1.3-1.4c0-0.4,0.2-0.9-0.2-1.1c-0.7-0.4-0.4-1.4,0-2.1c0.9-1.6,1.5-2.9,3-1c0.6,0.8,1.5,1.7,2.6,1.1
		c0.9-0.5,0.1-1.1,0.2-1.7c0-0.1,1.3-0.7,1.5-0.9c0.3-0.2,0.6-0.1,0.9-0.3c0.4-0.2,0.5-1.5,1.3-1.5c0.3,0,0.9,0.7,1.1,0.3
		c0.2-0.3-1.2-2.4-1.4-2.5c0-0.7-0.5-1.2-1.2-1.3c-1,0-0.8-0.6-1.7,0.1c-0.5,0.3-0.8-0.5-1.1-0.5c-0.6,0-0.3,1.7-1.1,0.8l-1.4-1.6
		c-0.3-0.3,0.4-1,0.3-1.2c-0.2-0.2-1.3-0.6-0.9-1c0.6-0.7-0.4-0.7-0.8-0.9c-0.3-0.1-1.8-1.1-1.3-1.4c0.8-0.5,1.1-0.9,0.3-1.7
		c-0.5-0.5-0.4-1.8,0.1-2.4c0.6-0.4,1.2-0.3,1.1-1.2c-0.1-0.4,0.1-1.2-0.1-1.5c-0.3-0.4-0.3-0.5,0.2-0.7c0.1,0,0.5-0.1,0.5-0.1
		c0-0.2-1-0.4-1.2-0.4c-0.7-0.3-1-1.1-1.9-0.7c-0.8,0.4-0.9,0.1-1.6-0.2c-0.7-0.3-0.9,0.9-1.7,0.5c-0.8-0.4-0.4-0.7-0.5-1.4
		c-1.5,0-2,0.7-2.3,2.1c-0.2,0.9-0.5,2-1.3,2.3c0,0.4,0.3,0.6,0.3,0.9c0,0.4-0.2,0.6-0.3,0.9c-0.2,0.7,0,1.3,0.8,1.4
		c0,0,0.1,0.1,0.1,0.1c0,0.6-0.9,0.9-0.9,1.3c0,0.8,0.5,0.9,0.6,1.5c0.1,0.4,0.3,0.9,0.3,1.3c0.3,0.8-0.4,0.8-0.4,1.5
		c0,0.8-1.1,0.8-1.1,1.2c-0.1,0.6-0.1,0.5-0.7,0.5c-0.3,0-0.4,0.3-0.6,0.2c-0.9-0.1-0.5,0.3-0.9,1c-0.2,0.4,0.2,0.5,0.1,0.7
		c-0.1,0.2-0.8,0.4-0.8,0.7l0,0c-0.3,0-0.6-0.2-0.9-0.3c-0.6-0.1-1-0.9-1.1-1.4c-0.1-0.5,0.3-0.9-0.1-1.4c-0.6-0.7,1.2-1.3,0.6-1.8
		c-0.2-0.1-0.8-0.3-0.6-0.6c0.3-0.7,0-0.5-0.5-0.6l-0.7-0.3c-0.1-0.3,0.2-0.7-0.1-1c-0.1-0.1-0.5-0.8-0.6-0.7
		c-0.9,0.5-0.7,2.5-1.6,2.6c-1,0.2-1,0.5-1.4,1.4c-0.3,0.5-1.6,2.4-2.1,2.6c-0.5,0.6-1.2,1.6-2.1,1.1c-0.9-0.4-1.4,0.4-1.8,1.1
		c-0.3,0.5-0.6,0.3-1.1,0.5c-0.7,0.4-0.8,0.8-1.2,1.4c-0.6,0.8-1.7,0.7-1.8,1.8c-0.2,1.5-0.9,1.3-2.1,2c-0.6,0.4-1.3-0.3-1.8,0
		c-0.1,0.5,0.4,1.3-0.4,1c-1.1-0.3-0.8,0.1-1.6,0.5c-0.5,0.3-1.2,0.5-1.6,1c-0.3,0.4-0.1,0.9-0.1,1.3c-0.6,0.3-1.7-0.2-2.3-0.3
		c-0.9-0.1-1.7-0.6-2.2-1.4c-0.2-0.3,0-0.9,0-1.3c-0.1-0.7-0.1-1.4,0-2.1c0.2-1.4-0.7-1.7-1.3-2.8c-0.3-0.5-0.3-0.9-0.4-1.4
		c-0.3-1.4,2.1-0.7,2.5-1.8c1-1,0.4-1.7,0.8-2.9c0.4-1.3,1.4-0.1,1.9-0.7c0.3-0.3,0.1-1.3,0-1.7c-0.3-0.8-0.3-1.4,0.4-1.9
		c1.1-0.6,0.3-1.7,0.9-2.1c0.3-0.2,1-0.5,1.2-0.7c0.8-0.9,0.8-2.8-0.6-1c-0.5,0.7-1.3,1.2-2.2,1.5c-1.1,0.4-2,0.8-2.6,1.9
		c-0.2,0-0.3-0.3-0.5-0.5c-0.1-0.6-0.7-0.3,0.1-1c0.3-0.3,0.6-0.7,0.7-1.1c0.1-0.1,0.5-0.5,0.5-0.7c0.5-1.2,0.9-0.2,1.9-0.5
		c0.3-0.1,1.8-0.6,1.8-0.8c0-0.5-0.1-0.9-0.4-1.3c-0.4-0.4,0.2-1.2,0.4-1.6c0.3-0.7,0.5-1.7,1-2.2c0.5-0.5,0.9-0.1,1.4-0.4
		c0.6-0.3,0.8-0.8,1.6-0.2c0.6,0.4,1.2-0.9,1.4,0c0.2,1-0.2,1.3,1,1.8c2,0.9-0.8,0.7,0.1,1.6c0.6,0.6,0.8,0.2,1.2-0.2
		c0.3-0.2-0.3,1.4,0.5,1c1.3-0.8,2.4-0.5,3.2-2.1c0.5-0.9,0.4-0.7-0.7-1.2c-0.5-0.2-0.3-0.7-0.6-1.1c-0.1-1,0-1.1,0.2-2
		c0.2-0.7,0.8-0.5,1.2-0.7c0.6-0.4-1-2.4,0.3-2.8c1.6-0.5,0-1.3,0.5-2c0.4-0.5,0.5,0.2,0.6-0.7c0-0.5,0.6-0.4,0.7-0.8
		c0.3-0.6-0.1-1.2,0.7-0.5c0.8,0.6,1-0.6,1.2-1.1c0-0.7,0-1,0.2-1.7c0.1-0.4-0.7-0.9-0.9-1.2c-0.8-1-1.4-0.5-1.7-1.6
		c-0.2-0.5-0.6-0.6-0.8-1.3c-0.7,0-1.1,0.9-1.7,0.8l-1.6-0.4c-1.5-0.4,0.1-1.5-1-2c-0.7-0.3-1.4-0.3-2,0.5c-1.2,1.5-1.8,0.7-3.3,0.8
		c-1,0.1-0.7-0.1-1.2-0.8c-0.4-0.6-1.2-0.5-1.4-1.4c-0.3-1-0.1-1.4-1.4-1.5c-0.7-0.9,0.5-0.8,0.4-1.3c-0.1-0.5-1.2-0.2-1.5-0.2
		c-1.1,0-2.5,0-2.2-1.4c0.2-0.7,0.4-1.2,1-1.7c0.3-0.3,0.7-0.3,1-0.5c0.4-0.4,0.4-0.8,0.5-1.3c0.2-0.7,0-0.7,0.8-0.7
		c0.8,0,0.6-0.8,0.7-1.3c0-0.3-0.7-1.6-0.8-1.6c-0.4,0-0.6,0.7-1.1,0.9l0,0l-0.8-0.9c-1.1-0.8-0.5-1.9-0.5-3c0-0.9-0.9-2.9-1.7-3.2
		c-0.5-0.2-0.6-0.5-0.9-0.8c-0.4-0.4-0.8-0.3-1.2-0.5c-0.3-0.2-0.1-0.9-0.5-1.2c0-0.6-0.4-1-0.5-1.6c-0.1-0.5,0-1,0-1.5
		c0-1-1.5-0.7-0.8-1.8c0.3-0.5,1.2-0.6,1-1.2c-0.1-0.3-0.5-0.7,0.1-0.8c0.4-0.1,0.5,0.5,1,0.5c0.4,0.1,1.8,0,1.9-0.6
		c0.1-0.5-1.1-1.3-0.2-1.6c0.2-0.1,0.7-0.4,0.9-0.2c0.3,0.2,0.8,0.9,1.1,0.9c0.9,0,0.6-1.5,1.3-1.8c0.3-0.1,1,0.1,1-0.5
		c0-1.3,1.2-1.4,1-2.8c-0.2-1-1.2-0.9-1.4-1.5c-0.1-0.3,0.3-0.6,0.1-0.8c-0.2-0.2-0.8,0.2-1.1,0.3c-0.5,0.3-0.5,0-0.6-0.4
		c-0.3-0.8-0.1-0.9-1.1-1.4c-0.6-0.3,0.4-1,0.3-1.7c-0.2-0.9,0.9-0.1,1.3-0.3c0.3-0.1,0.3-0.7,0.1-0.9c-0.3-0.4-1.8,0-1.8-0.4
		c0-1,1.2-0.4,1.7-0.4c1,0-0.1-2-1.3-0.8c-1.6,1.6-2.4-1-1.7-1.4c0.8-0.4,0.8,0.9,1.8-0.1c0.2-0.2,0.5-0.3,0.7-0.5
		c0.2,0.1,0.3,0.2,0.5,0.3c0.8,0.7,1.6,0.9,2.5,0.6l-0.4-0.9c0-0.5-0.2-1.1-0.1-1.6c0.2-0.7,0.9-0.5,1.1-1.1c0.2-0.4,0.4-0.7,0.6-1
		c0.3-0.5,0-0.9,0-1.5c0-0.8,1.1-1.2,0.9-2.2c-0.1-0.4-0.7-0.7-0.6-0.9c0-0.1,0.5-0.6,0.4-0.6c0.8-0.8,5-3,4.9-4
		c-0.1-0.5-0.9-0.9-0.9-1.4c0-0.2,0.2-0.7,0.1-0.8c-0.2-0.3-0.7,0.1-1-0.3c-0.4-0.4-0.8-0.4-1.3-0.5c-0.7-0.1-0.4-0.5-0.4-1
		c0-0.8-0.8-0.1-1.2-0.1c-0.6,0-0.8-0.9-0.9-1.3c-0.2-0.5-1.4-0.1-1.4,0.5c-0.2,0-0.2,0-0.4-0.2l-5.3-3.2l0.2-1.2l-5.3-0.1l0.3-1.5
		l0,0l1.1-0.2c1.2-0.8,0.6,0.3,1.5,0.2c0.9,0,0.4-0.1,1.2,0.2c0.6,0.3,1,0.1,1.6-0.1c1.1-0.4,1.7,0.1,2.8-0.7c0.3-0.3,0.4-1,0.9-0.6
		c0.3,0.2,0.9-0.3,1.3-0.2c0.4,0.1,0.9,1.3,1.5,0.2c0.1-0.2,0.3-0.9,0.6-0.4c0.2,0.3,0.2,0.7,0.6,0.8c0.7,0.3,0.8,1.5,1.2,0.4
		c0.2-0.6,0.7-1,0.7-0.1c0,0.4-0.1,1.5,0.5,1.1c0.9-0.5,0.7-1.1,1.2-0.2c0.2,0.3,3.3,0.2,1.8-1.1c-0.5-0.4,0.2-1.5,0.1-2.1
		c-0.2-1.4,0.7-0.6,1.2-0.5c0.8,0.1,0.6,0.8,1.5,0.4c0.3-0.1,1-1.2,1.3-0.9c0.5,0.5,1.5,0,2.2,0.2c0.2,0.1-0.1,0.6-0.1,0.8
		c0,0.3,0.3,0.4,0.4,0.6c0.4,0.6-0.4,1,0.7,1.4c0.8,0.3,2.1,0.5,2.7,1.1c0.8,0.8,0.6,1.2,1.8,1.6c0.6,0.1,0.7,1.6,1.5,1.3
		c0.8-0.2,0.9-0.7,1.7-0.4c0.7,0.2,3.6,0.2,3,1.6c-0.3,0.7-1.1,0.3-1.4,0.9c-0.4,0.6,0.2,0.9,0.7,0.8c1-0.3,1.2,0.6,1.9,1
		c0.3,0.2,1.3,0.8,1.5,1c0.1,0,0.2,0.2,0.4,0.2c0.1,0.2,0.8,1.9,0.9,2.1c0.8,0.1,2.2,0.9,2.7,0.3c0.3-0.3,0.1-0.8,0.3-1.2
		c0.2-0.5,0.8-0.8,1.2-0.9C210.4,285.1,210.7,285.1,211,285L211,285L211,285z"/>
	<path fill="#FFFFFF" stroke="#009BFF" stroke-width="2" d="M227.9,332.7c0-0.2,0.1-1-0.3-0.7c-0.1,0-0.6,0.4-0.5,0.2
		c0.1-0.3,0-0.8,0.1-1c0.2-0.5,1.4-0.8,1.9-1.3c0.2-0.3,2.9-2.2,2.3-1.1c-0.4,0.8-1.4,1.6-1.3,2.5c0.1,0.8,0,0.8-0.4,1.5
		c-0.2,0.3-0.5,0.8-0.6,1.1c-0.1,0.4,0.2,1.4-0.4,1c-0.2-0.1-0.8,0.1-0.7-0.4c0.1-0.3,0.1-0.9,0.1-1.3L227.9,332.7L227.9,332.7z"/>
	<path fill="#FFFFFF" stroke="#009BFF" stroke-width="2" d="M218.5,305.9l1.7,2.8c0.3,0.5,0.8,1.5,1.3,1.8c1.1,0.8,1.6,2,2.5,2.9
		c0.7,0.7,1.8,1.4,2.4,2.3c1.2,0.7,1.6,1.6,2.4,2.7c0.7,0.9,1.5,1.3,2.4,2.1c1.3,1.1,2.6,1.4,3.7,2.9c0.4,0.5-0.1,1.6,0.2,2.4
		c0.2,0.6-1.1,4-1.4,4.6c-0.4,2.2-1.9,4-2.5,6.1c-0.2,0.7-1.2,3.1-0.7,3.8c0,0.1,0.1,0,0,0.1c-0.6,0.2-0.7,0.1-0.8-0.5
		c-0.1-0.7-0.1-1.5,0.1-2.2c0.2-1-0.2-1.2-0.6-2c-0.3-0.6,0.7-1.8,1-2.3l1.9-3.4c0.7-1.9,0.6-2.2,0.3-4c-0.3-1.8-3-2.8-4-4.2
		c-0.6-0.8-1.4-1.7-1.7-2.7c-0.5-1.6-1.2-1.4-2.3-2.5c-0.6-0.8-1.1-2.2-1.9-2.7c-1.3-0.8-2.1-2.2-2.9-3.4c-0.8-1.3-0.6-3.1-1.3-4.5
		c-0.1-0.7-0.9-1.8-1.5-2.1c-0.4-0.2-0.5-0.4-0.5-0.8c0-0.4-0.2-0.7-0.2-1.1h0c0.1,0.2,0.4,0.5,0.6,0.8c0.3,0.4,0.6,0.9,0.8,1.4
		c0.2,0.4,0.6,1,1,1.4L218.5,305.9L218.5,305.9z"/>
	<path fill="#FFFFFF" stroke="#009BFF" stroke-width="2" d="M240.2,330c-0.1,0-0.3,0-0.4-0.2c-0.1-0.1,0.1-0.2,0.2-0.3
		c0.3-0.2,0-0.3-0.1-0.6c0-0.1,0-0.1,0.1-0.2c0.1,0,0.3,0.1,0.4,0.2c0.3,0.1,0,0.3,0,0.5c0,0.1,0,0.2,0,0.3c0.1,0.1,0,0.2-0.1,0.3
		C240.4,330.2,240.3,330,240.2,330L240.2,330z"/>
</g>
</svg>
