<?xml version="1.0" encoding="utf-8"?>
<!-- Generator: Adobe Illustrator 18.0.0, SVG Export Plug-In . SVG Version: 6.00 Build 0)  -->
<!DOCTYPE svg PUBLIC "-//W3C//DTD SVG 1.1//EN" "http://www.w3.org/Graphics/SVG/1.1/DTD/svg11.dtd">
<svg version="1.1" id="Capa_1" xmlns="http://www.w3.org/2000/svg" xmlns:xlink="http://www.w3.org/1999/xlink" x="0px" y="0px"
	 viewBox="270.9 147.6 300 300" enable-background="new 270.9 147.6 300 300" xml:space="preserve">
<path fill="#FFFFFF" stroke="#000000" stroke-width="0.1" d="M985.7,203.1c0.2-0.4,0.4-0.7,0.5-1.2"/>
<path fill="#FFFFFF" stroke="#009BFF" stroke-width="2" d="M277.2,274.9l-1.6,0l0,0c0.2-0.5,0.3-1,0.4-1.5c0.1-0.5,0.5-1.1,0.7-1.6
	c0.2-0.6,0.3-1.2,0.4-1.8c0.3-0.2,0.5-1.5,0.6-1.9c0.7-2.4,1.3-5.2,2.6-7.3c0.4-0.4,1.1-1.9,1.4-2.5c0.8-1.4,2.1-2.1,3.4-2.9
	l4.7-2.9l7.8-4.9c0.9-0.3,1.9-1.5,2.8-2c1.3-0.8,3-1.3,4.2-2.2c0.5-0.4,0.7-0.9,1.4-1l2.9-0.3c0.9,0,2.2-0.4,3.1-0.7
	c1.5-0.3,2.8-0.5,4.1-1.5l4.8-3.5c0.6-0.6,2-1,2.8-1.3c1.4-0.6,2.7-1.4,4.2-1.7c0.6-0.1,1.1-0.4,1.7-0.5l2.7-0.6
	c0.8-0.5,2.5-0.6,3.4-0.8l5-1.1l1.5-0.3c0.3-0.1,1,0.4,1.1,0.3c0-1.7,2.1-1,3.4-1.5c0.8,0.2,2.3-0.3,3.1-0.5l5.4-0.8l4.8-1.2
	l4.2-0.5l6.1-0.9l4.6-0.5c0.3-0.2,1.5-0.3,1.9-0.3c0,0.2,0,0.6,0,0.8c-0.4,0-0.6-0.2-1-0.2c-0.6,0-4.3,0.2-4.4,0.6
	c0.6,0.1,1.1,0.1,1.7,0.3c1,0.3,1.2,0.8,2.3,0.8c0.3,0,1.3-0.1,1.2-0.7c-0.3-1,1.1-0.1,1.5,0.1c0.8,0.3,2.4-0.4,3.2-0.6
	c0.2-0.2,1-0.2,1.3-0.3c0.1,0,2.2-0.7,1.2-0.9c-0.6-0.1-1.5,0.1-2.1,0.1c-1,0-2.1-0.1-3.1,0.1l-1.7,0.3c0-0.1,0.2-0.5,0.3-0.5
	c0.8-0.5,2.3-0.2,3.2-0.4c1.8-0.4,3.4-0.4,5.2-0.5l2.9-0.3c0.9-0.1,1.7-0.5,2.6-0.5l6.3-0.5l3.7-0.7c1.1-0.2,2.5-0.3,3.5-0.8l8.2-1
	l6.6-1.2c0.8-0.1,1.5-0.5,2.3-0.6c1.7-0.2,3,0.2,4.7-0.5l2-0.8c0.2-0.1,1.4-0.2,1.4-0.4c0.1,0-0.1-0.4,0-0.5
	c0.2-0.3,3.5-0.8,4.1-0.9c1.6-0.3,4.5-1.4,5.7-2.5c0.5-0.4,0.6-1,1.2-1.4l2.8-2.2c0.7-0.4,1.5-1.7,2.1-2.3c0.6-0.6,0.4-1,1.4-1.4
	c1.6-0.7,3.3-0.3,4.9-0.8c0.5-0.2,1.1-0.5,1.7-0.6c0.6-0.1,1.4,0.2,2.2,0.2l6.3-2.1c1.1-0.4,2.4-0.2,3.5-0.5
	c1.2-0.3,2.2-0.6,3.6-0.7l2.8,0.1c0.5,0,1.1,0.6,1.6,0.8c2.1,0.7,3.9,0.1,5.9,0.1c0.1-0.1,0.3-0.5,0.5-0.5c1,1,1.2,0.1,2.3-0.2
	c0.6,0,0.7-0.5,1.2-0.5c0.8-0.1,1.6,0,2.3-0.3c0.2-0.1,0.1-1,0.2-1.2c0,0,0.1,0,0.1,0c0,0.1,0.8,0.5,0.9,0.6
	c0.7,0.2,2.1-1.2,2.7-1.6c0.3-0.2,0.8-0.1,1-0.3c0.1-0.1,0.3-0.6,0.5-0.5c1,1,1.8-0.1,2.2-0.9c0.5-0.9-1.9,0.3-2.1,0.4
	c-0.7,0.4-1.6,0.6-2.4,0.5c-0.7-0.1-0.9,0.3-1.2,0.3c-0.6,0-0.9,0-0.9,0.9c0,0.7-0.7,0.3-1.1,0.4c0,0.1-1.7,1.1-1.7,0.6
	c0.3-0.1,0.7-0.7,1-0.9c1.5-1,2.6-2,4.4-2.4c0.1-0.4-0.3-0.2,0.3-0.5c0.7-0.4,1.6-0.7,2.4-0.9c1.9-0.1,3.3,0.4,5.1,0.7
	c2.1,0.3,4.3,0.7,6.5,0.7c0.8-0.2,2.2,0.1,3.1,0.1c1.6,0,3.3,0,4.8,0.6l4.2,1.6l4.9,2.3c0.1,0,0.2,0.1,0,0.1
	c-0.4-0.1-0.9-0.4-1.3-0.5c-1-0.3-2.6-0.1-3.2-1c-0.2-0.3-0.6-0.4-1-0.4c-0.8,0-1.3-1-2.2-0.4c-0.4,0.3-0.7,0.8-1.2,1
	c-0.9,0.4-0.9-0.8-1.3-1c-1-0.6-1.7,0.3-2.7-0.3c-0.5,0-1.1-0.6-1.5-0.4c-0.5,0.2-0.4,0.7-1.1,0.7c-0.5,0-0.8-0.5-1.3-0.5
	c-0.5,0-1,0.3-1.5,0.3c-0.4,0-1-0.1-1.3,0c0.1,0.6,3.7,1.1,4.4,1.5c1.9,1.2,4.3,1.2,6.5,1.5c0.5,0.2,1.5,0.5,1.9,0.2
	c0.5-0.3,0.7-0.9,1.3-0.9c0.3,0,1.3,0.1,1.4,0.4c0.5,1,1.5,0.7,2.6,0.7c1,0,2.8-0.2,2.8,1.3c0,1,0.5,2.5,1.8,2.5
	c0.6,0.2,0.5,0.3,1,0.6c0.3,0.2,0.7,0.1,1.1,0.1c0.8,0,1.5,0.6,2.2,0.9c0.5,0.2,0.9-0.3,1.5,0.1c0.9,0.6,2.1,0.3,3.1,0.3l3.7,0.1
	l2.2,0.1c1,0.1,2,0.1,2.9-0.1c1.2-0.2-1.3-0.9-1.6-1c-1.8-0.3-3.7-0.1-5.5-0.7c-0.8-0.1-1.6-0.4-2.4-0.4c-0.6,0-1.5,0.2-1.8-0.3
	c-0.5-0.7-1.2-0.1-1.8-0.7c-0.8-0.7-2-0.6-2.9-1.1c-0.5-0.7-4.4-1.9-4.4-2.5l0,0c0.3,0,1,0.4,1.3,0.6c2.4,1.1,5.2,1.8,7.7,2.5
	c0.8,0.3,5.6,1.8,6.1,1.3c0.5-0.1,0.9,0.3,1.4,0.4l3.7,0.8l4,1.1c1.1,0.8,3.3,1,5,1l0,0l0.1,13.3V232l-2.3-0.3l-0.1-0.7l-6.1-1.2
	l-2.4,19.7l21.3,2.4l0.7-4.4l5.2,0.5l-0.7,7.6l-1,0.1l-0.1,2.3l-4.4-0.1l-0.2-2.6l-6.1,0.1l-0.2-0.6h-3.7l0,1.5l-1.3,2.6l-3,0.5
	l0.4,5.1l-9.3,15.8l6.8,4.5l0.1,4.7l-0.7,12.7l-10.9-1.2l-3.6,0.6l-0.9,3.8l1.2,0.5l-0.4,16.5l-7-0.3l-0.4-8.3l-12.5-0.6l-0.3-0.8
	l-1.2,0.1l-0.4,7.8l-5.1,0l-0.4,5.1l1.4,1.7l-1.3,3.9l-11.5-1.3l-5.9-0.8l-0.2-0.3l-3.2-0.2l0,2.5l-3.2,1.9l-5.8-0.4l-3.9,0.9
	c0,0.2,0.4,1.2,0,1.3c-0.6,0.1-1.4,0.2-2,0.1c-0.4,0-0.8-0.3-1.3-0.3l-1.8-0.1c-0.6,0-1-0.7-1.2-0.7c-0.1,0.5-0.3,2.1-0.7,2.5
	l-2.1,0l-0.5,0.9l-1.8-0.1l-0.1,1.3l2.1,0.8l-0.6,5.6l-6.6-0.5l-0.2,0.8l-0.8-0.1l-0.1,1.1l-3-0.4l0,1.6l-5.2-0.6l-0.1,2.2l-1.5,0.2
	l0.3,4.1l-1,4.3c-1,1.4-2.2,0.3-3.4,0.4c-0.3,0-0.6,0.6-1,0.3c-0.4-0.3-0.9-0.2-1.4-0.1c-0.5,0.1-1.3,0.4-1.7,0.7
	c-0.4,0.4-1.3,1.7-1.4,2.2c-0.3,1.3-0.8,1.5-2,1.7c-0.7,0.1-0.4,0.8-0.6,1.2c-0.3,0-0.5-0.6-0.8-0.8c-0.6-0.3-0.6,0.4-0.7,0.9
	c0,0.5-0.3,2-0.1,2.4c0.1,0.2,1.5,0.4,1.9,0.5c0.6,0.3,0.2,0.8,0.1,1.3c-0.1,0.3-0.6,1.5-0.5,1.7c0.6,0.8,0.2,1.1-0.5,1.7
	c-0.7,0.2-1.4,0.3-2.2,0.3c-0.8,0-1.4,0.8-2.2,0.9c-0.4,0.1-0.9,0.1-1.1,0.5c-0.3,0.7-0.8,0.5-1.4,0.4c-0.9-0.2-0.5,1-0.5,1.5
	c0.6,1.3-0.4,1-0.5,2c-0.1,0.7-0.6,1.4-0.6,2.1c0,0.6-0.7,0.1-1,0.2c-0.6,0.2-0.7,1.4-1.4,1.2l-1.1-0.3c-0.4-0.1,0-1.9,0-2.3l0,0
	c-0.3,0-1.6,0.4-1.6,0c-0.5-0.3-0.7-0.2-1,0.3c-0.4,0.4-0.9,0.6-1.2,1l0.1,0.7l-0.8,0.7l-0.8-0.2l-0.3,1.9l-2.2-0.2l-1.7,5.5
	l4.4-0.2l-0.5,1.7l-2.1,0.1l-0.9,2.7l-3.6-0.9l-0.2-0.7l-4.4-0.6l-0.9,9.3l2.6,0.1l0,2.9l-4,0.1l-0.2-5.3l-3.9-0.5l-0.2,1.3l-3-0.2
	l-0.2,1.8l-9.1,7.2l0,0l-5.4-7.2l-1.9-2l-3.6-4.1l-0.5-1.3l-0.9-0.1l-1.3-1.8h-1.5l-1-2.3l-0.8-1.6l0.8,0l0.3-3.2l-3.5-0.2l-7-10.1
	l-0.2-5.1l-0.9-0.2l0.1-1.8l-0.9-0.1l1.2-7.8l0.7-2.4l-1.1-0.6l0.3-2.3l-0.3-3.5l-0.5-4.5l-1.5-0.1l-2.5-0.8l-1-1.6l1.4-2.4
	l-2.4-1.1l-2.4,0.6l-0.5,1l-1.4,0.6l-2.9,0.2l-1.7,1.6l-1.1,1.3l-2.7-0.9l-0.2-1.6l-0.1-2l-1.7-0.9l-2.4,0.1l0.2-4.7l-3.2-0.3
	l0.5-3.4l4.5,0.1l0.3-3l0.2-2.6l-4.7-1l-0.1-1.5l-0.1-1.1l1.5-0.1l2.1-3.6l-0.1-1l0.4-4.7l-5.3-0.7l0-1.8l-2.4-0.3l-0.7,3.8
	l-1.6-0.2l-1.7-0.2l0-0.8l-1.1-0.2l-0.1-2.3l-3.6-0.5l-0.4,2l-2.2,0.5l-2,1.2l-0.7,3l-0.8,0l-0.4,2l-2.6,0.4l-0.1,0.8l0.6,0.3
	l-0.2,1.3l-1.2-0.3l0.5-2.6l-0.1-1.4l-2.8-1.5l-1,0.3l-2.6-0.2l-1.8,0.3l0.5-3.2l-4-1.7l0.1-2.2l0.6-0.1l-0.1-1.1l-1.3-0.3l0.1-2.3
	l-9.5-1.1l-4.8-0.1l0.5-27.3l0,0c0-0.1,0-0.3,0-0.4c-0.2-0.5,0.2-1.4,0.6-1.8c0.5-0.3,0.3-0.5,0.6-0.8c0.1-0.1,0.5-0.1,0.8-0.3
	c0.4-0.4,0.4-1.1,0.6-1.6c0.2-0.4,0.5-0.6,0.8-1c0.2-0.3,0.3-1.2,0.3-1.5l0.1-0.8c0.1-0.4,0.5-0.5,0.6-0.8c0.3-0.4,0.5-1,0.5-1.5
	c0-0.2,0-1.2-0.2-1.2v0h0c0,0-0.2,0.1-0.2,0.1c-0.1,0.1-0.2,0.1-0.3,0.1c0-0.2-0.5-0.7-0.7-0.4c-0.1,0.1,0,0.3,0,0.4
	c0,0.3-0.2,0.5-0.3,0.7c-0.2,0.4-0.3,0.8-0.3,1.2c0,0.3,0.1,0.4,0.1,0.7c0,0.3-0.2,0.6-0.3,0.9c-0.4,0.6-0.3,1.4-0.5,2
	c-0.1,0.5-0.4,1.2-0.7,1.6c-0.2,0.3-0.3,0.7-0.5,1.1c-0.2,0.5-0.8,0.7-1.1,1.2c-0.3,0.5-0.6,0.7-0.6,1.4
	C277.3,274.4,277.2,274.6,277.2,274.9L277.2,274.9L277.2,274.9z"/>
</svg>
