<?xml version="1.0" encoding="utf-8"?>
<!-- Generator: Adobe Illustrator 18.0.0, SVG Export Plug-In . SVG Version: 6.00 Build 0)  -->
<!DOCTYPE svg PUBLIC "-//W3C//DTD SVG 1.1//EN" "http://www.w3.org/Graphics/SVG/1.1/DTD/svg11.dtd">
<svg version="1.1" id="Capa_1" xmlns="http://www.w3.org/2000/svg" xmlns:xlink="http://www.w3.org/1999/xlink" x="0px" y="0px"
	 viewBox="0 640 300 300" enable-background="new 0 640 300 300" xml:space="preserve">
<g>
	<path fill="#576065" d="M168.1,760.1c1.5-1.5,1.5-3.9,0-5.4c-1.5-1.5-3.9-1.5-5.4,0c-2.7,2.8-8,7.6-10.6,8.8
		c-1.8,0.9-2.6,3-1.9,4.9c0.6,1.5,2,2.3,3.5,2.3c0.4,0,0.8-0.1,1.3-0.2c9-3.1,28.7-4,37.1-2.3c1.5,0.3,3-0.3,3.9-1.5
		c0.9-1.2,0.9-2.8,0.2-4.2c-2.3-4-14.7-14.9-20.9-17.2c-2-0.7-4.2,0.3-4.9,2.2c-0.7,2,0.3,4.2,2.2,4.9c2.3,0.9,6.6,4.1,10.3,7.3
		c-4.7-0.1-10,0.1-15.1,0.6C167.9,760.3,168.1,760.1,168.1,760.1z"/>
	<path fill="#576065" d="M147.3,823.1c10.6,0,22.5-6.7,23.6-21.3c0.6-8.5-1.2-12.9-2.9-16.7c-0.9-2.2-1.7-4.1-2-6.7
		c6.1-1.6,13.1-1.9,23.3-1c2.1,0.2,4-1.4,4.1-3.5c0.2-2.1-1.4-4-3.5-4.1c-12.7-1.2-21.1-0.6-28.9,2.1c-1.5,0.5-2.5,1.9-2.6,3.4
		c-0.3,5.9,1.2,9.5,2.6,12.7c1.4,3.4,2.8,6.6,2.3,13.2c-0.3,4.7-2.2,8.4-5.5,10.9c-2.8,2.1-6.6,3.4-10.4,3.4c-4.7,0-8.5-1-11.2-3
		c-2.7-2-4.2-5-4.6-9c-0.6-5.4-0.1-12.9,5-18.4c1.4-1.5,1.4-4-0.2-5.4c-1.6-1.4-3.9-1.3-5.4,0.2c-3.9,4.2-8.3,11.8-7.1,24.3
		C125.1,816,133.8,823.1,147.3,823.1z"/>
	<path fill="#576065" d="M115.8,782.2C115.7,782.2,115.7,782.2,115.8,782.2c-3.7,0.1-6.2-2-7.7-6.5c-0.7-2-2.9-3-4.9-2.3
		c-2,0.7-3,2.9-2.3,4.9c1.5,4.4,5.4,11.6,14.6,11.6c0.1,0,0.3,0,0.4,0c2.1,0,3.8-1.8,3.7-3.9C119.5,783.9,117.8,782.2,115.8,782.2z"
		/>
	<path fill="#576065" d="M131.8,830.8c0.4-2.1-0.9-4.1-3-4.5c-2.1-0.4-4.1,0.9-4.5,3c-1.1,5.8-0.7,18.4,5.1,27.7
		c0.7,1.2,2,1.8,3.2,1.8c0.7,0,1.4-0.2,2-0.6c1.8-1.1,2.3-3.5,1.2-5.3C131.5,845.9,130.9,835.6,131.8,830.8z"/>
	<path fill="#576065" d="M145.2,747.5c-0.9,0.7-1,2.1-0.3,2.9c0.8,1,1.1,1.9,0.8,2.8c-0.3,1.1,0.3,2.3,1.4,2.6
		c0.2,0.1,0.4,0.1,0.6,0.1c0.9,0,1.7-0.6,2-1.5c0.4-1.3,0.7-3.9-1.6-6.7C147.4,746.9,146.1,746.7,145.2,747.5z"/>
	<path fill="#576065" d="M167,723.6c1.1,1.3,2.6,2.1,4.4,2.1c4.3,0,8.4-2.9,12.7-5.9c3.7-2.6,7.4-5.3,10.7-5.6
		c-0.1,2.1-1.4,8.9-12.4,27.9c-1.1,1.8-0.4,4.2,1.4,5.2c0.6,0.3,1.3,0.5,1.9,0.5c1.3,0,2.6-0.7,3.3-1.9c4.1-7,7.2-13.2,9.5-18.2
		c4-9.1,4.9-14.5,2.9-18c-1.2-2.1-3.3-3.2-5.9-3.2c-5.9,0-11.2,3.8-15.9,7.1c-2.2,1.5-4.5,3.2-6.4,4c0.2-2.1,1-5.3,1.5-7.4
		c1.6-6.9,2.9-12.4,0.3-15.6c-1.1-1.4-2.7-2.1-4.5-2.1c-5.6,0-9,5.5-12.3,10.9c-1.5,2.5-4.4,7.2-5.9,7.5c-1-1.2-1.4-6.2-1.6-8.4
		s-0.4-4.2-0.8-5.9c-1.1-4.5-3.9-5.2-5.4-5.2c-1.7,0-4.1,0.8-5.6,4.5c-0.9,1.4-1.3,3.3-1.9,5.3c-0.5,2-1.5,5.8-2.5,7.1
		c-0.8-1.3-1.5-5.2-1.8-7.1c-0.4-2-0.7-3.8-1.2-5.4c-1.4-4-4-4.7-5.4-4.7c-1.9,0-4.4,0.9-5.7,5.4c-0.5,1.8-0.9,4.1-1.2,6.3
		c-0.2,1.3-0.5,3.3-0.8,4.7c-1.3-0.5-3-1.4-3.9-1.9c-3.2-1.7-5.4-2.8-7.6-1.9c-1.1,0.4-2,1.3-2.4,2.4c-0.9,2.2-0.6,6.5-0.2,9.8
		c0.2,2.1,2.1,3.6,4.2,3.4c2.1-0.2,3.6-2.1,3.4-4.2c-0.1-0.8-0.2-1.6-0.2-2.3c2.8,1.4,5.7,2.8,8.3,2.8c1.9,0,4.4-0.9,5.7-5.4
		c0.2-0.8,0.4-1.7,0.6-2.7c0.3,1,0.6,1.9,0.9,2.8c2,4.8,5.1,5.8,7.4,5.8c5.2,0,7.5-4.7,8.9-9.3c0.2,1.7,0.5,3.4,1,5
		c1.8,5.7,5.6,6.5,7.7,6.5c5.8,0,9.4-5.9,12.6-11.1c1.3-2.1,2.6-4.3,3.9-5.7c0.1-0.1,0.1-0.1,0.2-0.2c-0.3,2.1-1,5-1.4,7.1
		C165.7,715.1,164.5,720.4,167,723.6z"/>
	<path fill="#576065" d="M132.5,760.3c4.4,0,7.8-3.3,7.8-7.6c0-2.2-1.4-4.3-3.9-5.8c-3.7-2.1-8.4-2-12.7,0.4c-1.9,1-2.5,3.3-1.5,5.2
		c0.5,0.9,1.3,1.5,2.2,1.8C125.1,758,128.1,760.3,132.5,760.3z"/>
	<path fill="#576065" d="M268.2,645H31.9C17.1,645,5,657.1,5,671.9v183.2v30.5c3-7.6,7.1-17.2,12.1-27.8c8.8-18.6,20.3-40.4,33.9-61
		c28-42.4,55.2-64.7,78.5-64.7c11,0,24.7,8.6,31,13.7c2.6,2.1,6.4,1.7,8.5-0.9s1.7-6.4-0.9-8.5c-1.6-1.2-7.2-5.6-14.8-9.6
		c-8.7-4.5-16.7-6.8-23.8-6.8c-15.4,0-31.5,7.3-48,21.6c-13.3,11.5-27,27.9-40.7,48.5c-8.8,13.4-16.8,27.3-23.8,40.5V671.9
		c0-8.1,6.6-14.7,14.7-14.7h236.2c8.1,0,14.7,6.6,14.7,14.7v236c0,8.1-6.6,14.7-14.7,14.7h-61c4-4.8,7.1-11.8,7.1-21.7
		c0-14.3-2.7-29-7.4-40.2c-5.9-14-14.5-21.8-24.3-21.8c-6,0-11.7,2.7-17.1,7.9c-0.8,0.8-1.7,1.7-2.5,2.7c-2-5.7-3.1-12.9-3.2-17.6
		c-0.1-3.3-2.8-5.9-6.1-5.9h-0.1c-3.4,0.1-6,2.8-5.9,6.2c0,0.2,0.5,18.1,7.5,29.1c-0.4,0.7-0.8,1.5-1.2,2.2
		c-5.9,12-9.9,26.9-9.9,37.1c0,8.8,3.4,16.3,8.4,22c5.8,6.7,13.6,10.9,20.6,12.1c1.3,0.2,2.6,0.3,3.9,0.3c1.3,0,3.3-0.1,5.6-0.3
		h85.6c14.8,0,26.9-12.1,26.9-26.9V671.9C295,657.1,283,645,268.2,645z M156.1,900.6c0-6.9,2.7-19.7,8.7-31.8
		c5.5-11.1,12.1-17.8,17.6-17.8c4.6,0,9.3,5.2,13.1,14.3c4.1,9.7,6.5,23,6.5,35.6c0,8.4-2.9,14.2-8.9,17.9
		c-3.7,2.3-7.9,3.3-11.3,3.8c-2.1,0.3-3.9,0.3-5,0.3c-0.9,0-1.8-0.1-2.8-0.3C166.5,920.9,156.1,912.9,156.1,900.6z"/>
</g>
</svg>
