<?xml version="1.0" encoding="utf-8"?>
<!-- Generator: Adobe Illustrator 18.0.0, SVG Export Plug-In . SVG Version: 6.00 Build 0)  -->
<!DOCTYPE svg PUBLIC "-//W3C//DTD SVG 1.1//EN" "http://www.w3.org/Graphics/SVG/1.1/DTD/svg11.dtd">
<svg version="1.1" id="Capa_1" xmlns="http://www.w3.org/2000/svg" xmlns:xlink="http://www.w3.org/1999/xlink" x="0px" y="0px"
	 viewBox="-132 -132 300 300" enable-background="new -132 -132 300 300" xml:space="preserve">
<g>
	<path fill="#576065" d="M4.1,26.8c1.7,0.9,3.8,1.4,6.5,1.4c0.7,0,1.2,0,1.3,0c2.1-0.2,4-1.4,5-3.3c1-1.9,0.9-4.1-0.2-5.9
		c-2.2-3.6-7-7.2-11.5-7.2c-1.7,0-3.2,0.5-4.5,1.5C-1,14.4-2,16.5-1.9,18.8C-1.5,23.6,4.1,26.8,4.1,26.8z"/>
	<path fill="#576065" d="M-33.3,32.9c-1.5-3-5.2-4.2-8.2-2.6c-0.2,0.1-10,5.1-20.2,10.3c2.2-2.3,4.4-4.4,6.3-6c2.6-2.1,3-6,0.8-8.6
		c-2.1-2.6-6-3-8.6-0.8c-4.8,4-19.3,18-22.1,29.6c-0.6,2.3,0.3,4.7,2.1,6.2c1.1,0.9,2.4,1.3,3.8,1.3c0.9,0,1.8-0.2,2.7-0.6
		c9.4-4.6,40.3-20.5,40.6-20.6C-33,39.6-31.8,35.9-33.3,32.9z"/>
	<path fill="#576065" d="M68.5,69c0.1,0,0.1,0,0.2,0c2.1,0,3.8-1.8,3.8-3.9c0-2.1-1.8-3.8-3.9-3.8c-3,0.1-8-2.1-10.2-5.3
		c-1.2-1.7-3.6-2.2-5.3-1c-1.7,1.2-2.2,3.6-1,5.3C56,66,63.4,69,68.5,69z"/>
	<path fill="#576065" d="M136.1-127h-236.2c-14.8,0-26.9,12.1-26.9,26.9V4.8v12.3l4.2,0.7c0.3,0.1,0.7,0.1,1,0.2
		c2.4,0.4,4.7,0.8,7,1.2c15.9,2.7,28.4,4,34.9,0.7c3.2-1.6,10.2-6.3,21.4-13.8c7.8-5.3,16.7-11.2,24.2-16c3-1.9,5.3-3.3,7.3-4.5
		c0.2,0.8,0.3,1.7,0.5,2.5c0.5,3,3.1,5.1,6,5.1c0.3,0,0.7,0,1-0.1c3.3-0.6,5.5-3.7,5-7c-1-6.1-2.4-11.8-4.1-17.3
		c4.4,7.6,7.9,14.6,9.9,19c1.4,3.1,4.9,4.5,8,3.1c3.1-1.4,4.5-4.9,3.1-8c0-0.1-0.3-0.7-0.7-1.7c3.8,0.1,7.5,0.6,11.2,2.3
		C17.1-14.4,24.7-2,29.7,6.2c4.5,7.3,8.7,14.2,12.6,18.1c5.7,5.8,16.8,14.8,25.7,22c4.4,3.6,9.3,7.5,11,9.2
		c0.5,2.4,0.5,8.8-0.3,10.7c-0.7,1-1.6,2.3-2.4,3.6c-2.5,3.7-8,11.7-10.9,14.5c-12.2-3.3-39.7-7.8-48.3-5.9
		c-6.5,1.4-10,1.9-16.9-1.7c-2.2-1.1-4.3-2.1-6.4-3c-6.8-3-10.1-4.6-11-9.2c-1.6-7.8-3.2-12.8-4.9-14.8c-2.1-2.6-6-3-8.6-0.9
		c-2.4,2-2.9,5.5-1.2,8.1c0.2,0.4,1.3,2.8,2.7,10c2.2,11,11,14.9,18.1,18c1.9,0.8,3.8,1.7,5.6,2.6c10.3,5.5,16.9,4.6,25.1,2.9
		c2.8-0.6,12.1,0.2,21.9,1.7c0.9,3.4,0.5,4.9-2,15.6l-0.3,1.4c-0.6,2.7,0.6,5.4,3,6.7c0.9,0.5,1.9,0.7,2.9,0.7
		c1.6,0,3.2-0.7,4.4-1.9C57,106.7,60.5,100.3,62,96c0.7,0.2,1.3,0.4,1.9,0.5c0.8,0.2,1.5,0.3,2.2,0.3c4.4,0,8.1-4,11.2-7.9
		c3-3.7,6.3-8.5,8.9-12.3c0.9-1.3,1.8-2.6,2.5-3.6c1.8-2.5,2.7-6.8,2.8-12.6c0-2.2,0.1-8.9-2.7-12.2c-1.3-1.6-4.5-4.2-13.2-11.3
		C67,29.9,56.2,21.1,51,15.8c-0.8-0.9-1.8-2-2.8-3.4C50,6.8,54.2-2.9,60.4-4.8c2.5-0.7,4.3-3,4.3-5.7c0.1-2.6-1.6-5-4-5.9
		c-5.2-1.8-12-2.6-18.2-2c-3.6,0.3-8.1,1.2-11.9,3.3c-2.7-3.8-5.4-7-8.2-9.3c0-0.2-0.1-0.4-0.1-0.5C21.8-26.4,10.5-60.5-14.8-72
		c-2.6-1.2-5.6-0.4-7.3,1.8c-1.7,2.2-1.7,5.3,0,7.5c8,10.2,9.7,12.3,12.6,23.2c-0.7-1.1-1.3-2.2-2-3.3c-11.6-18.6-23.2-30.4-34.3-35
		c-2.7-1.1-5.8-0.2-7.4,2.2c-1.6,2.4-1.3,5.6,0.8,7.7C-44.6-60-35.5-45-30-26.5c-6.6,3.6-17.2,10.5-35.3,22.6
		c-8.6,5.8-17.5,11.7-20.1,13c-0.3,0.1-2.8,1.2-13.3,0.2c-5.2-0.5-11-1.5-16.2-2.4v-107c0-8.1,6.6-14.8,14.8-14.8h236.2
		c8.1,0,14.8,6.6,14.8,14.8v236.2c0,8.1-6.6,14.8-14.8,14.8h-163c0.6-2.3,1.1-4.5,1.4-6.5c1.2,0.6,2.7,1.1,4.4,1.3
		c2.4,0.2,4.7-1.2,5.8-3.4c6.1-12.3,10.6-39.3,10.9-46c0.2-3.4-2.4-6.2-5.8-6.4c-3.4-0.2-6.2,2.4-6.4,5.8
		c-0.3,5.1-3.4,23.9-7.4,35.6c-2-1-4.5-1.9-7.8-1.8c-2,0-3.8,1-4.9,2.7c-1.1,1.6-1.4,3.7-0.7,5.6c0.3,1.2,0,5.8-2.2,13.2
		c-0.2,0.6-0.3,1.1-0.5,1.7c-1.4,4.3-2.8,7.9-4,10.4h13.2h167c14.8,0,26.9-12.1,26.9-26.9v-236.2C163-114.9,150.9-127,136.1-127z
		 M43.6-6.3c0.1,0,0.1,0,0.2,0c-1.4,2-2.6,4.1-3.6,6.1c0,0,0,0,0-0.1c-1-1.6-1.9-3.1-2.8-4.6C38.7-5.4,40.8-6,43.6-6.3z M7-30.1
		c-0.5-0.1-1-0.1-1.5-0.2c-0.2-1-0.5-1.9-0.7-2.8c-0.3-1-0.5-2-0.7-2.9C5.1-33.9,6.1-31.9,7-30.1z"/>
</g>
</svg>
