<?xml version="1.0" encoding="utf-8"?>
<!-- Generator: Adobe Illustrator 18.0.0, SVG Export Plug-In . SVG Version: 6.00 Build 0)  -->
<!DOCTYPE svg PUBLIC "-//W3C//DTD SVG 1.1//EN" "http://www.w3.org/Graphics/SVG/1.1/DTD/svg11.dtd">
<svg version="1.1" id="Capa_1" xmlns="http://www.w3.org/2000/svg" xmlns:xlink="http://www.w3.org/1999/xlink" x="0px" y="0px"
	 viewBox="330 170 300 300" enable-background="new 330 170 300 300" xml:space="preserve">
<g>
	<path fill="#576065" d="M498.3,347.5c6.4,0,9.3-4.1,9.3-8.2c0-2-0.7-6.7-7-9.1c-2.7-1-6.1-1.6-10.5-1.6c-3.4,0-6.1,2.8-6.1,6.1
		c0,3,2.2,5.5,5.1,6C490.3,344.9,493.9,347.5,498.3,347.5z"/>
	<path fill="#576065" d="M411.3,379.8c0,3.4,2.8,6.1,6.1,6.1c23.9,0,57,14.3,76.8,22.9c11.4,4.9,15.2,6.5,17.9,6.5
		c1.3,0,5.1,1.6,7.6,2.5c5.3,2.1,10.6,4.2,15.4,4.2c2.3,0,4.3-0.5,6.2-1.6c6.3-3.6,22.3-16.9,26.4-22.3c1.7-2.2,1.7-5.2,0-7.4
		c-1.3-1.8-3.5-2.7-5.5-2.4c-0.8-0.3-3.9-1.9-9.3-8.8c-9.1-12.1-15.9-37.1-15.9-45.7c0-3.4-2.8-6.1-6.1-6.1c-3.4,0-6.1,2.8-6.1,6.1
		c0,11.7,7.8,39.1,18.5,53c3.1,4.1,6.2,7.3,9,9.5c-5.5,4.9-13.3,11.2-16.9,13.4c-0.8,0.1-2.4-0.3-4.1-0.8
		c-5.5-3.4-12.2-8.4-18.7-14.6c-7.6-7-12.2-12.6-13.4-14.7c-1-1.9-3.2-2.7-5.1-1.7c-1.9,1-2.7,3.2-1.7,5.1c2.1,4.2,9,11.7,17.2,18.9
		c-2.8-1.1-6.8-2.9-10.6-4.5c-20.6-8.9-55.2-23.9-81.7-23.9C414,373.7,411.3,376.5,411.3,379.8z"/>
	<path fill="#576065" d="M597.9,175h-236c-14.8,0-26.9,12.1-26.9,27v18.8v12.2c3.5,0,7.6,0,12.2,0.1c21,0.4,52.5,2.4,72.1,10.8
		c10.2,4.4,24.5,12.8,39.7,21.6c30.9,18.1,52.1,29.9,64.1,29.9c8.8,0,16.9,1.4,23.1,3.7c5.8,2.3,7.5,4.6,7.6,5.2
		c-0.2,3.1-7.5,6.6-10.1,6.8c-0.9,0-3.7-0.8-5.6-1.4c-3.7-1.1-8.1-2.3-11.7-2.3c-4,0-6.8,1.7-9,3c-2,1.2-3.4,2-5.6,2
		c-6.7,0-16.1-5.3-17.9-7.2c-2.3-2.4-6.1-2.7-8.6-0.4c-2.4,2.3-2.7,6.1-0.5,8.6c3.5,3.8,16,11.2,26.8,11.2c5.7,0,9.3-2.2,11.9-3.7
		c1.4-0.9,2.3-1.3,2.9-1.3c2,0,5.5,1,8.3,1.8c3.5,1,6.4,1.8,8.8,1.8c3.4,0,8.4-1.8,12.6-4.2c6.2-3.7,9.6-9,9.6-14.7
		c0-3.6-1.9-10.6-14-15.9c-7.8-3.4-18-5.2-28.8-5.2c-9.5,0-36.3-15.6-57.9-28.2c-15.5-8.9-30.2-17.4-41.1-22.2
		c-21.6-9.4-54.9-11.4-76.9-11.8v-18.9c0-8.2,6.6-14.7,14.7-14.7h236.1c8.2,0,14.7,6.6,14.7,14.7V438c0,8.2-6.6,14.7-14.7,14.7
		H405.6c-5.7-14.9-8.4-29.7-8.2-43.8c0.4-20.6,7.3-40.2,20.4-58.2c2-2.8,1.4-6.5-1.3-8.4c-2.8-2-6.5-1.4-8.4,1.3
		c-23.9,32.6-29.1,70.1-15.4,109.2c1.4,4,2.9,8.1,4.8,12.2h13.4h187.2c14.8,0,26.9-12.1,26.9-27V202
		C624.9,187.1,612.7,175,597.9,175z"/>
</g>
</svg>
