<?xml version="1.0" encoding="utf-8"?>
<!-- Generator: Adobe Illustrator 18.0.0, SVG Export Plug-In . SVG Version: 6.00 Build 0)  -->
<!DOCTYPE svg PUBLIC "-//W3C//DTD SVG 1.1//EN" "http://www.w3.org/Graphics/SVG/1.1/DTD/svg11.dtd">
<svg version="1.1" id="Capa_1" xmlns="http://www.w3.org/2000/svg" xmlns:xlink="http://www.w3.org/1999/xlink" x="0px" y="0px"
	 viewBox="-132 -132 300 300" enable-background="new -132 -132 300 300" xml:space="preserve">
<path fill="#576065" d="M136.1-127h-236.2c-14.9,0-26.9,12.1-26.9,26.9V83.3v3.3c0,0,0,0,0,0v27.2c0,0,0,0,0,0v0
	c0-0.1,0.1-0.2,0.1-0.3c8.8-18.5,20.3-40.3,33.8-60.8C-78.8,32.3-65.8,16.5-54.3,4c-12.9,26.6-21.5,59.2-21.5,81.7
	c0,19.7,7.6,36.5,18.7,49.3c12.9,14.9,30.5,24.5,46.1,27.2c3,0.5,5.9,0.8,8.7,0.8c0.5,0,1.1,0,1.7,0l-0.1,0h136.8
	c14.9,0,26.9-12.1,26.9-26.9v-236.2C163-114.9,150.9-127,136.1-127z M10,149.9c-5.6,0.8-10.2,0.9-13.2,0.9c-2.3,0-4.8-0.3-7.4-0.9
	c-19.9-4.6-51.9-30.1-51.9-62.7c0-18.2,7.2-52.4,23-84.3c9.9-19.9,22.9-32.5,34.8-38.6c6.6-3,11.3-4,13.8-4.3
	c0.8-0.1,1.6-0.1,2.4-0.1c12.1,0,30.1,13.9,40.2,38C62.6,23.7,69,59,69,92.4c0,22.2-13.1,37.7-29.1,47.5C30,146,18.9,148.7,10,149.9
	z M150.9,136.1c0,8.2-6.6,14.8-14.8,14.8H44c6.9-3.8,14.2-9,21.3-15.8c8.9-10.8,15.9-26.3,15.9-48.5c0-32-6-64.8-16.6-90.1
	C51.6-35,32.2-52.3,10.2-52.3c-1.5,0-3,0.1-4.5,0.2c-7.3,0.7-14.4,3.3-21.3,7.6C-57.3-21.2-103.2,46-103.2,46
	c-4.1,6.2-8,12.4-11.6,18.7v-164.8c0-8.2,6.6-14.8,14.8-14.8h236.2c8.2,0,14.8,6.6,14.8,14.8V136.1z"/>
</svg>
