<?xml version="1.0" encoding="utf-8"?>
<!-- Generator: Adobe Illustrator 18.0.0, SVG Export Plug-In . SVG Version: 6.00 Build 0)  -->
<!DOCTYPE svg PUBLIC "-//W3C//DTD SVG 1.1//EN" "http://www.w3.org/Graphics/SVG/1.1/DTD/svg11.dtd">
<svg version="1.1" id="Capa_1" xmlns="http://www.w3.org/2000/svg" xmlns:xlink="http://www.w3.org/1999/xlink" x="0px" y="0px"
	 viewBox="-132 -132 300 300" enable-background="new -132 -132 300 300" xml:space="preserve">
<g>
	<path fill="#576065" d="M-14.1,94.5c3.8,6.1,9.5,15.2,21.5,18.5c6.4,1.7,12.8,4.5,18.5,7c7.8,3.4,14.3,6.2,19.9,6.2
		c1.1,0,2.1-0.1,3.2-0.3c0.2,0,0.6-0.1,0.9-0.2c4.8-0.8,14.7-2.4,25.4-20.5c8.2-14,4.8-28.5,2.4-39.1c-1-4.2-1.9-8.2-1.8-10.8
		c0.1-2.1,0.2-17.1,0.3-25c0.9-0.2,1.9-0.4,2.8-0.6c7.2-1.5,18.2-3.7,27.5-6.4c5.4-1.6,9.5-3.1,12.6-4.7c2-1,8.1-4.2,8.1-10.2
		c0-1.4,0-5.6-11.9-15.4c-10.6-8.7-20.3-12.7-25.1-14.3c-5.3-1.7-10.2-1.4-13.5-1.2c-0.1,0-0.1,0-0.2,0
		c-2.8-12.7-10.9-23.1-23.7-30.1c-12.6-6.9-27-9.4-36.9-10.2c-15.2-1.3-29.8,3-39.4,6.9c-12.1,4.8-23.2,11.7-30.5,19
		c-1.6,1.2-8.9,3.7-14.2,5.6c-19.2,6.7-33,12.1-36.3,21c-1.2,3.2-0.9,6.7,0.9,9.7c8.8,15.2,19.6,23.8,32.4,25.5
		c8.2,1.1,16.8-0.8,25.5-5.6c3-1.6,4.1-5.4,2.5-8.4c-1.6-3-5.4-4.1-8.4-2.5c-6.4,3.5-12.5,4.9-18,4.2c-8.6-1.1-16.3-7.5-23-19
		c0.6-0.8,2.6-2.8,9-5.8c5.8-2.7,13.1-5.3,19.5-7.5c10.4-3.6,16-5.6,18.7-8.4c12.2-12.2,38.8-24.2,60.3-22.4
		c8.7,0.7,21.3,2.8,32,8.7c10.4,5.8,16.5,13.9,18,24.3c0.6,9.1,0.8,20.3,0,22.9c-1,3.3,0.7,6.7,4,7.8c0.6,0.2,1.3,0.3,1.9,0.3
		c2.6,0,5-1.7,5.9-4.3c1.3-4,1.3-12.6,1-19.4c2.7-0.2,5.8-0.4,8.7,0.6c12,3.9,22.3,12.6,26.8,17.3c-2.1,1-6,2.6-13,4.5
		c-8.1,2.2-17.4,4-23.5,5.3c-2.3,0.5-4.3,0.9-5.8,1.2c-0.9,0.2-1.5,0.3-2,0.5c-4.7,1.3-5,5.1-5,6.2c0,1.4-0.2,27.2-0.3,29.4
		c-0.2,4.3,1,9.1,2.1,14.1c2.2,9.5,4.8,20.3-1,30c-7.7,13.1-13.4,14-16.8,14.6c-0.5,0.1-1,0.2-1.5,0.3c-2.6,0.5-9.8-2.6-15.6-5.1
		c-6.1-2.6-12.9-5.6-20.2-7.6c-7.3-2-10.8-7.6-14.2-13c-1.9-3-3.7-5.9-6.1-8c-4.6-4-10.5-6.6-15.7-9c-3.5-1.6-6.8-3.1-8.8-4.6
		c-2.4-1.8-6.6-9.1-9.1-14.8c-1.4-3.1-5-4.5-8.1-3.2c-3.1,1.4-4.5,5-3.2,8.1c1.1,2.5,6.9,15.1,13.1,19.8c3.1,2.3,6.9,4,11,5.9
		c4.6,2.1,9.4,4.3,12.7,7.1C-16.8,90.2-15.5,92.4-14.1,94.5z"/>
	<path fill="#576065" d="M45.4,87.5c-0.5-2.1-2.5-3.4-4.6-3s-3.4,2.5-3,4.6c1.7,7.6,9.5,12.7,14.3,13.7c0.3,0.1,0.6,0.1,0.8,0.1
		c1.8,0,3.4-1.2,3.8-3c0.5-2.1-0.9-4.2-3-4.6C51,94.7,46.2,91.2,45.4,87.5z"/>
	<path fill="#576065" d="M10,18.1c0.9,2,3.2,2.9,5.1,2s2.9-3.2,2-5.1c-3.5-8-8-13.9-13.4-17.4C-1-5.7-6.5-6.9-11.9-6.1
		C-21.3-4.7-29.7,3-30.6,11c-1.2,10,8.5,21.7,18.7,34.1c2.7,3.2,5.4,6.6,8,9.9C1.7,62.3,6.2,69.7,9.8,75.6c3.2,5.2,5.3,8.7,7.1,10.4
		c0.7,0.7,1.7,1,2.6,1c1,0,2.1-0.4,2.9-1.2c1.5-1.6,1.4-4-0.2-5.5c-1.1-1-3.5-4.9-5.8-8.8c-3.5-5.8-8.3-13.7-14.2-21.3
		c-2.6-3.4-5.4-6.8-8.1-10.1c-8.7-10.6-17.8-21.5-17-28.2c0.6-5.1,6.9-9.5,12.1-10.3C-2.6,0.4,4.8,6.2,10,18.1z"/>
	<path fill="#576065" d="M-3.8,9.8c-0.5-0.5-1.1-1.1-1.6-1.5c-2.7-2.1-6.6-1.7-8.7,1c-2.1,2.7-1.7,6.5,0.9,8.7
		c0.1,0.1,0.4,0.4,0.6,0.6c1,1,2.5,2.5,4.4,3.7c1,0.7,2.2,1,3.3,1c2,0,4-1,5.2-2.9c1.8-2.9,1-6.7-1.9-8.5
		C-2.2,11.4-3.1,10.5-3.8,9.8z"/>
	<path fill="#576065" d="M59.7,11.4c-1-1.9-3.3-2.7-5.2-1.7c-6.7,3.5-15.9,4.4-24.7,2.6c-2.1-0.4-4.2,0.9-4.6,3
		c-0.4,2.1,0.9,4.2,3,4.6c3.5,0.7,6.9,1.1,10.4,1.1c7.1,0,13.9-1.5,19.5-4.4C60,15.6,60.7,13.3,59.7,11.4z"/>
	<path fill="#576065" d="M138.1-129.5h-240.2c-15.1,0-27.4,12.3-27.4,27.4v58.6v12.6l12.4,2.5l16.8,3.3c0.4,0.1,0.8,0.1,1.2,0.1
		c2.9,0,5.5-2,6.1-5c0.7-3.4-1.5-6.6-4.9-7.3l-19.2-3.8v-61.1c0-8.3,6.7-15,15-15h240.2c8.3,0,15,6.7,15,15v240.2
		c0,8.3-6.7,15-15,15H-9.8l13.7-27.8c1.5-3.1,0.3-6.8-2.8-8.3c-3.1-1.5-6.8-0.3-8.3,2.8l-16.4,33.2l-6.1,12.4h13.8h154
		c15.1,0,27.4-12.3,27.4-27.4v-240.2C165.5-117.2,153.2-129.5,138.1-129.5z"/>
</g>
</svg>
