<?xml version="1.0" encoding="utf-8"?>
<!-- Generator: Adobe Illustrator 17.0.0, SVG Export Plug-In . SVG Version: 6.00 Build 0)  -->
<!DOCTYPE svg PUBLIC "-//W3C//DTD SVG 1.1//EN" "http://www.w3.org/Graphics/SVG/1.1/DTD/svg11.dtd">
<svg version="1.1" id="Capa_1" xmlns="http://www.w3.org/2000/svg" xmlns:xlink="http://www.w3.org/1999/xlink" x="0px" y="0px"
	 width="36px" height="36px" viewBox="0 0 36 36" enable-background="new 0 0 36 36" xml:space="preserve">
<g>
	<path fill="#FFFFFF" d="M14.077,27.336c0.46,0.74,1.156,1.859,2.627,2.252c0.781,0.209,1.565,0.55,2.256,0.851
		c0.954,0.416,1.74,0.758,2.432,0.758c0.132,0,0.26-0.012,0.385-0.039c0.026-0.006,0.068-0.012,0.112-0.019
		c0.584-0.095,1.799-0.293,3.102-2.498c1.006-1.703,0.591-3.476,0.287-4.771c-0.12-0.512-0.233-0.995-0.221-1.32
		c0.01-0.252,0.026-2.089,0.034-3.056c0.112-0.023,0.231-0.047,0.346-0.07c0.884-0.178,2.22-0.446,3.352-0.775
		c0.66-0.192,1.163-0.379,1.538-0.572c0.245-0.126,0.989-0.508,0.989-1.248c0-0.168,0-0.68-1.453-1.878
		c-1.292-1.066-2.474-1.549-3.063-1.742c-0.645-0.211-1.249-0.171-1.648-0.144c-0.008,0.001-0.017,0.001-0.025,0.002
		c-0.343-1.552-1.334-2.816-2.888-3.673c-1.533-0.845-3.298-1.143-4.509-1.243c-1.858-0.154-3.642,0.37-4.811,0.837
		c-1.474,0.589-2.83,1.433-3.725,2.318c-0.2,0.147-1.082,0.455-1.728,0.68c-2.338,0.815-4.025,1.476-4.429,2.561
		c-0.146,0.392-0.109,0.813,0.105,1.186c1.068,1.86,2.396,2.905,3.948,3.108c0.999,0.13,2.047-0.1,3.115-0.684
		c0.366-0.2,0.5-0.659,0.3-1.024c-0.2-0.366-0.659-0.5-1.024-0.3c-0.781,0.427-1.52,0.6-2.195,0.512
		c-1.048-0.137-1.992-0.915-2.807-2.314c0.073-0.096,0.319-0.339,1.1-0.704c0.712-0.332,1.6-0.642,2.384-0.915
		c1.269-0.443,1.947-0.689,2.284-1.024c1.493-1.484,4.73-2.951,7.358-2.733C18.669,9.744,20.21,10,21.51,10.717
		c1.272,0.702,2.01,1.7,2.194,2.967c0.079,1.107,0.096,2.48-0.005,2.792c-0.128,0.397,0.09,0.822,0.486,0.95
		c0.077,0.025,0.155,0.037,0.232,0.037c0.319,0,0.615-0.203,0.718-0.523c0.158-0.491,0.158-1.532,0.127-2.367
		c0.331-0.022,0.704-0.046,1.067,0.073c1.467,0.48,2.727,1.542,3.267,2.113c-0.257,0.126-0.731,0.313-1.592,0.545
		c-0.99,0.267-2.118,0.494-2.865,0.643c-0.284,0.057-0.529,0.106-0.702,0.145c-0.104,0.023-0.18,0.042-0.238,0.059
		c-0.569,0.164-0.613,0.619-0.613,0.755c0,0.167-0.027,3.318-0.037,3.59c-0.02,0.528,0.116,1.108,0.259,1.721
		c0.272,1.162,0.58,2.479-0.117,3.659c-0.943,1.597-1.633,1.709-2.046,1.776c-0.059,0.01-0.121,0.02-0.182,0.033
		c-0.312,0.066-1.193-0.318-1.901-0.626c-0.74-0.322-1.578-0.688-2.469-0.926c-0.895-0.239-1.322-0.926-1.735-1.591
		c-0.229-0.369-0.446-0.718-0.742-0.972c-0.564-0.484-1.279-0.809-1.911-1.096c-0.425-0.193-0.826-0.376-1.071-0.558
		c-0.294-0.218-0.808-1.109-1.116-1.808c-0.167-0.382-0.612-0.555-0.994-0.388c-0.382,0.167-0.555,0.612-0.388,0.994
		c0.133,0.304,0.837,1.848,1.598,2.414c0.374,0.278,0.846,0.492,1.346,0.72c0.566,0.258,1.152,0.524,1.553,0.868
		C13.753,26.816,13.917,27.08,14.077,27.336z"/>
	<path fill="#FFFFFF" d="M21.345,26.478c-0.056-0.256-0.309-0.418-0.565-0.362c-0.256,0.056-0.418,0.309-0.362,0.565
		c0.203,0.926,1.158,1.548,1.741,1.677c0.035,0.008,0.069,0.011,0.103,0.011c0.218,0,0.414-0.151,0.463-0.372
		c0.057-0.256-0.105-0.509-0.361-0.565C22.025,27.357,21.446,26.938,21.345,26.478z"/>
	<path fill="#FFFFFF" d="M17.022,18.01c0.105,0.24,0.385,0.349,0.625,0.244s0.349-0.385,0.244-0.625
		c-0.429-0.978-0.977-1.694-1.631-2.128c-0.584-0.388-1.244-0.54-1.908-0.442c-1.143,0.17-2.167,1.107-2.283,2.088
		c-0.144,1.22,1.034,2.648,2.282,4.16c0.326,0.395,0.664,0.804,0.974,1.206c0.69,0.893,1.233,1.793,1.67,2.515
		c0.386,0.639,0.641,1.061,0.871,1.274c0.091,0.084,0.207,0.126,0.322,0.126c0.128,0,0.255-0.051,0.348-0.152
		c0.178-0.192,0.166-0.492-0.026-0.67c-0.131-0.122-0.422-0.603-0.703-1.068c-0.425-0.704-1.008-1.669-1.731-2.605
		c-0.32-0.414-0.662-0.829-0.993-1.23c-1.066-1.292-2.168-2.628-2.072-3.445c0.074-0.624,0.84-1.165,1.481-1.261
		C15.49,15.849,16.389,16.563,17.022,18.01z"/>
	<path fill="#FFFFFF" d="M15.342,17.005c-0.066-0.066-0.129-0.129-0.197-0.183c-0.325-0.26-0.8-0.208-1.06,0.118
		c-0.259,0.324-0.208,0.796,0.113,1.057c0.014,0.013,0.051,0.049,0.077,0.076c0.121,0.121,0.305,0.304,0.532,0.449
		c0.126,0.08,0.266,0.118,0.404,0.118c0.249,0,0.493-0.124,0.637-0.35c0.224-0.352,0.12-0.818-0.231-1.042
		C15.53,17.192,15.426,17.089,15.342,17.005z"/>
	<path fill="#FFFFFF" d="M23.093,17.189c-0.12-0.233-0.406-0.324-0.639-0.204c-0.817,0.422-1.945,0.542-3.018,0.322
		c-0.257-0.053-0.507,0.113-0.56,0.369c-0.053,0.257,0.113,0.507,0.369,0.56c0.423,0.087,0.848,0.129,1.266,0.129
		c0.864,0,1.692-0.183,2.378-0.538C23.122,17.707,23.214,17.421,23.093,17.189z"/>
	<path fill="#FFFFFF" d="M32.659,0H3.341C1.499,0,0,1.499,0,3.341v7.151v1.538l1.509,0.3l2.046,0.407
		c0.05,0.01,0.099,0.015,0.148,0.015c0.353,0,0.668-0.248,0.739-0.608c0.081-0.409-0.184-0.806-0.593-0.887l-2.34-0.465V3.341
		c0-1.01,0.822-1.832,1.832-1.832h29.317c1.01,0,1.832,0.822,1.832,1.832v29.317c0,1.01-0.822,1.832-1.832,1.832H14.61l1.672-3.387
		c0.184-0.374,0.031-0.826-0.343-1.01c-0.374-0.184-0.826-0.031-1.01,0.343l-2.001,4.055L12.183,36h1.683h18.793
		C34.501,36,36,34.501,36,32.659V3.341C36,1.499,34.501,0,32.659,0z"/>
</g>
</svg>
