<?xml version="1.0" encoding="utf-8"?>
<!-- Generator: Adobe Illustrator 17.0.0, SVG Export Plug-In . SVG Version: 6.00 Build 0)  -->
<!DOCTYPE svg PUBLIC "-//W3C//DTD SVG 1.1//EN" "http://www.w3.org/Graphics/SVG/1.1/DTD/svg11.dtd">
<svg version="1.1" id="Capa_1" xmlns="http://www.w3.org/2000/svg" xmlns:xlink="http://www.w3.org/1999/xlink" x="0px" y="0px"
	 width="36px" height="36px" viewBox="0 0 36 36" enable-background="new 0 0 36 36" xml:space="preserve">
<g>
	<path fill="#FFFFFF" d="M28.566,14.486c-0.252-0.072-0.515,0.073-0.587,0.325c-0.098,0.342-0.083,0.739-0.054,1.011
		c0.027,0.243,0.232,0.423,0.471,0.423c0.017,0,0.035-0.001,0.052-0.003c0.26-0.028,0.448-0.263,0.42-0.523
		c-0.028-0.258-0.02-0.499,0.022-0.646C28.963,14.821,28.818,14.559,28.566,14.486z"/>
	<path fill="#FFFFFF" d="M20.732,14.383c0.138-0.191,0.114-0.454-0.055-0.618c-0.237-0.229-0.58-0.355-0.964-0.355
		c-0.498,0-0.956,0.213-1.196,0.555c-0.118,0.169-0.114,0.394,0.01,0.558c0.183,0.243,0.516,0.376,0.936,0.376
		C19.877,14.899,20.458,14.764,20.732,14.383z"/>
	<path fill="#FFFFFF" d="M14.844,21.599c-0.198-0.172-0.497-0.151-0.669,0.047c-0.085,0.098-2.106,2.435-3.22,4.954
		c-0.106,0.24,0.002,0.52,0.242,0.626c0.062,0.028,0.128,0.041,0.192,0.041c0.182,0,0.356-0.105,0.434-0.283
		c1.055-2.385,3.048-4.692,3.068-4.715C15.062,22.071,15.042,21.771,14.844,21.599z"/>
	<path fill="#FFFFFF" d="M32.659,0H3.341C1.499,0,0,1.499,0,3.341v18.375c0,0.001,0,0.001,0,0.002v2.966v2.647
		c0.044-0.043,0.084-0.092,0.117-0.148c0.371-0.61,0.842-1.284,1.391-1.997c1.236-1.603,2.87-3.4,4.658-5.106
		c2.617-2.498,5.07-4.314,6.562-4.858c0.005-0.002,0.008-0.007,0.013-0.009c0.108-0.042,0.202-0.109,0.281-0.195
		c0.021-0.023,0.032-0.051,0.05-0.076c0.033-0.047,0.073-0.089,0.096-0.145c0.012-0.029,0.009-0.058,0.016-0.087
		c0.005-0.019,0.021-0.032,0.025-0.051c0.004-0.02-0.006-0.04-0.004-0.06c0.01-0.089,0.004-0.175-0.017-0.26
		c-0.007-0.029-0.008-0.056-0.018-0.084c-0.04-0.108-0.102-0.206-0.188-0.287c-0.004-0.004-0.005-0.01-0.009-0.013
		c-0.635-0.574-1.041-1.207-1.343-1.849c0.315,0.067,0.651,0.152,1.008,0.243c1.68,0.426,3.77,0.957,6.559,0.403
		c1.208-0.24,3.724,0.197,5.745,0.548c1.359,0.236,2.532,0.44,3.303,0.456c1.459,0.029,1.88,0.262,1.994,0.361
		c0.088,0.077,0.103,0.204,0.108,0.603l0.001,0.087c0.014,0.836-0.044,1.673-0.554,2.137c-0.394,0.359-1.069,0.487-2.004,0.383
		c-0.564-0.063-1.66,0.251-3.904,0.979c-0.455,0.148-0.885,0.287-1.183,0.375c-0.379,0.112-0.687,0.384-1.076,0.73
		c-0.704,0.624-1.581,1.402-3.046,1.402c-1.582,0-2.759-0.766-2.768-0.772c-0.346-0.233-0.814-0.141-1.047,0.204
		s-0.141,0.814,0.204,1.047c0.026,0.017,0.289,0.192,0.732,0.393c-0.667,1.209-1.349,3.199-1.772,5.271
		c-0.345,1.688-0.766,4.661-0.252,7.537C13.772,35,13.892,35.505,14.047,36h1.563h17.049C34.501,36,36,34.501,36,32.659V3.341
		C36,1.499,34.501,0,32.659,0z M1.509,22.804v-0.98c0.058-0.187,0.103-0.387,0.146-0.617c0.13-0.699,0.292-1.569,1.062-2.266
		c0.542-0.49,1.23-0.671,1.896-0.846c0.49-0.129,0.953-0.251,1.349-0.493c0.538-0.329,0.84-0.818,0.898-1.452
		c0.054-0.6-0.199-1.19-0.661-1.59c0.31-0.079,0.645-0.137,1-0.172c1.025-0.101,2.159,0.014,3.301,0.294
		C7.752,16.361,4.165,19.693,1.509,22.804z M34.491,32.659c0,1.01-0.822,1.832-1.832,1.832H15.216
		c-0.549-2.702-0.137-5.608,0.196-7.235c0.506-2.471,1.26-4.308,1.754-5.091c0.429,0.093,0.906,0.154,1.419,0.154
		c2.038,0,3.295-1.115,4.047-1.781c0.176-0.156,0.417-0.37,0.512-0.414c0.316-0.093,0.732-0.228,1.212-0.384
		c0.927-0.301,2.852-0.927,3.277-0.914c1.382,0.153,2.452-0.105,3.18-0.767c1.085-0.986,1.059-2.534,1.047-3.278l-0.001-0.082
		c-0.007-0.502-0.016-1.19-0.627-1.721c-0.546-0.475-1.457-0.701-2.954-0.731c-0.656-0.013-1.831-0.217-3.075-0.434
		c-2.256-0.392-4.813-0.837-6.297-0.542c-2.454,0.488-4.282,0.024-5.894-0.386c-0.94-0.239-1.751-0.444-2.558-0.43
		c-0.242,0.004-0.467,0.124-0.606,0.323c-0.138,0.199-0.173,0.452-0.094,0.68c0.146,0.418,0.371,1.024,0.721,1.677
		c-1.18-0.252-2.351-0.353-3.426-0.248c-1.802,0.177-3.218,0.851-3.987,1.897c-0.221,0.301-0.189,0.718,0.075,0.981
		c0.264,0.263,0.681,0.294,0.981,0.072c0.371-0.275,0.738-0.346,1.007-0.195c0.152,0.086,0.242,0.231,0.23,0.372
		c-0.024,0.266-0.138,0.362-1.127,0.622c-0.762,0.2-1.709,0.449-2.524,1.186c-0.072,0.065-0.131,0.134-0.196,0.201V3.341
		c0-1.01,0.822-1.832,1.832-1.832h29.317c1.01,0,1.832,0.822,1.832,1.832V32.659z"/>
</g>
</svg>
