<?xml version="1.0" encoding="utf-8"?>
<!-- Generator: Adobe Illustrator 17.0.0, SVG Export Plug-In . SVG Version: 6.00 Build 0)  -->
<!DOCTYPE svg PUBLIC "-//W3C//DTD SVG 1.1//EN" "http://www.w3.org/Graphics/SVG/1.1/DTD/svg11.dtd">
<svg version="1.1" id="Capa_1" xmlns="http://www.w3.org/2000/svg" xmlns:xlink="http://www.w3.org/1999/xlink" x="0px" y="0px"
	 width="36px" height="36px" viewBox="0 0 36 36" enable-background="new 0 0 36 36" xml:space="preserve">
<g>
	<path fill="#FFFFFF" d="M20.285,21.422c0.798,0,1.156-0.507,1.156-1.01c0-0.241-0.084-0.835-0.863-1.135
		c-0.332-0.128-0.759-0.19-1.305-0.19c-0.417,0-0.754,0.338-0.754,0.754c0,0.375,0.274,0.686,0.632,0.745
		C19.294,21.087,19.728,21.422,20.285,21.422z"/>
	<path fill="#FFFFFF" d="M9.471,25.416c0,0.417,0.338,0.755,0.755,0.755c2.966,0,7.083,1.781,9.542,2.846
		c1.412,0.611,1.876,0.805,2.227,0.805c0.153,0.004,0.632,0.192,0.949,0.317c0.653,0.258,1.322,0.521,1.92,0.521
		c0.275,0,0.535-0.056,0.773-0.193c0.78-0.452,2.773-2.099,3.283-2.768c0.205-0.269,0.206-0.641,0.003-0.911
		c-0.163-0.216-0.425-0.324-0.685-0.296c-0.102-0.039-0.49-0.234-1.16-1.104c-1.147-1.489-1.985-4.606-1.985-5.662
		c0-0.417-0.338-0.754-0.754-0.754s-0.755,0.338-0.755,0.754c0,1.449,0.965,4.851,2.298,6.582c0.39,0.507,0.766,0.903,1.124,1.184
		c-0.687,0.615-1.651,1.387-2.104,1.657c-0.102,0.017-0.299-0.031-0.515-0.096c-0.685-0.417-1.508-1.048-2.327-1.801
		c-0.941-0.865-1.518-1.556-1.656-1.832c-0.117-0.234-0.402-0.329-0.636-0.212s-0.329,0.402-0.212,0.636
		c0.26,0.521,1.126,1.452,2.131,2.343c-0.346-0.135-0.848-0.352-1.319-0.556c-2.567-1.111-6.863-2.97-10.142-2.97
		C9.808,24.661,9.471,24.999,9.471,25.416z"/>
	<path fill="#FFFFFF" d="M32.659,0H3.341C1.499,0,0,1.499,0,3.341v2.332v1.509c0.422,0,0.934,0.003,1.509,0.014
		c2.615,0.052,6.514,0.288,8.952,1.346c1.269,0.551,3.049,1.589,4.934,2.688c3.84,2.24,6.468,3.707,7.951,3.707
		c1.081,0,2.098,0.167,2.863,0.469c0.722,0.285,0.932,0.575,0.952,0.644c-0.01,0.382-0.913,0.811-1.246,0.834
		c-0.114-0.005-0.46-0.102-0.69-0.166c-0.469-0.131-1.001-0.28-1.448-0.28c-0.496,0-0.846,0.21-1.128,0.378
		c-0.249,0.149-0.413,0.247-0.698,0.247c-0.832,0-1.998-0.663-2.215-0.891c-0.279-0.309-0.756-0.334-1.066-0.054
		c-0.309,0.279-0.334,0.756-0.054,1.066c0.426,0.471,1.988,1.389,3.334,1.389c0.702,0,1.147-0.267,1.473-0.462
		c0.174-0.104,0.277-0.164,0.352-0.164c0.24,0,0.685,0.124,1.042,0.224c0.425,0.119,0.793,0.222,1.099,0.222
		c0.413,0,1.054-0.215,1.558-0.522c0.77-0.469,1.194-1.118,1.194-1.827c0-0.457-0.227-1.321-1.744-1.974
		c-0.962-0.414-2.233-0.642-3.58-0.642c-1.187,0-4.516-1.942-7.191-3.502c-1.924-1.122-3.742-2.182-5.093-2.769
		C8.375,5.993,4.237,5.741,1.509,5.688V3.341c0-1.01,0.822-1.832,1.832-1.832h29.317c1.01,0,1.832,0.822,1.832,1.832v29.317
		c0,1.01-0.822,1.832-1.832,1.832H8.763c-0.708-1.859-1.049-3.685-1.012-5.446c0.053-2.559,0.909-4.991,2.544-7.227
		c0.246-0.336,0.173-0.808-0.164-1.054c-0.336-0.246-0.808-0.173-1.054,0.164c-2.961,4.049-3.609,8.7-1.92,13.564
		C7.33,34.992,7.529,35.495,7.753,36h1.661h23.245C34.501,36,36,34.501,36,32.659V3.341C36,1.499,34.501,0,32.659,0z"/>
</g>
</svg>
