<?xml version="1.0" encoding="utf-8"?>
<!-- Generator: Adobe Illustrator 17.0.0, SVG Export Plug-In . SVG Version: 6.00 Build 0)  -->
<!DOCTYPE svg PUBLIC "-//W3C//DTD SVG 1.1//EN" "http://www.w3.org/Graphics/SVG/1.1/DTD/svg11.dtd">
<svg version="1.1" id="Capa_1" xmlns="http://www.w3.org/2000/svg" xmlns:xlink="http://www.w3.org/1999/xlink" x="0px" y="0px"
	 width="36px" height="36px" viewBox="0 0 36 36" enable-background="new 0 0 36 36" xml:space="preserve">
<g>
	<path fill="#FFFFFF" d="M10.467,16.952c0.003,0,0.006,0,0.009,0c0.202,0,0.383-0.128,0.448-0.32
		c0.251-0.731,0.405-1.925,0.402-3.116c-0.002-0.798-0.082-2.262-0.596-3.099c-0.228-0.372-1.071-1.058-1.738-1.567
		C7.515,7.721,7.316,7.721,7.184,7.721c-0.224,0-0.418,0.15-0.472,0.366c-0.054,0.214-0.09,2.226,0.622,4.287
		c0.491,1.422,1.073,1.993,1.586,2.496c0.456,0.448,0.817,0.802,1.102,1.745C10.081,16.812,10.261,16.948,10.467,16.952z
		 M9.585,14.193c-0.481-0.472-0.936-0.918-1.354-2.129c-0.409-1.185-0.54-2.313-0.578-3.028c0.809,0.573,2.089,1.581,2.27,1.876
		c0.283,0.46,0.453,1.434,0.456,2.606c0.001,0.502-0.028,1.01-0.081,1.472C10.068,14.667,9.825,14.428,9.585,14.193z"/>
	<path fill="#FFFFFF" d="M14.741,24.515c0.009,0,0.019,0.001,0.028,0.001c0.242,0,0.447-0.184,0.472-0.428
		c0.062-0.624-0.147-1.252-0.573-1.721c-0.14-0.154-0.51-0.513-0.929-0.513c-0.027,0-0.053,0.001-0.079,0.005
		c-0.22,0.026-0.392,0.2-0.417,0.419c-0.096,0.877,0.007,1.457,0.327,1.824c0.337,0.388,0.796,0.402,1.071,0.41
		C14.676,24.512,14.71,24.513,14.741,24.515z"/>
	<path fill="#FFFFFF" d="M32.659,0H3.341C1.499,0,0,1.499,0,3.341v23.337v1.771c0.358-0.202,0.887-0.54,1.509-0.965
		c1.02-0.697,2.29-1.628,3.473-2.577c1.172-0.94,2.132-1.793,2.853-2.534c0.961-0.987,1.465-1.739,1.589-2.367
		c0.269-1.371-0.57-2.798-1.458-4.308c-0.692-1.176-1.407-2.392-1.685-3.66C5.799,9.836,5.917,6.952,6.1,5.688
		c1.173,0.641,3.692,2.333,5.191,4.173c1.868,2.294,2.188,6.074,2.191,6.111c0.021,0.269,0.184,0.506,0.427,0.622
		c1.336,0.639,4.995,2.675,5.869,4.397c0.87,1.713,0.7,2.967,0.609,3.641c-0.025,0.183-0.044,0.328-0.044,0.467
		c0,0.444,0.288,0.92,0.839,1.794c0.129,0.205,0.308,0.491,0.441,0.723c-0.174,0.177-0.457,0.34-0.664,0.458
		c-0.084,0.048-0.162,0.093-0.233,0.137c-0.254-0.219-0.6-0.332-0.917-0.435c-0.044-0.014-0.087-0.028-0.13-0.043
		c-0.249-0.083-0.517,0.051-0.6,0.3c-0.083,0.248,0.052,0.517,0.3,0.6c0.046,0.015,0.091,0.03,0.137,0.045
		c0.193,0.063,0.546,0.177,0.611,0.271c0.016,0.13-0.068,0.532-0.258,1.055c-0.252,0.408-0.496,0.747-0.915,0.763
		c-0.408,0.015-1.118-0.11-1.744-0.221c-0.764-0.135-1.425-0.252-1.886-0.206c-0.407,0.041-0.922,0.189-1.419,0.332
		c-0.402,0.116-0.954,0.275-1.166,0.275c-0.192,0-0.786-0.171-1.797-0.812c-0.841-0.533-1.391-1.021-1.484-1.151
		c-0.319-0.475-0.727-1.472-0.774-2.045c-0.034-0.415-0.398-0.725-0.814-0.69c-0.415,0.034-0.724,0.399-0.69,0.814
		c0.072,0.871,0.588,2.112,1.026,2.763c0.307,0.457,1.216,1.129,1.9,1.565c1.108,0.706,1.994,1.065,2.634,1.065
		c0.216,0,0.466-0.042,0.739-0.105v2.141V36h1.509h17.673C34.501,36,36,34.501,36,32.659V3.341C36,1.499,34.501,0,32.659,0z
		 M14.265,12.41c0.055-0.059,0.107-0.122,0.141-0.2c0.323-0.732,1.418-2.261,2.788-3.896c0.934-1.114,1.695-1.919,2.203-2.402
		c0.031,0.528,0.036,1.286-0.016,2.23c-0.088,1.614-0.306,3.071-0.569,3.803c-0.378,1.052-0.794,1.453-1.197,1.842
		c-0.341,0.329-0.693,0.668-0.882,1.272c-0.093,0.295-0.171,0.751-0.17,1.259c-0.675-0.399-1.261-0.71-1.621-0.894
		C14.865,14.824,14.675,13.678,14.265,12.41z M21.177,29.048c0.063-0.042,0.169-0.103,0.252-0.15
		c0.057-0.032,0.12-0.072,0.182-0.108c-0.074,0.385-0.14,0.684-0.195,0.896c-0.097-0.073-0.205-0.138-0.324-0.187
		c0.008-0.044,0.016-0.079,0.024-0.125C21.136,29.262,21.16,29.131,21.177,29.048z M34.491,32.659c0,1.01-0.822,1.832-1.832,1.832
		H14.985v-2.553c0.188-0.047,0.359-0.084,0.486-0.097c0.254-0.025,0.93,0.094,1.474,0.191c0.734,0.13,1.494,0.264,2.063,0.243
		c0.938-0.035,1.522-0.601,1.868-1.066c0.135,0.109,0.29,0.216,0.469,0.291c0.246,0.103,0.522,0.086,0.758-0.045
		c0.452-0.251,0.754-0.834,1.155-3.321c0.007-0.046,0.014-0.084,0.018-0.112c0.08-0.482-0.209-0.968-0.819-1.934
		c-0.199-0.316-0.524-0.831-0.602-1.037c0.006-0.057,0.017-0.143,0.027-0.215c0.105-0.777,0.324-2.394-0.758-4.526
		c-0.44-0.866-1.35-1.797-2.698-2.775c-0.476-0.592-0.377-1.631-0.254-2.024c0.071-0.227,0.202-0.359,0.49-0.638
		c0.453-0.437,1.072-1.034,1.569-2.417c0.503-1.399,0.642-3.855,0.673-4.575c0.036-0.833,0.031-1.616-0.012-2.205
		c-0.069-0.936-0.222-1.372-0.567-1.612c-0.123-0.086-0.384-0.214-0.746-0.112c-0.262,0.074-0.629,0.266-1.532,1.169
		c-0.548,0.548-1.222,1.291-1.899,2.092c-0.895,1.06-1.928,2.384-2.592,3.432c-0.3-0.608-0.66-1.201-1.095-1.736
		c-1.236-1.518-2.98-2.821-3.91-3.463C7.948,5.029,7.338,4.648,6.834,4.374C6.046,3.944,5.753,3.892,5.486,3.945
		C5.359,3.971,5.118,4.054,4.941,4.326C4.561,4.907,4.465,6.788,4.442,7.57c-0.031,1.028-0.024,3.017,0.364,4.791
		c0.329,1.503,1.142,2.884,1.858,4.103c0.739,1.256,1.437,2.443,1.278,3.252c-0.095,0.483-1.175,1.825-3.905,4.015
		c-0.873,0.701-1.752,1.359-2.529,1.913V3.341c0-1.01,0.822-1.832,1.832-1.832h29.317c1.01,0,1.832,0.822,1.832,1.832V32.659z"/>
</g>
</svg>
