<?xml version="1.0" encoding="utf-8"?>
<!-- Generator: Adobe Illustrator 16.0.0, SVG Export Plug-In . SVG Version: 6.00 Build 0)  -->
<!DOCTYPE svg PUBLIC "-//W3C//DTD SVG 1.1//EN" "http://www.w3.org/Graphics/SVG/1.1/DTD/svg11.dtd">
<svg version="1.1" id="Layer_1" xmlns="http://www.w3.org/2000/svg" xmlns:xlink="http://www.w3.org/1999/xlink" x="0px" y="0px"
	 width="36px" height="36px" viewBox="0 0 36 36" enable-background="new 0 0 36 36" xml:space="preserve">
<path fill="#FFFFFF" d="M35.692,0.309c-0.412-0.411-1.078-0.411-1.49,0l-5.559,5.559L25.646,2.87c-0.31-0.31-0.721-0.48-1.158-0.48
	s-0.849,0.17-1.158,0.48L5.101,21.098c-0.047,0.047-0.089,0.098-0.13,0.148l-1.604-1.604c-0.229-0.229-0.599-0.229-0.827,0L2,20.182
	c-0.229,0.229-0.229,0.599,0,0.827l5.863,5.862l-3.698,3.698L1.4,27.804c-0.229-0.229-0.599-0.229-0.827,0l-0.401,0.401
	c-0.229,0.229-0.229,0.599,0,0.827l6.796,6.796c0.229,0.229,0.599,0.229,0.827,0l0.401-0.401c0.229-0.229,0.229-0.599,0-0.827
	l-2.765-2.766l3.698-3.697l5.862,5.862c0.229,0.229,0.599,0.229,0.828,0l0.539-0.539c0.229-0.229,0.229-0.599,0-0.827l-1.604-1.604
	c0.051-0.04,0.102-0.083,0.148-0.13l18.229-18.228c0.31-0.31,0.479-0.721,0.479-1.159c0-0.438-0.17-0.849-0.479-1.158l-2.997-2.998
	l5.559-5.559C36.104,1.387,36.104,0.72,35.692,0.309z M13.744,29.078l-6.822-6.822l3.516-3.515l3.48,3.48
	c0.206,0.205,0.475,0.308,0.745,0.308s0.539-0.103,0.745-0.308c0.411-0.412,0.411-1.078,0-1.49l-3.48-3.479l1.531-1.531l2.005,2.005
	c0.206,0.206,0.475,0.309,0.745,0.309s0.539-0.103,0.745-0.309c0.411-0.411,0.411-1.078,0-1.489l-2.005-2.005l1.655-1.655
	l3.122,3.122c0.206,0.206,0.475,0.309,0.744,0.309c0.271,0,0.539-0.103,0.745-0.309c0.411-0.411,0.411-1.078,0-1.489l-3.122-3.121
	l1.407-1.407l2.004,2.004c0.206,0.206,0.476,0.309,0.745,0.309s0.539-0.103,0.744-0.309c0.412-0.411,0.412-1.078,0-1.489
	l-2.004-2.004l3.501-3.501l6.822,6.822L13.744,29.078z"/>
</svg>
