<?xml version="1.0" encoding="utf-8"?>
<!-- Generator: Adobe Illustrator 16.0.0, SVG Export Plug-In . SVG Version: 6.00 Build 0)  -->
<!DOCTYPE svg PUBLIC "-//W3C//DTD SVG 1.1//EN" "http://www.w3.org/Graphics/SVG/1.1/DTD/svg11.dtd">
<svg version="1.1" id="Layer_1" xmlns="http://www.w3.org/2000/svg" xmlns:xlink="http://www.w3.org/1999/xlink" x="0px" y="0px"
	 width="35px" height="35px" viewBox="0 0 35 35" enable-background="new 0 0 35 35" xml:space="preserve">
<g>
	<path fill="#FFFFFF" d="M11.434,19.812l5.259,5.259V30.6c0,0.503,0.408,0.911,0.912,0.911c0.503,0,0.911-0.408,0.911-0.911v-5.737
		l5.051-5.051c0.231-0.231,0.311-0.556,0.24-0.853c0.016-0.067,0.027-0.137,0.027-0.21V6.215c0-0.503-0.409-0.912-0.912-0.912
		s-0.911,0.408-0.911,0.912v2.176l-1.792,1.792v-6.77c0-0.503-0.408-0.912-0.912-0.912c-0.503,0-0.911,0.408-0.911,0.912v8.593
		L17.5,12.902l-0.896-0.896V1.59c0-0.503-0.408-0.912-0.912-0.912c-0.503,0-0.911,0.408-0.911,0.912v8.593l-1.792-1.792v-4
		c0-0.503-0.408-0.912-0.911-0.912c-0.504,0-0.912,0.408-0.912,0.912v14.357c0,0.072,0.011,0.142,0.027,0.21
		C11.123,19.256,11.202,19.58,11.434,19.812z M16.692,20.095v2.397l-3.707-3.707c0.001-0.012,0.004-0.023,0.004-0.036v-2.357
		L16.692,20.095z M18.516,19.886l3.495-3.494v2.357c0,0.013,0.003,0.024,0.004,0.036l-3.498,3.499L18.516,19.886L18.516,19.886z
		 M22.011,13.813l-3.495,3.494v-2.844l1.141-1.14c0.223-0.092,0.4-0.271,0.493-0.492l1.861-1.862V13.813z M14.851,12.831
		c0.093,0.222,0.271,0.4,0.493,0.493l1.349,1.349v2.844l-3.703-3.703V10.97L14.851,12.831z"/>
	<path fill="#FFFFFF" d="M26.192,9.441c-0.394-0.313-0.967-0.249-1.282,0.145c-0.313,0.393-0.248,0.967,0.146,1.281
		c2.91,2.318,4.579,5.78,4.579,9.496c0,6.691-5.444,12.135-12.135,12.135c-6.692,0-12.136-5.443-12.136-12.135
		c0-3.716,1.669-7.178,4.579-9.497c0.395-0.314,0.459-0.888,0.145-1.281C9.774,9.191,9.201,9.126,8.807,9.44
		c-3.346,2.667-5.266,6.648-5.266,10.923c0,7.697,6.262,13.958,13.959,13.958c7.696,0,13.959-6.261,13.959-13.958
		C31.459,16.088,29.539,12.107,26.192,9.441z"/>
</g>
</svg>
