<?xml version="1.0" encoding="utf-8"?>
<!-- Generator: Adobe Illustrator 18.0.0, SVG Export Plug-In . SVG Version: 6.00 Build 0)  -->
<!DOCTYPE svg PUBLIC "-//W3C//DTD SVG 1.1//EN" "http://www.w3.org/Graphics/SVG/1.1/DTD/svg11.dtd">
<svg version="1.1" id="Layer_1" xmlns="http://www.w3.org/2000/svg" xmlns:xlink="http://www.w3.org/1999/xlink" x="0px" y="0px"
	 viewBox="106 106 300 300" enable-background="new 106 106 300 300" xml:space="preserve">
<g>
	<g>
		<rect x="349.4" y="284.3" fill="#576065" width="20" height="121.7"/>
	</g>
</g>
<g>
	<g>
		<path fill="#576065" d="M358.9,138.2c-14,0-25.2,11.3-25.2,25.2s11.3,25.2,25.2,25.2c14,0,25.2-11.3,25.2-25.2
			C384.2,149.4,372.9,138.2,358.9,138.2z M358.9,175.7c-6.8,0-12.3-5.5-12.3-12.3s5.5-12.3,12.3-12.3c6.8,0,12.3,5.5,12.3,12.3
			C371.2,170.2,365.7,175.7,358.9,175.7z"/>
	</g>
</g>
<g>
	<g>
		<path fill="#576065" d="M152.2,237.5c-14,0-25.2,11.3-25.2,25.2c0,14,11.3,25.2,25.2,25.2c14,0,25.2-11.3,25.2-25.2
			C177.5,248.8,166.2,237.5,152.2,237.5z M152.2,275c-6.8,0-12.3-5.5-12.3-12.3c0-6.8,5.5-12.3,12.3-12.3c6.8,0,12.3,5.5,12.3,12.3
			C164.5,269.5,159,275,152.2,275z"/>
	</g>
</g>
<g>
	<g>
		<path fill="#576065" d="M227.3,162.5c-14,0-25.2,11.3-25.2,25.2c0,14,11.3,25.2,25.2,25.2c14,0,25.2-11.3,25.2-25.2
			S241.2,162.5,227.3,162.5z M227.3,200c-6.8,0-12.3-5.5-12.3-12.3s5.5-12.3,12.3-12.3c6.8,0,12.3,5.5,12.3,12.3S234,200,227.3,200z
			"/>
	</g>
</g>
<g>
	<g>
		<path fill="#576065" d="M280.4,215.7c-14,0-25.2,11.3-25.2,25.2c0,14,11.3,25.2,25.2,25.2s25.2-11.3,25.2-25.2
			C305.7,226.9,294.4,215.7,280.4,215.7z M280.4,253.2c-6.8,0-12.3-5.5-12.3-12.3c0-6.8,5.5-12.3,12.3-12.3
			c6.8,0,12.3,5.5,12.3,12.3C292.7,247.7,287.2,253.2,280.4,253.2z"/>
	</g>
</g>
<g>
	<g>
		
			<rect x="247.4" y="195.4" transform="matrix(-0.7058 0.7084 -0.7084 -0.7058 584.9424 185.6524)" fill="#576065" width="13" height="37.7"/>
	</g>
</g>
<g>
	<g>
		
			<rect x="155.5" y="218.7" transform="matrix(-0.7071 0.7071 -0.7071 -0.7071 483.2356 250.245)" fill="#576065" width="68.5" height="13"/>
	</g>
</g>
<g>
	<g>
		
			<rect x="285" y="197.2" transform="matrix(-0.7071 0.7071 -0.7071 -0.7071 689.1031 121.9719)" fill="#576065" width="68.5" height="13"/>
	</g>
</g>
<g>
	<g>
		<rect x="291" y="312.2" fill="#576065" width="20" height="93.8"/>
	</g>
</g>
<g>
	<g>
		<rect x="232.5" y="274.6" fill="#576065" width="20" height="131.4"/>
	</g>
</g>
<path fill="#576065" d="M236.1,406H236h141.5c15.4,0,27.8-12.5,27.8-27.8V133.8c0-15.3-12.5-27.8-27.8-27.8H133.2
	c-15.4,0-27.8,12.5-27.8,27.8v189.7l12.6-19.2V133.8c0-8.5,6.8-15.3,15.3-15.3h244.3c8.5,0,15.3,6.8,15.3,15.3v244.3h-0.1
	c0,8.5-6.8,15.3-15.3,15.3H236.1L236.1,406z"/>
</svg>
