<?xml version="1.0" encoding="utf-8"?>
<!-- Generator: Adobe Illustrator 18.0.0, SVG Export Plug-In . SVG Version: 6.00 Build 0)  -->
<!DOCTYPE svg PUBLIC "-//W3C//DTD SVG 1.1//EN" "http://www.w3.org/Graphics/SVG/1.1/DTD/svg11.dtd">
<svg version="1.1" id="Capa_1" xmlns="http://www.w3.org/2000/svg" xmlns:xlink="http://www.w3.org/1999/xlink" x="0px" y="0px"
	 viewBox="330 170 300 300" enable-background="new 330 170 300 300" xml:space="preserve">
<g>
	<path fill="#576065" d="M498.5,289.6c1.5-1.5,1.5-4,0-5.5c-1.5-1.5-4-1.5-5.5,0c-2.7,2.8-8.1,7.7-10.8,9c-1.8,0.9-2.6,3.1-1.9,5
		c0.6,1.5,2,2.3,3.6,2.3c0.4,0,0.8-0.1,1.3-0.2c9.2-3.2,29.2-4.1,37.7-2.3c1.5,0.3,3.1-0.3,4-1.5c0.9-1.2,0.9-2.8,0.2-4.3
		c-2.3-4.1-15-15.2-21.3-17.5c-2-0.7-4.3,0.3-5,2.2c-0.7,2,0.3,4.3,2.2,5c2.3,0.9,6.7,4.2,10.5,7.4c-4.8-0.1-10.2,0.1-15.4,0.6
		C498.3,289.8,498.5,289.6,498.5,289.6z"/>
	<path fill="#576065" d="M477.4,353.7c10.8,0,22.9-6.8,24-21.7c0.6-8.6-1.2-13.1-3-17c-0.9-2.2-1.7-4.2-2-6.8
		c6.2-1.6,13.3-1.9,23.7-1c2.1,0.2,4.1-1.4,4.2-3.6c0.2-2.1-1.4-4.1-3.6-4.2c-12.9-1.2-21.5-0.6-29.4,2.1c-1.5,0.5-2.5,1.9-2.6,3.5
		c-0.3,6,1.2,9.7,2.6,12.9c1.4,3.5,2.8,6.7,2.3,13.4c-0.3,4.8-2.2,8.5-5.6,11.1c-2.8,2.1-6.7,3.5-10.6,3.5c-4.8,0-8.6-1-11.4-3.1
		s-4.3-5.1-4.7-9.2c-0.6-5.5-0.1-13.1,5.1-18.7c1.4-1.5,1.4-4.1-0.2-5.5s-4-1.3-5.5,0.2c-4,4.3-8.4,12-7.2,24.7
		C454.8,346.4,463.6,353.7,477.4,353.7z"/>
	<path fill="#576065" d="M445.3,312.1C445.2,312.1,445.2,312.1,445.3,312.1c-3.8,0.1-6.3-2-7.8-6.6c-0.7-2-2.9-3.1-5-2.3
		c-2,0.7-3.1,3-2.3,5c1.5,4.5,5.5,11.8,14.9,11.8c0.1,0,0.3,0,0.4,0c2.1,0,3.9-1.8,3.8-4C449.1,313.8,447.3,312.1,445.3,312.1z"/>
	<path fill="#576065" d="M461.6,361.5c0.4-2.1-0.9-4.2-3.1-4.6c-2.1-0.4-4.2,0.9-4.6,3.1c-1.1,5.9-0.7,18.7,5.2,28.2
		c0.7,1.2,2,1.8,3.3,1.8c0.7,0,1.4-0.2,2-0.6c1.8-1.1,2.3-3.6,1.2-5.4C461.3,376.9,460.7,366.4,461.6,361.5z"/>
	<path fill="#576065" d="M475.2,276.8c-0.9,0.7-1,2.1-0.3,3c0.8,1,1.1,1.9,0.8,2.8c-0.3,1.1,0.3,2.3,1.4,2.6
		c0.2,0.1,0.4,0.1,0.6,0.1c0.9,0,1.7-0.6,2-1.5c0.4-1.3,0.7-4-1.6-6.8C477.5,276.2,476.1,276,475.2,276.8z"/>
	<path fill="#576065" d="M497.4,252.5c1.1,1.3,2.6,2.1,4.5,2.1c4.4,0,8.5-3,12.9-6c3.8-2.6,7.5-5.4,10.9-5.7
		c-0.1,2.1-1.4,9.1-12.6,28.4c-1.1,1.8-0.4,4.3,1.4,5.3c0.6,0.3,1.3,0.5,1.9,0.5c1.3,0,2.6-0.7,3.4-1.9c4.2-7.1,7.3-13.4,9.7-18.5
		c4.1-9.3,5-14.8,3-18.3c-1.2-2.1-3.4-3.3-6-3.3c-6,0-11.4,3.9-16.2,7.2c-2.2,1.5-4.6,3.3-6.5,4.1c0.2-2.1,1-5.4,1.5-7.5
		c1.6-7,2.9-12.6,0.3-15.9c-1.1-1.4-2.7-2.1-4.6-2.1c-5.7,0-9.2,5.6-12.5,11.1c-1.5,2.5-4.5,7.3-6,7.6c-1-1.2-1.4-6.3-1.6-8.5
		s-0.4-4.3-0.8-6c-1.1-4.6-4-5.3-5.5-5.3c-1.7,0-4.2,0.8-5.7,4.6c-0.9,1.4-1.3,3.4-1.9,5.4c-0.5,2-1.5,5.9-2.5,7.2
		c-0.8-1.3-1.5-5.3-1.8-7.2c-0.4-2-0.7-3.9-1.2-5.5c-1.4-4.1-4.1-4.8-5.5-4.8c-1.9,0-4.5,0.9-5.8,5.5c-0.5,1.8-0.9,4.2-1.2,6.4
		c-0.2,1.3-0.5,3.4-0.8,4.8c-1.3-0.5-3.1-1.4-4-1.9c-3.3-1.7-5.5-2.8-7.7-1.9c-1.1,0.4-2,1.3-2.4,2.4c-0.9,2.2-0.6,6.6-0.2,10
		c0.2,2.1,2.1,3.7,4.3,3.5c2.1-0.2,3.7-2.1,3.5-4.3c-0.1-0.8-0.2-1.6-0.2-2.3c2.8,1.4,5.8,2.8,8.4,2.8c1.9,0,4.5-0.9,5.8-5.5
		c0.2-0.8,0.4-1.7,0.6-2.7c0.3,1,0.6,1.9,0.9,2.8c2,4.9,5.2,5.9,7.5,5.9c5.3,0,7.6-4.8,9.1-9.5c0.2,1.7,0.5,3.5,1,5.1
		c1.8,5.8,5.7,6.6,7.8,6.6c5.9,0,9.6-6,12.8-11.3c1.3-2.1,2.6-4.4,4-5.8c0.1-0.1,0.1-0.1,0.2-0.2c-0.3,2.1-1,5.1-1.4,7.2
		C496.1,243.8,494.9,249.2,497.4,252.5z"/>
	<path fill="#576065" d="M462.3,289.8c4.5,0,7.9-3.4,7.9-7.7c0-2.2-1.4-4.4-4-5.9c-3.8-2.1-8.5-2-12.9,0.4c-1.9,1-2.5,3.4-1.5,5.3
		c0.5,0.9,1.3,1.5,2.2,1.8C454.8,287.4,457.8,289.8,462.3,289.8z"/>
	<path fill="#576065" d="M477.5,363.1c0,0,23.9,104.1,55.9,104.1H600c15.1,0,27.4-12.3,27.4-27.4v-240c0.2-15.1-12-27.4-27.1-27.4
		H360c-15.1,0-27.4,12.3-27.4,27.4v186.4v31c3.1-7.7,7.2-17.5,12.3-28.3c9-18.9,20.7-41.1,34.5-62.1c28.5-43.1,56.2-65.8,79.9-65.8
		c11.2,0,25.1,8.7,31.5,13.9c2.6,2.1,6.5,1.7,8.6-0.9c2.1-2.6,1.7-6.5-0.9-8.6c-1.6-1.2-7.3-5.7-15.1-9.8c-8.8-4.6-17-6.9-24.2-6.9
		c-15.7,0-32,7.4-48.8,22c-13.5,11.7-27.5,28.4-41.4,49.3c-9,13.6-17.1,27.8-24.2,41.2V199.9c0-8.2,6.7-15,15-15H600
		c8.2,0,15,6.7,15,15v240.1c0,8.2-6.7,15-15,15H538c-28.2,0-48.2-92.3-48.2-92.3c-0.1-3.4-2.8-6-6.2-6h-0.1c-3.5,0.1-6.1,2.8-6,6.3"
		/>
</g>
</svg>
