<?xml version="1.0" encoding="utf-8"?>
<!-- Generator: Adobe Illustrator 18.0.0, SVG Export Plug-In . SVG Version: 6.00 Build 0)  -->
<!DOCTYPE svg PUBLIC "-//W3C//DTD SVG 1.1//EN" "http://www.w3.org/Graphics/SVG/1.1/DTD/svg11.dtd">
<svg version="1.1" id="Capa_1" xmlns="http://www.w3.org/2000/svg" xmlns:xlink="http://www.w3.org/1999/xlink" x="0px" y="0px"
	 viewBox="-132 -132 300 300" enable-background="new -132 -132 300 300" xml:space="preserve">
<g>
	<path fill="#576065" d="M-103.9-21c5.8-2.9,16.3-7.6,20-7.9c0.5,0,1-0.1,1.7-0.1c2.4,0,5.6,0.2,9.1,0.5c3.9,0.3,8,0.6,11.4,0.6
		c2.4,0,4.3-0.1,5.7-0.4c4.2-0.9,6.9-5.1,8.1-12.6c0.7-4.6,0.7-8.9,0.7-9.1c0-1.1-0.5-2.2-1.4-2.9c-0.9-0.7-2-1-3.1-0.9
		c-4.8,0.8-28.9,4.7-34.8,8.2c-5.7,3.4-20.3,16.9-22,18.4c-1.4,1.3-1.7,3.5-0.5,5.1c0.7,1.1,2,1.7,3.2,1.7
		C-105.1-20.6-104.5-20.7-103.9-21z M-82.4-39c2.9-1.7,16.4-4.5,27.3-6.4c-0.1,0.8-0.2,1.6-0.3,2.5c-0.8,5.4-2,6.8-2.2,7
		c-0.6,0.1-1.9,0.3-4,0.3c-3.2,0-7.1-0.3-10.9-0.5c-3.6-0.3-7-0.5-9.6-0.5c-0.9,0-1.7,0-2.4,0.1c-0.4,0-0.9,0.1-1.4,0.2
		C-84.5-37.6-83.3-38.5-82.4-39z"/>
	<path fill="#576065" d="M64.9-44.1c0-0.1-0.1-0.3-0.2-0.5c-0.6-1.7-1.5-4.4-3.5-7c-2.8-3.6-6.9-5.5-11.4-5.2l-2.1,0.1
		c-6.8,0.3-19.5,1-35.1,1c-10.9,0-21.1-1.4-28.6-2.4c-4.3-0.6-7.7-1-10.1-1.1c-4.5-0.1-8.5,1.9-11.4,5.6c-2,2.6-3,5.4-3.5,6.9
		l-0.1,0.2c-3.6,10.2-4.6,14.3-4.7,14.4c-0.8,3.3,1.2,6.7,4.5,7.5c3.3,0.8,6.7-1.2,7.5-4.5c0,0,1-3.8,4.4-13.3l0.1-0.2
		c0.8-2.3,1.7-4.3,3-4.3c1.8,0,5,0.5,8.7,1c7.8,1.1,18.5,2.5,30.3,2.5c15.9,0,28.8-0.6,35.7-1l2-0.1c0.6,0,1.3-0.1,2.6,3.9
		c0.1,0.2,0.2,0.5,0.2,0.6c3.4,9.5,4.3,13.3,4.4,13.3c0.7,2.8,3.2,4.7,6,4.7c0.5,0,1-0.1,1.5-0.2c3.3-0.8,5.3-4.2,4.5-7.5
		C69.6-29.8,68.6-33.9,64.9-44.1z"/>
	<path fill="#576065" d="M82.1-23c0.7,0,2.1-0.1,4-0.3c4.1-0.3,10.3-0.7,15.1-0.7c3.1,0,4.5,0.2,5,0.3c3.1,0.7,14.7,7.7,21.9,12.4
		c0.7,0.4,1.4,0.6,2.1,0.6c1.1,0,2.1-0.4,2.9-1.3c1.3-1.4,1.3-3.6,0.1-5c-1.6-2-15.7-19.3-23.6-23.5c-3.3-1.7-9-4.1-14.7-6
		c-4.9-1.6-11.6-3.6-15.9-3.6c-6.3,0-6.7,4.3-6.7,5.2c-0.1,4.1,2,16.3,5.8,20.1C79.6-23.3,81-23,82-23C82-23,82.1-23,82.1-23z
		 M92.6-39.1c5.2,1.8,10.6,4,13.5,5.5c1.2,0.6,2.6,1.7,4.2,3.1c-0.9-0.4-1.7-0.6-2.4-0.8c-1.5-0.3-3.7-0.5-6.7-0.5
		c-5.1,0-11.4,0.5-15.6,0.8c-0.8,0.1-1.6,0.1-2.3,0.2c-1.1-2.1-2.5-7.5-3-11.4C83-42,87.5-40.9,92.6-39.1z"/>
	<path fill="#576065" d="M-62.3,14c-1.5-3.1-5.2-4.3-8.3-2.8c0,0-4.1,1.9-8.9-0.2C-84,9.1-90.2,3-93.1-0.8
		c5.4-3.4,18.2-9.2,25.3-9.3c5.6,0,10.4,1.3,13.9,2.5c-1.2,6.2-1.8,14.1-2.1,18c-0.3,4.3-1,18.7,0.5,25.9
		C-53.3,46.5-45,65.4-41.6,71c1.2,1.9,3.2,3,5.3,3c1.1,0,2.2-0.3,3.2-0.9c2.9-1.8,3.9-5.6,2.1-8.5c-2.9-4.8-10.5-22.5-12.3-31
		C-45.2,25.1-43-4-40.7-9.2c0.8-1.8,0.7-3.9-0.4-5.6c-1-1.6-2.6-2.7-4.4-2.9c-0.4-0.1-1.2-0.4-1.8-0.6c-3.9-1.4-11.1-4-20.2-4
		c-0.1,0-0.2,0-0.3,0c-7.2,0-16.2,3.5-21,5.5c-3.7,1.6-12.6,5.7-16.1,10c-2.1,2.6-2.2,5-1.8,6.6c1.3,6.4,13.8,19.2,22.4,22.8
		c10,4.2,18.4,0.3,19.3-0.2C-62,20.8-60.7,17-62.3,14z"/>
	<path fill="#576065" d="M69.5-14c-2,0.2-3.7,1.3-4.8,3c-1,1.7-1.2,3.8-0.4,5.6c2.4,5.4,3.8,24.1,1.9,35c-1.6,9.1-11.9,26-15.9,32.4
		c-0.6,0.9-1,1.7-1.4,2.3c-1.8,2.9-0.8,6.7,2.1,8.5c1,0.6,2.1,0.9,3.2,0.9c2.1,0,4.1-1.1,5.3-3c0.3-0.6,0.8-1.3,1.3-2.1
		C68.6,56,76.7,41.9,78.4,31.8c1.7-9.8,1.3-24.7-0.7-34.7c4.2-0.8,9.5-1.6,13-1.2c1.9,0.2,6.7,1.9,12.3,4.8c4.3,2.2,7.2,4.1,8.8,5.4
		c-0.8,1.2-2,2.7-3.6,4.3c-3.1,3.1-5.5,4.1-6.3,4.2c-3.6,0.4-9.9-1.6-13-3c-3.1-1.4-6.8,0-8.2,3.1c-1.4,3.1,0,6.8,3.1,8.2
		c1.1,0.5,11.3,4.9,19.5,4c5.7-0.6,10.8-4.8,14.1-8.2c1.5-1.6,6.6-7,7.6-11.9c0.3-1.6,0.3-4-1.7-6.7c-2.9-3.9-9.5-7.8-14.6-10.4
		c-2.5-1.3-11.1-5.5-16.7-6c-6.3-0.7-14.9,1-20,2C71.1-14.2,69.9-14,69.5-14z"/>
	<path fill="#576065" d="M-34.1,100c4.6,7,10.3,10.7,13,12.3c1.1,1.3,3.1,3.3,6.1,5.2c6,3.8,13.6,5.8,22.1,5.8h4.2
		c8.5,0,16.1-2,22.1-5.8c3-1.9,5-3.9,6.1-5.2c2.7-1.5,8.4-5.3,13-12.3c6.3-9.6-1.5-23.8-5.7-31.4c-0.5-0.9-1-1.9-1.2-2.2
		c-1.4-3.1-5.1-4.5-8.2-3.1c-3.1,1.4-4.5,5.1-3.1,8.2c0.4,0.8,0.9,1.8,1.7,3.2c1.6,2.9,4,7.2,5.4,11.4c1.9,5.4,0.9,7.1,0.8,7.3
		c-3.8,5.8-8.8,8.4-9.2,8.5c-0.8,0.3-1.4,0.8-2,1.4c-7.5-3.5-17.2-4.2-21.6-4.3c-7.4-0.2-16.8,0.7-22.7,3.6
		c-0.4-0.3-0.8-0.5-1.3-0.7c0,0-5.2-2.5-9.2-8.5c-0.1-0.2-1-1.8,0.8-7.3c1.4-4.2,3.8-8.5,5.4-11.4c0.8-1.4,1.3-2.3,1.7-3.2
		c1.4-3.1,0-6.8-3.1-8.2c-3.1-1.4-6.8,0-8.2,3.1c-0.2,0.3-0.7,1.4-1.2,2.2C-32.6,76.2-40.4,90.4-34.1,100z M23.6,108.7
		c-3,1.2-7,2.2-12.2,2.2H7.1c-6.1,0-10.4-1.3-13.4-2.7C1.3,106.1,14.4,106,23.6,108.7z"/>
	<path fill="#576065" d="M-9,81.3c1.3,0.6,2.3,1.2,2.3,5.4c0,2.1,1.7,3.9,3.9,3.9s3.9-1.7,3.9-3.9c0-7.9-3.3-10.7-6.6-12.3
		c-0.2-0.1-0.4-0.2-0.5-0.2c-1.8-1.2-4.2-0.7-5.4,1.1c-1.2,1.8-0.7,4.2,1.1,5.4C-9.8,80.9-9.4,81.1-9,81.3z"/>
	<path fill="#576065" d="M25.3,87.1c0-4.2,1.1-4.8,2.3-5.4c0.4-0.2,0.8-0.4,1.2-0.7c1.8-1.2,2.3-3.6,1.1-5.4
		c-1.2-1.8-3.6-2.3-5.4-1.1c-0.1,0-0.3,0.2-0.5,0.2c-3.2,1.7-6.6,4.4-6.6,12.3c0,2.1,1.7,3.9,3.9,3.9C23.6,91,25.3,89.2,25.3,87.1z"
		/>
	<path fill="#576065" d="M-23.5,16.7c-0.2-2-0.8-5.1-1.5-7.1c-1.5-3.9-4.6-5.3-7-5.3c-0.8,0-1.5,0.1-2.2,0.4c-1.7,0.7-3,2.2-3.6,4.3
		c-0.4,1.3-0.6,3.4,0.4,6c0.7,1.9,2.3,4.3,3.5,5.9c2.5,3.3,4.2,4.6,6.3,4.6c0.5,0,1-0.1,1.5-0.3C-22.7,23.8-23.3,19.2-23.5,16.7z"/>
	<path fill="#576065" d="M49.2,25.9c0.5,0.2,1,0.3,1.5,0.3l0,0c2,0,3.8-1.3,6.3-4.6c1.2-1.6,2.8-4,3.5-5.9c1-2.5,0.7-4.6,0.4-6
		c-0.6-2.1-1.9-3.6-3.6-4.3C56.6,5.1,55.8,5,55.1,5c-2.4,0-5.5,1.4-7,5.3c-0.8,2-1.3,5-1.5,7.1C46.2,19.9,45.7,24.5,49.2,25.9z"/>
	<path fill="#576065" d="M138.1-129.5h-240.2c-14.7,0-26.8,11.7-27.4,26.3c0,0.4,0,0.7,0,1.1v11.4c3.4,0.5,7.5,1.1,12.4,1.8
		c9.4,1.4,21.2,3.3,34.1,5.6c40.3,7.1,72.7,14.9,93.6,22.6c0.7,0.3,1.4,0.4,2.1,0.4c2.5,0,4.9-1.6,5.8-4.1c1.2-3.2-0.5-6.8-3.7-7.9
		c-38.4-14-100.4-24.4-131.9-29.1v-0.7c0-8.3,6.7-15,15-15h240.2c8.3,0,15,6.7,15,15v240.2c0,8.3-6.7,15-15,15H-37.8
		c5.6-8.6,10.9-19.1,13-30c0.7-3.4-1.5-6.6-4.9-7.3c-3.4-0.7-6.6,1.5-7.3,4.9c-2.4,12-9.7,23.9-16,32.4
		c-5.5,7.4-10.3,12.2-10.4,12.3c0,0,0,0,0,0h16.5h184.9c15.1,0,27.4-12.3,27.4-27.4v-240.2C165.5-117.2,153.2-129.5,138.1-129.5z"/>
</g>
</svg>
