<?xml version="1.0" encoding="utf-8"?>
<!-- Generator: Adobe Illustrator 16.0.0, SVG Export Plug-In . SVG Version: 6.00 Build 0)  -->
<!DOCTYPE svg PUBLIC "-//W3C//DTD SVG 1.1//EN" "http://www.w3.org/Graphics/SVG/1.1/DTD/svg11.dtd">
<svg version="1.1" id="Capa_1" xmlns="http://www.w3.org/2000/svg" xmlns:xlink="http://www.w3.org/1999/xlink" x="0px" y="0px"
	 width="283.465px" height="53.369px" viewBox="0 0 283.465 53.369" enable-background="new 0 0 283.465 53.369"
	 xml:space="preserve">
<g>
	<defs>
		<rect id="SVGID_1_" width="283.465" height="53.369"/>
	</defs>
	<clipPath id="SVGID_2_">
		<use xlink:href="#SVGID_1_"  overflow="visible"/>
	</clipPath>
	<path clip-path="url(#SVGID_2_)" fill="#FFFFFF" d="M0,22.991C0,7.596,11.495,0.003,22.99,0.003
		c11.494,0,22.989,7.593,22.989,22.988v29.353H31.815V23.196c0-6.158-4.207-8.826-8.825-8.826c-4.516,0-8.827,2.668-8.827,8.826
		v29.148H0V22.991z"/>
	<path clip-path="url(#SVGID_2_)" fill="#FFFFFF" d="M103.145,32.845H68.353c2.566,5.026,8.62,7.492,15.395,7.492
		c5.337,0,11.186-1.539,16.113-4.414l1.949,13.136c-5.849,2.875-11.391,4.311-19.601,4.311c-16.524,0-30.072-9.44-30.072-26.478
		c0-15.6,9.955-26.889,25.555-26.889c14.985,0,25.453,10.365,25.453,25.144V32.845z M87.441,21.042c0-4.926-3.694-8.006-9.646-8.006
		c-4.825,0-8.519,2.668-10.059,8.006H87.441z"/>
	<path clip-path="url(#SVGID_2_)" fill="#FFFFFF" d="M108.275,26.79c0-14.779,11.905-26.787,26.684-26.787
		s26.684,12.008,26.684,26.787c0,14.777-11.905,26.58-26.684,26.58S108.275,41.566,108.275,26.79 M147.686,26.79
		c0-6.98-5.747-12.727-12.726-12.727s-12.726,5.747-12.726,12.727c0,6.979,5.747,12.725,12.726,12.725S147.686,33.769,147.686,26.79
		"/>
	<polygon clip-path="url(#SVGID_2_)" fill="#009BD9" points="159.079,1.028 175.191,1.028 186.07,24.12 196.847,1.028 212.96,1.028 
		186.07,53.369 	"/>
	<path clip-path="url(#SVGID_2_)" fill="#009BD9" d="M216.858,7.596c0-4.207,3.489-7.697,7.8-7.594c4.311-0.103,7.8,3.387,7.8,7.594
		c0,4.209-3.489,7.697-7.8,7.596C220.348,15.293,216.858,11.805,216.858,7.596 M217.577,18.989h14.162v33.354h-14.162V18.989z"/>
	<path clip-path="url(#SVGID_2_)" fill="#009BD9" d="M237.897,37.771c0-10.775,10.673-16.935,23.604-16.935
		c2.463,0,5.131,0.205,7.8,0.719v-2.258c0-4.209-4.516-6.158-10.161-6.158c-4.823,0-10.57,1.436-14.778,4.106l-2.771-13.036
		c6.466-2.771,13.138-4.207,19.192-4.207c12.726,0,22.682,6.26,22.682,19.295v33.047h-14.163v-6.157
		c-2.053,3.284-7.902,7.183-15.703,7.183C244.157,53.369,237.897,46.7,237.897,37.771 M262.836,30.893
		c-6.363,0-10.776,2.156-10.776,6.363c0,2.772,2.155,3.901,4.927,3.901c5.131,0,11.495-4.825,12.315-9.75
		C267.454,31.098,264.581,30.893,262.836,30.893"/>
</g>
</svg>
